M48
; DRILL file {KiCad (5.1.0)-1} date 07/03/2020 12:32:14
; FORMAT={-:-/ absolute / metric / decimal}
; #@! TF.CreationDate,2020-03-07T12:32:14+01:00
; #@! TF.GenerationSoftware,Kicad,Pcbnew,(5.1.0)-1
; #@! TF.FileFunction,Plated,1,2,PTH
FMAT,2
METRIC
T1C3.200
T2C6.300
%
G90
G05
T2
X-20.0Y-85.0
X-40.0Y-105.0
X-20.0Y-115.0
X-20.0Y-125.0
X-20.0Y-65.0
X-40.0Y-125.0
X-20.0Y-135.0
X-40.0Y-145.0
X-40.0Y-95.0
X-40.0Y-135.0
X-40.0Y-65.0
X-20.0Y-145.0
X-40.0Y-85.0
X-40.0Y-115.0
T1
G00X-45.0Y-161.0
M15
G01X-42.0Y-161.0
M16
G05
G00X-18.0Y-161.0
M15
G01X-15.0Y-161.0
M16
G05
G00X-18.0Y-39.0
M15
G01X-15.0Y-39.0
M16
G05
G00X-45.0Y-39.0
M15
G01X-42.0Y-39.0
M16
G05
T0
M30
