%TF.GenerationSoftware,KiCad,Pcbnew,(5.1.0)-1*%
%TF.CreationDate,2020-03-07T12:32:11+01:00*%
%TF.ProjectId,KicadJE_AC3340_RevA_Faceplate,4b696361-644a-4455-9f41-43333334305f,rev?*%
%TF.SameCoordinates,Original*%
%TF.FileFunction,Legend,Top*%
%TF.FilePolarity,Positive*%
%FSLAX46Y46*%
G04 Gerber Fmt 4.6, Leading zero omitted, Abs format (unit mm)*
G04 Created by KiCad (PCBNEW (5.1.0)-1) date 2020-03-07 12:32:11*
%MOMM*%
%LPD*%
G04 APERTURE LIST*
%ADD10C,0.120000*%
%ADD11C,0.500000*%
%ADD12C,0.050000*%
%ADD13C,1.000000*%
%ADD14C,0.010000*%
%ADD15C,0.150000*%
G04 APERTURE END LIST*
D10*
X-20000000Y-115000000D02*
X-20000000Y-151000000D01*
X-40000000Y-151000000D02*
X-40000000Y-85000000D01*
D11*
X-40904761Y-154357142D02*
X-40904761Y-152357142D01*
X-40904761Y-151357142D02*
X-41000000Y-151500000D01*
X-40904761Y-151642857D01*
X-40809523Y-151500000D01*
X-40904761Y-151357142D01*
X-40904761Y-151642857D01*
X-39952380Y-152357142D02*
X-39952380Y-154357142D01*
X-39952380Y-152642857D02*
X-39857142Y-152500000D01*
X-39666666Y-152357142D01*
X-39380952Y-152357142D01*
X-39190476Y-152500000D01*
X-39095238Y-152785714D01*
X-39095238Y-154357142D01*
X-21619047Y-154357142D02*
X-21809523Y-154214285D01*
X-21904761Y-154071428D01*
X-22000000Y-153785714D01*
X-22000000Y-152928571D01*
X-21904761Y-152642857D01*
X-21809523Y-152500000D01*
X-21619047Y-152357142D01*
X-21333333Y-152357142D01*
X-21142857Y-152500000D01*
X-21047619Y-152642857D01*
X-20952380Y-152928571D01*
X-20952380Y-153785714D01*
X-21047619Y-154071428D01*
X-21142857Y-154214285D01*
X-21333333Y-154357142D01*
X-21619047Y-154357142D01*
X-19238095Y-152357142D02*
X-19238095Y-154357142D01*
X-20095238Y-152357142D02*
X-20095238Y-153928571D01*
X-20000000Y-154214285D01*
X-19809523Y-154357142D01*
X-19523809Y-154357142D01*
X-19333333Y-154214285D01*
X-19238095Y-154071428D01*
X-18571428Y-152357142D02*
X-17809523Y-152357142D01*
X-18285714Y-151357142D02*
X-18285714Y-153928571D01*
X-18190476Y-154214285D01*
X-18000000Y-154357142D01*
X-17809523Y-154357142D01*
D10*
X-20000000Y-115000000D02*
X-13500000Y-115000000D01*
X-13500000Y-115000000D02*
X-13500000Y-112000000D01*
X-20000000Y-125000000D02*
X-13500000Y-125000000D01*
X-13500000Y-125000000D02*
X-13500000Y-122000000D01*
X-20000000Y-135000000D02*
X-13500000Y-135000000D01*
X-13500000Y-135000000D02*
X-13500000Y-132000000D01*
X-13500000Y-145000000D02*
X-13500000Y-142000000D01*
X-20000000Y-145000000D02*
X-13500000Y-145000000D01*
X-47000000Y-145000000D02*
X-47000000Y-142000000D01*
X-40000000Y-145000000D02*
X-47000000Y-145000000D01*
X-47000000Y-135000000D02*
X-47000000Y-132000000D01*
X-40000000Y-135000000D02*
X-47000000Y-135000000D01*
X-47000000Y-125000000D02*
X-47000000Y-122000000D01*
X-40000000Y-125000000D02*
X-47000000Y-125000000D01*
X-40000000Y-115000000D02*
X-47000000Y-115000000D01*
X-47000000Y-115000000D02*
X-47000000Y-112000000D01*
X-40000000Y-105000000D02*
X-47000000Y-105000000D01*
X-47000000Y-105000000D02*
X-47000000Y-102000000D01*
X-47000000Y-95000000D02*
X-47000000Y-92000000D01*
X-40000000Y-95000000D02*
X-47000000Y-95000000D01*
X-47000000Y-85000000D02*
X-47000000Y-82000000D01*
X-40000000Y-85000000D02*
X-47000000Y-85000000D01*
D11*
X-49609523Y-121357142D02*
X-49609523Y-118357142D01*
X-48847619Y-118357142D01*
X-48657142Y-118500000D01*
X-48561904Y-118642857D01*
X-48466666Y-118928571D01*
X-48466666Y-119357142D01*
X-48561904Y-119642857D01*
X-48657142Y-119785714D01*
X-48847619Y-119928571D01*
X-49609523Y-119928571D01*
X-47800000Y-118357142D02*
X-47323809Y-121357142D01*
X-46942857Y-119214285D01*
X-46561904Y-121357142D01*
X-46085714Y-118357142D01*
X-45323809Y-121357142D02*
X-45323809Y-118357142D01*
X-44657142Y-120500000D01*
X-43990476Y-118357142D01*
X-43990476Y-121357142D01*
X-48023809Y-131214285D02*
X-47738095Y-131357142D01*
X-47261904Y-131357142D01*
X-47071428Y-131214285D01*
X-46976190Y-131071428D01*
X-46880952Y-130785714D01*
X-46880952Y-130500000D01*
X-46976190Y-130214285D01*
X-47071428Y-130071428D01*
X-47261904Y-129928571D01*
X-47642857Y-129785714D01*
X-47833333Y-129642857D01*
X-47928571Y-129500000D01*
X-48023809Y-129214285D01*
X-48023809Y-128928571D01*
X-47928571Y-128642857D01*
X-47833333Y-128500000D01*
X-47642857Y-128357142D01*
X-47166666Y-128357142D01*
X-46880952Y-128500000D01*
X-46119047Y-131214285D02*
X-45833333Y-131357142D01*
X-45357142Y-131357142D01*
X-45166666Y-131214285D01*
X-45071428Y-131071428D01*
X-44976190Y-130785714D01*
X-44976190Y-130500000D01*
X-45071428Y-130214285D01*
X-45166666Y-130071428D01*
X-45357142Y-129928571D01*
X-45738095Y-129785714D01*
X-45928571Y-129642857D01*
X-46023809Y-129500000D01*
X-46119047Y-129214285D01*
X-46119047Y-128928571D01*
X-46023809Y-128642857D01*
X-45928571Y-128500000D01*
X-45738095Y-128357142D01*
X-45261904Y-128357142D01*
X-44976190Y-128500000D01*
X-48523809Y-141357142D02*
X-48523809Y-138357142D01*
X-48523809Y-139785714D02*
X-47380952Y-139785714D01*
X-47380952Y-141357142D02*
X-47380952Y-138357142D01*
X-46523809Y-141214285D02*
X-46238095Y-141357142D01*
X-45761904Y-141357142D01*
X-45571428Y-141214285D01*
X-45476190Y-141071428D01*
X-45380952Y-140785714D01*
X-45380952Y-140500000D01*
X-45476190Y-140214285D01*
X-45571428Y-140071428D01*
X-45761904Y-139928571D01*
X-46142857Y-139785714D01*
X-46333333Y-139642857D01*
X-46428571Y-139500000D01*
X-46523809Y-139214285D01*
X-46523809Y-138928571D01*
X-46428571Y-138642857D01*
X-46333333Y-138500000D01*
X-46142857Y-138357142D01*
X-45666666Y-138357142D01*
X-45380952Y-138500000D01*
X-49419047Y-81357142D02*
X-49419047Y-78357142D01*
X-48466666Y-79357142D02*
X-48466666Y-81357142D01*
X-48466666Y-79642857D02*
X-48371428Y-79500000D01*
X-48180952Y-79357142D01*
X-47895238Y-79357142D01*
X-47704761Y-79500000D01*
X-47609523Y-79785714D01*
X-47609523Y-81357142D01*
X-44085714Y-81357142D02*
X-45228571Y-81357142D01*
X-44657142Y-81357142D02*
X-44657142Y-78357142D01*
X-44847619Y-78785714D01*
X-45038095Y-79071428D01*
X-45228571Y-79214285D01*
X-49419047Y-91357142D02*
X-49419047Y-88357142D01*
X-48466666Y-89357142D02*
X-48466666Y-91357142D01*
X-48466666Y-89642857D02*
X-48371428Y-89500000D01*
X-48180952Y-89357142D01*
X-47895238Y-89357142D01*
X-47704761Y-89500000D01*
X-47609523Y-89785714D01*
X-47609523Y-91357142D01*
X-45228571Y-88642857D02*
X-45133333Y-88500000D01*
X-44942857Y-88357142D01*
X-44466666Y-88357142D01*
X-44276190Y-88500000D01*
X-44180952Y-88642857D01*
X-44085714Y-88928571D01*
X-44085714Y-89214285D01*
X-44180952Y-89642857D01*
X-45323809Y-91357142D01*
X-44085714Y-91357142D01*
X-49419047Y-101357142D02*
X-49419047Y-98357142D01*
X-48466666Y-99357142D02*
X-48466666Y-101357142D01*
X-48466666Y-99642857D02*
X-48371428Y-99500000D01*
X-48180952Y-99357142D01*
X-47895238Y-99357142D01*
X-47704761Y-99500000D01*
X-47609523Y-99785714D01*
X-47609523Y-101357142D01*
X-45323809Y-98357142D02*
X-44085714Y-98357142D01*
X-44752380Y-99500000D01*
X-44466666Y-99500000D01*
X-44276190Y-99642857D01*
X-44180952Y-99785714D01*
X-44085714Y-100071428D01*
X-44085714Y-100785714D01*
X-44180952Y-101071428D01*
X-44276190Y-101214285D01*
X-44466666Y-101357142D01*
X-45038095Y-101357142D01*
X-45228571Y-101214285D01*
X-45323809Y-101071428D01*
X-47857142Y-109785714D02*
X-48523809Y-109785714D01*
X-48523809Y-111357142D02*
X-48523809Y-108357142D01*
X-47571428Y-108357142D01*
X-46809523Y-111357142D02*
X-46809523Y-108357142D01*
X-46142857Y-110500000D01*
X-45476190Y-108357142D01*
X-45476190Y-111357142D01*
X-16309523Y-141214285D02*
X-16023809Y-141357142D01*
X-15547619Y-141357142D01*
X-15357142Y-141214285D01*
X-15261904Y-141071428D01*
X-15166666Y-140785714D01*
X-15166666Y-140500000D01*
X-15261904Y-140214285D01*
X-15357142Y-140071428D01*
X-15547619Y-139928571D01*
X-15928571Y-139785714D01*
X-16119047Y-139642857D01*
X-16214285Y-139500000D01*
X-16309523Y-139214285D01*
X-16309523Y-138928571D01*
X-16214285Y-138642857D01*
X-16119047Y-138500000D01*
X-15928571Y-138357142D01*
X-15452380Y-138357142D01*
X-15166666Y-138500000D01*
X-14309523Y-141357142D02*
X-14309523Y-139357142D01*
X-14309523Y-138357142D02*
X-14404761Y-138500000D01*
X-14309523Y-138642857D01*
X-14214285Y-138500000D01*
X-14309523Y-138357142D01*
X-14309523Y-138642857D01*
X-13357142Y-139357142D02*
X-13357142Y-141357142D01*
X-13357142Y-139642857D02*
X-13261904Y-139500000D01*
X-13071428Y-139357142D01*
X-12785714Y-139357142D01*
X-12595238Y-139500000D01*
X-12500000Y-139785714D01*
X-12500000Y-141357142D01*
X-10785714Y-141214285D02*
X-10976190Y-141357142D01*
X-11357142Y-141357142D01*
X-11547619Y-141214285D01*
X-11642857Y-140928571D01*
X-11642857Y-139785714D01*
X-11547619Y-139500000D01*
X-11357142Y-139357142D01*
X-10976190Y-139357142D01*
X-10785714Y-139500000D01*
X-10690476Y-139785714D01*
X-10690476Y-140071428D01*
X-11642857Y-140357142D01*
X-16023809Y-131214285D02*
X-15738095Y-131357142D01*
X-15261904Y-131357142D01*
X-15071428Y-131214285D01*
X-14976190Y-131071428D01*
X-14880952Y-130785714D01*
X-14880952Y-130500000D01*
X-14976190Y-130214285D01*
X-15071428Y-130071428D01*
X-15261904Y-129928571D01*
X-15642857Y-129785714D01*
X-15833333Y-129642857D01*
X-15928571Y-129500000D01*
X-16023809Y-129214285D01*
X-16023809Y-128928571D01*
X-15928571Y-128642857D01*
X-15833333Y-128500000D01*
X-15642857Y-128357142D01*
X-15166666Y-128357142D01*
X-14880952Y-128500000D01*
X-13166666Y-131357142D02*
X-13166666Y-129785714D01*
X-13261904Y-129500000D01*
X-13452380Y-129357142D01*
X-13833333Y-129357142D01*
X-14023809Y-129500000D01*
X-13166666Y-131214285D02*
X-13357142Y-131357142D01*
X-13833333Y-131357142D01*
X-14023809Y-131214285D01*
X-14119047Y-130928571D01*
X-14119047Y-130642857D01*
X-14023809Y-130357142D01*
X-13833333Y-130214285D01*
X-13357142Y-130214285D01*
X-13166666Y-130071428D01*
X-12404761Y-129357142D02*
X-12023809Y-131357142D01*
X-11642857Y-129928571D01*
X-11261904Y-131357142D01*
X-10880952Y-129357142D01*
X-15166666Y-118357142D02*
X-14023809Y-118357142D01*
X-14595238Y-121357142D02*
X-14595238Y-118357142D01*
X-13357142Y-121357142D02*
X-13357142Y-119357142D01*
X-13357142Y-119928571D02*
X-13261904Y-119642857D01*
X-13166666Y-119500000D01*
X-12976190Y-119357142D01*
X-12785714Y-119357142D01*
X-12119047Y-121357142D02*
X-12119047Y-119357142D01*
X-12119047Y-118357142D02*
X-12214285Y-118500000D01*
X-12119047Y-118642857D01*
X-12023809Y-118500000D01*
X-12119047Y-118357142D01*
X-12119047Y-118642857D01*
X-15119047Y-111214285D02*
X-14833333Y-111357142D01*
X-14357142Y-111357142D01*
X-14166666Y-111214285D01*
X-14071428Y-111071428D01*
X-13976190Y-110785714D01*
X-13976190Y-110500000D01*
X-14071428Y-110214285D01*
X-14166666Y-110071428D01*
X-14357142Y-109928571D01*
X-14738095Y-109785714D01*
X-14928571Y-109642857D01*
X-15023809Y-109500000D01*
X-15119047Y-109214285D01*
X-15119047Y-108928571D01*
X-15023809Y-108642857D01*
X-14928571Y-108500000D01*
X-14738095Y-108357142D01*
X-14261904Y-108357142D01*
X-13976190Y-108500000D01*
X-11785714Y-111642857D02*
X-11976190Y-111500000D01*
X-12166666Y-111214285D01*
X-12452380Y-110785714D01*
X-12642857Y-110642857D01*
X-12833333Y-110642857D01*
X-12738095Y-111357142D02*
X-12928571Y-111214285D01*
X-13119047Y-110928571D01*
X-13214285Y-110357142D01*
X-13214285Y-109357142D01*
X-13119047Y-108785714D01*
X-12928571Y-108500000D01*
X-12738095Y-108357142D01*
X-12357142Y-108357142D01*
X-12166666Y-108500000D01*
X-11976190Y-108785714D01*
X-11880952Y-109357142D01*
X-11880952Y-110357142D01*
X-11976190Y-110928571D01*
X-12166666Y-111214285D01*
X-12357142Y-111357142D01*
X-12738095Y-111357142D01*
X-15452380Y-77357142D02*
X-15071428Y-77357142D01*
X-14880952Y-77500000D01*
X-14690476Y-77785714D01*
X-14595238Y-78357142D01*
X-14595238Y-79357142D01*
X-14690476Y-79928571D01*
X-14880952Y-80214285D01*
X-15071428Y-80357142D01*
X-15452380Y-80357142D01*
X-15642857Y-80214285D01*
X-15833333Y-79928571D01*
X-15928571Y-79357142D01*
X-15928571Y-78357142D01*
X-15833333Y-77785714D01*
X-15642857Y-77500000D01*
X-15452380Y-77357142D01*
X-12595238Y-80071428D02*
X-12690476Y-80214285D01*
X-12976190Y-80357142D01*
X-13166666Y-80357142D01*
X-13452380Y-80214285D01*
X-13642857Y-79928571D01*
X-13738095Y-79642857D01*
X-13833333Y-79071428D01*
X-13833333Y-78642857D01*
X-13738095Y-78071428D01*
X-13642857Y-77785714D01*
X-13452380Y-77500000D01*
X-13166666Y-77357142D01*
X-12976190Y-77357142D01*
X-12690476Y-77500000D01*
X-12595238Y-77642857D01*
X-12023809Y-77357142D02*
X-10880952Y-77357142D01*
X-11452380Y-80357142D02*
X-11452380Y-77357142D01*
X-15452380Y-55785714D02*
X-16119047Y-55785714D01*
X-16119047Y-57357142D02*
X-16119047Y-54357142D01*
X-15166666Y-54357142D01*
X-14404761Y-57357142D02*
X-14404761Y-55357142D01*
X-14404761Y-54357142D02*
X-14500000Y-54500000D01*
X-14404761Y-54642857D01*
X-14309523Y-54500000D01*
X-14404761Y-54357142D01*
X-14404761Y-54642857D01*
X-13452380Y-55357142D02*
X-13452380Y-57357142D01*
X-13452380Y-55642857D02*
X-13357142Y-55500000D01*
X-13166666Y-55357142D01*
X-12880952Y-55357142D01*
X-12690476Y-55500000D01*
X-12595238Y-55785714D01*
X-12595238Y-57357142D01*
X-10880952Y-57214285D02*
X-11071428Y-57357142D01*
X-11452380Y-57357142D01*
X-11642857Y-57214285D01*
X-11738095Y-56928571D01*
X-11738095Y-55785714D01*
X-11642857Y-55500000D01*
X-11452380Y-55357142D01*
X-11071428Y-55357142D01*
X-10880952Y-55500000D01*
X-10785714Y-55785714D01*
X-10785714Y-56071428D01*
X-11738095Y-56357142D01*
D12*
X-50000000Y-164000000D02*
X-50000000Y-36000000D01*
X-10000000Y-164000000D02*
X-50000000Y-164000000D01*
X-10000000Y-36000000D02*
X-10000000Y-164000000D01*
X-50000000Y-36000000D02*
X-10000000Y-36000000D01*
D13*
X-37047619Y-37214285D02*
X-34571428Y-37214285D01*
X-35904761Y-39500000D01*
X-35333333Y-39500000D01*
X-34952380Y-39785714D01*
X-34761904Y-40071428D01*
X-34571428Y-40642857D01*
X-34571428Y-42071428D01*
X-34761904Y-42642857D01*
X-34952380Y-42928571D01*
X-35333333Y-43214285D01*
X-36476190Y-43214285D01*
X-36857142Y-42928571D01*
X-37047619Y-42642857D01*
X-33238095Y-37214285D02*
X-30761904Y-37214285D01*
X-32095238Y-39500000D01*
X-31523809Y-39500000D01*
X-31142857Y-39785714D01*
X-30952380Y-40071428D01*
X-30761904Y-40642857D01*
X-30761904Y-42071428D01*
X-30952380Y-42642857D01*
X-31142857Y-42928571D01*
X-31523809Y-43214285D01*
X-32666666Y-43214285D01*
X-33047619Y-42928571D01*
X-33238095Y-42642857D01*
X-27333333Y-39214285D02*
X-27333333Y-43214285D01*
X-28285714Y-36928571D02*
X-29238095Y-41214285D01*
X-26761904Y-41214285D01*
X-24476190Y-37214285D02*
X-24095238Y-37214285D01*
X-23714285Y-37500000D01*
X-23523809Y-37785714D01*
X-23333333Y-38357142D01*
X-23142857Y-39500000D01*
X-23142857Y-40928571D01*
X-23333333Y-42071428D01*
X-23523809Y-42642857D01*
X-23714285Y-42928571D01*
X-24095238Y-43214285D01*
X-24476190Y-43214285D01*
X-24857142Y-42928571D01*
X-25047619Y-42642857D01*
X-25238095Y-42071428D01*
X-25428571Y-40928571D01*
X-25428571Y-39500000D01*
X-25238095Y-38357142D01*
X-25047619Y-37785714D01*
X-24857142Y-37500000D01*
X-24476190Y-37214285D01*
D11*
X-49309523Y-57357142D02*
X-49309523Y-54357142D01*
X-48547619Y-54357142D01*
X-48357142Y-54500000D01*
X-48261904Y-54642857D01*
X-48166666Y-54928571D01*
X-48166666Y-55357142D01*
X-48261904Y-55642857D01*
X-48357142Y-55785714D01*
X-48547619Y-55928571D01*
X-49309523Y-55928571D01*
X-47500000Y-54357142D02*
X-47023809Y-57357142D01*
X-46642857Y-55214285D01*
X-46261904Y-57357142D01*
X-45785714Y-54357142D01*
X-45023809Y-57357142D02*
X-45023809Y-54357142D01*
X-44357142Y-56500000D01*
X-43690476Y-54357142D01*
X-43690476Y-57357142D01*
D14*
G36*
X-24208800Y-158899800D02*
G01*
X-24323100Y-158899800D01*
X-24323100Y-158772800D01*
X-24208800Y-158772800D01*
X-24208800Y-158899800D01*
X-24208800Y-158899800D01*
G37*
X-24208800Y-158899800D02*
X-24323100Y-158899800D01*
X-24323100Y-158772800D01*
X-24208800Y-158772800D01*
X-24208800Y-158899800D01*
G36*
X-27256800Y-158899800D02*
G01*
X-27371100Y-158899800D01*
X-27371100Y-158772800D01*
X-27256800Y-158772800D01*
X-27256800Y-158899800D01*
X-27256800Y-158899800D01*
G37*
X-27256800Y-158899800D02*
X-27371100Y-158899800D01*
X-27371100Y-158772800D01*
X-27256800Y-158772800D01*
X-27256800Y-158899800D01*
G36*
X-23561886Y-158942318D02*
G01*
X-23526805Y-158959123D01*
X-23507326Y-158974926D01*
X-23465850Y-159011953D01*
X-23461761Y-159203526D01*
X-23457671Y-159395100D01*
X-23561100Y-159395100D01*
X-23561100Y-159230907D01*
X-23561686Y-159159817D01*
X-23563747Y-159109877D01*
X-23567742Y-159076854D01*
X-23574130Y-159056520D01*
X-23581058Y-159046757D01*
X-23614713Y-159028974D01*
X-23654440Y-159030874D01*
X-23693498Y-159050204D01*
X-23725149Y-159084714D01*
X-23731938Y-159097154D01*
X-23743073Y-159133806D01*
X-23749495Y-159188629D01*
X-23751600Y-159265050D01*
X-23751600Y-159395100D01*
X-23853200Y-159395100D01*
X-23853200Y-158950600D01*
X-23802400Y-158950600D01*
X-23769808Y-158952142D01*
X-23755319Y-158960281D01*
X-23751670Y-158980282D01*
X-23751600Y-158987430D01*
X-23751600Y-159024260D01*
X-23708420Y-158981080D01*
X-23676232Y-158953238D01*
X-23645685Y-158940684D01*
X-23607021Y-158937900D01*
X-23561886Y-158942318D01*
X-23561886Y-158942318D01*
G37*
X-23561886Y-158942318D02*
X-23526805Y-158959123D01*
X-23507326Y-158974926D01*
X-23465850Y-159011953D01*
X-23461761Y-159203526D01*
X-23457671Y-159395100D01*
X-23561100Y-159395100D01*
X-23561100Y-159230907D01*
X-23561686Y-159159817D01*
X-23563747Y-159109877D01*
X-23567742Y-159076854D01*
X-23574130Y-159056520D01*
X-23581058Y-159046757D01*
X-23614713Y-159028974D01*
X-23654440Y-159030874D01*
X-23693498Y-159050204D01*
X-23725149Y-159084714D01*
X-23731938Y-159097154D01*
X-23743073Y-159133806D01*
X-23749495Y-159188629D01*
X-23751600Y-159265050D01*
X-23751600Y-159395100D01*
X-23853200Y-159395100D01*
X-23853200Y-158950600D01*
X-23802400Y-158950600D01*
X-23769808Y-158952142D01*
X-23755319Y-158960281D01*
X-23751670Y-158980282D01*
X-23751600Y-158987430D01*
X-23751600Y-159024260D01*
X-23708420Y-158981080D01*
X-23676232Y-158953238D01*
X-23645685Y-158940684D01*
X-23607021Y-158937900D01*
X-23561886Y-158942318D01*
G36*
X-24208800Y-159306200D02*
G01*
X-24158000Y-159306200D01*
X-24125475Y-159307545D01*
X-24111021Y-159315854D01*
X-24107314Y-159337533D01*
X-24107200Y-159350650D01*
X-24107200Y-159395100D01*
X-24412000Y-159395100D01*
X-24412000Y-159350650D01*
X-24410035Y-159320858D01*
X-24398943Y-159308640D01*
X-24370934Y-159306205D01*
X-24367550Y-159306200D01*
X-24323100Y-159306200D01*
X-24323100Y-159039500D01*
X-24367550Y-159039500D01*
X-24397342Y-159037534D01*
X-24409560Y-159026442D01*
X-24411995Y-158998433D01*
X-24412000Y-158995050D01*
X-24412000Y-158950600D01*
X-24208800Y-158950600D01*
X-24208800Y-159306200D01*
X-24208800Y-159306200D01*
G37*
X-24208800Y-159306200D02*
X-24158000Y-159306200D01*
X-24125475Y-159307545D01*
X-24111021Y-159315854D01*
X-24107314Y-159337533D01*
X-24107200Y-159350650D01*
X-24107200Y-159395100D01*
X-24412000Y-159395100D01*
X-24412000Y-159350650D01*
X-24410035Y-159320858D01*
X-24398943Y-159308640D01*
X-24370934Y-159306205D01*
X-24367550Y-159306200D01*
X-24323100Y-159306200D01*
X-24323100Y-159039500D01*
X-24367550Y-159039500D01*
X-24397342Y-159037534D01*
X-24409560Y-159026442D01*
X-24411995Y-158998433D01*
X-24412000Y-158995050D01*
X-24412000Y-158950600D01*
X-24208800Y-158950600D01*
X-24208800Y-159306200D01*
G36*
X-24666301Y-158940912D02*
G01*
X-24641484Y-158950885D01*
X-24634984Y-158970931D01*
X-24641887Y-158999630D01*
X-24652538Y-159025131D01*
X-24666392Y-159035481D01*
X-24692407Y-159035040D01*
X-24709649Y-159032606D01*
X-24770884Y-159033141D01*
X-24824772Y-159051791D01*
X-24864894Y-159085879D01*
X-24874707Y-159101368D01*
X-24887319Y-159141577D01*
X-24893953Y-159197735D01*
X-24894600Y-159223019D01*
X-24894600Y-159306200D01*
X-24843800Y-159306200D01*
X-24811275Y-159307545D01*
X-24796821Y-159315854D01*
X-24793114Y-159337533D01*
X-24793000Y-159350650D01*
X-24793000Y-159395100D01*
X-25097800Y-159395100D01*
X-25097800Y-159350650D01*
X-25096263Y-159322190D01*
X-25086767Y-159309542D01*
X-25061990Y-159306299D01*
X-25047000Y-159306200D01*
X-24996200Y-159306200D01*
X-24996200Y-159026800D01*
X-25047000Y-159026800D01*
X-25079574Y-159025295D01*
X-25094054Y-159017142D01*
X-25097720Y-158996881D01*
X-25097800Y-158988700D01*
X-25097800Y-158950600D01*
X-24894600Y-158950600D01*
X-24894600Y-159032890D01*
X-24861607Y-158997307D01*
X-24817537Y-158960769D01*
X-24766255Y-158942216D01*
X-24712799Y-158938094D01*
X-24666301Y-158940912D01*
X-24666301Y-158940912D01*
G37*
X-24666301Y-158940912D02*
X-24641484Y-158950885D01*
X-24634984Y-158970931D01*
X-24641887Y-158999630D01*
X-24652538Y-159025131D01*
X-24666392Y-159035481D01*
X-24692407Y-159035040D01*
X-24709649Y-159032606D01*
X-24770884Y-159033141D01*
X-24824772Y-159051791D01*
X-24864894Y-159085879D01*
X-24874707Y-159101368D01*
X-24887319Y-159141577D01*
X-24893953Y-159197735D01*
X-24894600Y-159223019D01*
X-24894600Y-159306200D01*
X-24843800Y-159306200D01*
X-24811275Y-159307545D01*
X-24796821Y-159315854D01*
X-24793114Y-159337533D01*
X-24793000Y-159350650D01*
X-24793000Y-159395100D01*
X-25097800Y-159395100D01*
X-25097800Y-159350650D01*
X-25096263Y-159322190D01*
X-25086767Y-159309542D01*
X-25061990Y-159306299D01*
X-25047000Y-159306200D01*
X-24996200Y-159306200D01*
X-24996200Y-159026800D01*
X-25047000Y-159026800D01*
X-25079574Y-159025295D01*
X-25094054Y-159017142D01*
X-25097720Y-158996881D01*
X-25097800Y-158988700D01*
X-25097800Y-158950600D01*
X-24894600Y-158950600D01*
X-24894600Y-159032890D01*
X-24861607Y-158997307D01*
X-24817537Y-158960769D01*
X-24766255Y-158942216D01*
X-24712799Y-158938094D01*
X-24666301Y-158940912D01*
G36*
X-26609886Y-158942318D02*
G01*
X-26574805Y-158959123D01*
X-26555326Y-158974926D01*
X-26513850Y-159011953D01*
X-26509761Y-159203526D01*
X-26505671Y-159395100D01*
X-26609100Y-159395100D01*
X-26609100Y-159230907D01*
X-26609686Y-159159817D01*
X-26611747Y-159109877D01*
X-26615742Y-159076854D01*
X-26622130Y-159056520D01*
X-26629058Y-159046757D01*
X-26662713Y-159028974D01*
X-26702440Y-159030874D01*
X-26741498Y-159050204D01*
X-26773149Y-159084714D01*
X-26779938Y-159097154D01*
X-26791073Y-159133806D01*
X-26797495Y-159188629D01*
X-26799600Y-159265050D01*
X-26799600Y-159395100D01*
X-26901200Y-159395100D01*
X-26901200Y-158950600D01*
X-26850400Y-158950600D01*
X-26817808Y-158952142D01*
X-26803319Y-158960281D01*
X-26799670Y-158980282D01*
X-26799600Y-158987430D01*
X-26799600Y-159024260D01*
X-26756420Y-158981080D01*
X-26724232Y-158953238D01*
X-26693685Y-158940684D01*
X-26655021Y-158937900D01*
X-26609886Y-158942318D01*
X-26609886Y-158942318D01*
G37*
X-26609886Y-158942318D02*
X-26574805Y-158959123D01*
X-26555326Y-158974926D01*
X-26513850Y-159011953D01*
X-26509761Y-159203526D01*
X-26505671Y-159395100D01*
X-26609100Y-159395100D01*
X-26609100Y-159230907D01*
X-26609686Y-159159817D01*
X-26611747Y-159109877D01*
X-26615742Y-159076854D01*
X-26622130Y-159056520D01*
X-26629058Y-159046757D01*
X-26662713Y-159028974D01*
X-26702440Y-159030874D01*
X-26741498Y-159050204D01*
X-26773149Y-159084714D01*
X-26779938Y-159097154D01*
X-26791073Y-159133806D01*
X-26797495Y-159188629D01*
X-26799600Y-159265050D01*
X-26799600Y-159395100D01*
X-26901200Y-159395100D01*
X-26901200Y-158950600D01*
X-26850400Y-158950600D01*
X-26817808Y-158952142D01*
X-26803319Y-158960281D01*
X-26799670Y-158980282D01*
X-26799600Y-158987430D01*
X-26799600Y-159024260D01*
X-26756420Y-158981080D01*
X-26724232Y-158953238D01*
X-26693685Y-158940684D01*
X-26655021Y-158937900D01*
X-26609886Y-158942318D01*
G36*
X-27256800Y-159306200D02*
G01*
X-27206000Y-159306200D01*
X-27173475Y-159307545D01*
X-27159021Y-159315854D01*
X-27155314Y-159337533D01*
X-27155200Y-159350650D01*
X-27155200Y-159395100D01*
X-27460000Y-159395100D01*
X-27460000Y-159350650D01*
X-27458035Y-159320858D01*
X-27446943Y-159308640D01*
X-27418934Y-159306205D01*
X-27415550Y-159306200D01*
X-27371100Y-159306200D01*
X-27371100Y-159039500D01*
X-27415550Y-159039500D01*
X-27445342Y-159037534D01*
X-27457560Y-159026442D01*
X-27459995Y-158998433D01*
X-27460000Y-158995050D01*
X-27460000Y-158950600D01*
X-27256800Y-158950600D01*
X-27256800Y-159306200D01*
X-27256800Y-159306200D01*
G37*
X-27256800Y-159306200D02*
X-27206000Y-159306200D01*
X-27173475Y-159307545D01*
X-27159021Y-159315854D01*
X-27155314Y-159337533D01*
X-27155200Y-159350650D01*
X-27155200Y-159395100D01*
X-27460000Y-159395100D01*
X-27460000Y-159350650D01*
X-27458035Y-159320858D01*
X-27446943Y-159308640D01*
X-27418934Y-159306205D01*
X-27415550Y-159306200D01*
X-27371100Y-159306200D01*
X-27371100Y-159039500D01*
X-27415550Y-159039500D01*
X-27445342Y-159037534D01*
X-27457560Y-159026442D01*
X-27459995Y-158998433D01*
X-27460000Y-158995050D01*
X-27460000Y-158950600D01*
X-27256800Y-158950600D01*
X-27256800Y-159306200D01*
G36*
X-28438686Y-158942318D02*
G01*
X-28403605Y-158959123D01*
X-28384126Y-158974926D01*
X-28342650Y-159011953D01*
X-28338561Y-159203526D01*
X-28334471Y-159395100D01*
X-28437900Y-159395100D01*
X-28437900Y-159230907D01*
X-28438486Y-159159817D01*
X-28440547Y-159109877D01*
X-28444542Y-159076854D01*
X-28450930Y-159056520D01*
X-28457858Y-159046757D01*
X-28491513Y-159028974D01*
X-28531240Y-159030874D01*
X-28570298Y-159050204D01*
X-28601949Y-159084714D01*
X-28608738Y-159097154D01*
X-28619873Y-159133806D01*
X-28626295Y-159188629D01*
X-28628400Y-159265050D01*
X-28628400Y-159395100D01*
X-28730000Y-159395100D01*
X-28730000Y-158950600D01*
X-28679200Y-158950600D01*
X-28646608Y-158952142D01*
X-28632119Y-158960281D01*
X-28628470Y-158980282D01*
X-28628400Y-158987430D01*
X-28628400Y-159024260D01*
X-28585220Y-158981080D01*
X-28553032Y-158953238D01*
X-28522485Y-158940684D01*
X-28483821Y-158937900D01*
X-28438686Y-158942318D01*
X-28438686Y-158942318D01*
G37*
X-28438686Y-158942318D02*
X-28403605Y-158959123D01*
X-28384126Y-158974926D01*
X-28342650Y-159011953D01*
X-28338561Y-159203526D01*
X-28334471Y-159395100D01*
X-28437900Y-159395100D01*
X-28437900Y-159230907D01*
X-28438486Y-159159817D01*
X-28440547Y-159109877D01*
X-28444542Y-159076854D01*
X-28450930Y-159056520D01*
X-28457858Y-159046757D01*
X-28491513Y-159028974D01*
X-28531240Y-159030874D01*
X-28570298Y-159050204D01*
X-28601949Y-159084714D01*
X-28608738Y-159097154D01*
X-28619873Y-159133806D01*
X-28626295Y-159188629D01*
X-28628400Y-159265050D01*
X-28628400Y-159395100D01*
X-28730000Y-159395100D01*
X-28730000Y-158950600D01*
X-28679200Y-158950600D01*
X-28646608Y-158952142D01*
X-28632119Y-158960281D01*
X-28628470Y-158980282D01*
X-28628400Y-158987430D01*
X-28628400Y-159024260D01*
X-28585220Y-158981080D01*
X-28553032Y-158953238D01*
X-28522485Y-158940684D01*
X-28483821Y-158937900D01*
X-28438686Y-158942318D01*
G36*
X-28945900Y-158861700D02*
G01*
X-29238000Y-158861700D01*
X-29238000Y-159039500D01*
X-29009400Y-159039500D01*
X-29009400Y-159128400D01*
X-29238000Y-159128400D01*
X-29238000Y-159306200D01*
X-28945900Y-159306200D01*
X-28945900Y-159395100D01*
X-29339600Y-159395100D01*
X-29339600Y-158772800D01*
X-28945900Y-158772800D01*
X-28945900Y-158861700D01*
X-28945900Y-158861700D01*
G37*
X-28945900Y-158861700D02*
X-29238000Y-158861700D01*
X-29238000Y-159039500D01*
X-29009400Y-159039500D01*
X-29009400Y-159128400D01*
X-29238000Y-159128400D01*
X-29238000Y-159306200D01*
X-28945900Y-159306200D01*
X-28945900Y-159395100D01*
X-29339600Y-159395100D01*
X-29339600Y-158772800D01*
X-28945900Y-158772800D01*
X-28945900Y-158861700D01*
G36*
X-30254786Y-158942318D02*
G01*
X-30219705Y-158959123D01*
X-30200226Y-158974926D01*
X-30158750Y-159011953D01*
X-30154661Y-159203526D01*
X-30150571Y-159395100D01*
X-30254000Y-159395100D01*
X-30254000Y-159230907D01*
X-30254586Y-159159817D01*
X-30256647Y-159109877D01*
X-30260642Y-159076854D01*
X-30267030Y-159056520D01*
X-30273958Y-159046757D01*
X-30307613Y-159028974D01*
X-30347340Y-159030874D01*
X-30386398Y-159050204D01*
X-30418049Y-159084714D01*
X-30424838Y-159097154D01*
X-30435973Y-159133806D01*
X-30442395Y-159188629D01*
X-30444500Y-159265050D01*
X-30444500Y-159395100D01*
X-30546100Y-159395100D01*
X-30546100Y-158950600D01*
X-30495300Y-158950600D01*
X-30462708Y-158952142D01*
X-30448219Y-158960281D01*
X-30444570Y-158980282D01*
X-30444500Y-158987430D01*
X-30444500Y-159024260D01*
X-30401320Y-158981080D01*
X-30369132Y-158953238D01*
X-30338585Y-158940684D01*
X-30299921Y-158937900D01*
X-30254786Y-158942318D01*
X-30254786Y-158942318D01*
G37*
X-30254786Y-158942318D02*
X-30219705Y-158959123D01*
X-30200226Y-158974926D01*
X-30158750Y-159011953D01*
X-30154661Y-159203526D01*
X-30150571Y-159395100D01*
X-30254000Y-159395100D01*
X-30254000Y-159230907D01*
X-30254586Y-159159817D01*
X-30256647Y-159109877D01*
X-30260642Y-159076854D01*
X-30267030Y-159056520D01*
X-30273958Y-159046757D01*
X-30307613Y-159028974D01*
X-30347340Y-159030874D01*
X-30386398Y-159050204D01*
X-30418049Y-159084714D01*
X-30424838Y-159097154D01*
X-30435973Y-159133806D01*
X-30442395Y-159188629D01*
X-30444500Y-159265050D01*
X-30444500Y-159395100D01*
X-30546100Y-159395100D01*
X-30546100Y-158950600D01*
X-30495300Y-158950600D01*
X-30462708Y-158952142D01*
X-30448219Y-158960281D01*
X-30444570Y-158980282D01*
X-30444500Y-158987430D01*
X-30444500Y-159024260D01*
X-30401320Y-158981080D01*
X-30369132Y-158953238D01*
X-30338585Y-158940684D01*
X-30299921Y-158937900D01*
X-30254786Y-158942318D01*
G36*
X-32083586Y-158942318D02*
G01*
X-32048505Y-158959123D01*
X-32029026Y-158974926D01*
X-31987550Y-159011953D01*
X-31983461Y-159203526D01*
X-31979371Y-159395100D01*
X-32082800Y-159395100D01*
X-32082800Y-159230907D01*
X-32083386Y-159159817D01*
X-32085447Y-159109877D01*
X-32089442Y-159076854D01*
X-32095830Y-159056520D01*
X-32102758Y-159046757D01*
X-32136413Y-159028974D01*
X-32176140Y-159030874D01*
X-32215198Y-159050204D01*
X-32246849Y-159084714D01*
X-32253638Y-159097154D01*
X-32264773Y-159133806D01*
X-32271195Y-159188629D01*
X-32273300Y-159265050D01*
X-32273300Y-159395100D01*
X-32374900Y-159395100D01*
X-32374900Y-158950600D01*
X-32324100Y-158950600D01*
X-32291508Y-158952142D01*
X-32277019Y-158960281D01*
X-32273370Y-158980282D01*
X-32273300Y-158987430D01*
X-32273300Y-159024260D01*
X-32230120Y-158981080D01*
X-32197932Y-158953238D01*
X-32167385Y-158940684D01*
X-32128721Y-158937900D01*
X-32083586Y-158942318D01*
X-32083586Y-158942318D01*
G37*
X-32083586Y-158942318D02*
X-32048505Y-158959123D01*
X-32029026Y-158974926D01*
X-31987550Y-159011953D01*
X-31983461Y-159203526D01*
X-31979371Y-159395100D01*
X-32082800Y-159395100D01*
X-32082800Y-159230907D01*
X-32083386Y-159159817D01*
X-32085447Y-159109877D01*
X-32089442Y-159076854D01*
X-32095830Y-159056520D01*
X-32102758Y-159046757D01*
X-32136413Y-159028974D01*
X-32176140Y-159030874D01*
X-32215198Y-159050204D01*
X-32246849Y-159084714D01*
X-32253638Y-159097154D01*
X-32264773Y-159133806D01*
X-32271195Y-159188629D01*
X-32273300Y-159265050D01*
X-32273300Y-159395100D01*
X-32374900Y-159395100D01*
X-32374900Y-158950600D01*
X-32324100Y-158950600D01*
X-32291508Y-158952142D01*
X-32277019Y-158960281D01*
X-32273370Y-158980282D01*
X-32273300Y-158987430D01*
X-32273300Y-159024260D01*
X-32230120Y-158981080D01*
X-32197932Y-158953238D01*
X-32167385Y-158940684D01*
X-32128721Y-158937900D01*
X-32083586Y-158942318D01*
G36*
X-33492500Y-159027200D02*
G01*
X-33456821Y-158987268D01*
X-33427389Y-158960600D01*
X-33393523Y-158946655D01*
X-33357035Y-158941176D01*
X-33316057Y-158939143D01*
X-33288191Y-158945321D01*
X-33261577Y-158963284D01*
X-33249839Y-158973485D01*
X-33206750Y-159011953D01*
X-33202661Y-159203526D01*
X-33198571Y-159395100D01*
X-33302000Y-159395100D01*
X-33302000Y-159230907D01*
X-33302586Y-159159817D01*
X-33304647Y-159109877D01*
X-33308642Y-159076854D01*
X-33315030Y-159056520D01*
X-33321958Y-159046757D01*
X-33355613Y-159028974D01*
X-33395340Y-159030874D01*
X-33434398Y-159050204D01*
X-33466049Y-159084714D01*
X-33472838Y-159097154D01*
X-33483973Y-159133806D01*
X-33490395Y-159188629D01*
X-33492500Y-159265050D01*
X-33492500Y-159395100D01*
X-33594100Y-159395100D01*
X-33594100Y-158772800D01*
X-33492500Y-158772800D01*
X-33492500Y-159027200D01*
X-33492500Y-159027200D01*
G37*
X-33492500Y-159027200D02*
X-33456821Y-158987268D01*
X-33427389Y-158960600D01*
X-33393523Y-158946655D01*
X-33357035Y-158941176D01*
X-33316057Y-158939143D01*
X-33288191Y-158945321D01*
X-33261577Y-158963284D01*
X-33249839Y-158973485D01*
X-33206750Y-159011953D01*
X-33202661Y-159203526D01*
X-33198571Y-159395100D01*
X-33302000Y-159395100D01*
X-33302000Y-159230907D01*
X-33302586Y-159159817D01*
X-33304647Y-159109877D01*
X-33308642Y-159076854D01*
X-33315030Y-159056520D01*
X-33321958Y-159046757D01*
X-33355613Y-159028974D01*
X-33395340Y-159030874D01*
X-33434398Y-159050204D01*
X-33466049Y-159084714D01*
X-33472838Y-159097154D01*
X-33483973Y-159133806D01*
X-33490395Y-159188629D01*
X-33492500Y-159265050D01*
X-33492500Y-159395100D01*
X-33594100Y-159395100D01*
X-33594100Y-158772800D01*
X-33492500Y-158772800D01*
X-33492500Y-159027200D01*
G36*
X-25419587Y-158945787D02*
G01*
X-25357919Y-158970491D01*
X-25317482Y-159003111D01*
X-25282639Y-159055044D01*
X-25255769Y-159123481D01*
X-25244885Y-159169675D01*
X-25236350Y-159217300D01*
X-25617956Y-159217300D01*
X-25603769Y-159248437D01*
X-25577985Y-159279278D01*
X-25536383Y-159303967D01*
X-25488520Y-159317471D01*
X-25470531Y-159318621D01*
X-25436294Y-159313124D01*
X-25394289Y-159299704D01*
X-25380696Y-159293985D01*
X-25327041Y-159269628D01*
X-25301499Y-159302101D01*
X-25275956Y-159334573D01*
X-25307458Y-159359353D01*
X-25365308Y-159390285D01*
X-25435534Y-159405651D01*
X-25509919Y-159404756D01*
X-25580249Y-159386909D01*
X-25589086Y-159383118D01*
X-25645914Y-159344411D01*
X-25686944Y-159290243D01*
X-25711035Y-159225896D01*
X-25717044Y-159156654D01*
X-25707789Y-159108435D01*
X-25606029Y-159108435D01*
X-25595135Y-159119892D01*
X-25563414Y-159126036D01*
X-25508943Y-159128276D01*
X-25485150Y-159128400D01*
X-25425863Y-159127503D01*
X-25388376Y-159124482D01*
X-25369144Y-159118842D01*
X-25364500Y-159111563D01*
X-25373101Y-159092145D01*
X-25394122Y-159066977D01*
X-25397274Y-159063938D01*
X-25431949Y-159041118D01*
X-25476316Y-159033285D01*
X-25485150Y-159033150D01*
X-25532169Y-159038951D01*
X-25567616Y-159059083D01*
X-25573027Y-159063938D01*
X-25598019Y-159090254D01*
X-25606029Y-159108435D01*
X-25707789Y-159108435D01*
X-25703828Y-159087800D01*
X-25670247Y-159024617D01*
X-25667377Y-159020889D01*
X-25617788Y-158976662D01*
X-25555784Y-158949191D01*
X-25487630Y-158938794D01*
X-25419587Y-158945787D01*
X-25419587Y-158945787D01*
G37*
X-25419587Y-158945787D02*
X-25357919Y-158970491D01*
X-25317482Y-159003111D01*
X-25282639Y-159055044D01*
X-25255769Y-159123481D01*
X-25244885Y-159169675D01*
X-25236350Y-159217300D01*
X-25617956Y-159217300D01*
X-25603769Y-159248437D01*
X-25577985Y-159279278D01*
X-25536383Y-159303967D01*
X-25488520Y-159317471D01*
X-25470531Y-159318621D01*
X-25436294Y-159313124D01*
X-25394289Y-159299704D01*
X-25380696Y-159293985D01*
X-25327041Y-159269628D01*
X-25301499Y-159302101D01*
X-25275956Y-159334573D01*
X-25307458Y-159359353D01*
X-25365308Y-159390285D01*
X-25435534Y-159405651D01*
X-25509919Y-159404756D01*
X-25580249Y-159386909D01*
X-25589086Y-159383118D01*
X-25645914Y-159344411D01*
X-25686944Y-159290243D01*
X-25711035Y-159225896D01*
X-25717044Y-159156654D01*
X-25707789Y-159108435D01*
X-25606029Y-159108435D01*
X-25595135Y-159119892D01*
X-25563414Y-159126036D01*
X-25508943Y-159128276D01*
X-25485150Y-159128400D01*
X-25425863Y-159127503D01*
X-25388376Y-159124482D01*
X-25369144Y-159118842D01*
X-25364500Y-159111563D01*
X-25373101Y-159092145D01*
X-25394122Y-159066977D01*
X-25397274Y-159063938D01*
X-25431949Y-159041118D01*
X-25476316Y-159033285D01*
X-25485150Y-159033150D01*
X-25532169Y-159038951D01*
X-25567616Y-159059083D01*
X-25573027Y-159063938D01*
X-25598019Y-159090254D01*
X-25606029Y-159108435D01*
X-25707789Y-159108435D01*
X-25703828Y-159087800D01*
X-25670247Y-159024617D01*
X-25667377Y-159020889D01*
X-25617788Y-158976662D01*
X-25555784Y-158949191D01*
X-25487630Y-158938794D01*
X-25419587Y-158945787D01*
G36*
X-26029187Y-158945787D02*
G01*
X-25967519Y-158970491D01*
X-25927082Y-159003111D01*
X-25892239Y-159055044D01*
X-25865369Y-159123481D01*
X-25854485Y-159169675D01*
X-25845950Y-159217300D01*
X-26227556Y-159217300D01*
X-26213369Y-159248437D01*
X-26187585Y-159279278D01*
X-26145983Y-159303967D01*
X-26098120Y-159317471D01*
X-26080131Y-159318621D01*
X-26045894Y-159313124D01*
X-26003889Y-159299704D01*
X-25990296Y-159293985D01*
X-25936641Y-159269628D01*
X-25911099Y-159302101D01*
X-25885556Y-159334573D01*
X-25917058Y-159359353D01*
X-25974908Y-159390285D01*
X-26045134Y-159405651D01*
X-26119519Y-159404756D01*
X-26189849Y-159386909D01*
X-26198686Y-159383118D01*
X-26255514Y-159344411D01*
X-26296544Y-159290243D01*
X-26320635Y-159225896D01*
X-26326644Y-159156654D01*
X-26317389Y-159108435D01*
X-26215629Y-159108435D01*
X-26204735Y-159119892D01*
X-26173014Y-159126036D01*
X-26118543Y-159128276D01*
X-26094750Y-159128400D01*
X-26035463Y-159127503D01*
X-25997976Y-159124482D01*
X-25978744Y-159118842D01*
X-25974100Y-159111563D01*
X-25982701Y-159092145D01*
X-26003722Y-159066977D01*
X-26006874Y-159063938D01*
X-26041549Y-159041118D01*
X-26085916Y-159033285D01*
X-26094750Y-159033150D01*
X-26141769Y-159038951D01*
X-26177216Y-159059083D01*
X-26182627Y-159063938D01*
X-26207619Y-159090254D01*
X-26215629Y-159108435D01*
X-26317389Y-159108435D01*
X-26313428Y-159087800D01*
X-26279847Y-159024617D01*
X-26276977Y-159020889D01*
X-26227388Y-158976662D01*
X-26165384Y-158949191D01*
X-26097230Y-158938794D01*
X-26029187Y-158945787D01*
X-26029187Y-158945787D01*
G37*
X-26029187Y-158945787D02*
X-25967519Y-158970491D01*
X-25927082Y-159003111D01*
X-25892239Y-159055044D01*
X-25865369Y-159123481D01*
X-25854485Y-159169675D01*
X-25845950Y-159217300D01*
X-26227556Y-159217300D01*
X-26213369Y-159248437D01*
X-26187585Y-159279278D01*
X-26145983Y-159303967D01*
X-26098120Y-159317471D01*
X-26080131Y-159318621D01*
X-26045894Y-159313124D01*
X-26003889Y-159299704D01*
X-25990296Y-159293985D01*
X-25936641Y-159269628D01*
X-25911099Y-159302101D01*
X-25885556Y-159334573D01*
X-25917058Y-159359353D01*
X-25974908Y-159390285D01*
X-26045134Y-159405651D01*
X-26119519Y-159404756D01*
X-26189849Y-159386909D01*
X-26198686Y-159383118D01*
X-26255514Y-159344411D01*
X-26296544Y-159290243D01*
X-26320635Y-159225896D01*
X-26326644Y-159156654D01*
X-26317389Y-159108435D01*
X-26215629Y-159108435D01*
X-26204735Y-159119892D01*
X-26173014Y-159126036D01*
X-26118543Y-159128276D01*
X-26094750Y-159128400D01*
X-26035463Y-159127503D01*
X-25997976Y-159124482D01*
X-25978744Y-159118842D01*
X-25974100Y-159111563D01*
X-25982701Y-159092145D01*
X-26003722Y-159066977D01*
X-26006874Y-159063938D01*
X-26041549Y-159041118D01*
X-26085916Y-159033285D01*
X-26094750Y-159033150D01*
X-26141769Y-159038951D01*
X-26177216Y-159059083D01*
X-26182627Y-159063938D01*
X-26207619Y-159090254D01*
X-26215629Y-159108435D01*
X-26317389Y-159108435D01*
X-26313428Y-159087800D01*
X-26279847Y-159024617D01*
X-26276977Y-159020889D01*
X-26227388Y-158976662D01*
X-26165384Y-158949191D01*
X-26097230Y-158938794D01*
X-26029187Y-158945787D01*
G36*
X-30893287Y-158945787D02*
G01*
X-30831619Y-158970491D01*
X-30791182Y-159003111D01*
X-30756339Y-159055044D01*
X-30729469Y-159123481D01*
X-30718585Y-159169675D01*
X-30710050Y-159217300D01*
X-31091656Y-159217300D01*
X-31077469Y-159248437D01*
X-31051685Y-159279278D01*
X-31010083Y-159303967D01*
X-30962220Y-159317471D01*
X-30944231Y-159318621D01*
X-30909994Y-159313124D01*
X-30867989Y-159299704D01*
X-30854396Y-159293985D01*
X-30800741Y-159269628D01*
X-30775199Y-159302101D01*
X-30749656Y-159334573D01*
X-30781158Y-159359353D01*
X-30839008Y-159390285D01*
X-30909234Y-159405651D01*
X-30983619Y-159404756D01*
X-31053949Y-159386909D01*
X-31062786Y-159383118D01*
X-31119614Y-159344411D01*
X-31160644Y-159290243D01*
X-31184735Y-159225896D01*
X-31190744Y-159156654D01*
X-31181489Y-159108435D01*
X-31079729Y-159108435D01*
X-31068835Y-159119892D01*
X-31037114Y-159126036D01*
X-30982643Y-159128276D01*
X-30958850Y-159128400D01*
X-30899563Y-159127503D01*
X-30862076Y-159124482D01*
X-30842844Y-159118842D01*
X-30838200Y-159111563D01*
X-30846801Y-159092145D01*
X-30867822Y-159066977D01*
X-30870974Y-159063938D01*
X-30905649Y-159041118D01*
X-30950016Y-159033285D01*
X-30958850Y-159033150D01*
X-31005869Y-159038951D01*
X-31041316Y-159059083D01*
X-31046727Y-159063938D01*
X-31071719Y-159090254D01*
X-31079729Y-159108435D01*
X-31181489Y-159108435D01*
X-31177528Y-159087800D01*
X-31143947Y-159024617D01*
X-31141077Y-159020889D01*
X-31091488Y-158976662D01*
X-31029484Y-158949191D01*
X-30961330Y-158938794D01*
X-30893287Y-158945787D01*
X-30893287Y-158945787D01*
G37*
X-30893287Y-158945787D02*
X-30831619Y-158970491D01*
X-30791182Y-159003111D01*
X-30756339Y-159055044D01*
X-30729469Y-159123481D01*
X-30718585Y-159169675D01*
X-30710050Y-159217300D01*
X-31091656Y-159217300D01*
X-31077469Y-159248437D01*
X-31051685Y-159279278D01*
X-31010083Y-159303967D01*
X-30962220Y-159317471D01*
X-30944231Y-159318621D01*
X-30909994Y-159313124D01*
X-30867989Y-159299704D01*
X-30854396Y-159293985D01*
X-30800741Y-159269628D01*
X-30775199Y-159302101D01*
X-30749656Y-159334573D01*
X-30781158Y-159359353D01*
X-30839008Y-159390285D01*
X-30909234Y-159405651D01*
X-30983619Y-159404756D01*
X-31053949Y-159386909D01*
X-31062786Y-159383118D01*
X-31119614Y-159344411D01*
X-31160644Y-159290243D01*
X-31184735Y-159225896D01*
X-31190744Y-159156654D01*
X-31181489Y-159108435D01*
X-31079729Y-159108435D01*
X-31068835Y-159119892D01*
X-31037114Y-159126036D01*
X-30982643Y-159128276D01*
X-30958850Y-159128400D01*
X-30899563Y-159127503D01*
X-30862076Y-159124482D01*
X-30842844Y-159118842D01*
X-30838200Y-159111563D01*
X-30846801Y-159092145D01*
X-30867822Y-159066977D01*
X-30870974Y-159063938D01*
X-30905649Y-159041118D01*
X-30950016Y-159033285D01*
X-30958850Y-159033150D01*
X-31005869Y-159038951D01*
X-31041316Y-159059083D01*
X-31046727Y-159063938D01*
X-31071719Y-159090254D01*
X-31079729Y-159108435D01*
X-31181489Y-159108435D01*
X-31177528Y-159087800D01*
X-31143947Y-159024617D01*
X-31141077Y-159020889D01*
X-31091488Y-158976662D01*
X-31029484Y-158949191D01*
X-30961330Y-158938794D01*
X-30893287Y-158945787D01*
G36*
X-31499368Y-158944386D02*
G01*
X-31444160Y-158958028D01*
X-31404078Y-158978107D01*
X-31399511Y-158981961D01*
X-31390917Y-159003001D01*
X-31395732Y-159028982D01*
X-31409704Y-159050658D01*
X-31428581Y-159058784D01*
X-31434188Y-159057362D01*
X-31484964Y-159041203D01*
X-31539754Y-159032510D01*
X-31592266Y-159031212D01*
X-31636210Y-159037235D01*
X-31665296Y-159050507D01*
X-31672404Y-159060104D01*
X-31674927Y-159076955D01*
X-31665480Y-159090282D01*
X-31640613Y-159101783D01*
X-31596880Y-159113152D01*
X-31542769Y-159123894D01*
X-31466464Y-159141949D01*
X-31412706Y-159164676D01*
X-31378777Y-159194158D01*
X-31361955Y-159232478D01*
X-31358900Y-159264728D01*
X-31370255Y-159315487D01*
X-31401971Y-159356412D01*
X-31450525Y-159386315D01*
X-31512393Y-159404004D01*
X-31584053Y-159408289D01*
X-31661981Y-159397982D01*
X-31711575Y-159383852D01*
X-31749830Y-159369782D01*
X-31777502Y-159358020D01*
X-31786310Y-159352924D01*
X-31787249Y-159337125D01*
X-31779123Y-159309004D01*
X-31777766Y-159305634D01*
X-31768832Y-159285529D01*
X-31758980Y-159275070D01*
X-31742547Y-159273986D01*
X-31713871Y-159282007D01*
X-31667288Y-159298863D01*
X-31663700Y-159300186D01*
X-31589338Y-159315855D01*
X-31545478Y-159315520D01*
X-31493214Y-159305698D01*
X-31464901Y-159290062D01*
X-31460543Y-159271258D01*
X-31480141Y-159251932D01*
X-31523697Y-159234730D01*
X-31545407Y-159229532D01*
X-31615533Y-159214410D01*
X-31665449Y-159201934D01*
X-31699967Y-159190387D01*
X-31723902Y-159178053D01*
X-31742064Y-159163218D01*
X-31747663Y-159157425D01*
X-31773593Y-159113509D01*
X-31777138Y-159066210D01*
X-31760004Y-159020198D01*
X-31723896Y-158980141D01*
X-31672399Y-158951407D01*
X-31621821Y-158940142D01*
X-31561366Y-158938113D01*
X-31499368Y-158944386D01*
X-31499368Y-158944386D01*
G37*
X-31499368Y-158944386D02*
X-31444160Y-158958028D01*
X-31404078Y-158978107D01*
X-31399511Y-158981961D01*
X-31390917Y-159003001D01*
X-31395732Y-159028982D01*
X-31409704Y-159050658D01*
X-31428581Y-159058784D01*
X-31434188Y-159057362D01*
X-31484964Y-159041203D01*
X-31539754Y-159032510D01*
X-31592266Y-159031212D01*
X-31636210Y-159037235D01*
X-31665296Y-159050507D01*
X-31672404Y-159060104D01*
X-31674927Y-159076955D01*
X-31665480Y-159090282D01*
X-31640613Y-159101783D01*
X-31596880Y-159113152D01*
X-31542769Y-159123894D01*
X-31466464Y-159141949D01*
X-31412706Y-159164676D01*
X-31378777Y-159194158D01*
X-31361955Y-159232478D01*
X-31358900Y-159264728D01*
X-31370255Y-159315487D01*
X-31401971Y-159356412D01*
X-31450525Y-159386315D01*
X-31512393Y-159404004D01*
X-31584053Y-159408289D01*
X-31661981Y-159397982D01*
X-31711575Y-159383852D01*
X-31749830Y-159369782D01*
X-31777502Y-159358020D01*
X-31786310Y-159352924D01*
X-31787249Y-159337125D01*
X-31779123Y-159309004D01*
X-31777766Y-159305634D01*
X-31768832Y-159285529D01*
X-31758980Y-159275070D01*
X-31742547Y-159273986D01*
X-31713871Y-159282007D01*
X-31667288Y-159298863D01*
X-31663700Y-159300186D01*
X-31589338Y-159315855D01*
X-31545478Y-159315520D01*
X-31493214Y-159305698D01*
X-31464901Y-159290062D01*
X-31460543Y-159271258D01*
X-31480141Y-159251932D01*
X-31523697Y-159234730D01*
X-31545407Y-159229532D01*
X-31615533Y-159214410D01*
X-31665449Y-159201934D01*
X-31699967Y-159190387D01*
X-31723902Y-159178053D01*
X-31742064Y-159163218D01*
X-31747663Y-159157425D01*
X-31773593Y-159113509D01*
X-31777138Y-159066210D01*
X-31760004Y-159020198D01*
X-31723896Y-158980141D01*
X-31672399Y-158951407D01*
X-31621821Y-158940142D01*
X-31561366Y-158938113D01*
X-31499368Y-158944386D01*
G36*
X-32689740Y-158956458D02*
G01*
X-32636031Y-158989144D01*
X-32618333Y-159007923D01*
X-32607265Y-159023957D01*
X-32599623Y-159042230D01*
X-32594782Y-159067537D01*
X-32592116Y-159104675D01*
X-32590999Y-159158440D01*
X-32590800Y-159219012D01*
X-32590800Y-159395100D01*
X-32641600Y-159395100D01*
X-32674784Y-159393002D01*
X-32689463Y-159384441D01*
X-32692400Y-159369319D01*
X-32693572Y-159353311D01*
X-32701127Y-159351680D01*
X-32721121Y-159364802D01*
X-32730465Y-159371681D01*
X-32776756Y-159394024D01*
X-32841775Y-159405114D01*
X-32844526Y-159405321D01*
X-32887907Y-159407472D01*
X-32915796Y-159403939D01*
X-32937974Y-159391546D01*
X-32964225Y-159367115D01*
X-32965211Y-159366129D01*
X-32994457Y-159332043D01*
X-33007540Y-159300556D01*
X-33009900Y-159271764D01*
X-33006270Y-159254688D01*
X-32906332Y-159254688D01*
X-32900867Y-159288354D01*
X-32875275Y-159309379D01*
X-32832426Y-159315900D01*
X-32814150Y-159314447D01*
X-32772017Y-159303725D01*
X-32734934Y-159285989D01*
X-32731600Y-159283649D01*
X-32706820Y-159255884D01*
X-32694732Y-159225569D01*
X-32693942Y-159205397D01*
X-32702043Y-159195600D01*
X-32725232Y-159192604D01*
X-32751882Y-159192616D01*
X-32819582Y-159198505D01*
X-32869617Y-159213688D01*
X-32899343Y-159237104D01*
X-32906332Y-159254688D01*
X-33006270Y-159254688D01*
X-32998431Y-159217825D01*
X-32964622Y-159174750D01*
X-32909370Y-159143148D01*
X-32833573Y-159123630D01*
X-32783817Y-159118289D01*
X-32736121Y-159114585D01*
X-32708713Y-159109955D01*
X-32696495Y-159102538D01*
X-32694371Y-159090475D01*
X-32694917Y-159085836D01*
X-32708173Y-159060933D01*
X-32732872Y-159040309D01*
X-32762864Y-159030639D01*
X-32804089Y-159030668D01*
X-32860594Y-159040783D01*
X-32928101Y-159058898D01*
X-32950633Y-159058480D01*
X-32967253Y-159037849D01*
X-32969537Y-159033045D01*
X-32978968Y-159006525D01*
X-32975184Y-158988529D01*
X-32954407Y-158974106D01*
X-32912857Y-158958303D01*
X-32912373Y-158958138D01*
X-32832843Y-158940120D01*
X-32756988Y-158939838D01*
X-32689740Y-158956458D01*
X-32689740Y-158956458D01*
G37*
X-32689740Y-158956458D02*
X-32636031Y-158989144D01*
X-32618333Y-159007923D01*
X-32607265Y-159023957D01*
X-32599623Y-159042230D01*
X-32594782Y-159067537D01*
X-32592116Y-159104675D01*
X-32590999Y-159158440D01*
X-32590800Y-159219012D01*
X-32590800Y-159395100D01*
X-32641600Y-159395100D01*
X-32674784Y-159393002D01*
X-32689463Y-159384441D01*
X-32692400Y-159369319D01*
X-32693572Y-159353311D01*
X-32701127Y-159351680D01*
X-32721121Y-159364802D01*
X-32730465Y-159371681D01*
X-32776756Y-159394024D01*
X-32841775Y-159405114D01*
X-32844526Y-159405321D01*
X-32887907Y-159407472D01*
X-32915796Y-159403939D01*
X-32937974Y-159391546D01*
X-32964225Y-159367115D01*
X-32965211Y-159366129D01*
X-32994457Y-159332043D01*
X-33007540Y-159300556D01*
X-33009900Y-159271764D01*
X-33006270Y-159254688D01*
X-32906332Y-159254688D01*
X-32900867Y-159288354D01*
X-32875275Y-159309379D01*
X-32832426Y-159315900D01*
X-32814150Y-159314447D01*
X-32772017Y-159303725D01*
X-32734934Y-159285989D01*
X-32731600Y-159283649D01*
X-32706820Y-159255884D01*
X-32694732Y-159225569D01*
X-32693942Y-159205397D01*
X-32702043Y-159195600D01*
X-32725232Y-159192604D01*
X-32751882Y-159192616D01*
X-32819582Y-159198505D01*
X-32869617Y-159213688D01*
X-32899343Y-159237104D01*
X-32906332Y-159254688D01*
X-33006270Y-159254688D01*
X-32998431Y-159217825D01*
X-32964622Y-159174750D01*
X-32909370Y-159143148D01*
X-32833573Y-159123630D01*
X-32783817Y-159118289D01*
X-32736121Y-159114585D01*
X-32708713Y-159109955D01*
X-32696495Y-159102538D01*
X-32694371Y-159090475D01*
X-32694917Y-159085836D01*
X-32708173Y-159060933D01*
X-32732872Y-159040309D01*
X-32762864Y-159030639D01*
X-32804089Y-159030668D01*
X-32860594Y-159040783D01*
X-32928101Y-159058898D01*
X-32950633Y-159058480D01*
X-32967253Y-159037849D01*
X-32969537Y-159033045D01*
X-32978968Y-159006525D01*
X-32975184Y-158988529D01*
X-32954407Y-158974106D01*
X-32912857Y-158958303D01*
X-32912373Y-158958138D01*
X-32832843Y-158940120D01*
X-32756988Y-158939838D01*
X-32689740Y-158956458D01*
G36*
X-33928234Y-158949125D02*
G01*
X-33863526Y-158981026D01*
X-33814138Y-159030946D01*
X-33782715Y-159096222D01*
X-33771900Y-159172850D01*
X-33783004Y-159250946D01*
X-33814658Y-159315890D01*
X-33864381Y-159365231D01*
X-33929689Y-159396521D01*
X-34008099Y-159407311D01*
X-34009618Y-159407302D01*
X-34055423Y-159403339D01*
X-34097360Y-159394004D01*
X-34108450Y-159389872D01*
X-34165573Y-159351464D01*
X-34207684Y-159296767D01*
X-34232914Y-159231225D01*
X-34238451Y-159170613D01*
X-34136311Y-159170613D01*
X-34129113Y-159221333D01*
X-34106582Y-159265316D01*
X-34070822Y-159297772D01*
X-34023940Y-159313913D01*
X-33988483Y-159313383D01*
X-33948482Y-159299561D01*
X-33912853Y-159275119D01*
X-33912283Y-159274555D01*
X-33892332Y-159249695D01*
X-33882596Y-159220658D01*
X-33879863Y-159177372D01*
X-33879850Y-159172850D01*
X-33882004Y-159128557D01*
X-33890817Y-159099009D01*
X-33909814Y-159073742D01*
X-33915064Y-159068363D01*
X-33945405Y-159044450D01*
X-33979953Y-159034461D01*
X-34008239Y-159033150D01*
X-34049347Y-159036400D01*
X-34077077Y-159049203D01*
X-34096284Y-159068125D01*
X-34126070Y-159117947D01*
X-34136311Y-159170613D01*
X-34238451Y-159170613D01*
X-34239395Y-159160283D01*
X-34225258Y-159089388D01*
X-34217797Y-159071250D01*
X-34177045Y-159006733D01*
X-34123606Y-158963869D01*
X-34055939Y-158941689D01*
X-34005616Y-158937900D01*
X-33928234Y-158949125D01*
X-33928234Y-158949125D01*
G37*
X-33928234Y-158949125D02*
X-33863526Y-158981026D01*
X-33814138Y-159030946D01*
X-33782715Y-159096222D01*
X-33771900Y-159172850D01*
X-33783004Y-159250946D01*
X-33814658Y-159315890D01*
X-33864381Y-159365231D01*
X-33929689Y-159396521D01*
X-34008099Y-159407311D01*
X-34009618Y-159407302D01*
X-34055423Y-159403339D01*
X-34097360Y-159394004D01*
X-34108450Y-159389872D01*
X-34165573Y-159351464D01*
X-34207684Y-159296767D01*
X-34232914Y-159231225D01*
X-34238451Y-159170613D01*
X-34136311Y-159170613D01*
X-34129113Y-159221333D01*
X-34106582Y-159265316D01*
X-34070822Y-159297772D01*
X-34023940Y-159313913D01*
X-33988483Y-159313383D01*
X-33948482Y-159299561D01*
X-33912853Y-159275119D01*
X-33912283Y-159274555D01*
X-33892332Y-159249695D01*
X-33882596Y-159220658D01*
X-33879863Y-159177372D01*
X-33879850Y-159172850D01*
X-33882004Y-159128557D01*
X-33890817Y-159099009D01*
X-33909814Y-159073742D01*
X-33915064Y-159068363D01*
X-33945405Y-159044450D01*
X-33979953Y-159034461D01*
X-34008239Y-159033150D01*
X-34049347Y-159036400D01*
X-34077077Y-159049203D01*
X-34096284Y-159068125D01*
X-34126070Y-159117947D01*
X-34136311Y-159170613D01*
X-34238451Y-159170613D01*
X-34239395Y-159160283D01*
X-34225258Y-159089388D01*
X-34217797Y-159071250D01*
X-34177045Y-159006733D01*
X-34123606Y-158963869D01*
X-34055939Y-158941689D01*
X-34005616Y-158937900D01*
X-33928234Y-158949125D01*
G36*
X-34419600Y-159011409D02*
G01*
X-34419793Y-159095945D01*
X-34420646Y-159159353D01*
X-34422573Y-159205900D01*
X-34425987Y-159239855D01*
X-34431300Y-159265488D01*
X-34438927Y-159287068D01*
X-34448175Y-159306684D01*
X-34485253Y-159359147D01*
X-34521200Y-159385555D01*
X-34573660Y-159401642D01*
X-34635735Y-159406377D01*
X-34694048Y-159399199D01*
X-34711694Y-159393532D01*
X-34760888Y-159363215D01*
X-34804109Y-159317614D01*
X-34820857Y-159290955D01*
X-34835563Y-159257641D01*
X-34834023Y-159237654D01*
X-34814179Y-159223253D01*
X-34801367Y-159217617D01*
X-34764497Y-159208790D01*
X-34742418Y-159217789D01*
X-34737100Y-159235970D01*
X-34726769Y-159257685D01*
X-34701312Y-159282819D01*
X-34669037Y-159304987D01*
X-34638250Y-159317804D01*
X-34629215Y-159318900D01*
X-34595624Y-159316521D01*
X-34569712Y-159307494D01*
X-34550511Y-159288978D01*
X-34537054Y-159258134D01*
X-34528372Y-159212122D01*
X-34523497Y-159148104D01*
X-34521461Y-159063238D01*
X-34521200Y-159002030D01*
X-34521200Y-158772800D01*
X-34419600Y-158772800D01*
X-34419600Y-159011409D01*
X-34419600Y-159011409D01*
G37*
X-34419600Y-159011409D02*
X-34419793Y-159095945D01*
X-34420646Y-159159353D01*
X-34422573Y-159205900D01*
X-34425987Y-159239855D01*
X-34431300Y-159265488D01*
X-34438927Y-159287068D01*
X-34448175Y-159306684D01*
X-34485253Y-159359147D01*
X-34521200Y-159385555D01*
X-34573660Y-159401642D01*
X-34635735Y-159406377D01*
X-34694048Y-159399199D01*
X-34711694Y-159393532D01*
X-34760888Y-159363215D01*
X-34804109Y-159317614D01*
X-34820857Y-159290955D01*
X-34835563Y-159257641D01*
X-34834023Y-159237654D01*
X-34814179Y-159223253D01*
X-34801367Y-159217617D01*
X-34764497Y-159208790D01*
X-34742418Y-159217789D01*
X-34737100Y-159235970D01*
X-34726769Y-159257685D01*
X-34701312Y-159282819D01*
X-34669037Y-159304987D01*
X-34638250Y-159317804D01*
X-34629215Y-159318900D01*
X-34595624Y-159316521D01*
X-34569712Y-159307494D01*
X-34550511Y-159288978D01*
X-34537054Y-159258134D01*
X-34528372Y-159212122D01*
X-34523497Y-159148104D01*
X-34521461Y-159063238D01*
X-34521200Y-159002030D01*
X-34521200Y-158772800D01*
X-34419600Y-158772800D01*
X-34419600Y-159011409D01*
G36*
X-23017526Y-158945453D02*
G01*
X-22988970Y-158957276D01*
X-22963304Y-158967208D01*
X-22951643Y-158964762D01*
X-22951500Y-158963626D01*
X-22940235Y-158955469D01*
X-22912090Y-158950932D01*
X-22900700Y-158950600D01*
X-22849900Y-158950600D01*
X-22849900Y-159202721D01*
X-22850035Y-159289193D01*
X-22850691Y-159354155D01*
X-22852249Y-159401497D01*
X-22855088Y-159435109D01*
X-22859588Y-159458879D01*
X-22866128Y-159476699D01*
X-22875090Y-159492457D01*
X-22878729Y-159497996D01*
X-22924135Y-159544194D01*
X-22984762Y-159573830D01*
X-23055611Y-159585713D01*
X-23131684Y-159578656D01*
X-23170696Y-159567447D01*
X-23216322Y-159547420D01*
X-23246448Y-159526476D01*
X-23256300Y-159509251D01*
X-23249064Y-159493145D01*
X-23234045Y-159472029D01*
X-23211790Y-159444546D01*
X-23149730Y-159471998D01*
X-23088491Y-159490625D01*
X-23034263Y-159491271D01*
X-22990831Y-159475328D01*
X-22961982Y-159444187D01*
X-22951501Y-159399238D01*
X-22951500Y-159399155D01*
X-22951500Y-159356347D01*
X-22988970Y-159375723D01*
X-23049539Y-159394532D01*
X-23109007Y-159390756D01*
X-23163859Y-159367099D01*
X-23210580Y-159326262D01*
X-23245656Y-159270946D01*
X-23265572Y-159203853D01*
X-23268694Y-159161944D01*
X-23166705Y-159161944D01*
X-23160163Y-159213003D01*
X-23137449Y-159258341D01*
X-23102503Y-159289108D01*
X-23064355Y-159300009D01*
X-23018804Y-159298768D01*
X-22979041Y-159286299D01*
X-22969417Y-159279859D01*
X-22959865Y-159259334D01*
X-22953690Y-159221682D01*
X-22950964Y-159174854D01*
X-22951755Y-159126803D01*
X-22956133Y-159085480D01*
X-22964169Y-159058838D01*
X-22967447Y-159054776D01*
X-23008116Y-159035364D01*
X-23057328Y-159031601D01*
X-23092046Y-159039850D01*
X-23132372Y-159068826D01*
X-23157350Y-159111704D01*
X-23166705Y-159161944D01*
X-23268694Y-159161944D01*
X-23268792Y-159160634D01*
X-23258427Y-159090522D01*
X-23230365Y-159030408D01*
X-23188424Y-158983069D01*
X-23136424Y-158951279D01*
X-23078185Y-158937816D01*
X-23017526Y-158945453D01*
X-23017526Y-158945453D01*
G37*
X-23017526Y-158945453D02*
X-22988970Y-158957276D01*
X-22963304Y-158967208D01*
X-22951643Y-158964762D01*
X-22951500Y-158963626D01*
X-22940235Y-158955469D01*
X-22912090Y-158950932D01*
X-22900700Y-158950600D01*
X-22849900Y-158950600D01*
X-22849900Y-159202721D01*
X-22850035Y-159289193D01*
X-22850691Y-159354155D01*
X-22852249Y-159401497D01*
X-22855088Y-159435109D01*
X-22859588Y-159458879D01*
X-22866128Y-159476699D01*
X-22875090Y-159492457D01*
X-22878729Y-159497996D01*
X-22924135Y-159544194D01*
X-22984762Y-159573830D01*
X-23055611Y-159585713D01*
X-23131684Y-159578656D01*
X-23170696Y-159567447D01*
X-23216322Y-159547420D01*
X-23246448Y-159526476D01*
X-23256300Y-159509251D01*
X-23249064Y-159493145D01*
X-23234045Y-159472029D01*
X-23211790Y-159444546D01*
X-23149730Y-159471998D01*
X-23088491Y-159490625D01*
X-23034263Y-159491271D01*
X-22990831Y-159475328D01*
X-22961982Y-159444187D01*
X-22951501Y-159399238D01*
X-22951500Y-159399155D01*
X-22951500Y-159356347D01*
X-22988970Y-159375723D01*
X-23049539Y-159394532D01*
X-23109007Y-159390756D01*
X-23163859Y-159367099D01*
X-23210580Y-159326262D01*
X-23245656Y-159270946D01*
X-23265572Y-159203853D01*
X-23268694Y-159161944D01*
X-23166705Y-159161944D01*
X-23160163Y-159213003D01*
X-23137449Y-159258341D01*
X-23102503Y-159289108D01*
X-23064355Y-159300009D01*
X-23018804Y-159298768D01*
X-22979041Y-159286299D01*
X-22969417Y-159279859D01*
X-22959865Y-159259334D01*
X-22953690Y-159221682D01*
X-22950964Y-159174854D01*
X-22951755Y-159126803D01*
X-22956133Y-159085480D01*
X-22964169Y-159058838D01*
X-22967447Y-159054776D01*
X-23008116Y-159035364D01*
X-23057328Y-159031601D01*
X-23092046Y-159039850D01*
X-23132372Y-159068826D01*
X-23157350Y-159111704D01*
X-23166705Y-159161944D01*
X-23268694Y-159161944D01*
X-23268792Y-159160634D01*
X-23258427Y-159090522D01*
X-23230365Y-159030408D01*
X-23188424Y-158983069D01*
X-23136424Y-158951279D01*
X-23078185Y-158937816D01*
X-23017526Y-158945453D01*
G36*
X-27894326Y-158945453D02*
G01*
X-27865770Y-158957276D01*
X-27840104Y-158967208D01*
X-27828443Y-158964762D01*
X-27828300Y-158963626D01*
X-27817035Y-158955469D01*
X-27788890Y-158950932D01*
X-27777500Y-158950600D01*
X-27726700Y-158950600D01*
X-27726700Y-159202721D01*
X-27726835Y-159289193D01*
X-27727491Y-159354155D01*
X-27729049Y-159401497D01*
X-27731888Y-159435109D01*
X-27736388Y-159458879D01*
X-27742928Y-159476699D01*
X-27751890Y-159492457D01*
X-27755529Y-159497996D01*
X-27800935Y-159544194D01*
X-27861562Y-159573830D01*
X-27932411Y-159585713D01*
X-28008484Y-159578656D01*
X-28047496Y-159567447D01*
X-28093122Y-159547420D01*
X-28123248Y-159526476D01*
X-28133100Y-159509251D01*
X-28125864Y-159493145D01*
X-28110845Y-159472029D01*
X-28088590Y-159444546D01*
X-28026530Y-159471998D01*
X-27965291Y-159490625D01*
X-27911063Y-159491271D01*
X-27867631Y-159475328D01*
X-27838782Y-159444187D01*
X-27828301Y-159399238D01*
X-27828300Y-159399155D01*
X-27828300Y-159356347D01*
X-27865770Y-159375723D01*
X-27926339Y-159394532D01*
X-27985807Y-159390756D01*
X-28040659Y-159367099D01*
X-28087380Y-159326262D01*
X-28122456Y-159270946D01*
X-28142372Y-159203853D01*
X-28145494Y-159161944D01*
X-28043505Y-159161944D01*
X-28036963Y-159213003D01*
X-28014249Y-159258341D01*
X-27979303Y-159289108D01*
X-27941155Y-159300009D01*
X-27895604Y-159298768D01*
X-27855841Y-159286299D01*
X-27846217Y-159279859D01*
X-27836665Y-159259334D01*
X-27830490Y-159221682D01*
X-27827764Y-159174854D01*
X-27828555Y-159126803D01*
X-27832933Y-159085480D01*
X-27840969Y-159058838D01*
X-27844247Y-159054776D01*
X-27884916Y-159035364D01*
X-27934128Y-159031601D01*
X-27968846Y-159039850D01*
X-28009172Y-159068826D01*
X-28034150Y-159111704D01*
X-28043505Y-159161944D01*
X-28145494Y-159161944D01*
X-28145592Y-159160634D01*
X-28135227Y-159090522D01*
X-28107165Y-159030408D01*
X-28065224Y-158983069D01*
X-28013224Y-158951279D01*
X-27954985Y-158937816D01*
X-27894326Y-158945453D01*
X-27894326Y-158945453D01*
G37*
X-27894326Y-158945453D02*
X-27865770Y-158957276D01*
X-27840104Y-158967208D01*
X-27828443Y-158964762D01*
X-27828300Y-158963626D01*
X-27817035Y-158955469D01*
X-27788890Y-158950932D01*
X-27777500Y-158950600D01*
X-27726700Y-158950600D01*
X-27726700Y-159202721D01*
X-27726835Y-159289193D01*
X-27727491Y-159354155D01*
X-27729049Y-159401497D01*
X-27731888Y-159435109D01*
X-27736388Y-159458879D01*
X-27742928Y-159476699D01*
X-27751890Y-159492457D01*
X-27755529Y-159497996D01*
X-27800935Y-159544194D01*
X-27861562Y-159573830D01*
X-27932411Y-159585713D01*
X-28008484Y-159578656D01*
X-28047496Y-159567447D01*
X-28093122Y-159547420D01*
X-28123248Y-159526476D01*
X-28133100Y-159509251D01*
X-28125864Y-159493145D01*
X-28110845Y-159472029D01*
X-28088590Y-159444546D01*
X-28026530Y-159471998D01*
X-27965291Y-159490625D01*
X-27911063Y-159491271D01*
X-27867631Y-159475328D01*
X-27838782Y-159444187D01*
X-27828301Y-159399238D01*
X-27828300Y-159399155D01*
X-27828300Y-159356347D01*
X-27865770Y-159375723D01*
X-27926339Y-159394532D01*
X-27985807Y-159390756D01*
X-28040659Y-159367099D01*
X-28087380Y-159326262D01*
X-28122456Y-159270946D01*
X-28142372Y-159203853D01*
X-28145494Y-159161944D01*
X-28043505Y-159161944D01*
X-28036963Y-159213003D01*
X-28014249Y-159258341D01*
X-27979303Y-159289108D01*
X-27941155Y-159300009D01*
X-27895604Y-159298768D01*
X-27855841Y-159286299D01*
X-27846217Y-159279859D01*
X-27836665Y-159259334D01*
X-27830490Y-159221682D01*
X-27827764Y-159174854D01*
X-27828555Y-159126803D01*
X-27832933Y-159085480D01*
X-27840969Y-159058838D01*
X-27844247Y-159054776D01*
X-27884916Y-159035364D01*
X-27934128Y-159031601D01*
X-27968846Y-159039850D01*
X-28009172Y-159068826D01*
X-28034150Y-159111704D01*
X-28043505Y-159161944D01*
X-28145494Y-159161944D01*
X-28145592Y-159160634D01*
X-28135227Y-159090522D01*
X-28107165Y-159030408D01*
X-28065224Y-158983069D01*
X-28013224Y-158951279D01*
X-27954985Y-158937816D01*
X-27894326Y-158945453D01*
G36*
X-22064714Y-160491293D02*
G01*
X-22041353Y-160532187D01*
X-22039604Y-160576811D01*
X-22059361Y-160617299D01*
X-22066494Y-160624786D01*
X-22095888Y-160652400D01*
X-35281357Y-160652400D01*
X-35307679Y-160618937D01*
X-35326231Y-160587072D01*
X-35334000Y-160557272D01*
X-35334000Y-160557150D01*
X-35326306Y-160527404D01*
X-35307793Y-160495507D01*
X-35307679Y-160495362D01*
X-35281357Y-160461900D01*
X-28686843Y-160461899D01*
X-22092328Y-160461899D01*
X-22064714Y-160491293D01*
X-22064714Y-160491293D01*
G37*
X-22064714Y-160491293D02*
X-22041353Y-160532187D01*
X-22039604Y-160576811D01*
X-22059361Y-160617299D01*
X-22066494Y-160624786D01*
X-22095888Y-160652400D01*
X-35281357Y-160652400D01*
X-35307679Y-160618937D01*
X-35326231Y-160587072D01*
X-35334000Y-160557272D01*
X-35334000Y-160557150D01*
X-35326306Y-160527404D01*
X-35307793Y-160495507D01*
X-35307679Y-160495362D01*
X-35281357Y-160461900D01*
X-28686843Y-160461899D01*
X-22092328Y-160461899D01*
X-22064714Y-160491293D01*
G36*
X-37755957Y-160464392D02*
G01*
X-37707899Y-160473191D01*
X-37677895Y-160490281D01*
X-37662458Y-160517645D01*
X-37658100Y-160557150D01*
X-37662393Y-160596532D01*
X-37677601Y-160623780D01*
X-37707219Y-160640862D01*
X-37754743Y-160649745D01*
X-37823668Y-160652395D01*
X-37827337Y-160652400D01*
X-37884092Y-160651825D01*
X-37921508Y-160649290D01*
X-37945635Y-160643576D01*
X-37962524Y-160633466D01*
X-37973387Y-160623006D01*
X-37996748Y-160582112D01*
X-37998497Y-160537488D01*
X-37978740Y-160497000D01*
X-37971607Y-160489513D01*
X-37954426Y-160476180D01*
X-37933381Y-160467937D01*
X-37902262Y-160463612D01*
X-37854859Y-160462030D01*
X-37825557Y-160461900D01*
X-37755957Y-160464392D01*
X-37755957Y-160464392D01*
G37*
X-37755957Y-160464392D02*
X-37707899Y-160473191D01*
X-37677895Y-160490281D01*
X-37662458Y-160517645D01*
X-37658100Y-160557150D01*
X-37662393Y-160596532D01*
X-37677601Y-160623780D01*
X-37707219Y-160640862D01*
X-37754743Y-160649745D01*
X-37823668Y-160652395D01*
X-37827337Y-160652400D01*
X-37884092Y-160651825D01*
X-37921508Y-160649290D01*
X-37945635Y-160643576D01*
X-37962524Y-160633466D01*
X-37973387Y-160623006D01*
X-37996748Y-160582112D01*
X-37998497Y-160537488D01*
X-37978740Y-160497000D01*
X-37971607Y-160489513D01*
X-37954426Y-160476180D01*
X-37933381Y-160467937D01*
X-37902262Y-160463612D01*
X-37854859Y-160462030D01*
X-37825557Y-160461900D01*
X-37755957Y-160464392D01*
G36*
X-37295443Y-160213054D02*
G01*
X-37262632Y-160232157D01*
X-37253059Y-160240516D01*
X-37245730Y-160250303D01*
X-37240293Y-160264826D01*
X-37236395Y-160287391D01*
X-37233683Y-160321307D01*
X-37231806Y-160369882D01*
X-37230411Y-160436423D01*
X-37229146Y-160524238D01*
X-37228812Y-160549571D01*
X-37224974Y-160842728D01*
X-37256810Y-160874564D01*
X-37296565Y-160901023D01*
X-37336473Y-160902725D01*
X-37373960Y-160879617D01*
X-37376487Y-160877006D01*
X-37385325Y-160866635D01*
X-37392044Y-160854549D01*
X-37396935Y-160837371D01*
X-37400286Y-160811724D01*
X-37402389Y-160774232D01*
X-37403532Y-160721520D01*
X-37404006Y-160650210D01*
X-37404100Y-160556927D01*
X-37404100Y-160555370D01*
X-37404035Y-160461929D01*
X-37403633Y-160390539D01*
X-37402587Y-160337846D01*
X-37400588Y-160300503D01*
X-37397330Y-160275156D01*
X-37392503Y-160258457D01*
X-37385800Y-160247055D01*
X-37376914Y-160237598D01*
X-37374707Y-160235513D01*
X-37335530Y-160211609D01*
X-37295443Y-160213054D01*
X-37295443Y-160213054D01*
G37*
X-37295443Y-160213054D02*
X-37262632Y-160232157D01*
X-37253059Y-160240516D01*
X-37245730Y-160250303D01*
X-37240293Y-160264826D01*
X-37236395Y-160287391D01*
X-37233683Y-160321307D01*
X-37231806Y-160369882D01*
X-37230411Y-160436423D01*
X-37229146Y-160524238D01*
X-37228812Y-160549571D01*
X-37224974Y-160842728D01*
X-37256810Y-160874564D01*
X-37296565Y-160901023D01*
X-37336473Y-160902725D01*
X-37373960Y-160879617D01*
X-37376487Y-160877006D01*
X-37385325Y-160866635D01*
X-37392044Y-160854549D01*
X-37396935Y-160837371D01*
X-37400286Y-160811724D01*
X-37402389Y-160774232D01*
X-37403532Y-160721520D01*
X-37404006Y-160650210D01*
X-37404100Y-160556927D01*
X-37404100Y-160555370D01*
X-37404035Y-160461929D01*
X-37403633Y-160390539D01*
X-37402587Y-160337846D01*
X-37400588Y-160300503D01*
X-37397330Y-160275156D01*
X-37392503Y-160258457D01*
X-37385800Y-160247055D01*
X-37376914Y-160237598D01*
X-37374707Y-160235513D01*
X-37335530Y-160211609D01*
X-37295443Y-160213054D01*
G36*
X-35569640Y-159884148D02*
G01*
X-35562600Y-159890400D01*
X-35556882Y-159896819D01*
X-35552093Y-159905090D01*
X-35548151Y-159917365D01*
X-35544974Y-159935795D01*
X-35542478Y-159962532D01*
X-35540583Y-159999728D01*
X-35539205Y-160049533D01*
X-35538263Y-160114100D01*
X-35537674Y-160195579D01*
X-35537355Y-160296124D01*
X-35537225Y-160417884D01*
X-35537200Y-160554324D01*
X-35537278Y-160700224D01*
X-35537554Y-160822823D01*
X-35538088Y-160924218D01*
X-35538945Y-161006508D01*
X-35540185Y-161071791D01*
X-35541871Y-161122165D01*
X-35544066Y-161159728D01*
X-35546831Y-161186578D01*
X-35550229Y-161204814D01*
X-35554322Y-161216533D01*
X-35556971Y-161221074D01*
X-35586738Y-161243781D01*
X-35626267Y-161249686D01*
X-35666243Y-161238757D01*
X-35689106Y-161221505D01*
X-35694942Y-161214613D01*
X-35699829Y-161206105D01*
X-35703850Y-161193817D01*
X-35707090Y-161175586D01*
X-35709633Y-161149248D01*
X-35711563Y-161112641D01*
X-35712965Y-161063601D01*
X-35713923Y-160999964D01*
X-35714521Y-160919567D01*
X-35714844Y-160820246D01*
X-35714975Y-160699839D01*
X-35715000Y-160557150D01*
X-35714975Y-160413643D01*
X-35714842Y-160293374D01*
X-35714518Y-160194178D01*
X-35713918Y-160113891D01*
X-35712957Y-160050352D01*
X-35711553Y-160001395D01*
X-35709619Y-159964858D01*
X-35707072Y-159938577D01*
X-35703828Y-159920390D01*
X-35699801Y-159908132D01*
X-35694909Y-159899641D01*
X-35689106Y-159892794D01*
X-35652262Y-159869943D01*
X-35609207Y-159867000D01*
X-35569640Y-159884148D01*
X-35569640Y-159884148D01*
G37*
X-35569640Y-159884148D02*
X-35562600Y-159890400D01*
X-35556882Y-159896819D01*
X-35552093Y-159905090D01*
X-35548151Y-159917365D01*
X-35544974Y-159935795D01*
X-35542478Y-159962532D01*
X-35540583Y-159999728D01*
X-35539205Y-160049533D01*
X-35538263Y-160114100D01*
X-35537674Y-160195579D01*
X-35537355Y-160296124D01*
X-35537225Y-160417884D01*
X-35537200Y-160554324D01*
X-35537278Y-160700224D01*
X-35537554Y-160822823D01*
X-35538088Y-160924218D01*
X-35538945Y-161006508D01*
X-35540185Y-161071791D01*
X-35541871Y-161122165D01*
X-35544066Y-161159728D01*
X-35546831Y-161186578D01*
X-35550229Y-161204814D01*
X-35554322Y-161216533D01*
X-35556971Y-161221074D01*
X-35586738Y-161243781D01*
X-35626267Y-161249686D01*
X-35666243Y-161238757D01*
X-35689106Y-161221505D01*
X-35694942Y-161214613D01*
X-35699829Y-161206105D01*
X-35703850Y-161193817D01*
X-35707090Y-161175586D01*
X-35709633Y-161149248D01*
X-35711563Y-161112641D01*
X-35712965Y-161063601D01*
X-35713923Y-160999964D01*
X-35714521Y-160919567D01*
X-35714844Y-160820246D01*
X-35714975Y-160699839D01*
X-35715000Y-160557150D01*
X-35714975Y-160413643D01*
X-35714842Y-160293374D01*
X-35714518Y-160194178D01*
X-35713918Y-160113891D01*
X-35712957Y-160050352D01*
X-35711553Y-160001395D01*
X-35709619Y-159964858D01*
X-35707072Y-159938577D01*
X-35703828Y-159920390D01*
X-35699801Y-159908132D01*
X-35694909Y-159899641D01*
X-35689106Y-159892794D01*
X-35652262Y-159869943D01*
X-35609207Y-159867000D01*
X-35569640Y-159884148D01*
G36*
X-36585847Y-159873366D02*
G01*
X-36583677Y-159874719D01*
X-36574101Y-159882268D01*
X-36566052Y-159892460D01*
X-36559397Y-159907408D01*
X-36554006Y-159929227D01*
X-36549745Y-159960029D01*
X-36546483Y-160001931D01*
X-36544089Y-160057044D01*
X-36542429Y-160127484D01*
X-36541372Y-160215364D01*
X-36540787Y-160322799D01*
X-36540542Y-160451902D01*
X-36540500Y-160566620D01*
X-36540527Y-160708969D01*
X-36540663Y-160828100D01*
X-36540995Y-160926193D01*
X-36541610Y-161005429D01*
X-36542594Y-161067989D01*
X-36544032Y-161116055D01*
X-36546012Y-161151807D01*
X-36548619Y-161177427D01*
X-36551940Y-161195095D01*
X-36556061Y-161206993D01*
X-36561067Y-161215301D01*
X-36566395Y-161221505D01*
X-36601291Y-161244001D01*
X-36642129Y-161249644D01*
X-36679597Y-161238462D01*
X-36698530Y-161221074D01*
X-36703044Y-161212113D01*
X-36706828Y-161197824D01*
X-36709944Y-161176107D01*
X-36712454Y-161144866D01*
X-36714420Y-161102001D01*
X-36715906Y-161045415D01*
X-36716972Y-160973009D01*
X-36717681Y-160882686D01*
X-36718095Y-160772347D01*
X-36718277Y-160639893D01*
X-36718300Y-160554324D01*
X-36718273Y-160410547D01*
X-36718134Y-160290018D01*
X-36717803Y-160190586D01*
X-36717196Y-160110100D01*
X-36716232Y-160046407D01*
X-36714827Y-159997357D01*
X-36712901Y-159960797D01*
X-36710370Y-159934577D01*
X-36707152Y-159916544D01*
X-36703165Y-159904547D01*
X-36698327Y-159896434D01*
X-36692900Y-159890400D01*
X-36660323Y-159871493D01*
X-36620356Y-159865200D01*
X-36585847Y-159873366D01*
X-36585847Y-159873366D01*
G37*
X-36585847Y-159873366D02*
X-36583677Y-159874719D01*
X-36574101Y-159882268D01*
X-36566052Y-159892460D01*
X-36559397Y-159907408D01*
X-36554006Y-159929227D01*
X-36549745Y-159960029D01*
X-36546483Y-160001931D01*
X-36544089Y-160057044D01*
X-36542429Y-160127484D01*
X-36541372Y-160215364D01*
X-36540787Y-160322799D01*
X-36540542Y-160451902D01*
X-36540500Y-160566620D01*
X-36540527Y-160708969D01*
X-36540663Y-160828100D01*
X-36540995Y-160926193D01*
X-36541610Y-161005429D01*
X-36542594Y-161067989D01*
X-36544032Y-161116055D01*
X-36546012Y-161151807D01*
X-36548619Y-161177427D01*
X-36551940Y-161195095D01*
X-36556061Y-161206993D01*
X-36561067Y-161215301D01*
X-36566395Y-161221505D01*
X-36601291Y-161244001D01*
X-36642129Y-161249644D01*
X-36679597Y-161238462D01*
X-36698530Y-161221074D01*
X-36703044Y-161212113D01*
X-36706828Y-161197824D01*
X-36709944Y-161176107D01*
X-36712454Y-161144866D01*
X-36714420Y-161102001D01*
X-36715906Y-161045415D01*
X-36716972Y-160973009D01*
X-36717681Y-160882686D01*
X-36718095Y-160772347D01*
X-36718277Y-160639893D01*
X-36718300Y-160554324D01*
X-36718273Y-160410547D01*
X-36718134Y-160290018D01*
X-36717803Y-160190586D01*
X-36717196Y-160110100D01*
X-36716232Y-160046407D01*
X-36714827Y-159997357D01*
X-36712901Y-159960797D01*
X-36710370Y-159934577D01*
X-36707152Y-159916544D01*
X-36703165Y-159904547D01*
X-36698327Y-159896434D01*
X-36692900Y-159890400D01*
X-36660323Y-159871493D01*
X-36620356Y-159865200D01*
X-36585847Y-159873366D01*
G36*
X-35899947Y-159528088D02*
G01*
X-35878121Y-159546790D01*
X-35873799Y-159553072D01*
X-35870042Y-159561651D01*
X-35866812Y-159574239D01*
X-35864069Y-159592549D01*
X-35861773Y-159618294D01*
X-35859885Y-159653187D01*
X-35858365Y-159698939D01*
X-35857174Y-159757264D01*
X-35856271Y-159829875D01*
X-35855618Y-159918483D01*
X-35855174Y-160024802D01*
X-35854901Y-160150544D01*
X-35854758Y-160297422D01*
X-35854705Y-160467149D01*
X-35854700Y-160559134D01*
X-35854700Y-161542554D01*
X-35885873Y-161573727D01*
X-35923826Y-161599826D01*
X-35961067Y-161600608D01*
X-35998937Y-161576073D01*
X-36001328Y-161573727D01*
X-36032500Y-161542554D01*
X-36032500Y-160559134D01*
X-36032478Y-160377591D01*
X-36032384Y-160219736D01*
X-36032179Y-160083856D01*
X-36031824Y-159968238D01*
X-36031278Y-159871169D01*
X-36030503Y-159790937D01*
X-36029458Y-159725829D01*
X-36028104Y-159674133D01*
X-36026401Y-159634135D01*
X-36024310Y-159604124D01*
X-36021791Y-159582386D01*
X-36018805Y-159567209D01*
X-36015311Y-159556880D01*
X-36011270Y-159549687D01*
X-36009080Y-159546790D01*
X-35974516Y-159522461D01*
X-35943600Y-159517866D01*
X-35899947Y-159528088D01*
X-35899947Y-159528088D01*
G37*
X-35899947Y-159528088D02*
X-35878121Y-159546790D01*
X-35873799Y-159553072D01*
X-35870042Y-159561651D01*
X-35866812Y-159574239D01*
X-35864069Y-159592549D01*
X-35861773Y-159618294D01*
X-35859885Y-159653187D01*
X-35858365Y-159698939D01*
X-35857174Y-159757264D01*
X-35856271Y-159829875D01*
X-35855618Y-159918483D01*
X-35855174Y-160024802D01*
X-35854901Y-160150544D01*
X-35854758Y-160297422D01*
X-35854705Y-160467149D01*
X-35854700Y-160559134D01*
X-35854700Y-161542554D01*
X-35885873Y-161573727D01*
X-35923826Y-161599826D01*
X-35961067Y-161600608D01*
X-35998937Y-161576073D01*
X-36001328Y-161573727D01*
X-36032500Y-161542554D01*
X-36032500Y-160559134D01*
X-36032478Y-160377591D01*
X-36032384Y-160219736D01*
X-36032179Y-160083856D01*
X-36031824Y-159968238D01*
X-36031278Y-159871169D01*
X-36030503Y-159790937D01*
X-36029458Y-159725829D01*
X-36028104Y-159674133D01*
X-36026401Y-159634135D01*
X-36024310Y-159604124D01*
X-36021791Y-159582386D01*
X-36018805Y-159567209D01*
X-36015311Y-159556880D01*
X-36011270Y-159549687D01*
X-36009080Y-159546790D01*
X-35974516Y-159522461D01*
X-35943600Y-159517866D01*
X-35899947Y-159528088D01*
G36*
X-36943716Y-159523835D02*
G01*
X-36910397Y-159543551D01*
X-36891538Y-159575566D01*
X-36890291Y-159592673D01*
X-36889100Y-159633154D01*
X-36887983Y-159694985D01*
X-36886956Y-159776140D01*
X-36886034Y-159874594D01*
X-36885235Y-159988322D01*
X-36884573Y-160115299D01*
X-36884066Y-160253499D01*
X-36883729Y-160400897D01*
X-36883579Y-160555468D01*
X-36883574Y-160573602D01*
X-36883400Y-161542554D01*
X-36914573Y-161573727D01*
X-36951065Y-161599588D01*
X-36987314Y-161601150D01*
X-37027709Y-161578601D01*
X-37027738Y-161578578D01*
X-37061200Y-161552256D01*
X-37061200Y-160568093D01*
X-37061042Y-160358810D01*
X-37060563Y-160174594D01*
X-37059760Y-160015112D01*
X-37058628Y-159880033D01*
X-37057162Y-159769025D01*
X-37055359Y-159681755D01*
X-37053213Y-159617893D01*
X-37050721Y-159577107D01*
X-37047878Y-159559064D01*
X-37047728Y-159558757D01*
X-37020356Y-159530579D01*
X-36983027Y-159519224D01*
X-36943716Y-159523835D01*
X-36943716Y-159523835D01*
G37*
X-36943716Y-159523835D02*
X-36910397Y-159543551D01*
X-36891538Y-159575566D01*
X-36890291Y-159592673D01*
X-36889100Y-159633154D01*
X-36887983Y-159694985D01*
X-36886956Y-159776140D01*
X-36886034Y-159874594D01*
X-36885235Y-159988322D01*
X-36884573Y-160115299D01*
X-36884066Y-160253499D01*
X-36883729Y-160400897D01*
X-36883579Y-160555468D01*
X-36883574Y-160573602D01*
X-36883400Y-161542554D01*
X-36914573Y-161573727D01*
X-36951065Y-161599588D01*
X-36987314Y-161601150D01*
X-37027709Y-161578601D01*
X-37027738Y-161578578D01*
X-37061200Y-161552256D01*
X-37061200Y-160568093D01*
X-37061042Y-160358810D01*
X-37060563Y-160174594D01*
X-37059760Y-160015112D01*
X-37058628Y-159880033D01*
X-37057162Y-159769025D01*
X-37055359Y-159681755D01*
X-37053213Y-159617893D01*
X-37050721Y-159577107D01*
X-37047878Y-159559064D01*
X-37047728Y-159558757D01*
X-37020356Y-159530579D01*
X-36983027Y-159519224D01*
X-36943716Y-159523835D01*
G36*
X-36229168Y-159193784D02*
G01*
X-36223922Y-159199962D01*
X-36219713Y-159205588D01*
X-36215978Y-159212115D01*
X-36212690Y-159221013D01*
X-36209819Y-159233751D01*
X-36207337Y-159251799D01*
X-36205217Y-159276627D01*
X-36203429Y-159309703D01*
X-36201946Y-159352497D01*
X-36200738Y-159406478D01*
X-36199778Y-159473117D01*
X-36199037Y-159553882D01*
X-36198486Y-159650243D01*
X-36198098Y-159763669D01*
X-36197844Y-159895630D01*
X-36197696Y-160047596D01*
X-36197625Y-160221035D01*
X-36197602Y-160417417D01*
X-36197600Y-160562998D01*
X-36197600Y-161892572D01*
X-36226994Y-161920186D01*
X-36267058Y-161943429D01*
X-36309329Y-161944227D01*
X-36347001Y-161922590D01*
X-36349506Y-161920005D01*
X-36353639Y-161915243D01*
X-36357307Y-161909375D01*
X-36360537Y-161900941D01*
X-36363359Y-161888481D01*
X-36365798Y-161870535D01*
X-36367884Y-161845641D01*
X-36369643Y-161812341D01*
X-36371104Y-161769174D01*
X-36372295Y-161714680D01*
X-36373242Y-161647399D01*
X-36373974Y-161565870D01*
X-36374518Y-161468633D01*
X-36374903Y-161354228D01*
X-36375156Y-161221196D01*
X-36375304Y-161068075D01*
X-36375376Y-160893405D01*
X-36375399Y-160695727D01*
X-36375400Y-160556969D01*
X-36375401Y-159221727D01*
X-36346007Y-159194113D01*
X-36305943Y-159170230D01*
X-36265381Y-159170198D01*
X-36229168Y-159193784D01*
X-36229168Y-159193784D01*
G37*
X-36229168Y-159193784D02*
X-36223922Y-159199962D01*
X-36219713Y-159205588D01*
X-36215978Y-159212115D01*
X-36212690Y-159221013D01*
X-36209819Y-159233751D01*
X-36207337Y-159251799D01*
X-36205217Y-159276627D01*
X-36203429Y-159309703D01*
X-36201946Y-159352497D01*
X-36200738Y-159406478D01*
X-36199778Y-159473117D01*
X-36199037Y-159553882D01*
X-36198486Y-159650243D01*
X-36198098Y-159763669D01*
X-36197844Y-159895630D01*
X-36197696Y-160047596D01*
X-36197625Y-160221035D01*
X-36197602Y-160417417D01*
X-36197600Y-160562998D01*
X-36197600Y-161892572D01*
X-36226994Y-161920186D01*
X-36267058Y-161943429D01*
X-36309329Y-161944227D01*
X-36347001Y-161922590D01*
X-36349506Y-161920005D01*
X-36353639Y-161915243D01*
X-36357307Y-161909375D01*
X-36360537Y-161900941D01*
X-36363359Y-161888481D01*
X-36365798Y-161870535D01*
X-36367884Y-161845641D01*
X-36369643Y-161812341D01*
X-36371104Y-161769174D01*
X-36372295Y-161714680D01*
X-36373242Y-161647399D01*
X-36373974Y-161565870D01*
X-36374518Y-161468633D01*
X-36374903Y-161354228D01*
X-36375156Y-161221196D01*
X-36375304Y-161068075D01*
X-36375376Y-160893405D01*
X-36375399Y-160695727D01*
X-36375400Y-160556969D01*
X-36375401Y-159221727D01*
X-36346007Y-159194113D01*
X-36305943Y-159170230D01*
X-36265381Y-159170198D01*
X-36229168Y-159193784D01*
D15*
X-25000000Y-70500000D02*
G75*
G02X-15000000Y-70500000I5000000J5500000D01*
G01*
X-14500000Y-71000000D02*
X-15500000Y-70000000D01*
X-24500000Y-70000000D02*
X-25500000Y-71000000D01*
X-20000000Y-57000000D02*
X-20000000Y-58000000D01*
X-40000000Y-57000000D02*
X-40000000Y-58000000D01*
X-44500000Y-70000000D02*
X-45500000Y-71000000D01*
X-34500000Y-71000000D02*
X-35500000Y-70000000D01*
X-45000000Y-70500000D02*
G75*
G02X-35000000Y-70500000I5000000J5500000D01*
G01*
M02*
