%TF.GenerationSoftware,KiCad,Pcbnew,(5.1.0)-1*%
%TF.CreationDate,2020-03-08T21:58:09+01:00*%
%TF.ProjectId,KicadJE_AC3340_RevA_Faceplate,4b696361-644a-4455-9f41-43333334305f,rev?*%
%TF.SameCoordinates,Original*%
%TF.FileFunction,Legend,Top*%
%TF.FilePolarity,Positive*%
%FSLAX46Y46*%
G04 Gerber Fmt 4.6, Leading zero omitted, Abs format (unit mm)*
G04 Created by KiCad (PCBNEW (5.1.0)-1) date 2020-03-08 21:58:09*
%MOMM*%
%LPD*%
G04 APERTURE LIST*
%ADD10C,0.120000*%
%ADD11C,0.500000*%
%ADD12C,0.050000*%
%ADD13C,1.000000*%
%ADD14C,0.010000*%
%ADD15C,0.150000*%
G04 APERTURE END LIST*
D10*
X80000000Y-115000000D02*
X80000000Y-151000000D01*
X60000000Y-151000000D02*
X60000000Y-85000000D01*
D11*
X59095238Y-154357142D02*
X59095238Y-152357142D01*
X59095238Y-151357142D02*
X59000000Y-151500000D01*
X59095238Y-151642857D01*
X59190476Y-151500000D01*
X59095238Y-151357142D01*
X59095238Y-151642857D01*
X60047619Y-152357142D02*
X60047619Y-154357142D01*
X60047619Y-152642857D02*
X60142857Y-152500000D01*
X60333333Y-152357142D01*
X60619047Y-152357142D01*
X60809523Y-152500000D01*
X60904761Y-152785714D01*
X60904761Y-154357142D01*
X78380952Y-154357142D02*
X78190476Y-154214285D01*
X78095238Y-154071428D01*
X78000000Y-153785714D01*
X78000000Y-152928571D01*
X78095238Y-152642857D01*
X78190476Y-152500000D01*
X78380952Y-152357142D01*
X78666666Y-152357142D01*
X78857142Y-152500000D01*
X78952380Y-152642857D01*
X79047619Y-152928571D01*
X79047619Y-153785714D01*
X78952380Y-154071428D01*
X78857142Y-154214285D01*
X78666666Y-154357142D01*
X78380952Y-154357142D01*
X80761904Y-152357142D02*
X80761904Y-154357142D01*
X79904761Y-152357142D02*
X79904761Y-153928571D01*
X80000000Y-154214285D01*
X80190476Y-154357142D01*
X80476190Y-154357142D01*
X80666666Y-154214285D01*
X80761904Y-154071428D01*
X81428571Y-152357142D02*
X82190476Y-152357142D01*
X81714285Y-151357142D02*
X81714285Y-153928571D01*
X81809523Y-154214285D01*
X82000000Y-154357142D01*
X82190476Y-154357142D01*
D10*
X80000000Y-115000000D02*
X86500000Y-115000000D01*
X86500000Y-115000000D02*
X86500000Y-112000000D01*
X80000000Y-125000000D02*
X86500000Y-125000000D01*
X86500000Y-125000000D02*
X86500000Y-122000000D01*
X80000000Y-135000000D02*
X86500000Y-135000000D01*
X86500000Y-135000000D02*
X86500000Y-132000000D01*
X86500000Y-145000000D02*
X86500000Y-142000000D01*
X80000000Y-145000000D02*
X86500000Y-145000000D01*
X53000000Y-145000000D02*
X53000000Y-142000000D01*
X60000000Y-145000000D02*
X53000000Y-145000000D01*
X53000000Y-95000000D02*
X53000000Y-92000000D01*
X60000000Y-135000000D02*
X53000000Y-135000000D01*
X53000000Y-85000000D02*
X53000000Y-82000000D01*
X60000000Y-125000000D02*
X53000000Y-125000000D01*
X60000000Y-115000000D02*
X53000000Y-115000000D01*
X53000000Y-115000000D02*
X53000000Y-112000000D01*
X60000000Y-105000000D02*
X53000000Y-105000000D01*
X53000000Y-105000000D02*
X53000000Y-102000000D01*
X53000000Y-135000000D02*
X53000000Y-132000000D01*
X60000000Y-95000000D02*
X53000000Y-95000000D01*
X53000000Y-125000000D02*
X53000000Y-122000000D01*
X60000000Y-85000000D02*
X53000000Y-85000000D01*
D11*
X50690476Y-81357142D02*
X50690476Y-78357142D01*
X51452380Y-78357142D01*
X51642857Y-78500000D01*
X51738095Y-78642857D01*
X51833333Y-78928571D01*
X51833333Y-79357142D01*
X51738095Y-79642857D01*
X51642857Y-79785714D01*
X51452380Y-79928571D01*
X50690476Y-79928571D01*
X52500000Y-78357142D02*
X52976190Y-81357142D01*
X53357142Y-79214285D01*
X53738095Y-81357142D01*
X54214285Y-78357142D01*
X54976190Y-81357142D02*
X54976190Y-78357142D01*
X55642857Y-80500000D01*
X56309523Y-78357142D01*
X56309523Y-81357142D01*
X51476190Y-111214285D02*
X51761904Y-111357142D01*
X52238095Y-111357142D01*
X52428571Y-111214285D01*
X52523809Y-111071428D01*
X52619047Y-110785714D01*
X52619047Y-110500000D01*
X52523809Y-110214285D01*
X52428571Y-110071428D01*
X52238095Y-109928571D01*
X51857142Y-109785714D01*
X51666666Y-109642857D01*
X51571428Y-109500000D01*
X51476190Y-109214285D01*
X51476190Y-108928571D01*
X51571428Y-108642857D01*
X51666666Y-108500000D01*
X51857142Y-108357142D01*
X52333333Y-108357142D01*
X52619047Y-108500000D01*
X53380952Y-111214285D02*
X53666666Y-111357142D01*
X54142857Y-111357142D01*
X54333333Y-111214285D01*
X54428571Y-111071428D01*
X54523809Y-110785714D01*
X54523809Y-110500000D01*
X54428571Y-110214285D01*
X54333333Y-110071428D01*
X54142857Y-109928571D01*
X53761904Y-109785714D01*
X53571428Y-109642857D01*
X53476190Y-109500000D01*
X53380952Y-109214285D01*
X53380952Y-108928571D01*
X53476190Y-108642857D01*
X53571428Y-108500000D01*
X53761904Y-108357142D01*
X54238095Y-108357142D01*
X54523809Y-108500000D01*
X51476190Y-101357142D02*
X51476190Y-98357142D01*
X51476190Y-99785714D02*
X52619047Y-99785714D01*
X52619047Y-101357142D02*
X52619047Y-98357142D01*
X53476190Y-101214285D02*
X53761904Y-101357142D01*
X54238095Y-101357142D01*
X54428571Y-101214285D01*
X54523809Y-101071428D01*
X54619047Y-100785714D01*
X54619047Y-100500000D01*
X54523809Y-100214285D01*
X54428571Y-100071428D01*
X54238095Y-99928571D01*
X53857142Y-99785714D01*
X53666666Y-99642857D01*
X53571428Y-99500000D01*
X53476190Y-99214285D01*
X53476190Y-98928571D01*
X53571428Y-98642857D01*
X53666666Y-98500000D01*
X53857142Y-98357142D01*
X54333333Y-98357142D01*
X54619047Y-98500000D01*
X50580952Y-121357142D02*
X50580952Y-118357142D01*
X51533333Y-119357142D02*
X51533333Y-121357142D01*
X51533333Y-119642857D02*
X51628571Y-119500000D01*
X51819047Y-119357142D01*
X52104761Y-119357142D01*
X52295238Y-119500000D01*
X52390476Y-119785714D01*
X52390476Y-121357142D01*
X55914285Y-121357142D02*
X54771428Y-121357142D01*
X55342857Y-121357142D02*
X55342857Y-118357142D01*
X55152380Y-118785714D01*
X54961904Y-119071428D01*
X54771428Y-119214285D01*
X50580952Y-131357142D02*
X50580952Y-128357142D01*
X51533333Y-129357142D02*
X51533333Y-131357142D01*
X51533333Y-129642857D02*
X51628571Y-129500000D01*
X51819047Y-129357142D01*
X52104761Y-129357142D01*
X52295238Y-129500000D01*
X52390476Y-129785714D01*
X52390476Y-131357142D01*
X54771428Y-128642857D02*
X54866666Y-128500000D01*
X55057142Y-128357142D01*
X55533333Y-128357142D01*
X55723809Y-128500000D01*
X55819047Y-128642857D01*
X55914285Y-128928571D01*
X55914285Y-129214285D01*
X55819047Y-129642857D01*
X54676190Y-131357142D01*
X55914285Y-131357142D01*
X50580952Y-141357142D02*
X50580952Y-138357142D01*
X51533333Y-139357142D02*
X51533333Y-141357142D01*
X51533333Y-139642857D02*
X51628571Y-139500000D01*
X51819047Y-139357142D01*
X52104761Y-139357142D01*
X52295238Y-139500000D01*
X52390476Y-139785714D01*
X52390476Y-141357142D01*
X54676190Y-138357142D02*
X55914285Y-138357142D01*
X55247619Y-139500000D01*
X55533333Y-139500000D01*
X55723809Y-139642857D01*
X55819047Y-139785714D01*
X55914285Y-140071428D01*
X55914285Y-140785714D01*
X55819047Y-141071428D01*
X55723809Y-141214285D01*
X55533333Y-141357142D01*
X54961904Y-141357142D01*
X54771428Y-141214285D01*
X54676190Y-141071428D01*
X52142857Y-89785714D02*
X51476190Y-89785714D01*
X51476190Y-91357142D02*
X51476190Y-88357142D01*
X52428571Y-88357142D01*
X53190476Y-91357142D02*
X53190476Y-88357142D01*
X53857142Y-90500000D01*
X54523809Y-88357142D01*
X54523809Y-91357142D01*
X83690476Y-141214285D02*
X83976190Y-141357142D01*
X84452380Y-141357142D01*
X84642857Y-141214285D01*
X84738095Y-141071428D01*
X84833333Y-140785714D01*
X84833333Y-140500000D01*
X84738095Y-140214285D01*
X84642857Y-140071428D01*
X84452380Y-139928571D01*
X84071428Y-139785714D01*
X83880952Y-139642857D01*
X83785714Y-139500000D01*
X83690476Y-139214285D01*
X83690476Y-138928571D01*
X83785714Y-138642857D01*
X83880952Y-138500000D01*
X84071428Y-138357142D01*
X84547619Y-138357142D01*
X84833333Y-138500000D01*
X85690476Y-141357142D02*
X85690476Y-139357142D01*
X85690476Y-138357142D02*
X85595238Y-138500000D01*
X85690476Y-138642857D01*
X85785714Y-138500000D01*
X85690476Y-138357142D01*
X85690476Y-138642857D01*
X86642857Y-139357142D02*
X86642857Y-141357142D01*
X86642857Y-139642857D02*
X86738095Y-139500000D01*
X86928571Y-139357142D01*
X87214285Y-139357142D01*
X87404761Y-139500000D01*
X87500000Y-139785714D01*
X87500000Y-141357142D01*
X89214285Y-141214285D02*
X89023809Y-141357142D01*
X88642857Y-141357142D01*
X88452380Y-141214285D01*
X88357142Y-140928571D01*
X88357142Y-139785714D01*
X88452380Y-139500000D01*
X88642857Y-139357142D01*
X89023809Y-139357142D01*
X89214285Y-139500000D01*
X89309523Y-139785714D01*
X89309523Y-140071428D01*
X88357142Y-140357142D01*
X83976190Y-131214285D02*
X84261904Y-131357142D01*
X84738095Y-131357142D01*
X84928571Y-131214285D01*
X85023809Y-131071428D01*
X85119047Y-130785714D01*
X85119047Y-130500000D01*
X85023809Y-130214285D01*
X84928571Y-130071428D01*
X84738095Y-129928571D01*
X84357142Y-129785714D01*
X84166666Y-129642857D01*
X84071428Y-129500000D01*
X83976190Y-129214285D01*
X83976190Y-128928571D01*
X84071428Y-128642857D01*
X84166666Y-128500000D01*
X84357142Y-128357142D01*
X84833333Y-128357142D01*
X85119047Y-128500000D01*
X86833333Y-131357142D02*
X86833333Y-129785714D01*
X86738095Y-129500000D01*
X86547619Y-129357142D01*
X86166666Y-129357142D01*
X85976190Y-129500000D01*
X86833333Y-131214285D02*
X86642857Y-131357142D01*
X86166666Y-131357142D01*
X85976190Y-131214285D01*
X85880952Y-130928571D01*
X85880952Y-130642857D01*
X85976190Y-130357142D01*
X86166666Y-130214285D01*
X86642857Y-130214285D01*
X86833333Y-130071428D01*
X87595238Y-129357142D02*
X87976190Y-131357142D01*
X88357142Y-129928571D01*
X88738095Y-131357142D01*
X89119047Y-129357142D01*
X84833333Y-118357142D02*
X85976190Y-118357142D01*
X85404761Y-121357142D02*
X85404761Y-118357142D01*
X86642857Y-121357142D02*
X86642857Y-119357142D01*
X86642857Y-119928571D02*
X86738095Y-119642857D01*
X86833333Y-119500000D01*
X87023809Y-119357142D01*
X87214285Y-119357142D01*
X87880952Y-121357142D02*
X87880952Y-119357142D01*
X87880952Y-118357142D02*
X87785714Y-118500000D01*
X87880952Y-118642857D01*
X87976190Y-118500000D01*
X87880952Y-118357142D01*
X87880952Y-118642857D01*
X84880952Y-111214285D02*
X85166666Y-111357142D01*
X85642857Y-111357142D01*
X85833333Y-111214285D01*
X85928571Y-111071428D01*
X86023809Y-110785714D01*
X86023809Y-110500000D01*
X85928571Y-110214285D01*
X85833333Y-110071428D01*
X85642857Y-109928571D01*
X85261904Y-109785714D01*
X85071428Y-109642857D01*
X84976190Y-109500000D01*
X84880952Y-109214285D01*
X84880952Y-108928571D01*
X84976190Y-108642857D01*
X85071428Y-108500000D01*
X85261904Y-108357142D01*
X85738095Y-108357142D01*
X86023809Y-108500000D01*
X88214285Y-111642857D02*
X88023809Y-111500000D01*
X87833333Y-111214285D01*
X87547619Y-110785714D01*
X87357142Y-110642857D01*
X87166666Y-110642857D01*
X87261904Y-111357142D02*
X87071428Y-111214285D01*
X86880952Y-110928571D01*
X86785714Y-110357142D01*
X86785714Y-109357142D01*
X86880952Y-108785714D01*
X87071428Y-108500000D01*
X87261904Y-108357142D01*
X87642857Y-108357142D01*
X87833333Y-108500000D01*
X88023809Y-108785714D01*
X88119047Y-109357142D01*
X88119047Y-110357142D01*
X88023809Y-110928571D01*
X87833333Y-111214285D01*
X87642857Y-111357142D01*
X87261904Y-111357142D01*
X84547619Y-90357142D02*
X84928571Y-90357142D01*
X85119047Y-90500000D01*
X85309523Y-90785714D01*
X85404761Y-91357142D01*
X85404761Y-92357142D01*
X85309523Y-92928571D01*
X85119047Y-93214285D01*
X84928571Y-93357142D01*
X84547619Y-93357142D01*
X84357142Y-93214285D01*
X84166666Y-92928571D01*
X84071428Y-92357142D01*
X84071428Y-91357142D01*
X84166666Y-90785714D01*
X84357142Y-90500000D01*
X84547619Y-90357142D01*
X87404761Y-93071428D02*
X87309523Y-93214285D01*
X87023809Y-93357142D01*
X86833333Y-93357142D01*
X86547619Y-93214285D01*
X86357142Y-92928571D01*
X86261904Y-92642857D01*
X86166666Y-92071428D01*
X86166666Y-91642857D01*
X86261904Y-91071428D01*
X86357142Y-90785714D01*
X86547619Y-90500000D01*
X86833333Y-90357142D01*
X87023809Y-90357142D01*
X87309523Y-90500000D01*
X87404761Y-90642857D01*
X87976190Y-90357142D02*
X89119047Y-90357142D01*
X88547619Y-93357142D02*
X88547619Y-90357142D01*
X84547619Y-55785714D02*
X83880952Y-55785714D01*
X83880952Y-57357142D02*
X83880952Y-54357142D01*
X84833333Y-54357142D01*
X85595238Y-57357142D02*
X85595238Y-55357142D01*
X85595238Y-54357142D02*
X85500000Y-54500000D01*
X85595238Y-54642857D01*
X85690476Y-54500000D01*
X85595238Y-54357142D01*
X85595238Y-54642857D01*
X86547619Y-55357142D02*
X86547619Y-57357142D01*
X86547619Y-55642857D02*
X86642857Y-55500000D01*
X86833333Y-55357142D01*
X87119047Y-55357142D01*
X87309523Y-55500000D01*
X87404761Y-55785714D01*
X87404761Y-57357142D01*
X89119047Y-57214285D02*
X88928571Y-57357142D01*
X88547619Y-57357142D01*
X88357142Y-57214285D01*
X88261904Y-56928571D01*
X88261904Y-55785714D01*
X88357142Y-55500000D01*
X88547619Y-55357142D01*
X88928571Y-55357142D01*
X89119047Y-55500000D01*
X89214285Y-55785714D01*
X89214285Y-56071428D01*
X88261904Y-56357142D01*
D12*
X50000000Y-164000000D02*
X50000000Y-36000000D01*
X90000000Y-164000000D02*
X50000000Y-164000000D01*
X90000000Y-36000000D02*
X90000000Y-164000000D01*
X50000000Y-36000000D02*
X90000000Y-36000000D01*
D13*
X62952380Y-37214285D02*
X65428571Y-37214285D01*
X64095238Y-39500000D01*
X64666666Y-39500000D01*
X65047619Y-39785714D01*
X65238095Y-40071428D01*
X65428571Y-40642857D01*
X65428571Y-42071428D01*
X65238095Y-42642857D01*
X65047619Y-42928571D01*
X64666666Y-43214285D01*
X63523809Y-43214285D01*
X63142857Y-42928571D01*
X62952380Y-42642857D01*
X66761904Y-37214285D02*
X69238095Y-37214285D01*
X67904761Y-39500000D01*
X68476190Y-39500000D01*
X68857142Y-39785714D01*
X69047619Y-40071428D01*
X69238095Y-40642857D01*
X69238095Y-42071428D01*
X69047619Y-42642857D01*
X68857142Y-42928571D01*
X68476190Y-43214285D01*
X67333333Y-43214285D01*
X66952380Y-42928571D01*
X66761904Y-42642857D01*
X72666666Y-39214285D02*
X72666666Y-43214285D01*
X71714285Y-36928571D02*
X70761904Y-41214285D01*
X73238095Y-41214285D01*
X75523809Y-37214285D02*
X75904761Y-37214285D01*
X76285714Y-37500000D01*
X76476190Y-37785714D01*
X76666666Y-38357142D01*
X76857142Y-39500000D01*
X76857142Y-40928571D01*
X76666666Y-42071428D01*
X76476190Y-42642857D01*
X76285714Y-42928571D01*
X75904761Y-43214285D01*
X75523809Y-43214285D01*
X75142857Y-42928571D01*
X74952380Y-42642857D01*
X74761904Y-42071428D01*
X74571428Y-40928571D01*
X74571428Y-39500000D01*
X74761904Y-38357142D01*
X74952380Y-37785714D01*
X75142857Y-37500000D01*
X75523809Y-37214285D01*
D11*
X50690476Y-57357142D02*
X50690476Y-54357142D01*
X51452380Y-54357142D01*
X51642857Y-54500000D01*
X51738095Y-54642857D01*
X51833333Y-54928571D01*
X51833333Y-55357142D01*
X51738095Y-55642857D01*
X51642857Y-55785714D01*
X51452380Y-55928571D01*
X50690476Y-55928571D01*
X52500000Y-54357142D02*
X52976190Y-57357142D01*
X53357142Y-55214285D01*
X53738095Y-57357142D01*
X54214285Y-54357142D01*
X54976190Y-57357142D02*
X54976190Y-54357142D01*
X55642857Y-56500000D01*
X56309523Y-54357142D01*
X56309523Y-57357142D01*
D14*
G36*
X75791200Y-158899800D02*
G01*
X75676900Y-158899800D01*
X75676900Y-158772800D01*
X75791200Y-158772800D01*
X75791200Y-158899800D01*
X75791200Y-158899800D01*
G37*
X75791200Y-158899800D02*
X75676900Y-158899800D01*
X75676900Y-158772800D01*
X75791200Y-158772800D01*
X75791200Y-158899800D01*
G36*
X72743200Y-158899800D02*
G01*
X72628900Y-158899800D01*
X72628900Y-158772800D01*
X72743200Y-158772800D01*
X72743200Y-158899800D01*
X72743200Y-158899800D01*
G37*
X72743200Y-158899800D02*
X72628900Y-158899800D01*
X72628900Y-158772800D01*
X72743200Y-158772800D01*
X72743200Y-158899800D01*
G36*
X76438114Y-158942318D02*
G01*
X76473195Y-158959123D01*
X76492674Y-158974926D01*
X76534150Y-159011953D01*
X76538239Y-159203526D01*
X76542329Y-159395100D01*
X76438900Y-159395100D01*
X76438900Y-159230907D01*
X76438314Y-159159817D01*
X76436253Y-159109877D01*
X76432258Y-159076854D01*
X76425870Y-159056520D01*
X76418942Y-159046757D01*
X76385287Y-159028974D01*
X76345560Y-159030874D01*
X76306502Y-159050204D01*
X76274851Y-159084714D01*
X76268062Y-159097154D01*
X76256927Y-159133806D01*
X76250505Y-159188629D01*
X76248400Y-159265050D01*
X76248400Y-159395100D01*
X76146800Y-159395100D01*
X76146800Y-158950600D01*
X76197600Y-158950600D01*
X76230192Y-158952142D01*
X76244681Y-158960281D01*
X76248330Y-158980282D01*
X76248400Y-158987430D01*
X76248400Y-159024260D01*
X76291580Y-158981080D01*
X76323768Y-158953238D01*
X76354315Y-158940684D01*
X76392979Y-158937900D01*
X76438114Y-158942318D01*
X76438114Y-158942318D01*
G37*
X76438114Y-158942318D02*
X76473195Y-158959123D01*
X76492674Y-158974926D01*
X76534150Y-159011953D01*
X76538239Y-159203526D01*
X76542329Y-159395100D01*
X76438900Y-159395100D01*
X76438900Y-159230907D01*
X76438314Y-159159817D01*
X76436253Y-159109877D01*
X76432258Y-159076854D01*
X76425870Y-159056520D01*
X76418942Y-159046757D01*
X76385287Y-159028974D01*
X76345560Y-159030874D01*
X76306502Y-159050204D01*
X76274851Y-159084714D01*
X76268062Y-159097154D01*
X76256927Y-159133806D01*
X76250505Y-159188629D01*
X76248400Y-159265050D01*
X76248400Y-159395100D01*
X76146800Y-159395100D01*
X76146800Y-158950600D01*
X76197600Y-158950600D01*
X76230192Y-158952142D01*
X76244681Y-158960281D01*
X76248330Y-158980282D01*
X76248400Y-158987430D01*
X76248400Y-159024260D01*
X76291580Y-158981080D01*
X76323768Y-158953238D01*
X76354315Y-158940684D01*
X76392979Y-158937900D01*
X76438114Y-158942318D01*
G36*
X75791200Y-159306200D02*
G01*
X75842000Y-159306200D01*
X75874525Y-159307545D01*
X75888979Y-159315854D01*
X75892686Y-159337533D01*
X75892800Y-159350650D01*
X75892800Y-159395100D01*
X75588000Y-159395100D01*
X75588000Y-159350650D01*
X75589965Y-159320858D01*
X75601057Y-159308640D01*
X75629066Y-159306205D01*
X75632450Y-159306200D01*
X75676900Y-159306200D01*
X75676900Y-159039500D01*
X75632450Y-159039500D01*
X75602658Y-159037534D01*
X75590440Y-159026442D01*
X75588005Y-158998433D01*
X75588000Y-158995050D01*
X75588000Y-158950600D01*
X75791200Y-158950600D01*
X75791200Y-159306200D01*
X75791200Y-159306200D01*
G37*
X75791200Y-159306200D02*
X75842000Y-159306200D01*
X75874525Y-159307545D01*
X75888979Y-159315854D01*
X75892686Y-159337533D01*
X75892800Y-159350650D01*
X75892800Y-159395100D01*
X75588000Y-159395100D01*
X75588000Y-159350650D01*
X75589965Y-159320858D01*
X75601057Y-159308640D01*
X75629066Y-159306205D01*
X75632450Y-159306200D01*
X75676900Y-159306200D01*
X75676900Y-159039500D01*
X75632450Y-159039500D01*
X75602658Y-159037534D01*
X75590440Y-159026442D01*
X75588005Y-158998433D01*
X75588000Y-158995050D01*
X75588000Y-158950600D01*
X75791200Y-158950600D01*
X75791200Y-159306200D01*
G36*
X75333699Y-158940912D02*
G01*
X75358516Y-158950885D01*
X75365016Y-158970931D01*
X75358113Y-158999630D01*
X75347462Y-159025131D01*
X75333608Y-159035481D01*
X75307593Y-159035040D01*
X75290351Y-159032606D01*
X75229116Y-159033141D01*
X75175228Y-159051791D01*
X75135106Y-159085879D01*
X75125293Y-159101368D01*
X75112681Y-159141577D01*
X75106047Y-159197735D01*
X75105400Y-159223019D01*
X75105400Y-159306200D01*
X75156200Y-159306200D01*
X75188725Y-159307545D01*
X75203179Y-159315854D01*
X75206886Y-159337533D01*
X75207000Y-159350650D01*
X75207000Y-159395100D01*
X74902200Y-159395100D01*
X74902200Y-159350650D01*
X74903737Y-159322190D01*
X74913233Y-159309542D01*
X74938010Y-159306299D01*
X74953000Y-159306200D01*
X75003800Y-159306200D01*
X75003800Y-159026800D01*
X74953000Y-159026800D01*
X74920426Y-159025295D01*
X74905946Y-159017142D01*
X74902280Y-158996881D01*
X74902200Y-158988700D01*
X74902200Y-158950600D01*
X75105400Y-158950600D01*
X75105400Y-159032890D01*
X75138393Y-158997307D01*
X75182463Y-158960769D01*
X75233745Y-158942216D01*
X75287201Y-158938094D01*
X75333699Y-158940912D01*
X75333699Y-158940912D01*
G37*
X75333699Y-158940912D02*
X75358516Y-158950885D01*
X75365016Y-158970931D01*
X75358113Y-158999630D01*
X75347462Y-159025131D01*
X75333608Y-159035481D01*
X75307593Y-159035040D01*
X75290351Y-159032606D01*
X75229116Y-159033141D01*
X75175228Y-159051791D01*
X75135106Y-159085879D01*
X75125293Y-159101368D01*
X75112681Y-159141577D01*
X75106047Y-159197735D01*
X75105400Y-159223019D01*
X75105400Y-159306200D01*
X75156200Y-159306200D01*
X75188725Y-159307545D01*
X75203179Y-159315854D01*
X75206886Y-159337533D01*
X75207000Y-159350650D01*
X75207000Y-159395100D01*
X74902200Y-159395100D01*
X74902200Y-159350650D01*
X74903737Y-159322190D01*
X74913233Y-159309542D01*
X74938010Y-159306299D01*
X74953000Y-159306200D01*
X75003800Y-159306200D01*
X75003800Y-159026800D01*
X74953000Y-159026800D01*
X74920426Y-159025295D01*
X74905946Y-159017142D01*
X74902280Y-158996881D01*
X74902200Y-158988700D01*
X74902200Y-158950600D01*
X75105400Y-158950600D01*
X75105400Y-159032890D01*
X75138393Y-158997307D01*
X75182463Y-158960769D01*
X75233745Y-158942216D01*
X75287201Y-158938094D01*
X75333699Y-158940912D01*
G36*
X73390114Y-158942318D02*
G01*
X73425195Y-158959123D01*
X73444674Y-158974926D01*
X73486150Y-159011953D01*
X73490239Y-159203526D01*
X73494329Y-159395100D01*
X73390900Y-159395100D01*
X73390900Y-159230907D01*
X73390314Y-159159817D01*
X73388253Y-159109877D01*
X73384258Y-159076854D01*
X73377870Y-159056520D01*
X73370942Y-159046757D01*
X73337287Y-159028974D01*
X73297560Y-159030874D01*
X73258502Y-159050204D01*
X73226851Y-159084714D01*
X73220062Y-159097154D01*
X73208927Y-159133806D01*
X73202505Y-159188629D01*
X73200400Y-159265050D01*
X73200400Y-159395100D01*
X73098800Y-159395100D01*
X73098800Y-158950600D01*
X73149600Y-158950600D01*
X73182192Y-158952142D01*
X73196681Y-158960281D01*
X73200330Y-158980282D01*
X73200400Y-158987430D01*
X73200400Y-159024260D01*
X73243580Y-158981080D01*
X73275768Y-158953238D01*
X73306315Y-158940684D01*
X73344979Y-158937900D01*
X73390114Y-158942318D01*
X73390114Y-158942318D01*
G37*
X73390114Y-158942318D02*
X73425195Y-158959123D01*
X73444674Y-158974926D01*
X73486150Y-159011953D01*
X73490239Y-159203526D01*
X73494329Y-159395100D01*
X73390900Y-159395100D01*
X73390900Y-159230907D01*
X73390314Y-159159817D01*
X73388253Y-159109877D01*
X73384258Y-159076854D01*
X73377870Y-159056520D01*
X73370942Y-159046757D01*
X73337287Y-159028974D01*
X73297560Y-159030874D01*
X73258502Y-159050204D01*
X73226851Y-159084714D01*
X73220062Y-159097154D01*
X73208927Y-159133806D01*
X73202505Y-159188629D01*
X73200400Y-159265050D01*
X73200400Y-159395100D01*
X73098800Y-159395100D01*
X73098800Y-158950600D01*
X73149600Y-158950600D01*
X73182192Y-158952142D01*
X73196681Y-158960281D01*
X73200330Y-158980282D01*
X73200400Y-158987430D01*
X73200400Y-159024260D01*
X73243580Y-158981080D01*
X73275768Y-158953238D01*
X73306315Y-158940684D01*
X73344979Y-158937900D01*
X73390114Y-158942318D01*
G36*
X72743200Y-159306200D02*
G01*
X72794000Y-159306200D01*
X72826525Y-159307545D01*
X72840979Y-159315854D01*
X72844686Y-159337533D01*
X72844800Y-159350650D01*
X72844800Y-159395100D01*
X72540000Y-159395100D01*
X72540000Y-159350650D01*
X72541965Y-159320858D01*
X72553057Y-159308640D01*
X72581066Y-159306205D01*
X72584450Y-159306200D01*
X72628900Y-159306200D01*
X72628900Y-159039500D01*
X72584450Y-159039500D01*
X72554658Y-159037534D01*
X72542440Y-159026442D01*
X72540005Y-158998433D01*
X72540000Y-158995050D01*
X72540000Y-158950600D01*
X72743200Y-158950600D01*
X72743200Y-159306200D01*
X72743200Y-159306200D01*
G37*
X72743200Y-159306200D02*
X72794000Y-159306200D01*
X72826525Y-159307545D01*
X72840979Y-159315854D01*
X72844686Y-159337533D01*
X72844800Y-159350650D01*
X72844800Y-159395100D01*
X72540000Y-159395100D01*
X72540000Y-159350650D01*
X72541965Y-159320858D01*
X72553057Y-159308640D01*
X72581066Y-159306205D01*
X72584450Y-159306200D01*
X72628900Y-159306200D01*
X72628900Y-159039500D01*
X72584450Y-159039500D01*
X72554658Y-159037534D01*
X72542440Y-159026442D01*
X72540005Y-158998433D01*
X72540000Y-158995050D01*
X72540000Y-158950600D01*
X72743200Y-158950600D01*
X72743200Y-159306200D01*
G36*
X71561314Y-158942318D02*
G01*
X71596395Y-158959123D01*
X71615874Y-158974926D01*
X71657350Y-159011953D01*
X71661439Y-159203526D01*
X71665529Y-159395100D01*
X71562100Y-159395100D01*
X71562100Y-159230907D01*
X71561514Y-159159817D01*
X71559453Y-159109877D01*
X71555458Y-159076854D01*
X71549070Y-159056520D01*
X71542142Y-159046757D01*
X71508487Y-159028974D01*
X71468760Y-159030874D01*
X71429702Y-159050204D01*
X71398051Y-159084714D01*
X71391262Y-159097154D01*
X71380127Y-159133806D01*
X71373705Y-159188629D01*
X71371600Y-159265050D01*
X71371600Y-159395100D01*
X71270000Y-159395100D01*
X71270000Y-158950600D01*
X71320800Y-158950600D01*
X71353392Y-158952142D01*
X71367881Y-158960281D01*
X71371530Y-158980282D01*
X71371600Y-158987430D01*
X71371600Y-159024260D01*
X71414780Y-158981080D01*
X71446968Y-158953238D01*
X71477515Y-158940684D01*
X71516179Y-158937900D01*
X71561314Y-158942318D01*
X71561314Y-158942318D01*
G37*
X71561314Y-158942318D02*
X71596395Y-158959123D01*
X71615874Y-158974926D01*
X71657350Y-159011953D01*
X71661439Y-159203526D01*
X71665529Y-159395100D01*
X71562100Y-159395100D01*
X71562100Y-159230907D01*
X71561514Y-159159817D01*
X71559453Y-159109877D01*
X71555458Y-159076854D01*
X71549070Y-159056520D01*
X71542142Y-159046757D01*
X71508487Y-159028974D01*
X71468760Y-159030874D01*
X71429702Y-159050204D01*
X71398051Y-159084714D01*
X71391262Y-159097154D01*
X71380127Y-159133806D01*
X71373705Y-159188629D01*
X71371600Y-159265050D01*
X71371600Y-159395100D01*
X71270000Y-159395100D01*
X71270000Y-158950600D01*
X71320800Y-158950600D01*
X71353392Y-158952142D01*
X71367881Y-158960281D01*
X71371530Y-158980282D01*
X71371600Y-158987430D01*
X71371600Y-159024260D01*
X71414780Y-158981080D01*
X71446968Y-158953238D01*
X71477515Y-158940684D01*
X71516179Y-158937900D01*
X71561314Y-158942318D01*
G36*
X71054100Y-158861700D02*
G01*
X70762000Y-158861700D01*
X70762000Y-159039500D01*
X70990600Y-159039500D01*
X70990600Y-159128400D01*
X70762000Y-159128400D01*
X70762000Y-159306200D01*
X71054100Y-159306200D01*
X71054100Y-159395100D01*
X70660400Y-159395100D01*
X70660400Y-158772800D01*
X71054100Y-158772800D01*
X71054100Y-158861700D01*
X71054100Y-158861700D01*
G37*
X71054100Y-158861700D02*
X70762000Y-158861700D01*
X70762000Y-159039500D01*
X70990600Y-159039500D01*
X70990600Y-159128400D01*
X70762000Y-159128400D01*
X70762000Y-159306200D01*
X71054100Y-159306200D01*
X71054100Y-159395100D01*
X70660400Y-159395100D01*
X70660400Y-158772800D01*
X71054100Y-158772800D01*
X71054100Y-158861700D01*
G36*
X69745214Y-158942318D02*
G01*
X69780295Y-158959123D01*
X69799774Y-158974926D01*
X69841250Y-159011953D01*
X69845339Y-159203526D01*
X69849429Y-159395100D01*
X69746000Y-159395100D01*
X69746000Y-159230907D01*
X69745414Y-159159817D01*
X69743353Y-159109877D01*
X69739358Y-159076854D01*
X69732970Y-159056520D01*
X69726042Y-159046757D01*
X69692387Y-159028974D01*
X69652660Y-159030874D01*
X69613602Y-159050204D01*
X69581951Y-159084714D01*
X69575162Y-159097154D01*
X69564027Y-159133806D01*
X69557605Y-159188629D01*
X69555500Y-159265050D01*
X69555500Y-159395100D01*
X69453900Y-159395100D01*
X69453900Y-158950600D01*
X69504700Y-158950600D01*
X69537292Y-158952142D01*
X69551781Y-158960281D01*
X69555430Y-158980282D01*
X69555500Y-158987430D01*
X69555500Y-159024260D01*
X69598680Y-158981080D01*
X69630868Y-158953238D01*
X69661415Y-158940684D01*
X69700079Y-158937900D01*
X69745214Y-158942318D01*
X69745214Y-158942318D01*
G37*
X69745214Y-158942318D02*
X69780295Y-158959123D01*
X69799774Y-158974926D01*
X69841250Y-159011953D01*
X69845339Y-159203526D01*
X69849429Y-159395100D01*
X69746000Y-159395100D01*
X69746000Y-159230907D01*
X69745414Y-159159817D01*
X69743353Y-159109877D01*
X69739358Y-159076854D01*
X69732970Y-159056520D01*
X69726042Y-159046757D01*
X69692387Y-159028974D01*
X69652660Y-159030874D01*
X69613602Y-159050204D01*
X69581951Y-159084714D01*
X69575162Y-159097154D01*
X69564027Y-159133806D01*
X69557605Y-159188629D01*
X69555500Y-159265050D01*
X69555500Y-159395100D01*
X69453900Y-159395100D01*
X69453900Y-158950600D01*
X69504700Y-158950600D01*
X69537292Y-158952142D01*
X69551781Y-158960281D01*
X69555430Y-158980282D01*
X69555500Y-158987430D01*
X69555500Y-159024260D01*
X69598680Y-158981080D01*
X69630868Y-158953238D01*
X69661415Y-158940684D01*
X69700079Y-158937900D01*
X69745214Y-158942318D01*
G36*
X67916414Y-158942318D02*
G01*
X67951495Y-158959123D01*
X67970974Y-158974926D01*
X68012450Y-159011953D01*
X68016539Y-159203526D01*
X68020629Y-159395100D01*
X67917200Y-159395100D01*
X67917200Y-159230907D01*
X67916614Y-159159817D01*
X67914553Y-159109877D01*
X67910558Y-159076854D01*
X67904170Y-159056520D01*
X67897242Y-159046757D01*
X67863587Y-159028974D01*
X67823860Y-159030874D01*
X67784802Y-159050204D01*
X67753151Y-159084714D01*
X67746362Y-159097154D01*
X67735227Y-159133806D01*
X67728805Y-159188629D01*
X67726700Y-159265050D01*
X67726700Y-159395100D01*
X67625100Y-159395100D01*
X67625100Y-158950600D01*
X67675900Y-158950600D01*
X67708492Y-158952142D01*
X67722981Y-158960281D01*
X67726630Y-158980282D01*
X67726700Y-158987430D01*
X67726700Y-159024260D01*
X67769880Y-158981080D01*
X67802068Y-158953238D01*
X67832615Y-158940684D01*
X67871279Y-158937900D01*
X67916414Y-158942318D01*
X67916414Y-158942318D01*
G37*
X67916414Y-158942318D02*
X67951495Y-158959123D01*
X67970974Y-158974926D01*
X68012450Y-159011953D01*
X68016539Y-159203526D01*
X68020629Y-159395100D01*
X67917200Y-159395100D01*
X67917200Y-159230907D01*
X67916614Y-159159817D01*
X67914553Y-159109877D01*
X67910558Y-159076854D01*
X67904170Y-159056520D01*
X67897242Y-159046757D01*
X67863587Y-159028974D01*
X67823860Y-159030874D01*
X67784802Y-159050204D01*
X67753151Y-159084714D01*
X67746362Y-159097154D01*
X67735227Y-159133806D01*
X67728805Y-159188629D01*
X67726700Y-159265050D01*
X67726700Y-159395100D01*
X67625100Y-159395100D01*
X67625100Y-158950600D01*
X67675900Y-158950600D01*
X67708492Y-158952142D01*
X67722981Y-158960281D01*
X67726630Y-158980282D01*
X67726700Y-158987430D01*
X67726700Y-159024260D01*
X67769880Y-158981080D01*
X67802068Y-158953238D01*
X67832615Y-158940684D01*
X67871279Y-158937900D01*
X67916414Y-158942318D01*
G36*
X66507500Y-159027200D02*
G01*
X66543179Y-158987268D01*
X66572611Y-158960600D01*
X66606477Y-158946655D01*
X66642965Y-158941176D01*
X66683943Y-158939143D01*
X66711809Y-158945321D01*
X66738423Y-158963284D01*
X66750161Y-158973485D01*
X66793250Y-159011953D01*
X66797339Y-159203526D01*
X66801429Y-159395100D01*
X66698000Y-159395100D01*
X66698000Y-159230907D01*
X66697414Y-159159817D01*
X66695353Y-159109877D01*
X66691358Y-159076854D01*
X66684970Y-159056520D01*
X66678042Y-159046757D01*
X66644387Y-159028974D01*
X66604660Y-159030874D01*
X66565602Y-159050204D01*
X66533951Y-159084714D01*
X66527162Y-159097154D01*
X66516027Y-159133806D01*
X66509605Y-159188629D01*
X66507500Y-159265050D01*
X66507500Y-159395100D01*
X66405900Y-159395100D01*
X66405900Y-158772800D01*
X66507500Y-158772800D01*
X66507500Y-159027200D01*
X66507500Y-159027200D01*
G37*
X66507500Y-159027200D02*
X66543179Y-158987268D01*
X66572611Y-158960600D01*
X66606477Y-158946655D01*
X66642965Y-158941176D01*
X66683943Y-158939143D01*
X66711809Y-158945321D01*
X66738423Y-158963284D01*
X66750161Y-158973485D01*
X66793250Y-159011953D01*
X66797339Y-159203526D01*
X66801429Y-159395100D01*
X66698000Y-159395100D01*
X66698000Y-159230907D01*
X66697414Y-159159817D01*
X66695353Y-159109877D01*
X66691358Y-159076854D01*
X66684970Y-159056520D01*
X66678042Y-159046757D01*
X66644387Y-159028974D01*
X66604660Y-159030874D01*
X66565602Y-159050204D01*
X66533951Y-159084714D01*
X66527162Y-159097154D01*
X66516027Y-159133806D01*
X66509605Y-159188629D01*
X66507500Y-159265050D01*
X66507500Y-159395100D01*
X66405900Y-159395100D01*
X66405900Y-158772800D01*
X66507500Y-158772800D01*
X66507500Y-159027200D01*
G36*
X74580413Y-158945787D02*
G01*
X74642081Y-158970491D01*
X74682518Y-159003111D01*
X74717361Y-159055044D01*
X74744231Y-159123481D01*
X74755115Y-159169675D01*
X74763650Y-159217300D01*
X74382044Y-159217300D01*
X74396231Y-159248437D01*
X74422015Y-159279278D01*
X74463617Y-159303967D01*
X74511480Y-159317471D01*
X74529469Y-159318621D01*
X74563706Y-159313124D01*
X74605711Y-159299704D01*
X74619304Y-159293985D01*
X74672959Y-159269628D01*
X74698501Y-159302101D01*
X74724044Y-159334573D01*
X74692542Y-159359353D01*
X74634692Y-159390285D01*
X74564466Y-159405651D01*
X74490081Y-159404756D01*
X74419751Y-159386909D01*
X74410914Y-159383118D01*
X74354086Y-159344411D01*
X74313056Y-159290243D01*
X74288965Y-159225896D01*
X74282956Y-159156654D01*
X74292211Y-159108435D01*
X74393971Y-159108435D01*
X74404865Y-159119892D01*
X74436586Y-159126036D01*
X74491057Y-159128276D01*
X74514850Y-159128400D01*
X74574137Y-159127503D01*
X74611624Y-159124482D01*
X74630856Y-159118842D01*
X74635500Y-159111563D01*
X74626899Y-159092145D01*
X74605878Y-159066977D01*
X74602726Y-159063938D01*
X74568051Y-159041118D01*
X74523684Y-159033285D01*
X74514850Y-159033150D01*
X74467831Y-159038951D01*
X74432384Y-159059083D01*
X74426973Y-159063938D01*
X74401981Y-159090254D01*
X74393971Y-159108435D01*
X74292211Y-159108435D01*
X74296172Y-159087800D01*
X74329753Y-159024617D01*
X74332623Y-159020889D01*
X74382212Y-158976662D01*
X74444216Y-158949191D01*
X74512370Y-158938794D01*
X74580413Y-158945787D01*
X74580413Y-158945787D01*
G37*
X74580413Y-158945787D02*
X74642081Y-158970491D01*
X74682518Y-159003111D01*
X74717361Y-159055044D01*
X74744231Y-159123481D01*
X74755115Y-159169675D01*
X74763650Y-159217300D01*
X74382044Y-159217300D01*
X74396231Y-159248437D01*
X74422015Y-159279278D01*
X74463617Y-159303967D01*
X74511480Y-159317471D01*
X74529469Y-159318621D01*
X74563706Y-159313124D01*
X74605711Y-159299704D01*
X74619304Y-159293985D01*
X74672959Y-159269628D01*
X74698501Y-159302101D01*
X74724044Y-159334573D01*
X74692542Y-159359353D01*
X74634692Y-159390285D01*
X74564466Y-159405651D01*
X74490081Y-159404756D01*
X74419751Y-159386909D01*
X74410914Y-159383118D01*
X74354086Y-159344411D01*
X74313056Y-159290243D01*
X74288965Y-159225896D01*
X74282956Y-159156654D01*
X74292211Y-159108435D01*
X74393971Y-159108435D01*
X74404865Y-159119892D01*
X74436586Y-159126036D01*
X74491057Y-159128276D01*
X74514850Y-159128400D01*
X74574137Y-159127503D01*
X74611624Y-159124482D01*
X74630856Y-159118842D01*
X74635500Y-159111563D01*
X74626899Y-159092145D01*
X74605878Y-159066977D01*
X74602726Y-159063938D01*
X74568051Y-159041118D01*
X74523684Y-159033285D01*
X74514850Y-159033150D01*
X74467831Y-159038951D01*
X74432384Y-159059083D01*
X74426973Y-159063938D01*
X74401981Y-159090254D01*
X74393971Y-159108435D01*
X74292211Y-159108435D01*
X74296172Y-159087800D01*
X74329753Y-159024617D01*
X74332623Y-159020889D01*
X74382212Y-158976662D01*
X74444216Y-158949191D01*
X74512370Y-158938794D01*
X74580413Y-158945787D01*
G36*
X73970813Y-158945787D02*
G01*
X74032481Y-158970491D01*
X74072918Y-159003111D01*
X74107761Y-159055044D01*
X74134631Y-159123481D01*
X74145515Y-159169675D01*
X74154050Y-159217300D01*
X73772444Y-159217300D01*
X73786631Y-159248437D01*
X73812415Y-159279278D01*
X73854017Y-159303967D01*
X73901880Y-159317471D01*
X73919869Y-159318621D01*
X73954106Y-159313124D01*
X73996111Y-159299704D01*
X74009704Y-159293985D01*
X74063359Y-159269628D01*
X74088901Y-159302101D01*
X74114444Y-159334573D01*
X74082942Y-159359353D01*
X74025092Y-159390285D01*
X73954866Y-159405651D01*
X73880481Y-159404756D01*
X73810151Y-159386909D01*
X73801314Y-159383118D01*
X73744486Y-159344411D01*
X73703456Y-159290243D01*
X73679365Y-159225896D01*
X73673356Y-159156654D01*
X73682611Y-159108435D01*
X73784371Y-159108435D01*
X73795265Y-159119892D01*
X73826986Y-159126036D01*
X73881457Y-159128276D01*
X73905250Y-159128400D01*
X73964537Y-159127503D01*
X74002024Y-159124482D01*
X74021256Y-159118842D01*
X74025900Y-159111563D01*
X74017299Y-159092145D01*
X73996278Y-159066977D01*
X73993126Y-159063938D01*
X73958451Y-159041118D01*
X73914084Y-159033285D01*
X73905250Y-159033150D01*
X73858231Y-159038951D01*
X73822784Y-159059083D01*
X73817373Y-159063938D01*
X73792381Y-159090254D01*
X73784371Y-159108435D01*
X73682611Y-159108435D01*
X73686572Y-159087800D01*
X73720153Y-159024617D01*
X73723023Y-159020889D01*
X73772612Y-158976662D01*
X73834616Y-158949191D01*
X73902770Y-158938794D01*
X73970813Y-158945787D01*
X73970813Y-158945787D01*
G37*
X73970813Y-158945787D02*
X74032481Y-158970491D01*
X74072918Y-159003111D01*
X74107761Y-159055044D01*
X74134631Y-159123481D01*
X74145515Y-159169675D01*
X74154050Y-159217300D01*
X73772444Y-159217300D01*
X73786631Y-159248437D01*
X73812415Y-159279278D01*
X73854017Y-159303967D01*
X73901880Y-159317471D01*
X73919869Y-159318621D01*
X73954106Y-159313124D01*
X73996111Y-159299704D01*
X74009704Y-159293985D01*
X74063359Y-159269628D01*
X74088901Y-159302101D01*
X74114444Y-159334573D01*
X74082942Y-159359353D01*
X74025092Y-159390285D01*
X73954866Y-159405651D01*
X73880481Y-159404756D01*
X73810151Y-159386909D01*
X73801314Y-159383118D01*
X73744486Y-159344411D01*
X73703456Y-159290243D01*
X73679365Y-159225896D01*
X73673356Y-159156654D01*
X73682611Y-159108435D01*
X73784371Y-159108435D01*
X73795265Y-159119892D01*
X73826986Y-159126036D01*
X73881457Y-159128276D01*
X73905250Y-159128400D01*
X73964537Y-159127503D01*
X74002024Y-159124482D01*
X74021256Y-159118842D01*
X74025900Y-159111563D01*
X74017299Y-159092145D01*
X73996278Y-159066977D01*
X73993126Y-159063938D01*
X73958451Y-159041118D01*
X73914084Y-159033285D01*
X73905250Y-159033150D01*
X73858231Y-159038951D01*
X73822784Y-159059083D01*
X73817373Y-159063938D01*
X73792381Y-159090254D01*
X73784371Y-159108435D01*
X73682611Y-159108435D01*
X73686572Y-159087800D01*
X73720153Y-159024617D01*
X73723023Y-159020889D01*
X73772612Y-158976662D01*
X73834616Y-158949191D01*
X73902770Y-158938794D01*
X73970813Y-158945787D01*
G36*
X69106713Y-158945787D02*
G01*
X69168381Y-158970491D01*
X69208818Y-159003111D01*
X69243661Y-159055044D01*
X69270531Y-159123481D01*
X69281415Y-159169675D01*
X69289950Y-159217300D01*
X68908344Y-159217300D01*
X68922531Y-159248437D01*
X68948315Y-159279278D01*
X68989917Y-159303967D01*
X69037780Y-159317471D01*
X69055769Y-159318621D01*
X69090006Y-159313124D01*
X69132011Y-159299704D01*
X69145604Y-159293985D01*
X69199259Y-159269628D01*
X69224801Y-159302101D01*
X69250344Y-159334573D01*
X69218842Y-159359353D01*
X69160992Y-159390285D01*
X69090766Y-159405651D01*
X69016381Y-159404756D01*
X68946051Y-159386909D01*
X68937214Y-159383118D01*
X68880386Y-159344411D01*
X68839356Y-159290243D01*
X68815265Y-159225896D01*
X68809256Y-159156654D01*
X68818511Y-159108435D01*
X68920271Y-159108435D01*
X68931165Y-159119892D01*
X68962886Y-159126036D01*
X69017357Y-159128276D01*
X69041150Y-159128400D01*
X69100437Y-159127503D01*
X69137924Y-159124482D01*
X69157156Y-159118842D01*
X69161800Y-159111563D01*
X69153199Y-159092145D01*
X69132178Y-159066977D01*
X69129026Y-159063938D01*
X69094351Y-159041118D01*
X69049984Y-159033285D01*
X69041150Y-159033150D01*
X68994131Y-159038951D01*
X68958684Y-159059083D01*
X68953273Y-159063938D01*
X68928281Y-159090254D01*
X68920271Y-159108435D01*
X68818511Y-159108435D01*
X68822472Y-159087800D01*
X68856053Y-159024617D01*
X68858923Y-159020889D01*
X68908512Y-158976662D01*
X68970516Y-158949191D01*
X69038670Y-158938794D01*
X69106713Y-158945787D01*
X69106713Y-158945787D01*
G37*
X69106713Y-158945787D02*
X69168381Y-158970491D01*
X69208818Y-159003111D01*
X69243661Y-159055044D01*
X69270531Y-159123481D01*
X69281415Y-159169675D01*
X69289950Y-159217300D01*
X68908344Y-159217300D01*
X68922531Y-159248437D01*
X68948315Y-159279278D01*
X68989917Y-159303967D01*
X69037780Y-159317471D01*
X69055769Y-159318621D01*
X69090006Y-159313124D01*
X69132011Y-159299704D01*
X69145604Y-159293985D01*
X69199259Y-159269628D01*
X69224801Y-159302101D01*
X69250344Y-159334573D01*
X69218842Y-159359353D01*
X69160992Y-159390285D01*
X69090766Y-159405651D01*
X69016381Y-159404756D01*
X68946051Y-159386909D01*
X68937214Y-159383118D01*
X68880386Y-159344411D01*
X68839356Y-159290243D01*
X68815265Y-159225896D01*
X68809256Y-159156654D01*
X68818511Y-159108435D01*
X68920271Y-159108435D01*
X68931165Y-159119892D01*
X68962886Y-159126036D01*
X69017357Y-159128276D01*
X69041150Y-159128400D01*
X69100437Y-159127503D01*
X69137924Y-159124482D01*
X69157156Y-159118842D01*
X69161800Y-159111563D01*
X69153199Y-159092145D01*
X69132178Y-159066977D01*
X69129026Y-159063938D01*
X69094351Y-159041118D01*
X69049984Y-159033285D01*
X69041150Y-159033150D01*
X68994131Y-159038951D01*
X68958684Y-159059083D01*
X68953273Y-159063938D01*
X68928281Y-159090254D01*
X68920271Y-159108435D01*
X68818511Y-159108435D01*
X68822472Y-159087800D01*
X68856053Y-159024617D01*
X68858923Y-159020889D01*
X68908512Y-158976662D01*
X68970516Y-158949191D01*
X69038670Y-158938794D01*
X69106713Y-158945787D01*
G36*
X68500632Y-158944386D02*
G01*
X68555840Y-158958028D01*
X68595922Y-158978107D01*
X68600489Y-158981961D01*
X68609083Y-159003001D01*
X68604268Y-159028982D01*
X68590296Y-159050658D01*
X68571419Y-159058784D01*
X68565812Y-159057362D01*
X68515036Y-159041203D01*
X68460246Y-159032510D01*
X68407734Y-159031212D01*
X68363790Y-159037235D01*
X68334704Y-159050507D01*
X68327596Y-159060104D01*
X68325073Y-159076955D01*
X68334520Y-159090282D01*
X68359387Y-159101783D01*
X68403120Y-159113152D01*
X68457231Y-159123894D01*
X68533536Y-159141949D01*
X68587294Y-159164676D01*
X68621223Y-159194158D01*
X68638045Y-159232478D01*
X68641100Y-159264728D01*
X68629745Y-159315487D01*
X68598029Y-159356412D01*
X68549475Y-159386315D01*
X68487607Y-159404004D01*
X68415947Y-159408289D01*
X68338019Y-159397982D01*
X68288425Y-159383852D01*
X68250170Y-159369782D01*
X68222498Y-159358020D01*
X68213690Y-159352924D01*
X68212751Y-159337125D01*
X68220877Y-159309004D01*
X68222234Y-159305634D01*
X68231168Y-159285529D01*
X68241020Y-159275070D01*
X68257453Y-159273986D01*
X68286129Y-159282007D01*
X68332712Y-159298863D01*
X68336300Y-159300186D01*
X68410662Y-159315855D01*
X68454522Y-159315520D01*
X68506786Y-159305698D01*
X68535099Y-159290062D01*
X68539457Y-159271258D01*
X68519859Y-159251932D01*
X68476303Y-159234730D01*
X68454593Y-159229532D01*
X68384467Y-159214410D01*
X68334551Y-159201934D01*
X68300033Y-159190387D01*
X68276098Y-159178053D01*
X68257936Y-159163218D01*
X68252337Y-159157425D01*
X68226407Y-159113509D01*
X68222862Y-159066210D01*
X68239996Y-159020198D01*
X68276104Y-158980141D01*
X68327601Y-158951407D01*
X68378179Y-158940142D01*
X68438634Y-158938113D01*
X68500632Y-158944386D01*
X68500632Y-158944386D01*
G37*
X68500632Y-158944386D02*
X68555840Y-158958028D01*
X68595922Y-158978107D01*
X68600489Y-158981961D01*
X68609083Y-159003001D01*
X68604268Y-159028982D01*
X68590296Y-159050658D01*
X68571419Y-159058784D01*
X68565812Y-159057362D01*
X68515036Y-159041203D01*
X68460246Y-159032510D01*
X68407734Y-159031212D01*
X68363790Y-159037235D01*
X68334704Y-159050507D01*
X68327596Y-159060104D01*
X68325073Y-159076955D01*
X68334520Y-159090282D01*
X68359387Y-159101783D01*
X68403120Y-159113152D01*
X68457231Y-159123894D01*
X68533536Y-159141949D01*
X68587294Y-159164676D01*
X68621223Y-159194158D01*
X68638045Y-159232478D01*
X68641100Y-159264728D01*
X68629745Y-159315487D01*
X68598029Y-159356412D01*
X68549475Y-159386315D01*
X68487607Y-159404004D01*
X68415947Y-159408289D01*
X68338019Y-159397982D01*
X68288425Y-159383852D01*
X68250170Y-159369782D01*
X68222498Y-159358020D01*
X68213690Y-159352924D01*
X68212751Y-159337125D01*
X68220877Y-159309004D01*
X68222234Y-159305634D01*
X68231168Y-159285529D01*
X68241020Y-159275070D01*
X68257453Y-159273986D01*
X68286129Y-159282007D01*
X68332712Y-159298863D01*
X68336300Y-159300186D01*
X68410662Y-159315855D01*
X68454522Y-159315520D01*
X68506786Y-159305698D01*
X68535099Y-159290062D01*
X68539457Y-159271258D01*
X68519859Y-159251932D01*
X68476303Y-159234730D01*
X68454593Y-159229532D01*
X68384467Y-159214410D01*
X68334551Y-159201934D01*
X68300033Y-159190387D01*
X68276098Y-159178053D01*
X68257936Y-159163218D01*
X68252337Y-159157425D01*
X68226407Y-159113509D01*
X68222862Y-159066210D01*
X68239996Y-159020198D01*
X68276104Y-158980141D01*
X68327601Y-158951407D01*
X68378179Y-158940142D01*
X68438634Y-158938113D01*
X68500632Y-158944386D01*
G36*
X67310260Y-158956458D02*
G01*
X67363969Y-158989144D01*
X67381667Y-159007923D01*
X67392735Y-159023957D01*
X67400377Y-159042230D01*
X67405218Y-159067537D01*
X67407884Y-159104675D01*
X67409001Y-159158440D01*
X67409200Y-159219012D01*
X67409200Y-159395100D01*
X67358400Y-159395100D01*
X67325216Y-159393002D01*
X67310537Y-159384441D01*
X67307600Y-159369319D01*
X67306428Y-159353311D01*
X67298873Y-159351680D01*
X67278879Y-159364802D01*
X67269535Y-159371681D01*
X67223244Y-159394024D01*
X67158225Y-159405114D01*
X67155474Y-159405321D01*
X67112093Y-159407472D01*
X67084204Y-159403939D01*
X67062026Y-159391546D01*
X67035775Y-159367115D01*
X67034789Y-159366129D01*
X67005543Y-159332043D01*
X66992460Y-159300556D01*
X66990100Y-159271764D01*
X66993730Y-159254688D01*
X67093668Y-159254688D01*
X67099133Y-159288354D01*
X67124725Y-159309379D01*
X67167574Y-159315900D01*
X67185850Y-159314447D01*
X67227983Y-159303725D01*
X67265066Y-159285989D01*
X67268400Y-159283649D01*
X67293180Y-159255884D01*
X67305268Y-159225569D01*
X67306058Y-159205397D01*
X67297957Y-159195600D01*
X67274768Y-159192604D01*
X67248118Y-159192616D01*
X67180418Y-159198505D01*
X67130383Y-159213688D01*
X67100657Y-159237104D01*
X67093668Y-159254688D01*
X66993730Y-159254688D01*
X67001569Y-159217825D01*
X67035378Y-159174750D01*
X67090630Y-159143148D01*
X67166427Y-159123630D01*
X67216183Y-159118289D01*
X67263879Y-159114585D01*
X67291287Y-159109955D01*
X67303505Y-159102538D01*
X67305629Y-159090475D01*
X67305083Y-159085836D01*
X67291827Y-159060933D01*
X67267128Y-159040309D01*
X67237136Y-159030639D01*
X67195911Y-159030668D01*
X67139406Y-159040783D01*
X67071899Y-159058898D01*
X67049367Y-159058480D01*
X67032747Y-159037849D01*
X67030463Y-159033045D01*
X67021032Y-159006525D01*
X67024816Y-158988529D01*
X67045593Y-158974106D01*
X67087143Y-158958303D01*
X67087627Y-158958138D01*
X67167157Y-158940120D01*
X67243012Y-158939838D01*
X67310260Y-158956458D01*
X67310260Y-158956458D01*
G37*
X67310260Y-158956458D02*
X67363969Y-158989144D01*
X67381667Y-159007923D01*
X67392735Y-159023957D01*
X67400377Y-159042230D01*
X67405218Y-159067537D01*
X67407884Y-159104675D01*
X67409001Y-159158440D01*
X67409200Y-159219012D01*
X67409200Y-159395100D01*
X67358400Y-159395100D01*
X67325216Y-159393002D01*
X67310537Y-159384441D01*
X67307600Y-159369319D01*
X67306428Y-159353311D01*
X67298873Y-159351680D01*
X67278879Y-159364802D01*
X67269535Y-159371681D01*
X67223244Y-159394024D01*
X67158225Y-159405114D01*
X67155474Y-159405321D01*
X67112093Y-159407472D01*
X67084204Y-159403939D01*
X67062026Y-159391546D01*
X67035775Y-159367115D01*
X67034789Y-159366129D01*
X67005543Y-159332043D01*
X66992460Y-159300556D01*
X66990100Y-159271764D01*
X66993730Y-159254688D01*
X67093668Y-159254688D01*
X67099133Y-159288354D01*
X67124725Y-159309379D01*
X67167574Y-159315900D01*
X67185850Y-159314447D01*
X67227983Y-159303725D01*
X67265066Y-159285989D01*
X67268400Y-159283649D01*
X67293180Y-159255884D01*
X67305268Y-159225569D01*
X67306058Y-159205397D01*
X67297957Y-159195600D01*
X67274768Y-159192604D01*
X67248118Y-159192616D01*
X67180418Y-159198505D01*
X67130383Y-159213688D01*
X67100657Y-159237104D01*
X67093668Y-159254688D01*
X66993730Y-159254688D01*
X67001569Y-159217825D01*
X67035378Y-159174750D01*
X67090630Y-159143148D01*
X67166427Y-159123630D01*
X67216183Y-159118289D01*
X67263879Y-159114585D01*
X67291287Y-159109955D01*
X67303505Y-159102538D01*
X67305629Y-159090475D01*
X67305083Y-159085836D01*
X67291827Y-159060933D01*
X67267128Y-159040309D01*
X67237136Y-159030639D01*
X67195911Y-159030668D01*
X67139406Y-159040783D01*
X67071899Y-159058898D01*
X67049367Y-159058480D01*
X67032747Y-159037849D01*
X67030463Y-159033045D01*
X67021032Y-159006525D01*
X67024816Y-158988529D01*
X67045593Y-158974106D01*
X67087143Y-158958303D01*
X67087627Y-158958138D01*
X67167157Y-158940120D01*
X67243012Y-158939838D01*
X67310260Y-158956458D01*
G36*
X66071766Y-158949125D02*
G01*
X66136474Y-158981026D01*
X66185862Y-159030946D01*
X66217285Y-159096222D01*
X66228100Y-159172850D01*
X66216996Y-159250946D01*
X66185342Y-159315890D01*
X66135619Y-159365231D01*
X66070311Y-159396521D01*
X65991901Y-159407311D01*
X65990382Y-159407302D01*
X65944577Y-159403339D01*
X65902640Y-159394004D01*
X65891550Y-159389872D01*
X65834427Y-159351464D01*
X65792316Y-159296767D01*
X65767086Y-159231225D01*
X65761549Y-159170613D01*
X65863689Y-159170613D01*
X65870887Y-159221333D01*
X65893418Y-159265316D01*
X65929178Y-159297772D01*
X65976060Y-159313913D01*
X66011517Y-159313383D01*
X66051518Y-159299561D01*
X66087147Y-159275119D01*
X66087717Y-159274555D01*
X66107668Y-159249695D01*
X66117404Y-159220658D01*
X66120137Y-159177372D01*
X66120150Y-159172850D01*
X66117996Y-159128557D01*
X66109183Y-159099009D01*
X66090186Y-159073742D01*
X66084936Y-159068363D01*
X66054595Y-159044450D01*
X66020047Y-159034461D01*
X65991761Y-159033150D01*
X65950653Y-159036400D01*
X65922923Y-159049203D01*
X65903716Y-159068125D01*
X65873930Y-159117947D01*
X65863689Y-159170613D01*
X65761549Y-159170613D01*
X65760605Y-159160283D01*
X65774742Y-159089388D01*
X65782203Y-159071250D01*
X65822955Y-159006733D01*
X65876394Y-158963869D01*
X65944061Y-158941689D01*
X65994384Y-158937900D01*
X66071766Y-158949125D01*
X66071766Y-158949125D01*
G37*
X66071766Y-158949125D02*
X66136474Y-158981026D01*
X66185862Y-159030946D01*
X66217285Y-159096222D01*
X66228100Y-159172850D01*
X66216996Y-159250946D01*
X66185342Y-159315890D01*
X66135619Y-159365231D01*
X66070311Y-159396521D01*
X65991901Y-159407311D01*
X65990382Y-159407302D01*
X65944577Y-159403339D01*
X65902640Y-159394004D01*
X65891550Y-159389872D01*
X65834427Y-159351464D01*
X65792316Y-159296767D01*
X65767086Y-159231225D01*
X65761549Y-159170613D01*
X65863689Y-159170613D01*
X65870887Y-159221333D01*
X65893418Y-159265316D01*
X65929178Y-159297772D01*
X65976060Y-159313913D01*
X66011517Y-159313383D01*
X66051518Y-159299561D01*
X66087147Y-159275119D01*
X66087717Y-159274555D01*
X66107668Y-159249695D01*
X66117404Y-159220658D01*
X66120137Y-159177372D01*
X66120150Y-159172850D01*
X66117996Y-159128557D01*
X66109183Y-159099009D01*
X66090186Y-159073742D01*
X66084936Y-159068363D01*
X66054595Y-159044450D01*
X66020047Y-159034461D01*
X65991761Y-159033150D01*
X65950653Y-159036400D01*
X65922923Y-159049203D01*
X65903716Y-159068125D01*
X65873930Y-159117947D01*
X65863689Y-159170613D01*
X65761549Y-159170613D01*
X65760605Y-159160283D01*
X65774742Y-159089388D01*
X65782203Y-159071250D01*
X65822955Y-159006733D01*
X65876394Y-158963869D01*
X65944061Y-158941689D01*
X65994384Y-158937900D01*
X66071766Y-158949125D01*
G36*
X65580400Y-159011409D02*
G01*
X65580207Y-159095945D01*
X65579354Y-159159353D01*
X65577427Y-159205900D01*
X65574013Y-159239855D01*
X65568700Y-159265488D01*
X65561073Y-159287068D01*
X65551825Y-159306684D01*
X65514747Y-159359147D01*
X65478800Y-159385555D01*
X65426340Y-159401642D01*
X65364265Y-159406377D01*
X65305952Y-159399199D01*
X65288306Y-159393532D01*
X65239112Y-159363215D01*
X65195891Y-159317614D01*
X65179143Y-159290955D01*
X65164437Y-159257641D01*
X65165977Y-159237654D01*
X65185821Y-159223253D01*
X65198633Y-159217617D01*
X65235503Y-159208790D01*
X65257582Y-159217789D01*
X65262900Y-159235970D01*
X65273231Y-159257685D01*
X65298688Y-159282819D01*
X65330963Y-159304987D01*
X65361750Y-159317804D01*
X65370785Y-159318900D01*
X65404376Y-159316521D01*
X65430288Y-159307494D01*
X65449489Y-159288978D01*
X65462946Y-159258134D01*
X65471628Y-159212122D01*
X65476503Y-159148104D01*
X65478539Y-159063238D01*
X65478800Y-159002030D01*
X65478800Y-158772800D01*
X65580400Y-158772800D01*
X65580400Y-159011409D01*
X65580400Y-159011409D01*
G37*
X65580400Y-159011409D02*
X65580207Y-159095945D01*
X65579354Y-159159353D01*
X65577427Y-159205900D01*
X65574013Y-159239855D01*
X65568700Y-159265488D01*
X65561073Y-159287068D01*
X65551825Y-159306684D01*
X65514747Y-159359147D01*
X65478800Y-159385555D01*
X65426340Y-159401642D01*
X65364265Y-159406377D01*
X65305952Y-159399199D01*
X65288306Y-159393532D01*
X65239112Y-159363215D01*
X65195891Y-159317614D01*
X65179143Y-159290955D01*
X65164437Y-159257641D01*
X65165977Y-159237654D01*
X65185821Y-159223253D01*
X65198633Y-159217617D01*
X65235503Y-159208790D01*
X65257582Y-159217789D01*
X65262900Y-159235970D01*
X65273231Y-159257685D01*
X65298688Y-159282819D01*
X65330963Y-159304987D01*
X65361750Y-159317804D01*
X65370785Y-159318900D01*
X65404376Y-159316521D01*
X65430288Y-159307494D01*
X65449489Y-159288978D01*
X65462946Y-159258134D01*
X65471628Y-159212122D01*
X65476503Y-159148104D01*
X65478539Y-159063238D01*
X65478800Y-159002030D01*
X65478800Y-158772800D01*
X65580400Y-158772800D01*
X65580400Y-159011409D01*
G36*
X76982474Y-158945453D02*
G01*
X77011030Y-158957276D01*
X77036696Y-158967208D01*
X77048357Y-158964762D01*
X77048500Y-158963626D01*
X77059765Y-158955469D01*
X77087910Y-158950932D01*
X77099300Y-158950600D01*
X77150100Y-158950600D01*
X77150100Y-159202721D01*
X77149965Y-159289193D01*
X77149309Y-159354155D01*
X77147751Y-159401497D01*
X77144912Y-159435109D01*
X77140412Y-159458879D01*
X77133872Y-159476699D01*
X77124910Y-159492457D01*
X77121271Y-159497996D01*
X77075865Y-159544194D01*
X77015238Y-159573830D01*
X76944389Y-159585713D01*
X76868316Y-159578656D01*
X76829304Y-159567447D01*
X76783678Y-159547420D01*
X76753552Y-159526476D01*
X76743700Y-159509251D01*
X76750936Y-159493145D01*
X76765955Y-159472029D01*
X76788210Y-159444546D01*
X76850270Y-159471998D01*
X76911509Y-159490625D01*
X76965737Y-159491271D01*
X77009169Y-159475328D01*
X77038018Y-159444187D01*
X77048499Y-159399238D01*
X77048500Y-159399155D01*
X77048500Y-159356347D01*
X77011030Y-159375723D01*
X76950461Y-159394532D01*
X76890993Y-159390756D01*
X76836141Y-159367099D01*
X76789420Y-159326262D01*
X76754344Y-159270946D01*
X76734428Y-159203853D01*
X76731306Y-159161944D01*
X76833295Y-159161944D01*
X76839837Y-159213003D01*
X76862551Y-159258341D01*
X76897497Y-159289108D01*
X76935645Y-159300009D01*
X76981196Y-159298768D01*
X77020959Y-159286299D01*
X77030583Y-159279859D01*
X77040135Y-159259334D01*
X77046310Y-159221682D01*
X77049036Y-159174854D01*
X77048245Y-159126803D01*
X77043867Y-159085480D01*
X77035831Y-159058838D01*
X77032553Y-159054776D01*
X76991884Y-159035364D01*
X76942672Y-159031601D01*
X76907954Y-159039850D01*
X76867628Y-159068826D01*
X76842650Y-159111704D01*
X76833295Y-159161944D01*
X76731306Y-159161944D01*
X76731208Y-159160634D01*
X76741573Y-159090522D01*
X76769635Y-159030408D01*
X76811576Y-158983069D01*
X76863576Y-158951279D01*
X76921815Y-158937816D01*
X76982474Y-158945453D01*
X76982474Y-158945453D01*
G37*
X76982474Y-158945453D02*
X77011030Y-158957276D01*
X77036696Y-158967208D01*
X77048357Y-158964762D01*
X77048500Y-158963626D01*
X77059765Y-158955469D01*
X77087910Y-158950932D01*
X77099300Y-158950600D01*
X77150100Y-158950600D01*
X77150100Y-159202721D01*
X77149965Y-159289193D01*
X77149309Y-159354155D01*
X77147751Y-159401497D01*
X77144912Y-159435109D01*
X77140412Y-159458879D01*
X77133872Y-159476699D01*
X77124910Y-159492457D01*
X77121271Y-159497996D01*
X77075865Y-159544194D01*
X77015238Y-159573830D01*
X76944389Y-159585713D01*
X76868316Y-159578656D01*
X76829304Y-159567447D01*
X76783678Y-159547420D01*
X76753552Y-159526476D01*
X76743700Y-159509251D01*
X76750936Y-159493145D01*
X76765955Y-159472029D01*
X76788210Y-159444546D01*
X76850270Y-159471998D01*
X76911509Y-159490625D01*
X76965737Y-159491271D01*
X77009169Y-159475328D01*
X77038018Y-159444187D01*
X77048499Y-159399238D01*
X77048500Y-159399155D01*
X77048500Y-159356347D01*
X77011030Y-159375723D01*
X76950461Y-159394532D01*
X76890993Y-159390756D01*
X76836141Y-159367099D01*
X76789420Y-159326262D01*
X76754344Y-159270946D01*
X76734428Y-159203853D01*
X76731306Y-159161944D01*
X76833295Y-159161944D01*
X76839837Y-159213003D01*
X76862551Y-159258341D01*
X76897497Y-159289108D01*
X76935645Y-159300009D01*
X76981196Y-159298768D01*
X77020959Y-159286299D01*
X77030583Y-159279859D01*
X77040135Y-159259334D01*
X77046310Y-159221682D01*
X77049036Y-159174854D01*
X77048245Y-159126803D01*
X77043867Y-159085480D01*
X77035831Y-159058838D01*
X77032553Y-159054776D01*
X76991884Y-159035364D01*
X76942672Y-159031601D01*
X76907954Y-159039850D01*
X76867628Y-159068826D01*
X76842650Y-159111704D01*
X76833295Y-159161944D01*
X76731306Y-159161944D01*
X76731208Y-159160634D01*
X76741573Y-159090522D01*
X76769635Y-159030408D01*
X76811576Y-158983069D01*
X76863576Y-158951279D01*
X76921815Y-158937816D01*
X76982474Y-158945453D01*
G36*
X72105674Y-158945453D02*
G01*
X72134230Y-158957276D01*
X72159896Y-158967208D01*
X72171557Y-158964762D01*
X72171700Y-158963626D01*
X72182965Y-158955469D01*
X72211110Y-158950932D01*
X72222500Y-158950600D01*
X72273300Y-158950600D01*
X72273300Y-159202721D01*
X72273165Y-159289193D01*
X72272509Y-159354155D01*
X72270951Y-159401497D01*
X72268112Y-159435109D01*
X72263612Y-159458879D01*
X72257072Y-159476699D01*
X72248110Y-159492457D01*
X72244471Y-159497996D01*
X72199065Y-159544194D01*
X72138438Y-159573830D01*
X72067589Y-159585713D01*
X71991516Y-159578656D01*
X71952504Y-159567447D01*
X71906878Y-159547420D01*
X71876752Y-159526476D01*
X71866900Y-159509251D01*
X71874136Y-159493145D01*
X71889155Y-159472029D01*
X71911410Y-159444546D01*
X71973470Y-159471998D01*
X72034709Y-159490625D01*
X72088937Y-159491271D01*
X72132369Y-159475328D01*
X72161218Y-159444187D01*
X72171699Y-159399238D01*
X72171700Y-159399155D01*
X72171700Y-159356347D01*
X72134230Y-159375723D01*
X72073661Y-159394532D01*
X72014193Y-159390756D01*
X71959341Y-159367099D01*
X71912620Y-159326262D01*
X71877544Y-159270946D01*
X71857628Y-159203853D01*
X71854506Y-159161944D01*
X71956495Y-159161944D01*
X71963037Y-159213003D01*
X71985751Y-159258341D01*
X72020697Y-159289108D01*
X72058845Y-159300009D01*
X72104396Y-159298768D01*
X72144159Y-159286299D01*
X72153783Y-159279859D01*
X72163335Y-159259334D01*
X72169510Y-159221682D01*
X72172236Y-159174854D01*
X72171445Y-159126803D01*
X72167067Y-159085480D01*
X72159031Y-159058838D01*
X72155753Y-159054776D01*
X72115084Y-159035364D01*
X72065872Y-159031601D01*
X72031154Y-159039850D01*
X71990828Y-159068826D01*
X71965850Y-159111704D01*
X71956495Y-159161944D01*
X71854506Y-159161944D01*
X71854408Y-159160634D01*
X71864773Y-159090522D01*
X71892835Y-159030408D01*
X71934776Y-158983069D01*
X71986776Y-158951279D01*
X72045015Y-158937816D01*
X72105674Y-158945453D01*
X72105674Y-158945453D01*
G37*
X72105674Y-158945453D02*
X72134230Y-158957276D01*
X72159896Y-158967208D01*
X72171557Y-158964762D01*
X72171700Y-158963626D01*
X72182965Y-158955469D01*
X72211110Y-158950932D01*
X72222500Y-158950600D01*
X72273300Y-158950600D01*
X72273300Y-159202721D01*
X72273165Y-159289193D01*
X72272509Y-159354155D01*
X72270951Y-159401497D01*
X72268112Y-159435109D01*
X72263612Y-159458879D01*
X72257072Y-159476699D01*
X72248110Y-159492457D01*
X72244471Y-159497996D01*
X72199065Y-159544194D01*
X72138438Y-159573830D01*
X72067589Y-159585713D01*
X71991516Y-159578656D01*
X71952504Y-159567447D01*
X71906878Y-159547420D01*
X71876752Y-159526476D01*
X71866900Y-159509251D01*
X71874136Y-159493145D01*
X71889155Y-159472029D01*
X71911410Y-159444546D01*
X71973470Y-159471998D01*
X72034709Y-159490625D01*
X72088937Y-159491271D01*
X72132369Y-159475328D01*
X72161218Y-159444187D01*
X72171699Y-159399238D01*
X72171700Y-159399155D01*
X72171700Y-159356347D01*
X72134230Y-159375723D01*
X72073661Y-159394532D01*
X72014193Y-159390756D01*
X71959341Y-159367099D01*
X71912620Y-159326262D01*
X71877544Y-159270946D01*
X71857628Y-159203853D01*
X71854506Y-159161944D01*
X71956495Y-159161944D01*
X71963037Y-159213003D01*
X71985751Y-159258341D01*
X72020697Y-159289108D01*
X72058845Y-159300009D01*
X72104396Y-159298768D01*
X72144159Y-159286299D01*
X72153783Y-159279859D01*
X72163335Y-159259334D01*
X72169510Y-159221682D01*
X72172236Y-159174854D01*
X72171445Y-159126803D01*
X72167067Y-159085480D01*
X72159031Y-159058838D01*
X72155753Y-159054776D01*
X72115084Y-159035364D01*
X72065872Y-159031601D01*
X72031154Y-159039850D01*
X71990828Y-159068826D01*
X71965850Y-159111704D01*
X71956495Y-159161944D01*
X71854506Y-159161944D01*
X71854408Y-159160634D01*
X71864773Y-159090522D01*
X71892835Y-159030408D01*
X71934776Y-158983069D01*
X71986776Y-158951279D01*
X72045015Y-158937816D01*
X72105674Y-158945453D01*
G36*
X77935286Y-160491293D02*
G01*
X77958647Y-160532187D01*
X77960396Y-160576811D01*
X77940639Y-160617299D01*
X77933506Y-160624786D01*
X77904112Y-160652400D01*
X64718643Y-160652400D01*
X64692321Y-160618937D01*
X64673769Y-160587072D01*
X64666000Y-160557272D01*
X64666000Y-160557150D01*
X64673694Y-160527404D01*
X64692207Y-160495507D01*
X64692321Y-160495362D01*
X64718643Y-160461900D01*
X71313157Y-160461899D01*
X77907672Y-160461899D01*
X77935286Y-160491293D01*
X77935286Y-160491293D01*
G37*
X77935286Y-160491293D02*
X77958647Y-160532187D01*
X77960396Y-160576811D01*
X77940639Y-160617299D01*
X77933506Y-160624786D01*
X77904112Y-160652400D01*
X64718643Y-160652400D01*
X64692321Y-160618937D01*
X64673769Y-160587072D01*
X64666000Y-160557272D01*
X64666000Y-160557150D01*
X64673694Y-160527404D01*
X64692207Y-160495507D01*
X64692321Y-160495362D01*
X64718643Y-160461900D01*
X71313157Y-160461899D01*
X77907672Y-160461899D01*
X77935286Y-160491293D01*
G36*
X62244043Y-160464392D02*
G01*
X62292101Y-160473191D01*
X62322105Y-160490281D01*
X62337542Y-160517645D01*
X62341900Y-160557150D01*
X62337607Y-160596532D01*
X62322399Y-160623780D01*
X62292781Y-160640862D01*
X62245257Y-160649745D01*
X62176332Y-160652395D01*
X62172663Y-160652400D01*
X62115908Y-160651825D01*
X62078492Y-160649290D01*
X62054365Y-160643576D01*
X62037476Y-160633466D01*
X62026613Y-160623006D01*
X62003252Y-160582112D01*
X62001503Y-160537488D01*
X62021260Y-160497000D01*
X62028393Y-160489513D01*
X62045574Y-160476180D01*
X62066619Y-160467937D01*
X62097738Y-160463612D01*
X62145141Y-160462030D01*
X62174443Y-160461900D01*
X62244043Y-160464392D01*
X62244043Y-160464392D01*
G37*
X62244043Y-160464392D02*
X62292101Y-160473191D01*
X62322105Y-160490281D01*
X62337542Y-160517645D01*
X62341900Y-160557150D01*
X62337607Y-160596532D01*
X62322399Y-160623780D01*
X62292781Y-160640862D01*
X62245257Y-160649745D01*
X62176332Y-160652395D01*
X62172663Y-160652400D01*
X62115908Y-160651825D01*
X62078492Y-160649290D01*
X62054365Y-160643576D01*
X62037476Y-160633466D01*
X62026613Y-160623006D01*
X62003252Y-160582112D01*
X62001503Y-160537488D01*
X62021260Y-160497000D01*
X62028393Y-160489513D01*
X62045574Y-160476180D01*
X62066619Y-160467937D01*
X62097738Y-160463612D01*
X62145141Y-160462030D01*
X62174443Y-160461900D01*
X62244043Y-160464392D01*
G36*
X62704557Y-160213054D02*
G01*
X62737368Y-160232157D01*
X62746941Y-160240516D01*
X62754270Y-160250303D01*
X62759707Y-160264826D01*
X62763605Y-160287391D01*
X62766317Y-160321307D01*
X62768194Y-160369882D01*
X62769589Y-160436423D01*
X62770854Y-160524238D01*
X62771188Y-160549571D01*
X62775026Y-160842728D01*
X62743190Y-160874564D01*
X62703435Y-160901023D01*
X62663527Y-160902725D01*
X62626040Y-160879617D01*
X62623513Y-160877006D01*
X62614675Y-160866635D01*
X62607956Y-160854549D01*
X62603065Y-160837371D01*
X62599714Y-160811724D01*
X62597611Y-160774232D01*
X62596468Y-160721520D01*
X62595994Y-160650210D01*
X62595900Y-160556927D01*
X62595900Y-160555370D01*
X62595965Y-160461929D01*
X62596367Y-160390539D01*
X62597413Y-160337846D01*
X62599412Y-160300503D01*
X62602670Y-160275156D01*
X62607497Y-160258457D01*
X62614200Y-160247055D01*
X62623086Y-160237598D01*
X62625293Y-160235513D01*
X62664470Y-160211609D01*
X62704557Y-160213054D01*
X62704557Y-160213054D01*
G37*
X62704557Y-160213054D02*
X62737368Y-160232157D01*
X62746941Y-160240516D01*
X62754270Y-160250303D01*
X62759707Y-160264826D01*
X62763605Y-160287391D01*
X62766317Y-160321307D01*
X62768194Y-160369882D01*
X62769589Y-160436423D01*
X62770854Y-160524238D01*
X62771188Y-160549571D01*
X62775026Y-160842728D01*
X62743190Y-160874564D01*
X62703435Y-160901023D01*
X62663527Y-160902725D01*
X62626040Y-160879617D01*
X62623513Y-160877006D01*
X62614675Y-160866635D01*
X62607956Y-160854549D01*
X62603065Y-160837371D01*
X62599714Y-160811724D01*
X62597611Y-160774232D01*
X62596468Y-160721520D01*
X62595994Y-160650210D01*
X62595900Y-160556927D01*
X62595900Y-160555370D01*
X62595965Y-160461929D01*
X62596367Y-160390539D01*
X62597413Y-160337846D01*
X62599412Y-160300503D01*
X62602670Y-160275156D01*
X62607497Y-160258457D01*
X62614200Y-160247055D01*
X62623086Y-160237598D01*
X62625293Y-160235513D01*
X62664470Y-160211609D01*
X62704557Y-160213054D01*
G36*
X64430360Y-159884148D02*
G01*
X64437400Y-159890400D01*
X64443118Y-159896819D01*
X64447907Y-159905090D01*
X64451849Y-159917365D01*
X64455026Y-159935795D01*
X64457522Y-159962532D01*
X64459417Y-159999728D01*
X64460795Y-160049533D01*
X64461737Y-160114100D01*
X64462326Y-160195579D01*
X64462645Y-160296124D01*
X64462775Y-160417884D01*
X64462800Y-160554324D01*
X64462722Y-160700224D01*
X64462446Y-160822823D01*
X64461912Y-160924218D01*
X64461055Y-161006508D01*
X64459815Y-161071791D01*
X64458129Y-161122165D01*
X64455934Y-161159728D01*
X64453169Y-161186578D01*
X64449771Y-161204814D01*
X64445678Y-161216533D01*
X64443029Y-161221074D01*
X64413262Y-161243781D01*
X64373733Y-161249686D01*
X64333757Y-161238757D01*
X64310894Y-161221505D01*
X64305058Y-161214613D01*
X64300171Y-161206105D01*
X64296150Y-161193817D01*
X64292910Y-161175586D01*
X64290367Y-161149248D01*
X64288437Y-161112641D01*
X64287035Y-161063601D01*
X64286077Y-160999964D01*
X64285479Y-160919567D01*
X64285156Y-160820246D01*
X64285025Y-160699839D01*
X64285000Y-160557150D01*
X64285025Y-160413643D01*
X64285158Y-160293374D01*
X64285482Y-160194178D01*
X64286082Y-160113891D01*
X64287043Y-160050352D01*
X64288447Y-160001395D01*
X64290381Y-159964858D01*
X64292928Y-159938577D01*
X64296172Y-159920390D01*
X64300199Y-159908132D01*
X64305091Y-159899641D01*
X64310894Y-159892794D01*
X64347738Y-159869943D01*
X64390793Y-159867000D01*
X64430360Y-159884148D01*
X64430360Y-159884148D01*
G37*
X64430360Y-159884148D02*
X64437400Y-159890400D01*
X64443118Y-159896819D01*
X64447907Y-159905090D01*
X64451849Y-159917365D01*
X64455026Y-159935795D01*
X64457522Y-159962532D01*
X64459417Y-159999728D01*
X64460795Y-160049533D01*
X64461737Y-160114100D01*
X64462326Y-160195579D01*
X64462645Y-160296124D01*
X64462775Y-160417884D01*
X64462800Y-160554324D01*
X64462722Y-160700224D01*
X64462446Y-160822823D01*
X64461912Y-160924218D01*
X64461055Y-161006508D01*
X64459815Y-161071791D01*
X64458129Y-161122165D01*
X64455934Y-161159728D01*
X64453169Y-161186578D01*
X64449771Y-161204814D01*
X64445678Y-161216533D01*
X64443029Y-161221074D01*
X64413262Y-161243781D01*
X64373733Y-161249686D01*
X64333757Y-161238757D01*
X64310894Y-161221505D01*
X64305058Y-161214613D01*
X64300171Y-161206105D01*
X64296150Y-161193817D01*
X64292910Y-161175586D01*
X64290367Y-161149248D01*
X64288437Y-161112641D01*
X64287035Y-161063601D01*
X64286077Y-160999964D01*
X64285479Y-160919567D01*
X64285156Y-160820246D01*
X64285025Y-160699839D01*
X64285000Y-160557150D01*
X64285025Y-160413643D01*
X64285158Y-160293374D01*
X64285482Y-160194178D01*
X64286082Y-160113891D01*
X64287043Y-160050352D01*
X64288447Y-160001395D01*
X64290381Y-159964858D01*
X64292928Y-159938577D01*
X64296172Y-159920390D01*
X64300199Y-159908132D01*
X64305091Y-159899641D01*
X64310894Y-159892794D01*
X64347738Y-159869943D01*
X64390793Y-159867000D01*
X64430360Y-159884148D01*
G36*
X63414153Y-159873366D02*
G01*
X63416323Y-159874719D01*
X63425899Y-159882268D01*
X63433948Y-159892460D01*
X63440603Y-159907408D01*
X63445994Y-159929227D01*
X63450255Y-159960029D01*
X63453517Y-160001931D01*
X63455911Y-160057044D01*
X63457571Y-160127484D01*
X63458628Y-160215364D01*
X63459213Y-160322799D01*
X63459458Y-160451902D01*
X63459500Y-160566620D01*
X63459473Y-160708969D01*
X63459337Y-160828100D01*
X63459005Y-160926193D01*
X63458390Y-161005429D01*
X63457406Y-161067989D01*
X63455968Y-161116055D01*
X63453988Y-161151807D01*
X63451381Y-161177427D01*
X63448060Y-161195095D01*
X63443939Y-161206993D01*
X63438933Y-161215301D01*
X63433605Y-161221505D01*
X63398709Y-161244001D01*
X63357871Y-161249644D01*
X63320403Y-161238462D01*
X63301470Y-161221074D01*
X63296956Y-161212113D01*
X63293172Y-161197824D01*
X63290056Y-161176107D01*
X63287546Y-161144866D01*
X63285580Y-161102001D01*
X63284094Y-161045415D01*
X63283028Y-160973009D01*
X63282319Y-160882686D01*
X63281905Y-160772347D01*
X63281723Y-160639893D01*
X63281700Y-160554324D01*
X63281727Y-160410547D01*
X63281866Y-160290018D01*
X63282197Y-160190586D01*
X63282804Y-160110100D01*
X63283768Y-160046407D01*
X63285173Y-159997357D01*
X63287099Y-159960797D01*
X63289630Y-159934577D01*
X63292848Y-159916544D01*
X63296835Y-159904547D01*
X63301673Y-159896434D01*
X63307100Y-159890400D01*
X63339677Y-159871493D01*
X63379644Y-159865200D01*
X63414153Y-159873366D01*
X63414153Y-159873366D01*
G37*
X63414153Y-159873366D02*
X63416323Y-159874719D01*
X63425899Y-159882268D01*
X63433948Y-159892460D01*
X63440603Y-159907408D01*
X63445994Y-159929227D01*
X63450255Y-159960029D01*
X63453517Y-160001931D01*
X63455911Y-160057044D01*
X63457571Y-160127484D01*
X63458628Y-160215364D01*
X63459213Y-160322799D01*
X63459458Y-160451902D01*
X63459500Y-160566620D01*
X63459473Y-160708969D01*
X63459337Y-160828100D01*
X63459005Y-160926193D01*
X63458390Y-161005429D01*
X63457406Y-161067989D01*
X63455968Y-161116055D01*
X63453988Y-161151807D01*
X63451381Y-161177427D01*
X63448060Y-161195095D01*
X63443939Y-161206993D01*
X63438933Y-161215301D01*
X63433605Y-161221505D01*
X63398709Y-161244001D01*
X63357871Y-161249644D01*
X63320403Y-161238462D01*
X63301470Y-161221074D01*
X63296956Y-161212113D01*
X63293172Y-161197824D01*
X63290056Y-161176107D01*
X63287546Y-161144866D01*
X63285580Y-161102001D01*
X63284094Y-161045415D01*
X63283028Y-160973009D01*
X63282319Y-160882686D01*
X63281905Y-160772347D01*
X63281723Y-160639893D01*
X63281700Y-160554324D01*
X63281727Y-160410547D01*
X63281866Y-160290018D01*
X63282197Y-160190586D01*
X63282804Y-160110100D01*
X63283768Y-160046407D01*
X63285173Y-159997357D01*
X63287099Y-159960797D01*
X63289630Y-159934577D01*
X63292848Y-159916544D01*
X63296835Y-159904547D01*
X63301673Y-159896434D01*
X63307100Y-159890400D01*
X63339677Y-159871493D01*
X63379644Y-159865200D01*
X63414153Y-159873366D01*
G36*
X64100053Y-159528088D02*
G01*
X64121879Y-159546790D01*
X64126201Y-159553072D01*
X64129958Y-159561651D01*
X64133188Y-159574239D01*
X64135931Y-159592549D01*
X64138227Y-159618294D01*
X64140115Y-159653187D01*
X64141635Y-159698939D01*
X64142826Y-159757264D01*
X64143729Y-159829875D01*
X64144382Y-159918483D01*
X64144826Y-160024802D01*
X64145099Y-160150544D01*
X64145242Y-160297422D01*
X64145295Y-160467149D01*
X64145300Y-160559134D01*
X64145300Y-161542554D01*
X64114127Y-161573727D01*
X64076174Y-161599826D01*
X64038933Y-161600608D01*
X64001063Y-161576073D01*
X63998672Y-161573727D01*
X63967500Y-161542554D01*
X63967500Y-160559134D01*
X63967522Y-160377591D01*
X63967616Y-160219736D01*
X63967821Y-160083856D01*
X63968176Y-159968238D01*
X63968722Y-159871169D01*
X63969497Y-159790937D01*
X63970542Y-159725829D01*
X63971896Y-159674133D01*
X63973599Y-159634135D01*
X63975690Y-159604124D01*
X63978209Y-159582386D01*
X63981195Y-159567209D01*
X63984689Y-159556880D01*
X63988730Y-159549687D01*
X63990920Y-159546790D01*
X64025484Y-159522461D01*
X64056400Y-159517866D01*
X64100053Y-159528088D01*
X64100053Y-159528088D01*
G37*
X64100053Y-159528088D02*
X64121879Y-159546790D01*
X64126201Y-159553072D01*
X64129958Y-159561651D01*
X64133188Y-159574239D01*
X64135931Y-159592549D01*
X64138227Y-159618294D01*
X64140115Y-159653187D01*
X64141635Y-159698939D01*
X64142826Y-159757264D01*
X64143729Y-159829875D01*
X64144382Y-159918483D01*
X64144826Y-160024802D01*
X64145099Y-160150544D01*
X64145242Y-160297422D01*
X64145295Y-160467149D01*
X64145300Y-160559134D01*
X64145300Y-161542554D01*
X64114127Y-161573727D01*
X64076174Y-161599826D01*
X64038933Y-161600608D01*
X64001063Y-161576073D01*
X63998672Y-161573727D01*
X63967500Y-161542554D01*
X63967500Y-160559134D01*
X63967522Y-160377591D01*
X63967616Y-160219736D01*
X63967821Y-160083856D01*
X63968176Y-159968238D01*
X63968722Y-159871169D01*
X63969497Y-159790937D01*
X63970542Y-159725829D01*
X63971896Y-159674133D01*
X63973599Y-159634135D01*
X63975690Y-159604124D01*
X63978209Y-159582386D01*
X63981195Y-159567209D01*
X63984689Y-159556880D01*
X63988730Y-159549687D01*
X63990920Y-159546790D01*
X64025484Y-159522461D01*
X64056400Y-159517866D01*
X64100053Y-159528088D01*
G36*
X63056284Y-159523835D02*
G01*
X63089603Y-159543551D01*
X63108462Y-159575566D01*
X63109709Y-159592673D01*
X63110900Y-159633154D01*
X63112017Y-159694985D01*
X63113044Y-159776140D01*
X63113966Y-159874594D01*
X63114765Y-159988322D01*
X63115427Y-160115299D01*
X63115934Y-160253499D01*
X63116271Y-160400897D01*
X63116421Y-160555468D01*
X63116426Y-160573602D01*
X63116600Y-161542554D01*
X63085427Y-161573727D01*
X63048935Y-161599588D01*
X63012686Y-161601150D01*
X62972291Y-161578601D01*
X62972262Y-161578578D01*
X62938800Y-161552256D01*
X62938800Y-160568093D01*
X62938958Y-160358810D01*
X62939437Y-160174594D01*
X62940240Y-160015112D01*
X62941372Y-159880033D01*
X62942838Y-159769025D01*
X62944641Y-159681755D01*
X62946787Y-159617893D01*
X62949279Y-159577107D01*
X62952122Y-159559064D01*
X62952272Y-159558757D01*
X62979644Y-159530579D01*
X63016973Y-159519224D01*
X63056284Y-159523835D01*
X63056284Y-159523835D01*
G37*
X63056284Y-159523835D02*
X63089603Y-159543551D01*
X63108462Y-159575566D01*
X63109709Y-159592673D01*
X63110900Y-159633154D01*
X63112017Y-159694985D01*
X63113044Y-159776140D01*
X63113966Y-159874594D01*
X63114765Y-159988322D01*
X63115427Y-160115299D01*
X63115934Y-160253499D01*
X63116271Y-160400897D01*
X63116421Y-160555468D01*
X63116426Y-160573602D01*
X63116600Y-161542554D01*
X63085427Y-161573727D01*
X63048935Y-161599588D01*
X63012686Y-161601150D01*
X62972291Y-161578601D01*
X62972262Y-161578578D01*
X62938800Y-161552256D01*
X62938800Y-160568093D01*
X62938958Y-160358810D01*
X62939437Y-160174594D01*
X62940240Y-160015112D01*
X62941372Y-159880033D01*
X62942838Y-159769025D01*
X62944641Y-159681755D01*
X62946787Y-159617893D01*
X62949279Y-159577107D01*
X62952122Y-159559064D01*
X62952272Y-159558757D01*
X62979644Y-159530579D01*
X63016973Y-159519224D01*
X63056284Y-159523835D01*
G36*
X63770832Y-159193784D02*
G01*
X63776078Y-159199962D01*
X63780287Y-159205588D01*
X63784022Y-159212115D01*
X63787310Y-159221013D01*
X63790181Y-159233751D01*
X63792663Y-159251799D01*
X63794783Y-159276627D01*
X63796571Y-159309703D01*
X63798054Y-159352497D01*
X63799262Y-159406478D01*
X63800222Y-159473117D01*
X63800963Y-159553882D01*
X63801514Y-159650243D01*
X63801902Y-159763669D01*
X63802156Y-159895630D01*
X63802304Y-160047596D01*
X63802375Y-160221035D01*
X63802398Y-160417417D01*
X63802400Y-160562998D01*
X63802400Y-161892572D01*
X63773006Y-161920186D01*
X63732942Y-161943429D01*
X63690671Y-161944227D01*
X63652999Y-161922590D01*
X63650494Y-161920005D01*
X63646361Y-161915243D01*
X63642693Y-161909375D01*
X63639463Y-161900941D01*
X63636641Y-161888481D01*
X63634202Y-161870535D01*
X63632116Y-161845641D01*
X63630357Y-161812341D01*
X63628896Y-161769174D01*
X63627705Y-161714680D01*
X63626758Y-161647399D01*
X63626026Y-161565870D01*
X63625482Y-161468633D01*
X63625097Y-161354228D01*
X63624844Y-161221196D01*
X63624696Y-161068075D01*
X63624624Y-160893405D01*
X63624601Y-160695727D01*
X63624600Y-160556969D01*
X63624599Y-159221727D01*
X63653993Y-159194113D01*
X63694057Y-159170230D01*
X63734619Y-159170198D01*
X63770832Y-159193784D01*
X63770832Y-159193784D01*
G37*
X63770832Y-159193784D02*
X63776078Y-159199962D01*
X63780287Y-159205588D01*
X63784022Y-159212115D01*
X63787310Y-159221013D01*
X63790181Y-159233751D01*
X63792663Y-159251799D01*
X63794783Y-159276627D01*
X63796571Y-159309703D01*
X63798054Y-159352497D01*
X63799262Y-159406478D01*
X63800222Y-159473117D01*
X63800963Y-159553882D01*
X63801514Y-159650243D01*
X63801902Y-159763669D01*
X63802156Y-159895630D01*
X63802304Y-160047596D01*
X63802375Y-160221035D01*
X63802398Y-160417417D01*
X63802400Y-160562998D01*
X63802400Y-161892572D01*
X63773006Y-161920186D01*
X63732942Y-161943429D01*
X63690671Y-161944227D01*
X63652999Y-161922590D01*
X63650494Y-161920005D01*
X63646361Y-161915243D01*
X63642693Y-161909375D01*
X63639463Y-161900941D01*
X63636641Y-161888481D01*
X63634202Y-161870535D01*
X63632116Y-161845641D01*
X63630357Y-161812341D01*
X63628896Y-161769174D01*
X63627705Y-161714680D01*
X63626758Y-161647399D01*
X63626026Y-161565870D01*
X63625482Y-161468633D01*
X63625097Y-161354228D01*
X63624844Y-161221196D01*
X63624696Y-161068075D01*
X63624624Y-160893405D01*
X63624601Y-160695727D01*
X63624600Y-160556969D01*
X63624599Y-159221727D01*
X63653993Y-159194113D01*
X63694057Y-159170230D01*
X63734619Y-159170198D01*
X63770832Y-159193784D01*
D15*
X75000000Y-70500000D02*
G75*
G02X85000000Y-70500000I5000000J5500000D01*
G01*
X85500000Y-71000000D02*
X84500000Y-70000000D01*
X75500000Y-70000000D02*
X74500000Y-71000000D01*
X80000000Y-57000000D02*
X80000000Y-58000000D01*
X60000000Y-57000000D02*
X60000000Y-58000000D01*
X55500000Y-70000000D02*
X54500000Y-71000000D01*
X65500000Y-71000000D02*
X64500000Y-70000000D01*
X55000000Y-70500000D02*
G75*
G02X65000000Y-70500000I5000000J5500000D01*
G01*
X69380952Y-52952380D02*
X69571428Y-52952380D01*
X69666666Y-53000000D01*
X69761904Y-53095238D01*
X69809523Y-53285714D01*
X69809523Y-53619047D01*
X69761904Y-53809523D01*
X69666666Y-53904761D01*
X69571428Y-53952380D01*
X69380952Y-53952380D01*
X69285714Y-53904761D01*
X69190476Y-53809523D01*
X69142857Y-53619047D01*
X69142857Y-53285714D01*
X69190476Y-53095238D01*
X69285714Y-53000000D01*
X69380952Y-52952380D01*
X70238095Y-53952380D02*
X70238095Y-52952380D01*
X70809523Y-53952380D01*
X70809523Y-52952380D01*
M02*
