%TF.GenerationSoftware,KiCad,Pcbnew,(5.1.0)-1*%
%TF.CreationDate,2020-03-08T21:58:09+01:00*%
%TF.ProjectId,KicadJE_AC3340_RevA_Faceplate,4b696361-644a-4455-9f41-43333334305f,rev?*%
%TF.SameCoordinates,Original*%
%TF.FileFunction,Soldermask,Bot*%
%TF.FilePolarity,Negative*%
%FSLAX46Y46*%
G04 Gerber Fmt 4.6, Leading zero omitted, Abs format (unit mm)*
G04 Created by KiCad (PCBNEW (5.1.0)-1) date 2020-03-08 21:58:09*
%MOMM*%
%LPD*%
G04 APERTURE LIST*
%ADD10C,0.050000*%
%ADD11C,0.150000*%
G04 APERTURE END LIST*
D10*
X50000000Y-164000000D02*
X50000000Y-36000000D01*
X90000000Y-164000000D02*
X50000000Y-164000000D01*
X90000000Y-36000000D02*
X90000000Y-164000000D01*
X50000000Y-36000000D02*
X90000000Y-36000000D01*
D11*
G36*
X58201189Y-158958892D02*
G01*
X58402066Y-158978677D01*
X58788681Y-159095955D01*
X58788684Y-159095956D01*
X59144983Y-159286402D01*
X59144986Y-159286404D01*
X59144987Y-159286405D01*
X59457293Y-159542707D01*
X59713595Y-159855013D01*
X59713598Y-159855017D01*
X59904044Y-160211316D01*
X59904045Y-160211319D01*
X60021323Y-160597934D01*
X60060923Y-161000000D01*
X60021323Y-161402066D01*
X59915709Y-161750230D01*
X59904044Y-161788684D01*
X59713598Y-162144983D01*
X59713596Y-162144986D01*
X59713595Y-162144987D01*
X59457293Y-162457293D01*
X59144987Y-162713595D01*
X59144983Y-162713598D01*
X58788684Y-162904044D01*
X58788681Y-162904045D01*
X58402066Y-163021323D01*
X58201189Y-163041108D01*
X58100751Y-163051000D01*
X54899249Y-163051000D01*
X54798811Y-163041108D01*
X54597934Y-163021323D01*
X54211319Y-162904045D01*
X54211316Y-162904044D01*
X53855017Y-162713598D01*
X53855013Y-162713595D01*
X53542707Y-162457293D01*
X53286405Y-162144987D01*
X53286404Y-162144986D01*
X53286402Y-162144983D01*
X53095956Y-161788684D01*
X53084291Y-161750230D01*
X52978677Y-161402066D01*
X52939077Y-161000000D01*
X52978677Y-160597934D01*
X53095955Y-160211319D01*
X53095956Y-160211316D01*
X53286402Y-159855017D01*
X53286405Y-159855013D01*
X53542707Y-159542707D01*
X53855013Y-159286405D01*
X53855014Y-159286404D01*
X53855017Y-159286402D01*
X54211316Y-159095956D01*
X54211319Y-159095955D01*
X54597934Y-158978677D01*
X54798811Y-158958892D01*
X54899249Y-158949000D01*
X58100751Y-158949000D01*
X58201189Y-158958892D01*
X58201189Y-158958892D01*
G37*
G36*
X85382463Y-159077229D02*
G01*
X85750228Y-159188790D01*
X86089162Y-159369954D01*
X86386240Y-159613760D01*
X86630046Y-159910838D01*
X86811210Y-160249772D01*
X86922771Y-160617537D01*
X86960440Y-161000000D01*
X86922771Y-161382463D01*
X86811210Y-161750228D01*
X86630046Y-162089162D01*
X86386240Y-162386240D01*
X86089162Y-162630046D01*
X85750228Y-162811210D01*
X85382463Y-162922771D01*
X85095847Y-162951000D01*
X81904153Y-162951000D01*
X81617537Y-162922771D01*
X81249772Y-162811210D01*
X80910838Y-162630046D01*
X80613760Y-162386240D01*
X80369954Y-162089162D01*
X80188790Y-161750228D01*
X80077229Y-161382463D01*
X80039560Y-161000000D01*
X80077229Y-160617537D01*
X80188790Y-160249772D01*
X80369954Y-159910838D01*
X80613760Y-159613760D01*
X80910838Y-159369954D01*
X81249772Y-159188790D01*
X81617537Y-159077229D01*
X81904153Y-159049000D01*
X85095847Y-159049000D01*
X85382463Y-159077229D01*
X85382463Y-159077229D01*
G37*
G36*
X80962865Y-141825855D02*
G01*
X81563608Y-142074691D01*
X81563610Y-142074692D01*
X82104265Y-142435946D01*
X82564054Y-142895735D01*
X82925308Y-143436390D01*
X82925309Y-143436392D01*
X83174145Y-144037135D01*
X83301000Y-144674879D01*
X83301000Y-145325121D01*
X83174145Y-145962865D01*
X82925309Y-146563608D01*
X82925308Y-146563610D01*
X82564054Y-147104265D01*
X82104265Y-147564054D01*
X81563610Y-147925308D01*
X81563609Y-147925309D01*
X81563608Y-147925309D01*
X80962865Y-148174145D01*
X80325121Y-148301000D01*
X79674879Y-148301000D01*
X79037135Y-148174145D01*
X78436392Y-147925309D01*
X78436391Y-147925309D01*
X78436390Y-147925308D01*
X77895735Y-147564054D01*
X77435946Y-147104265D01*
X77074692Y-146563610D01*
X77074691Y-146563608D01*
X76825855Y-145962865D01*
X76699000Y-145325121D01*
X76699000Y-144674879D01*
X76825855Y-144037135D01*
X77074691Y-143436392D01*
X77074692Y-143436390D01*
X77435946Y-142895735D01*
X77895735Y-142435946D01*
X78436390Y-142074692D01*
X78436392Y-142074691D01*
X79037135Y-141825855D01*
X79674879Y-141699000D01*
X80325121Y-141699000D01*
X80962865Y-141825855D01*
X80962865Y-141825855D01*
G37*
G36*
X60962865Y-141825855D02*
G01*
X61563608Y-142074691D01*
X61563610Y-142074692D01*
X62104265Y-142435946D01*
X62564054Y-142895735D01*
X62925308Y-143436390D01*
X62925309Y-143436392D01*
X63174145Y-144037135D01*
X63301000Y-144674879D01*
X63301000Y-145325121D01*
X63174145Y-145962865D01*
X62925309Y-146563608D01*
X62925308Y-146563610D01*
X62564054Y-147104265D01*
X62104265Y-147564054D01*
X61563610Y-147925308D01*
X61563609Y-147925309D01*
X61563608Y-147925309D01*
X60962865Y-148174145D01*
X60325121Y-148301000D01*
X59674879Y-148301000D01*
X59037135Y-148174145D01*
X58436392Y-147925309D01*
X58436391Y-147925309D01*
X58436390Y-147925308D01*
X57895735Y-147564054D01*
X57435946Y-147104265D01*
X57074692Y-146563610D01*
X57074691Y-146563608D01*
X56825855Y-145962865D01*
X56699000Y-145325121D01*
X56699000Y-144674879D01*
X56825855Y-144037135D01*
X57074691Y-143436392D01*
X57074692Y-143436390D01*
X57435946Y-142895735D01*
X57895735Y-142435946D01*
X58436390Y-142074692D01*
X58436392Y-142074691D01*
X59037135Y-141825855D01*
X59674879Y-141699000D01*
X60325121Y-141699000D01*
X60962865Y-141825855D01*
X60962865Y-141825855D01*
G37*
G36*
X60962865Y-131825855D02*
G01*
X61563608Y-132074691D01*
X61563610Y-132074692D01*
X62104265Y-132435946D01*
X62564054Y-132895735D01*
X62925308Y-133436390D01*
X62925309Y-133436392D01*
X63174145Y-134037135D01*
X63301000Y-134674879D01*
X63301000Y-135325121D01*
X63174145Y-135962865D01*
X62925309Y-136563608D01*
X62925308Y-136563610D01*
X62564054Y-137104265D01*
X62104265Y-137564054D01*
X61563610Y-137925308D01*
X61563609Y-137925309D01*
X61563608Y-137925309D01*
X60962865Y-138174145D01*
X60325121Y-138301000D01*
X59674879Y-138301000D01*
X59037135Y-138174145D01*
X58436392Y-137925309D01*
X58436391Y-137925309D01*
X58436390Y-137925308D01*
X57895735Y-137564054D01*
X57435946Y-137104265D01*
X57074692Y-136563610D01*
X57074691Y-136563608D01*
X56825855Y-135962865D01*
X56699000Y-135325121D01*
X56699000Y-134674879D01*
X56825855Y-134037135D01*
X57074691Y-133436392D01*
X57074692Y-133436390D01*
X57435946Y-132895735D01*
X57895735Y-132435946D01*
X58436390Y-132074692D01*
X58436392Y-132074691D01*
X59037135Y-131825855D01*
X59674879Y-131699000D01*
X60325121Y-131699000D01*
X60962865Y-131825855D01*
X60962865Y-131825855D01*
G37*
G36*
X80962865Y-131825855D02*
G01*
X81563608Y-132074691D01*
X81563610Y-132074692D01*
X82104265Y-132435946D01*
X82564054Y-132895735D01*
X82925308Y-133436390D01*
X82925309Y-133436392D01*
X83174145Y-134037135D01*
X83301000Y-134674879D01*
X83301000Y-135325121D01*
X83174145Y-135962865D01*
X82925309Y-136563608D01*
X82925308Y-136563610D01*
X82564054Y-137104265D01*
X82104265Y-137564054D01*
X81563610Y-137925308D01*
X81563609Y-137925309D01*
X81563608Y-137925309D01*
X80962865Y-138174145D01*
X80325121Y-138301000D01*
X79674879Y-138301000D01*
X79037135Y-138174145D01*
X78436392Y-137925309D01*
X78436391Y-137925309D01*
X78436390Y-137925308D01*
X77895735Y-137564054D01*
X77435946Y-137104265D01*
X77074692Y-136563610D01*
X77074691Y-136563608D01*
X76825855Y-135962865D01*
X76699000Y-135325121D01*
X76699000Y-134674879D01*
X76825855Y-134037135D01*
X77074691Y-133436392D01*
X77074692Y-133436390D01*
X77435946Y-132895735D01*
X77895735Y-132435946D01*
X78436390Y-132074692D01*
X78436392Y-132074691D01*
X79037135Y-131825855D01*
X79674879Y-131699000D01*
X80325121Y-131699000D01*
X80962865Y-131825855D01*
X80962865Y-131825855D01*
G37*
G36*
X60962865Y-121825855D02*
G01*
X61563608Y-122074691D01*
X61563610Y-122074692D01*
X62104265Y-122435946D01*
X62564054Y-122895735D01*
X62925308Y-123436390D01*
X62925309Y-123436392D01*
X63174145Y-124037135D01*
X63301000Y-124674879D01*
X63301000Y-125325121D01*
X63174145Y-125962865D01*
X62925309Y-126563608D01*
X62925308Y-126563610D01*
X62564054Y-127104265D01*
X62104265Y-127564054D01*
X61563610Y-127925308D01*
X61563609Y-127925309D01*
X61563608Y-127925309D01*
X60962865Y-128174145D01*
X60325121Y-128301000D01*
X59674879Y-128301000D01*
X59037135Y-128174145D01*
X58436392Y-127925309D01*
X58436391Y-127925309D01*
X58436390Y-127925308D01*
X57895735Y-127564054D01*
X57435946Y-127104265D01*
X57074692Y-126563610D01*
X57074691Y-126563608D01*
X56825855Y-125962865D01*
X56699000Y-125325121D01*
X56699000Y-124674879D01*
X56825855Y-124037135D01*
X57074691Y-123436392D01*
X57074692Y-123436390D01*
X57435946Y-122895735D01*
X57895735Y-122435946D01*
X58436390Y-122074692D01*
X58436392Y-122074691D01*
X59037135Y-121825855D01*
X59674879Y-121699000D01*
X60325121Y-121699000D01*
X60962865Y-121825855D01*
X60962865Y-121825855D01*
G37*
G36*
X80962865Y-121825855D02*
G01*
X81563608Y-122074691D01*
X81563610Y-122074692D01*
X82104265Y-122435946D01*
X82564054Y-122895735D01*
X82925308Y-123436390D01*
X82925309Y-123436392D01*
X83174145Y-124037135D01*
X83301000Y-124674879D01*
X83301000Y-125325121D01*
X83174145Y-125962865D01*
X82925309Y-126563608D01*
X82925308Y-126563610D01*
X82564054Y-127104265D01*
X82104265Y-127564054D01*
X81563610Y-127925308D01*
X81563609Y-127925309D01*
X81563608Y-127925309D01*
X80962865Y-128174145D01*
X80325121Y-128301000D01*
X79674879Y-128301000D01*
X79037135Y-128174145D01*
X78436392Y-127925309D01*
X78436391Y-127925309D01*
X78436390Y-127925308D01*
X77895735Y-127564054D01*
X77435946Y-127104265D01*
X77074692Y-126563610D01*
X77074691Y-126563608D01*
X76825855Y-125962865D01*
X76699000Y-125325121D01*
X76699000Y-124674879D01*
X76825855Y-124037135D01*
X77074691Y-123436392D01*
X77074692Y-123436390D01*
X77435946Y-122895735D01*
X77895735Y-122435946D01*
X78436390Y-122074692D01*
X78436392Y-122074691D01*
X79037135Y-121825855D01*
X79674879Y-121699000D01*
X80325121Y-121699000D01*
X80962865Y-121825855D01*
X80962865Y-121825855D01*
G37*
G36*
X60962865Y-111825855D02*
G01*
X61563608Y-112074691D01*
X61563610Y-112074692D01*
X62104265Y-112435946D01*
X62564054Y-112895735D01*
X62925308Y-113436390D01*
X62925309Y-113436392D01*
X63174145Y-114037135D01*
X63301000Y-114674879D01*
X63301000Y-115325121D01*
X63174145Y-115962865D01*
X62925309Y-116563608D01*
X62925308Y-116563610D01*
X62564054Y-117104265D01*
X62104265Y-117564054D01*
X61563610Y-117925308D01*
X61563609Y-117925309D01*
X61563608Y-117925309D01*
X60962865Y-118174145D01*
X60325121Y-118301000D01*
X59674879Y-118301000D01*
X59037135Y-118174145D01*
X58436392Y-117925309D01*
X58436391Y-117925309D01*
X58436390Y-117925308D01*
X57895735Y-117564054D01*
X57435946Y-117104265D01*
X57074692Y-116563610D01*
X57074691Y-116563608D01*
X56825855Y-115962865D01*
X56699000Y-115325121D01*
X56699000Y-114674879D01*
X56825855Y-114037135D01*
X57074691Y-113436392D01*
X57074692Y-113436390D01*
X57435946Y-112895735D01*
X57895735Y-112435946D01*
X58436390Y-112074692D01*
X58436392Y-112074691D01*
X59037135Y-111825855D01*
X59674879Y-111699000D01*
X60325121Y-111699000D01*
X60962865Y-111825855D01*
X60962865Y-111825855D01*
G37*
G36*
X80962865Y-111825855D02*
G01*
X81563608Y-112074691D01*
X81563610Y-112074692D01*
X82104265Y-112435946D01*
X82564054Y-112895735D01*
X82925308Y-113436390D01*
X82925309Y-113436392D01*
X83174145Y-114037135D01*
X83301000Y-114674879D01*
X83301000Y-115325121D01*
X83174145Y-115962865D01*
X82925309Y-116563608D01*
X82925308Y-116563610D01*
X82564054Y-117104265D01*
X82104265Y-117564054D01*
X81563610Y-117925308D01*
X81563609Y-117925309D01*
X81563608Y-117925309D01*
X80962865Y-118174145D01*
X80325121Y-118301000D01*
X79674879Y-118301000D01*
X79037135Y-118174145D01*
X78436392Y-117925309D01*
X78436391Y-117925309D01*
X78436390Y-117925308D01*
X77895735Y-117564054D01*
X77435946Y-117104265D01*
X77074692Y-116563610D01*
X77074691Y-116563608D01*
X76825855Y-115962865D01*
X76699000Y-115325121D01*
X76699000Y-114674879D01*
X76825855Y-114037135D01*
X77074691Y-113436392D01*
X77074692Y-113436390D01*
X77435946Y-112895735D01*
X77895735Y-112435946D01*
X78436390Y-112074692D01*
X78436392Y-112074691D01*
X79037135Y-111825855D01*
X79674879Y-111699000D01*
X80325121Y-111699000D01*
X80962865Y-111825855D01*
X80962865Y-111825855D01*
G37*
G36*
X60962865Y-101825855D02*
G01*
X61563608Y-102074691D01*
X61563610Y-102074692D01*
X62104265Y-102435946D01*
X62564054Y-102895735D01*
X62834843Y-103301000D01*
X62925309Y-103436392D01*
X63174145Y-104037135D01*
X63301000Y-104674879D01*
X63301000Y-105325121D01*
X63174145Y-105962865D01*
X62925309Y-106563608D01*
X62925308Y-106563610D01*
X62564054Y-107104265D01*
X62104265Y-107564054D01*
X61563610Y-107925308D01*
X61563609Y-107925309D01*
X61563608Y-107925309D01*
X60962865Y-108174145D01*
X60325121Y-108301000D01*
X59674879Y-108301000D01*
X59037135Y-108174145D01*
X58436392Y-107925309D01*
X58436391Y-107925309D01*
X58436390Y-107925308D01*
X57895735Y-107564054D01*
X57435946Y-107104265D01*
X57074692Y-106563610D01*
X57074691Y-106563608D01*
X56825855Y-105962865D01*
X56699000Y-105325121D01*
X56699000Y-104674879D01*
X56825855Y-104037135D01*
X57074691Y-103436392D01*
X57165157Y-103301000D01*
X57435946Y-102895735D01*
X57895735Y-102435946D01*
X58436390Y-102074692D01*
X58436392Y-102074691D01*
X59037135Y-101825855D01*
X59674879Y-101699000D01*
X60325121Y-101699000D01*
X60962865Y-101825855D01*
X60962865Y-101825855D01*
G37*
G36*
X80962865Y-96825855D02*
G01*
X81563608Y-97074691D01*
X81563610Y-97074692D01*
X82104265Y-97435946D01*
X82564054Y-97895735D01*
X82834843Y-98301000D01*
X82925309Y-98436392D01*
X83174145Y-99037135D01*
X83301000Y-99674879D01*
X83301000Y-100325121D01*
X83174145Y-100962865D01*
X82925309Y-101563608D01*
X82925308Y-101563610D01*
X82564054Y-102104265D01*
X82104265Y-102564054D01*
X81563610Y-102925308D01*
X81563609Y-102925309D01*
X81563608Y-102925309D01*
X80962865Y-103174145D01*
X80325121Y-103301000D01*
X79674879Y-103301000D01*
X79037135Y-103174145D01*
X78436392Y-102925309D01*
X78436391Y-102925309D01*
X78436390Y-102925308D01*
X77895735Y-102564054D01*
X77435946Y-102104265D01*
X77074692Y-101563610D01*
X77074691Y-101563608D01*
X76825855Y-100962865D01*
X76699000Y-100325121D01*
X76699000Y-99674879D01*
X76825855Y-99037135D01*
X77074691Y-98436392D01*
X77165157Y-98301000D01*
X77435946Y-97895735D01*
X77895735Y-97435946D01*
X78436390Y-97074692D01*
X78436392Y-97074691D01*
X79037135Y-96825855D01*
X79674879Y-96699000D01*
X80325121Y-96699000D01*
X80962865Y-96825855D01*
X80962865Y-96825855D01*
G37*
G36*
X60962865Y-91825855D02*
G01*
X61563608Y-92074691D01*
X61563610Y-92074692D01*
X62104265Y-92435946D01*
X62564054Y-92895735D01*
X62925308Y-93436390D01*
X62925309Y-93436392D01*
X63174145Y-94037135D01*
X63301000Y-94674879D01*
X63301000Y-95325121D01*
X63174145Y-95962865D01*
X62925309Y-96563608D01*
X62925308Y-96563610D01*
X62564054Y-97104265D01*
X62104265Y-97564054D01*
X61563610Y-97925308D01*
X61563609Y-97925309D01*
X61563608Y-97925309D01*
X60962865Y-98174145D01*
X60325121Y-98301000D01*
X59674879Y-98301000D01*
X59037135Y-98174145D01*
X58436392Y-97925309D01*
X58436391Y-97925309D01*
X58436390Y-97925308D01*
X57895735Y-97564054D01*
X57435946Y-97104265D01*
X57074692Y-96563610D01*
X57074691Y-96563608D01*
X56825855Y-95962865D01*
X56699000Y-95325121D01*
X56699000Y-94674879D01*
X56825855Y-94037135D01*
X57074691Y-93436392D01*
X57074692Y-93436390D01*
X57435946Y-92895735D01*
X57895735Y-92435946D01*
X58436390Y-92074692D01*
X58436392Y-92074691D01*
X59037135Y-91825855D01*
X59674879Y-91699000D01*
X60325121Y-91699000D01*
X60962865Y-91825855D01*
X60962865Y-91825855D01*
G37*
G36*
X60962865Y-81825855D02*
G01*
X61563608Y-82074691D01*
X61563610Y-82074692D01*
X62104265Y-82435946D01*
X62564054Y-82895735D01*
X62925308Y-83436390D01*
X62925309Y-83436392D01*
X63174145Y-84037135D01*
X63301000Y-84674879D01*
X63301000Y-85325121D01*
X63174145Y-85962865D01*
X62925309Y-86563608D01*
X62925308Y-86563610D01*
X62564054Y-87104265D01*
X62104265Y-87564054D01*
X61563610Y-87925308D01*
X61563609Y-87925309D01*
X61563608Y-87925309D01*
X60962865Y-88174145D01*
X60325121Y-88301000D01*
X59674879Y-88301000D01*
X59037135Y-88174145D01*
X58436392Y-87925309D01*
X58436391Y-87925309D01*
X58436390Y-87925308D01*
X57895735Y-87564054D01*
X57435946Y-87104265D01*
X57074692Y-86563610D01*
X57074691Y-86563608D01*
X56825855Y-85962865D01*
X56699000Y-85325121D01*
X56699000Y-84674879D01*
X56825855Y-84037135D01*
X57074691Y-83436392D01*
X57074692Y-83436390D01*
X57435946Y-82895735D01*
X57895735Y-82435946D01*
X58436390Y-82074692D01*
X58436392Y-82074691D01*
X59037135Y-81825855D01*
X59674879Y-81699000D01*
X60325121Y-81699000D01*
X60962865Y-81825855D01*
X60962865Y-81825855D01*
G37*
G36*
X80962865Y-61825855D02*
G01*
X81563608Y-62074691D01*
X81563610Y-62074692D01*
X82104265Y-62435946D01*
X82564054Y-62895735D01*
X82925308Y-63436390D01*
X82925309Y-63436392D01*
X83174145Y-64037135D01*
X83301000Y-64674879D01*
X83301000Y-65325121D01*
X83174145Y-65962865D01*
X82925309Y-66563608D01*
X82925308Y-66563610D01*
X82564054Y-67104265D01*
X82104265Y-67564054D01*
X81563610Y-67925308D01*
X81563609Y-67925309D01*
X81563608Y-67925309D01*
X80962865Y-68174145D01*
X80325121Y-68301000D01*
X79674879Y-68301000D01*
X79037135Y-68174145D01*
X78436392Y-67925309D01*
X78436391Y-67925309D01*
X78436390Y-67925308D01*
X77895735Y-67564054D01*
X77435946Y-67104265D01*
X77074692Y-66563610D01*
X77074691Y-66563608D01*
X76825855Y-65962865D01*
X76699000Y-65325121D01*
X76699000Y-64674879D01*
X76825855Y-64037135D01*
X77074691Y-63436392D01*
X77074692Y-63436390D01*
X77435946Y-62895735D01*
X77895735Y-62435946D01*
X78436390Y-62074692D01*
X78436392Y-62074691D01*
X79037135Y-61825855D01*
X79674879Y-61699000D01*
X80325121Y-61699000D01*
X80962865Y-61825855D01*
X80962865Y-61825855D01*
G37*
G36*
X60962865Y-61825855D02*
G01*
X61563608Y-62074691D01*
X61563610Y-62074692D01*
X62104265Y-62435946D01*
X62564054Y-62895735D01*
X62925308Y-63436390D01*
X62925309Y-63436392D01*
X63174145Y-64037135D01*
X63301000Y-64674879D01*
X63301000Y-65325121D01*
X63174145Y-65962865D01*
X62925309Y-66563608D01*
X62925308Y-66563610D01*
X62564054Y-67104265D01*
X62104265Y-67564054D01*
X61563610Y-67925308D01*
X61563609Y-67925309D01*
X61563608Y-67925309D01*
X60962865Y-68174145D01*
X60325121Y-68301000D01*
X59674879Y-68301000D01*
X59037135Y-68174145D01*
X58436392Y-67925309D01*
X58436391Y-67925309D01*
X58436390Y-67925308D01*
X57895735Y-67564054D01*
X57435946Y-67104265D01*
X57074692Y-66563610D01*
X57074691Y-66563608D01*
X56825855Y-65962865D01*
X56699000Y-65325121D01*
X56699000Y-64674879D01*
X56825855Y-64037135D01*
X57074691Y-63436392D01*
X57074692Y-63436390D01*
X57435946Y-62895735D01*
X57895735Y-62435946D01*
X58436390Y-62074692D01*
X58436392Y-62074691D01*
X59037135Y-61825855D01*
X59674879Y-61699000D01*
X60325121Y-61699000D01*
X60962865Y-61825855D01*
X60962865Y-61825855D01*
G37*
G36*
X70302585Y-49478802D02*
G01*
X70452410Y-49508604D01*
X70734674Y-49625521D01*
X70988705Y-49795259D01*
X71204741Y-50011295D01*
X71374479Y-50265326D01*
X71491396Y-50547590D01*
X71551000Y-50847240D01*
X71551000Y-51152760D01*
X71491396Y-51452410D01*
X71374479Y-51734674D01*
X71204741Y-51988705D01*
X70988705Y-52204741D01*
X70734674Y-52374479D01*
X70452410Y-52491396D01*
X70302585Y-52521198D01*
X70152761Y-52551000D01*
X69847239Y-52551000D01*
X69697415Y-52521198D01*
X69547590Y-52491396D01*
X69265326Y-52374479D01*
X69011295Y-52204741D01*
X68795259Y-51988705D01*
X68625521Y-51734674D01*
X68508604Y-51452410D01*
X68449000Y-51152760D01*
X68449000Y-50847240D01*
X68508604Y-50547590D01*
X68625521Y-50265326D01*
X68795259Y-50011295D01*
X69011295Y-49795259D01*
X69265326Y-49625521D01*
X69547590Y-49508604D01*
X69697415Y-49478802D01*
X69847239Y-49449000D01*
X70152761Y-49449000D01*
X70302585Y-49478802D01*
X70302585Y-49478802D01*
G37*
G36*
X58382463Y-37077229D02*
G01*
X58750228Y-37188790D01*
X59089162Y-37369954D01*
X59386240Y-37613760D01*
X59630046Y-37910838D01*
X59811210Y-38249772D01*
X59922771Y-38617537D01*
X59960440Y-39000000D01*
X59922771Y-39382463D01*
X59811210Y-39750228D01*
X59630046Y-40089162D01*
X59386240Y-40386240D01*
X59089162Y-40630046D01*
X58750228Y-40811210D01*
X58382463Y-40922771D01*
X58095847Y-40951000D01*
X54904153Y-40951000D01*
X54617537Y-40922771D01*
X54249772Y-40811210D01*
X53910838Y-40630046D01*
X53613760Y-40386240D01*
X53369954Y-40089162D01*
X53188790Y-39750228D01*
X53077229Y-39382463D01*
X53039560Y-39000000D01*
X53077229Y-38617537D01*
X53188790Y-38249772D01*
X53369954Y-37910838D01*
X53613760Y-37613760D01*
X53910838Y-37369954D01*
X54249772Y-37188790D01*
X54617537Y-37077229D01*
X54904153Y-37049000D01*
X58095847Y-37049000D01*
X58382463Y-37077229D01*
X58382463Y-37077229D01*
G37*
G36*
X85382463Y-37077229D02*
G01*
X85750228Y-37188790D01*
X86089162Y-37369954D01*
X86386240Y-37613760D01*
X86630046Y-37910838D01*
X86811210Y-38249772D01*
X86922771Y-38617537D01*
X86960440Y-39000000D01*
X86922771Y-39382463D01*
X86811210Y-39750228D01*
X86630046Y-40089162D01*
X86386240Y-40386240D01*
X86089162Y-40630046D01*
X85750228Y-40811210D01*
X85382463Y-40922771D01*
X85095847Y-40951000D01*
X81904153Y-40951000D01*
X81617537Y-40922771D01*
X81249772Y-40811210D01*
X80910838Y-40630046D01*
X80613760Y-40386240D01*
X80369954Y-40089162D01*
X80188790Y-39750228D01*
X80077229Y-39382463D01*
X80039560Y-39000000D01*
X80077229Y-38617537D01*
X80188790Y-38249772D01*
X80369954Y-37910838D01*
X80613760Y-37613760D01*
X80910838Y-37369954D01*
X81249772Y-37188790D01*
X81617537Y-37077229D01*
X81904153Y-37049000D01*
X85095847Y-37049000D01*
X85382463Y-37077229D01*
X85382463Y-37077229D01*
G37*
M02*
