%TF.GenerationSoftware,KiCad,Pcbnew,(5.1.0)-1*%
%TF.CreationDate,2020-03-08T21:58:09+01:00*%
%TF.ProjectId,KicadJE_AC3340_RevA_Faceplate,4b696361-644a-4455-9f41-43333334305f,rev?*%
%TF.SameCoordinates,Original*%
%TF.FileFunction,Copper,L1,Top*%
%TF.FilePolarity,Positive*%
%FSLAX46Y46*%
G04 Gerber Fmt 4.6, Leading zero omitted, Abs format (unit mm)*
G04 Created by KiCad (PCBNEW (5.1.0)-1) date 2020-03-08 21:58:09*
%MOMM*%
%LPD*%
G04 APERTURE LIST*
%ADD10C,0.050000*%
%ADD11O,7.000000X4.000000*%
%ADD12O,6.800000X3.800000*%
%ADD13C,6.500000*%
%ADD14C,0.150000*%
%ADD15C,0.254000*%
G04 APERTURE END LIST*
D10*
X50000000Y-164000000D02*
X50000000Y-36000000D01*
X90000000Y-164000000D02*
X50000000Y-164000000D01*
X90000000Y-36000000D02*
X90000000Y-164000000D01*
X50000000Y-36000000D02*
X90000000Y-36000000D01*
D11*
X56500000Y-161000000D03*
D12*
X83500000Y-39000000D03*
X56500000Y-39000000D03*
X83500000Y-161000000D03*
D13*
X80000000Y-65000000D03*
X60000000Y-65000000D03*
X80000000Y-100000000D03*
X60000000Y-85000000D03*
X60000000Y-95000000D03*
X60000000Y-125000000D03*
X60000000Y-105000000D03*
X60000000Y-115000000D03*
X80000000Y-115000000D03*
X80000000Y-125000000D03*
X80000000Y-135000000D03*
X60000000Y-135000000D03*
X60000000Y-145000000D03*
X80000000Y-145000000D03*
D14*
X60050000Y-38500000D02*
X83500000Y-38500000D01*
X56500000Y-38500000D02*
X60050000Y-38500000D01*
X83500000Y-141500000D02*
X83500000Y-160500000D01*
X59850000Y-160500000D02*
X56500000Y-160500000D01*
X61059582Y-159290418D02*
X59850000Y-160500000D01*
X73300193Y-159290418D02*
X61059582Y-159290418D01*
X74509775Y-160500000D02*
X73300193Y-159290418D01*
X83500000Y-160500000D02*
X74509775Y-160500000D01*
X83400000Y-65000000D02*
X83500000Y-64900000D01*
X56600000Y-65000000D02*
X83400000Y-65000000D01*
X56500000Y-65100000D02*
X56600000Y-65000000D01*
X56500000Y-160500000D02*
X56500000Y-65100000D01*
X83500000Y-64900000D02*
X83500000Y-141500000D01*
X56500000Y-65100000D02*
X56500000Y-38500000D01*
D15*
G36*
X53912565Y-36706566D02*
G01*
X53486033Y-36962782D01*
X53117682Y-37297287D01*
X52821667Y-37697226D01*
X52609364Y-38147230D01*
X52519221Y-38478500D01*
X52627146Y-38873000D01*
X56373000Y-38873000D01*
X56373000Y-38853000D01*
X56627000Y-38853000D01*
X56627000Y-38873000D01*
X60372854Y-38873000D01*
X60480779Y-38478500D01*
X60390636Y-38147230D01*
X60178333Y-37697226D01*
X59882318Y-37297287D01*
X59513967Y-36962782D01*
X59087435Y-36706566D01*
X58957688Y-36660000D01*
X81042312Y-36660000D01*
X80912565Y-36706566D01*
X80486033Y-36962782D01*
X80117682Y-37297287D01*
X79821667Y-37697226D01*
X79609364Y-38147230D01*
X79519221Y-38478500D01*
X79627146Y-38873000D01*
X83373000Y-38873000D01*
X83373000Y-38853000D01*
X83627000Y-38853000D01*
X83627000Y-38873000D01*
X87372854Y-38873000D01*
X87480779Y-38478500D01*
X87390636Y-38147230D01*
X87178333Y-37697226D01*
X86882318Y-37297287D01*
X86513967Y-36962782D01*
X86087435Y-36706566D01*
X85957688Y-36660000D01*
X89340000Y-36660000D01*
X89340001Y-163340000D01*
X85957688Y-163340000D01*
X86087435Y-163293434D01*
X86513967Y-163037218D01*
X86882318Y-162702713D01*
X87178333Y-162302774D01*
X87390636Y-161852770D01*
X87480779Y-161521500D01*
X87372854Y-161127000D01*
X83627000Y-161127000D01*
X83627000Y-161147000D01*
X83373000Y-161147000D01*
X83373000Y-161127000D01*
X79627146Y-161127000D01*
X79519221Y-161521500D01*
X79609364Y-161852770D01*
X79821667Y-162302774D01*
X80117682Y-162702713D01*
X80486033Y-163037218D01*
X80912565Y-163293434D01*
X81042312Y-163340000D01*
X59202314Y-163340000D01*
X59569525Y-163120365D01*
X59953030Y-162773424D01*
X60261481Y-162358331D01*
X60483025Y-161891038D01*
X60579667Y-161537162D01*
X60472991Y-161127000D01*
X56627000Y-161127000D01*
X56627000Y-161147000D01*
X56373000Y-161147000D01*
X56373000Y-161127000D01*
X52527009Y-161127000D01*
X52420333Y-161537162D01*
X52516975Y-161891038D01*
X52738519Y-162358331D01*
X53046970Y-162773424D01*
X53430475Y-163120365D01*
X53797686Y-163340000D01*
X50660000Y-163340000D01*
X50660000Y-160462838D01*
X52420333Y-160462838D01*
X52527009Y-160873000D01*
X56373000Y-160873000D01*
X56373000Y-160853000D01*
X56627000Y-160853000D01*
X56627000Y-160873000D01*
X60472991Y-160873000D01*
X60575593Y-160478500D01*
X79519221Y-160478500D01*
X79627146Y-160873000D01*
X83373000Y-160873000D01*
X83373000Y-160853000D01*
X83627000Y-160853000D01*
X83627000Y-160873000D01*
X87372854Y-160873000D01*
X87480779Y-160478500D01*
X87390636Y-160147230D01*
X87178333Y-159697226D01*
X86882318Y-159297287D01*
X86513967Y-158962782D01*
X86087435Y-158706566D01*
X85619114Y-158538486D01*
X85127000Y-158465000D01*
X81873000Y-158465000D01*
X81380886Y-158538486D01*
X80912565Y-158706566D01*
X80486033Y-158962782D01*
X80117682Y-159297287D01*
X79821667Y-159697226D01*
X79609364Y-160147230D01*
X79519221Y-160478500D01*
X60575593Y-160478500D01*
X60579667Y-160462838D01*
X60483025Y-160108962D01*
X60261481Y-159641669D01*
X59953030Y-159226576D01*
X59569525Y-158879635D01*
X59125704Y-158614178D01*
X58638623Y-158440407D01*
X58127000Y-158365000D01*
X54873000Y-158365000D01*
X54361377Y-158440407D01*
X53874296Y-158614178D01*
X53430475Y-158879635D01*
X53046970Y-159226576D01*
X52738519Y-159641669D01*
X52516975Y-160108962D01*
X52420333Y-160462838D01*
X50660000Y-160462838D01*
X50660000Y-144617361D01*
X56115000Y-144617361D01*
X56115000Y-145382639D01*
X56264298Y-146133213D01*
X56557158Y-146840238D01*
X56982323Y-147476543D01*
X57523457Y-148017677D01*
X58159762Y-148442842D01*
X58866787Y-148735702D01*
X59617361Y-148885000D01*
X60382639Y-148885000D01*
X61133213Y-148735702D01*
X61840238Y-148442842D01*
X62476543Y-148017677D01*
X63017677Y-147476543D01*
X63442842Y-146840238D01*
X63735702Y-146133213D01*
X63885000Y-145382639D01*
X63885000Y-144617361D01*
X76115000Y-144617361D01*
X76115000Y-145382639D01*
X76264298Y-146133213D01*
X76557158Y-146840238D01*
X76982323Y-147476543D01*
X77523457Y-148017677D01*
X78159762Y-148442842D01*
X78866787Y-148735702D01*
X79617361Y-148885000D01*
X80382639Y-148885000D01*
X81133213Y-148735702D01*
X81840238Y-148442842D01*
X82476543Y-148017677D01*
X83017677Y-147476543D01*
X83442842Y-146840238D01*
X83735702Y-146133213D01*
X83885000Y-145382639D01*
X83885000Y-144617361D01*
X83735702Y-143866787D01*
X83442842Y-143159762D01*
X83017677Y-142523457D01*
X82476543Y-141982323D01*
X81840238Y-141557158D01*
X81133213Y-141264298D01*
X80382639Y-141115000D01*
X79617361Y-141115000D01*
X78866787Y-141264298D01*
X78159762Y-141557158D01*
X77523457Y-141982323D01*
X76982323Y-142523457D01*
X76557158Y-143159762D01*
X76264298Y-143866787D01*
X76115000Y-144617361D01*
X63885000Y-144617361D01*
X63735702Y-143866787D01*
X63442842Y-143159762D01*
X63017677Y-142523457D01*
X62476543Y-141982323D01*
X61840238Y-141557158D01*
X61133213Y-141264298D01*
X60382639Y-141115000D01*
X59617361Y-141115000D01*
X58866787Y-141264298D01*
X58159762Y-141557158D01*
X57523457Y-141982323D01*
X56982323Y-142523457D01*
X56557158Y-143159762D01*
X56264298Y-143866787D01*
X56115000Y-144617361D01*
X50660000Y-144617361D01*
X50660000Y-134617361D01*
X56115000Y-134617361D01*
X56115000Y-135382639D01*
X56264298Y-136133213D01*
X56557158Y-136840238D01*
X56982323Y-137476543D01*
X57523457Y-138017677D01*
X58159762Y-138442842D01*
X58866787Y-138735702D01*
X59617361Y-138885000D01*
X60382639Y-138885000D01*
X61133213Y-138735702D01*
X61840238Y-138442842D01*
X62476543Y-138017677D01*
X63017677Y-137476543D01*
X63442842Y-136840238D01*
X63735702Y-136133213D01*
X63885000Y-135382639D01*
X63885000Y-134617361D01*
X76115000Y-134617361D01*
X76115000Y-135382639D01*
X76264298Y-136133213D01*
X76557158Y-136840238D01*
X76982323Y-137476543D01*
X77523457Y-138017677D01*
X78159762Y-138442842D01*
X78866787Y-138735702D01*
X79617361Y-138885000D01*
X80382639Y-138885000D01*
X81133213Y-138735702D01*
X81840238Y-138442842D01*
X82476543Y-138017677D01*
X83017677Y-137476543D01*
X83442842Y-136840238D01*
X83735702Y-136133213D01*
X83885000Y-135382639D01*
X83885000Y-134617361D01*
X83735702Y-133866787D01*
X83442842Y-133159762D01*
X83017677Y-132523457D01*
X82476543Y-131982323D01*
X81840238Y-131557158D01*
X81133213Y-131264298D01*
X80382639Y-131115000D01*
X79617361Y-131115000D01*
X78866787Y-131264298D01*
X78159762Y-131557158D01*
X77523457Y-131982323D01*
X76982323Y-132523457D01*
X76557158Y-133159762D01*
X76264298Y-133866787D01*
X76115000Y-134617361D01*
X63885000Y-134617361D01*
X63735702Y-133866787D01*
X63442842Y-133159762D01*
X63017677Y-132523457D01*
X62476543Y-131982323D01*
X61840238Y-131557158D01*
X61133213Y-131264298D01*
X60382639Y-131115000D01*
X59617361Y-131115000D01*
X58866787Y-131264298D01*
X58159762Y-131557158D01*
X57523457Y-131982323D01*
X56982323Y-132523457D01*
X56557158Y-133159762D01*
X56264298Y-133866787D01*
X56115000Y-134617361D01*
X50660000Y-134617361D01*
X50660000Y-124617361D01*
X56115000Y-124617361D01*
X56115000Y-125382639D01*
X56264298Y-126133213D01*
X56557158Y-126840238D01*
X56982323Y-127476543D01*
X57523457Y-128017677D01*
X58159762Y-128442842D01*
X58866787Y-128735702D01*
X59617361Y-128885000D01*
X60382639Y-128885000D01*
X61133213Y-128735702D01*
X61840238Y-128442842D01*
X62476543Y-128017677D01*
X63017677Y-127476543D01*
X63442842Y-126840238D01*
X63735702Y-126133213D01*
X63885000Y-125382639D01*
X63885000Y-124617361D01*
X76115000Y-124617361D01*
X76115000Y-125382639D01*
X76264298Y-126133213D01*
X76557158Y-126840238D01*
X76982323Y-127476543D01*
X77523457Y-128017677D01*
X78159762Y-128442842D01*
X78866787Y-128735702D01*
X79617361Y-128885000D01*
X80382639Y-128885000D01*
X81133213Y-128735702D01*
X81840238Y-128442842D01*
X82476543Y-128017677D01*
X83017677Y-127476543D01*
X83442842Y-126840238D01*
X83735702Y-126133213D01*
X83885000Y-125382639D01*
X83885000Y-124617361D01*
X83735702Y-123866787D01*
X83442842Y-123159762D01*
X83017677Y-122523457D01*
X82476543Y-121982323D01*
X81840238Y-121557158D01*
X81133213Y-121264298D01*
X80382639Y-121115000D01*
X79617361Y-121115000D01*
X78866787Y-121264298D01*
X78159762Y-121557158D01*
X77523457Y-121982323D01*
X76982323Y-122523457D01*
X76557158Y-123159762D01*
X76264298Y-123866787D01*
X76115000Y-124617361D01*
X63885000Y-124617361D01*
X63735702Y-123866787D01*
X63442842Y-123159762D01*
X63017677Y-122523457D01*
X62476543Y-121982323D01*
X61840238Y-121557158D01*
X61133213Y-121264298D01*
X60382639Y-121115000D01*
X59617361Y-121115000D01*
X58866787Y-121264298D01*
X58159762Y-121557158D01*
X57523457Y-121982323D01*
X56982323Y-122523457D01*
X56557158Y-123159762D01*
X56264298Y-123866787D01*
X56115000Y-124617361D01*
X50660000Y-124617361D01*
X50660000Y-114617361D01*
X56115000Y-114617361D01*
X56115000Y-115382639D01*
X56264298Y-116133213D01*
X56557158Y-116840238D01*
X56982323Y-117476543D01*
X57523457Y-118017677D01*
X58159762Y-118442842D01*
X58866787Y-118735702D01*
X59617361Y-118885000D01*
X60382639Y-118885000D01*
X61133213Y-118735702D01*
X61840238Y-118442842D01*
X62476543Y-118017677D01*
X63017677Y-117476543D01*
X63442842Y-116840238D01*
X63735702Y-116133213D01*
X63885000Y-115382639D01*
X63885000Y-114617361D01*
X76115000Y-114617361D01*
X76115000Y-115382639D01*
X76264298Y-116133213D01*
X76557158Y-116840238D01*
X76982323Y-117476543D01*
X77523457Y-118017677D01*
X78159762Y-118442842D01*
X78866787Y-118735702D01*
X79617361Y-118885000D01*
X80382639Y-118885000D01*
X81133213Y-118735702D01*
X81840238Y-118442842D01*
X82476543Y-118017677D01*
X83017677Y-117476543D01*
X83442842Y-116840238D01*
X83735702Y-116133213D01*
X83885000Y-115382639D01*
X83885000Y-114617361D01*
X83735702Y-113866787D01*
X83442842Y-113159762D01*
X83017677Y-112523457D01*
X82476543Y-111982323D01*
X81840238Y-111557158D01*
X81133213Y-111264298D01*
X80382639Y-111115000D01*
X79617361Y-111115000D01*
X78866787Y-111264298D01*
X78159762Y-111557158D01*
X77523457Y-111982323D01*
X76982323Y-112523457D01*
X76557158Y-113159762D01*
X76264298Y-113866787D01*
X76115000Y-114617361D01*
X63885000Y-114617361D01*
X63735702Y-113866787D01*
X63442842Y-113159762D01*
X63017677Y-112523457D01*
X62476543Y-111982323D01*
X61840238Y-111557158D01*
X61133213Y-111264298D01*
X60382639Y-111115000D01*
X59617361Y-111115000D01*
X58866787Y-111264298D01*
X58159762Y-111557158D01*
X57523457Y-111982323D01*
X56982323Y-112523457D01*
X56557158Y-113159762D01*
X56264298Y-113866787D01*
X56115000Y-114617361D01*
X50660000Y-114617361D01*
X50660000Y-104617361D01*
X56115000Y-104617361D01*
X56115000Y-105382639D01*
X56264298Y-106133213D01*
X56557158Y-106840238D01*
X56982323Y-107476543D01*
X57523457Y-108017677D01*
X58159762Y-108442842D01*
X58866787Y-108735702D01*
X59617361Y-108885000D01*
X60382639Y-108885000D01*
X61133213Y-108735702D01*
X61840238Y-108442842D01*
X62476543Y-108017677D01*
X63017677Y-107476543D01*
X63442842Y-106840238D01*
X63735702Y-106133213D01*
X63885000Y-105382639D01*
X63885000Y-104617361D01*
X63735702Y-103866787D01*
X63442842Y-103159762D01*
X63017677Y-102523457D01*
X62476543Y-101982323D01*
X61840238Y-101557158D01*
X61133213Y-101264298D01*
X60382639Y-101115000D01*
X59617361Y-101115000D01*
X58866787Y-101264298D01*
X58159762Y-101557158D01*
X57523457Y-101982323D01*
X56982323Y-102523457D01*
X56557158Y-103159762D01*
X56264298Y-103866787D01*
X56115000Y-104617361D01*
X50660000Y-104617361D01*
X50660000Y-99617361D01*
X76115000Y-99617361D01*
X76115000Y-100382639D01*
X76264298Y-101133213D01*
X76557158Y-101840238D01*
X76982323Y-102476543D01*
X77523457Y-103017677D01*
X78159762Y-103442842D01*
X78866787Y-103735702D01*
X79617361Y-103885000D01*
X80382639Y-103885000D01*
X81133213Y-103735702D01*
X81840238Y-103442842D01*
X82476543Y-103017677D01*
X83017677Y-102476543D01*
X83442842Y-101840238D01*
X83735702Y-101133213D01*
X83885000Y-100382639D01*
X83885000Y-99617361D01*
X83735702Y-98866787D01*
X83442842Y-98159762D01*
X83017677Y-97523457D01*
X82476543Y-96982323D01*
X81840238Y-96557158D01*
X81133213Y-96264298D01*
X80382639Y-96115000D01*
X79617361Y-96115000D01*
X78866787Y-96264298D01*
X78159762Y-96557158D01*
X77523457Y-96982323D01*
X76982323Y-97523457D01*
X76557158Y-98159762D01*
X76264298Y-98866787D01*
X76115000Y-99617361D01*
X50660000Y-99617361D01*
X50660000Y-94617361D01*
X56115000Y-94617361D01*
X56115000Y-95382639D01*
X56264298Y-96133213D01*
X56557158Y-96840238D01*
X56982323Y-97476543D01*
X57523457Y-98017677D01*
X58159762Y-98442842D01*
X58866787Y-98735702D01*
X59617361Y-98885000D01*
X60382639Y-98885000D01*
X61133213Y-98735702D01*
X61840238Y-98442842D01*
X62476543Y-98017677D01*
X63017677Y-97476543D01*
X63442842Y-96840238D01*
X63735702Y-96133213D01*
X63885000Y-95382639D01*
X63885000Y-94617361D01*
X63735702Y-93866787D01*
X63442842Y-93159762D01*
X63017677Y-92523457D01*
X62476543Y-91982323D01*
X61840238Y-91557158D01*
X61133213Y-91264298D01*
X60382639Y-91115000D01*
X59617361Y-91115000D01*
X58866787Y-91264298D01*
X58159762Y-91557158D01*
X57523457Y-91982323D01*
X56982323Y-92523457D01*
X56557158Y-93159762D01*
X56264298Y-93866787D01*
X56115000Y-94617361D01*
X50660000Y-94617361D01*
X50660000Y-84617361D01*
X56115000Y-84617361D01*
X56115000Y-85382639D01*
X56264298Y-86133213D01*
X56557158Y-86840238D01*
X56982323Y-87476543D01*
X57523457Y-88017677D01*
X58159762Y-88442842D01*
X58866787Y-88735702D01*
X59617361Y-88885000D01*
X60382639Y-88885000D01*
X61133213Y-88735702D01*
X61840238Y-88442842D01*
X62476543Y-88017677D01*
X63017677Y-87476543D01*
X63442842Y-86840238D01*
X63735702Y-86133213D01*
X63885000Y-85382639D01*
X63885000Y-84617361D01*
X63735702Y-83866787D01*
X63442842Y-83159762D01*
X63017677Y-82523457D01*
X62476543Y-81982323D01*
X61840238Y-81557158D01*
X61133213Y-81264298D01*
X60382639Y-81115000D01*
X59617361Y-81115000D01*
X58866787Y-81264298D01*
X58159762Y-81557158D01*
X57523457Y-81982323D01*
X56982323Y-82523457D01*
X56557158Y-83159762D01*
X56264298Y-83866787D01*
X56115000Y-84617361D01*
X50660000Y-84617361D01*
X50660000Y-67736428D01*
X57443177Y-67736428D01*
X57809365Y-68231216D01*
X58481837Y-68596501D01*
X59212650Y-68823575D01*
X59973721Y-68903710D01*
X60735803Y-68833828D01*
X61469608Y-68616614D01*
X62146936Y-68260416D01*
X62190635Y-68231216D01*
X62556823Y-67736428D01*
X77443177Y-67736428D01*
X77809365Y-68231216D01*
X78481837Y-68596501D01*
X79212650Y-68823575D01*
X79973721Y-68903710D01*
X80735803Y-68833828D01*
X81469608Y-68616614D01*
X82146936Y-68260416D01*
X82190635Y-68231216D01*
X82556823Y-67736428D01*
X80000000Y-65179605D01*
X77443177Y-67736428D01*
X62556823Y-67736428D01*
X60000000Y-65179605D01*
X57443177Y-67736428D01*
X50660000Y-67736428D01*
X50660000Y-64973721D01*
X56096290Y-64973721D01*
X56166172Y-65735803D01*
X56383386Y-66469608D01*
X56739584Y-67146936D01*
X56768784Y-67190635D01*
X57263572Y-67556823D01*
X59820395Y-65000000D01*
X60179605Y-65000000D01*
X62736428Y-67556823D01*
X63231216Y-67190635D01*
X63596501Y-66518163D01*
X63823575Y-65787350D01*
X63903710Y-65026279D01*
X63898891Y-64973721D01*
X76096290Y-64973721D01*
X76166172Y-65735803D01*
X76383386Y-66469608D01*
X76739584Y-67146936D01*
X76768784Y-67190635D01*
X77263572Y-67556823D01*
X79820395Y-65000000D01*
X80179605Y-65000000D01*
X82736428Y-67556823D01*
X83231216Y-67190635D01*
X83596501Y-66518163D01*
X83823575Y-65787350D01*
X83903710Y-65026279D01*
X83833828Y-64264197D01*
X83616614Y-63530392D01*
X83260416Y-62853064D01*
X83231216Y-62809365D01*
X82736428Y-62443177D01*
X80179605Y-65000000D01*
X79820395Y-65000000D01*
X77263572Y-62443177D01*
X76768784Y-62809365D01*
X76403499Y-63481837D01*
X76176425Y-64212650D01*
X76096290Y-64973721D01*
X63898891Y-64973721D01*
X63833828Y-64264197D01*
X63616614Y-63530392D01*
X63260416Y-62853064D01*
X63231216Y-62809365D01*
X62736428Y-62443177D01*
X60179605Y-65000000D01*
X59820395Y-65000000D01*
X57263572Y-62443177D01*
X56768784Y-62809365D01*
X56403499Y-63481837D01*
X56176425Y-64212650D01*
X56096290Y-64973721D01*
X50660000Y-64973721D01*
X50660000Y-62263572D01*
X57443177Y-62263572D01*
X60000000Y-64820395D01*
X62556823Y-62263572D01*
X77443177Y-62263572D01*
X80000000Y-64820395D01*
X82556823Y-62263572D01*
X82190635Y-61768784D01*
X81518163Y-61403499D01*
X80787350Y-61176425D01*
X80026279Y-61096290D01*
X79264197Y-61166172D01*
X78530392Y-61383386D01*
X77853064Y-61739584D01*
X77809365Y-61768784D01*
X77443177Y-62263572D01*
X62556823Y-62263572D01*
X62190635Y-61768784D01*
X61518163Y-61403499D01*
X60787350Y-61176425D01*
X60026279Y-61096290D01*
X59264197Y-61166172D01*
X58530392Y-61383386D01*
X57853064Y-61739584D01*
X57809365Y-61768784D01*
X57443177Y-62263572D01*
X50660000Y-62263572D01*
X50660000Y-50789721D01*
X67865000Y-50789721D01*
X67865000Y-51210279D01*
X67947047Y-51622756D01*
X68107988Y-52011302D01*
X68341637Y-52360983D01*
X68639017Y-52658363D01*
X68988698Y-52892012D01*
X69377244Y-53052953D01*
X69789721Y-53135000D01*
X70210279Y-53135000D01*
X70622756Y-53052953D01*
X71011302Y-52892012D01*
X71360983Y-52658363D01*
X71658363Y-52360983D01*
X71892012Y-52011302D01*
X72052953Y-51622756D01*
X72135000Y-51210279D01*
X72135000Y-50789721D01*
X72052953Y-50377244D01*
X71892012Y-49988698D01*
X71658363Y-49639017D01*
X71360983Y-49341637D01*
X71011302Y-49107988D01*
X70622756Y-48947047D01*
X70210279Y-48865000D01*
X69789721Y-48865000D01*
X69377244Y-48947047D01*
X68988698Y-49107988D01*
X68639017Y-49341637D01*
X68341637Y-49639017D01*
X68107988Y-49988698D01*
X67947047Y-50377244D01*
X67865000Y-50789721D01*
X50660000Y-50789721D01*
X50660000Y-39521500D01*
X52519221Y-39521500D01*
X52609364Y-39852770D01*
X52821667Y-40302774D01*
X53117682Y-40702713D01*
X53486033Y-41037218D01*
X53912565Y-41293434D01*
X54380886Y-41461514D01*
X54873000Y-41535000D01*
X56373000Y-41535000D01*
X56373000Y-39127000D01*
X56627000Y-39127000D01*
X56627000Y-41535000D01*
X58127000Y-41535000D01*
X58619114Y-41461514D01*
X59087435Y-41293434D01*
X59513967Y-41037218D01*
X59882318Y-40702713D01*
X60178333Y-40302774D01*
X60390636Y-39852770D01*
X60480779Y-39521500D01*
X79519221Y-39521500D01*
X79609364Y-39852770D01*
X79821667Y-40302774D01*
X80117682Y-40702713D01*
X80486033Y-41037218D01*
X80912565Y-41293434D01*
X81380886Y-41461514D01*
X81873000Y-41535000D01*
X83373000Y-41535000D01*
X83373000Y-39127000D01*
X83627000Y-39127000D01*
X83627000Y-41535000D01*
X85127000Y-41535000D01*
X85619114Y-41461514D01*
X86087435Y-41293434D01*
X86513967Y-41037218D01*
X86882318Y-40702713D01*
X87178333Y-40302774D01*
X87390636Y-39852770D01*
X87480779Y-39521500D01*
X87372854Y-39127000D01*
X83627000Y-39127000D01*
X83373000Y-39127000D01*
X79627146Y-39127000D01*
X79519221Y-39521500D01*
X60480779Y-39521500D01*
X60372854Y-39127000D01*
X56627000Y-39127000D01*
X56373000Y-39127000D01*
X52627146Y-39127000D01*
X52519221Y-39521500D01*
X50660000Y-39521500D01*
X50660000Y-36660000D01*
X54042312Y-36660000D01*
X53912565Y-36706566D01*
X53912565Y-36706566D01*
G37*
X53912565Y-36706566D02*
X53486033Y-36962782D01*
X53117682Y-37297287D01*
X52821667Y-37697226D01*
X52609364Y-38147230D01*
X52519221Y-38478500D01*
X52627146Y-38873000D01*
X56373000Y-38873000D01*
X56373000Y-38853000D01*
X56627000Y-38853000D01*
X56627000Y-38873000D01*
X60372854Y-38873000D01*
X60480779Y-38478500D01*
X60390636Y-38147230D01*
X60178333Y-37697226D01*
X59882318Y-37297287D01*
X59513967Y-36962782D01*
X59087435Y-36706566D01*
X58957688Y-36660000D01*
X81042312Y-36660000D01*
X80912565Y-36706566D01*
X80486033Y-36962782D01*
X80117682Y-37297287D01*
X79821667Y-37697226D01*
X79609364Y-38147230D01*
X79519221Y-38478500D01*
X79627146Y-38873000D01*
X83373000Y-38873000D01*
X83373000Y-38853000D01*
X83627000Y-38853000D01*
X83627000Y-38873000D01*
X87372854Y-38873000D01*
X87480779Y-38478500D01*
X87390636Y-38147230D01*
X87178333Y-37697226D01*
X86882318Y-37297287D01*
X86513967Y-36962782D01*
X86087435Y-36706566D01*
X85957688Y-36660000D01*
X89340000Y-36660000D01*
X89340001Y-163340000D01*
X85957688Y-163340000D01*
X86087435Y-163293434D01*
X86513967Y-163037218D01*
X86882318Y-162702713D01*
X87178333Y-162302774D01*
X87390636Y-161852770D01*
X87480779Y-161521500D01*
X87372854Y-161127000D01*
X83627000Y-161127000D01*
X83627000Y-161147000D01*
X83373000Y-161147000D01*
X83373000Y-161127000D01*
X79627146Y-161127000D01*
X79519221Y-161521500D01*
X79609364Y-161852770D01*
X79821667Y-162302774D01*
X80117682Y-162702713D01*
X80486033Y-163037218D01*
X80912565Y-163293434D01*
X81042312Y-163340000D01*
X59202314Y-163340000D01*
X59569525Y-163120365D01*
X59953030Y-162773424D01*
X60261481Y-162358331D01*
X60483025Y-161891038D01*
X60579667Y-161537162D01*
X60472991Y-161127000D01*
X56627000Y-161127000D01*
X56627000Y-161147000D01*
X56373000Y-161147000D01*
X56373000Y-161127000D01*
X52527009Y-161127000D01*
X52420333Y-161537162D01*
X52516975Y-161891038D01*
X52738519Y-162358331D01*
X53046970Y-162773424D01*
X53430475Y-163120365D01*
X53797686Y-163340000D01*
X50660000Y-163340000D01*
X50660000Y-160462838D01*
X52420333Y-160462838D01*
X52527009Y-160873000D01*
X56373000Y-160873000D01*
X56373000Y-160853000D01*
X56627000Y-160853000D01*
X56627000Y-160873000D01*
X60472991Y-160873000D01*
X60575593Y-160478500D01*
X79519221Y-160478500D01*
X79627146Y-160873000D01*
X83373000Y-160873000D01*
X83373000Y-160853000D01*
X83627000Y-160853000D01*
X83627000Y-160873000D01*
X87372854Y-160873000D01*
X87480779Y-160478500D01*
X87390636Y-160147230D01*
X87178333Y-159697226D01*
X86882318Y-159297287D01*
X86513967Y-158962782D01*
X86087435Y-158706566D01*
X85619114Y-158538486D01*
X85127000Y-158465000D01*
X81873000Y-158465000D01*
X81380886Y-158538486D01*
X80912565Y-158706566D01*
X80486033Y-158962782D01*
X80117682Y-159297287D01*
X79821667Y-159697226D01*
X79609364Y-160147230D01*
X79519221Y-160478500D01*
X60575593Y-160478500D01*
X60579667Y-160462838D01*
X60483025Y-160108962D01*
X60261481Y-159641669D01*
X59953030Y-159226576D01*
X59569525Y-158879635D01*
X59125704Y-158614178D01*
X58638623Y-158440407D01*
X58127000Y-158365000D01*
X54873000Y-158365000D01*
X54361377Y-158440407D01*
X53874296Y-158614178D01*
X53430475Y-158879635D01*
X53046970Y-159226576D01*
X52738519Y-159641669D01*
X52516975Y-160108962D01*
X52420333Y-160462838D01*
X50660000Y-160462838D01*
X50660000Y-144617361D01*
X56115000Y-144617361D01*
X56115000Y-145382639D01*
X56264298Y-146133213D01*
X56557158Y-146840238D01*
X56982323Y-147476543D01*
X57523457Y-148017677D01*
X58159762Y-148442842D01*
X58866787Y-148735702D01*
X59617361Y-148885000D01*
X60382639Y-148885000D01*
X61133213Y-148735702D01*
X61840238Y-148442842D01*
X62476543Y-148017677D01*
X63017677Y-147476543D01*
X63442842Y-146840238D01*
X63735702Y-146133213D01*
X63885000Y-145382639D01*
X63885000Y-144617361D01*
X76115000Y-144617361D01*
X76115000Y-145382639D01*
X76264298Y-146133213D01*
X76557158Y-146840238D01*
X76982323Y-147476543D01*
X77523457Y-148017677D01*
X78159762Y-148442842D01*
X78866787Y-148735702D01*
X79617361Y-148885000D01*
X80382639Y-148885000D01*
X81133213Y-148735702D01*
X81840238Y-148442842D01*
X82476543Y-148017677D01*
X83017677Y-147476543D01*
X83442842Y-146840238D01*
X83735702Y-146133213D01*
X83885000Y-145382639D01*
X83885000Y-144617361D01*
X83735702Y-143866787D01*
X83442842Y-143159762D01*
X83017677Y-142523457D01*
X82476543Y-141982323D01*
X81840238Y-141557158D01*
X81133213Y-141264298D01*
X80382639Y-141115000D01*
X79617361Y-141115000D01*
X78866787Y-141264298D01*
X78159762Y-141557158D01*
X77523457Y-141982323D01*
X76982323Y-142523457D01*
X76557158Y-143159762D01*
X76264298Y-143866787D01*
X76115000Y-144617361D01*
X63885000Y-144617361D01*
X63735702Y-143866787D01*
X63442842Y-143159762D01*
X63017677Y-142523457D01*
X62476543Y-141982323D01*
X61840238Y-141557158D01*
X61133213Y-141264298D01*
X60382639Y-141115000D01*
X59617361Y-141115000D01*
X58866787Y-141264298D01*
X58159762Y-141557158D01*
X57523457Y-141982323D01*
X56982323Y-142523457D01*
X56557158Y-143159762D01*
X56264298Y-143866787D01*
X56115000Y-144617361D01*
X50660000Y-144617361D01*
X50660000Y-134617361D01*
X56115000Y-134617361D01*
X56115000Y-135382639D01*
X56264298Y-136133213D01*
X56557158Y-136840238D01*
X56982323Y-137476543D01*
X57523457Y-138017677D01*
X58159762Y-138442842D01*
X58866787Y-138735702D01*
X59617361Y-138885000D01*
X60382639Y-138885000D01*
X61133213Y-138735702D01*
X61840238Y-138442842D01*
X62476543Y-138017677D01*
X63017677Y-137476543D01*
X63442842Y-136840238D01*
X63735702Y-136133213D01*
X63885000Y-135382639D01*
X63885000Y-134617361D01*
X76115000Y-134617361D01*
X76115000Y-135382639D01*
X76264298Y-136133213D01*
X76557158Y-136840238D01*
X76982323Y-137476543D01*
X77523457Y-138017677D01*
X78159762Y-138442842D01*
X78866787Y-138735702D01*
X79617361Y-138885000D01*
X80382639Y-138885000D01*
X81133213Y-138735702D01*
X81840238Y-138442842D01*
X82476543Y-138017677D01*
X83017677Y-137476543D01*
X83442842Y-136840238D01*
X83735702Y-136133213D01*
X83885000Y-135382639D01*
X83885000Y-134617361D01*
X83735702Y-133866787D01*
X83442842Y-133159762D01*
X83017677Y-132523457D01*
X82476543Y-131982323D01*
X81840238Y-131557158D01*
X81133213Y-131264298D01*
X80382639Y-131115000D01*
X79617361Y-131115000D01*
X78866787Y-131264298D01*
X78159762Y-131557158D01*
X77523457Y-131982323D01*
X76982323Y-132523457D01*
X76557158Y-133159762D01*
X76264298Y-133866787D01*
X76115000Y-134617361D01*
X63885000Y-134617361D01*
X63735702Y-133866787D01*
X63442842Y-133159762D01*
X63017677Y-132523457D01*
X62476543Y-131982323D01*
X61840238Y-131557158D01*
X61133213Y-131264298D01*
X60382639Y-131115000D01*
X59617361Y-131115000D01*
X58866787Y-131264298D01*
X58159762Y-131557158D01*
X57523457Y-131982323D01*
X56982323Y-132523457D01*
X56557158Y-133159762D01*
X56264298Y-133866787D01*
X56115000Y-134617361D01*
X50660000Y-134617361D01*
X50660000Y-124617361D01*
X56115000Y-124617361D01*
X56115000Y-125382639D01*
X56264298Y-126133213D01*
X56557158Y-126840238D01*
X56982323Y-127476543D01*
X57523457Y-128017677D01*
X58159762Y-128442842D01*
X58866787Y-128735702D01*
X59617361Y-128885000D01*
X60382639Y-128885000D01*
X61133213Y-128735702D01*
X61840238Y-128442842D01*
X62476543Y-128017677D01*
X63017677Y-127476543D01*
X63442842Y-126840238D01*
X63735702Y-126133213D01*
X63885000Y-125382639D01*
X63885000Y-124617361D01*
X76115000Y-124617361D01*
X76115000Y-125382639D01*
X76264298Y-126133213D01*
X76557158Y-126840238D01*
X76982323Y-127476543D01*
X77523457Y-128017677D01*
X78159762Y-128442842D01*
X78866787Y-128735702D01*
X79617361Y-128885000D01*
X80382639Y-128885000D01*
X81133213Y-128735702D01*
X81840238Y-128442842D01*
X82476543Y-128017677D01*
X83017677Y-127476543D01*
X83442842Y-126840238D01*
X83735702Y-126133213D01*
X83885000Y-125382639D01*
X83885000Y-124617361D01*
X83735702Y-123866787D01*
X83442842Y-123159762D01*
X83017677Y-122523457D01*
X82476543Y-121982323D01*
X81840238Y-121557158D01*
X81133213Y-121264298D01*
X80382639Y-121115000D01*
X79617361Y-121115000D01*
X78866787Y-121264298D01*
X78159762Y-121557158D01*
X77523457Y-121982323D01*
X76982323Y-122523457D01*
X76557158Y-123159762D01*
X76264298Y-123866787D01*
X76115000Y-124617361D01*
X63885000Y-124617361D01*
X63735702Y-123866787D01*
X63442842Y-123159762D01*
X63017677Y-122523457D01*
X62476543Y-121982323D01*
X61840238Y-121557158D01*
X61133213Y-121264298D01*
X60382639Y-121115000D01*
X59617361Y-121115000D01*
X58866787Y-121264298D01*
X58159762Y-121557158D01*
X57523457Y-121982323D01*
X56982323Y-122523457D01*
X56557158Y-123159762D01*
X56264298Y-123866787D01*
X56115000Y-124617361D01*
X50660000Y-124617361D01*
X50660000Y-114617361D01*
X56115000Y-114617361D01*
X56115000Y-115382639D01*
X56264298Y-116133213D01*
X56557158Y-116840238D01*
X56982323Y-117476543D01*
X57523457Y-118017677D01*
X58159762Y-118442842D01*
X58866787Y-118735702D01*
X59617361Y-118885000D01*
X60382639Y-118885000D01*
X61133213Y-118735702D01*
X61840238Y-118442842D01*
X62476543Y-118017677D01*
X63017677Y-117476543D01*
X63442842Y-116840238D01*
X63735702Y-116133213D01*
X63885000Y-115382639D01*
X63885000Y-114617361D01*
X76115000Y-114617361D01*
X76115000Y-115382639D01*
X76264298Y-116133213D01*
X76557158Y-116840238D01*
X76982323Y-117476543D01*
X77523457Y-118017677D01*
X78159762Y-118442842D01*
X78866787Y-118735702D01*
X79617361Y-118885000D01*
X80382639Y-118885000D01*
X81133213Y-118735702D01*
X81840238Y-118442842D01*
X82476543Y-118017677D01*
X83017677Y-117476543D01*
X83442842Y-116840238D01*
X83735702Y-116133213D01*
X83885000Y-115382639D01*
X83885000Y-114617361D01*
X83735702Y-113866787D01*
X83442842Y-113159762D01*
X83017677Y-112523457D01*
X82476543Y-111982323D01*
X81840238Y-111557158D01*
X81133213Y-111264298D01*
X80382639Y-111115000D01*
X79617361Y-111115000D01*
X78866787Y-111264298D01*
X78159762Y-111557158D01*
X77523457Y-111982323D01*
X76982323Y-112523457D01*
X76557158Y-113159762D01*
X76264298Y-113866787D01*
X76115000Y-114617361D01*
X63885000Y-114617361D01*
X63735702Y-113866787D01*
X63442842Y-113159762D01*
X63017677Y-112523457D01*
X62476543Y-111982323D01*
X61840238Y-111557158D01*
X61133213Y-111264298D01*
X60382639Y-111115000D01*
X59617361Y-111115000D01*
X58866787Y-111264298D01*
X58159762Y-111557158D01*
X57523457Y-111982323D01*
X56982323Y-112523457D01*
X56557158Y-113159762D01*
X56264298Y-113866787D01*
X56115000Y-114617361D01*
X50660000Y-114617361D01*
X50660000Y-104617361D01*
X56115000Y-104617361D01*
X56115000Y-105382639D01*
X56264298Y-106133213D01*
X56557158Y-106840238D01*
X56982323Y-107476543D01*
X57523457Y-108017677D01*
X58159762Y-108442842D01*
X58866787Y-108735702D01*
X59617361Y-108885000D01*
X60382639Y-108885000D01*
X61133213Y-108735702D01*
X61840238Y-108442842D01*
X62476543Y-108017677D01*
X63017677Y-107476543D01*
X63442842Y-106840238D01*
X63735702Y-106133213D01*
X63885000Y-105382639D01*
X63885000Y-104617361D01*
X63735702Y-103866787D01*
X63442842Y-103159762D01*
X63017677Y-102523457D01*
X62476543Y-101982323D01*
X61840238Y-101557158D01*
X61133213Y-101264298D01*
X60382639Y-101115000D01*
X59617361Y-101115000D01*
X58866787Y-101264298D01*
X58159762Y-101557158D01*
X57523457Y-101982323D01*
X56982323Y-102523457D01*
X56557158Y-103159762D01*
X56264298Y-103866787D01*
X56115000Y-104617361D01*
X50660000Y-104617361D01*
X50660000Y-99617361D01*
X76115000Y-99617361D01*
X76115000Y-100382639D01*
X76264298Y-101133213D01*
X76557158Y-101840238D01*
X76982323Y-102476543D01*
X77523457Y-103017677D01*
X78159762Y-103442842D01*
X78866787Y-103735702D01*
X79617361Y-103885000D01*
X80382639Y-103885000D01*
X81133213Y-103735702D01*
X81840238Y-103442842D01*
X82476543Y-103017677D01*
X83017677Y-102476543D01*
X83442842Y-101840238D01*
X83735702Y-101133213D01*
X83885000Y-100382639D01*
X83885000Y-99617361D01*
X83735702Y-98866787D01*
X83442842Y-98159762D01*
X83017677Y-97523457D01*
X82476543Y-96982323D01*
X81840238Y-96557158D01*
X81133213Y-96264298D01*
X80382639Y-96115000D01*
X79617361Y-96115000D01*
X78866787Y-96264298D01*
X78159762Y-96557158D01*
X77523457Y-96982323D01*
X76982323Y-97523457D01*
X76557158Y-98159762D01*
X76264298Y-98866787D01*
X76115000Y-99617361D01*
X50660000Y-99617361D01*
X50660000Y-94617361D01*
X56115000Y-94617361D01*
X56115000Y-95382639D01*
X56264298Y-96133213D01*
X56557158Y-96840238D01*
X56982323Y-97476543D01*
X57523457Y-98017677D01*
X58159762Y-98442842D01*
X58866787Y-98735702D01*
X59617361Y-98885000D01*
X60382639Y-98885000D01*
X61133213Y-98735702D01*
X61840238Y-98442842D01*
X62476543Y-98017677D01*
X63017677Y-97476543D01*
X63442842Y-96840238D01*
X63735702Y-96133213D01*
X63885000Y-95382639D01*
X63885000Y-94617361D01*
X63735702Y-93866787D01*
X63442842Y-93159762D01*
X63017677Y-92523457D01*
X62476543Y-91982323D01*
X61840238Y-91557158D01*
X61133213Y-91264298D01*
X60382639Y-91115000D01*
X59617361Y-91115000D01*
X58866787Y-91264298D01*
X58159762Y-91557158D01*
X57523457Y-91982323D01*
X56982323Y-92523457D01*
X56557158Y-93159762D01*
X56264298Y-93866787D01*
X56115000Y-94617361D01*
X50660000Y-94617361D01*
X50660000Y-84617361D01*
X56115000Y-84617361D01*
X56115000Y-85382639D01*
X56264298Y-86133213D01*
X56557158Y-86840238D01*
X56982323Y-87476543D01*
X57523457Y-88017677D01*
X58159762Y-88442842D01*
X58866787Y-88735702D01*
X59617361Y-88885000D01*
X60382639Y-88885000D01*
X61133213Y-88735702D01*
X61840238Y-88442842D01*
X62476543Y-88017677D01*
X63017677Y-87476543D01*
X63442842Y-86840238D01*
X63735702Y-86133213D01*
X63885000Y-85382639D01*
X63885000Y-84617361D01*
X63735702Y-83866787D01*
X63442842Y-83159762D01*
X63017677Y-82523457D01*
X62476543Y-81982323D01*
X61840238Y-81557158D01*
X61133213Y-81264298D01*
X60382639Y-81115000D01*
X59617361Y-81115000D01*
X58866787Y-81264298D01*
X58159762Y-81557158D01*
X57523457Y-81982323D01*
X56982323Y-82523457D01*
X56557158Y-83159762D01*
X56264298Y-83866787D01*
X56115000Y-84617361D01*
X50660000Y-84617361D01*
X50660000Y-67736428D01*
X57443177Y-67736428D01*
X57809365Y-68231216D01*
X58481837Y-68596501D01*
X59212650Y-68823575D01*
X59973721Y-68903710D01*
X60735803Y-68833828D01*
X61469608Y-68616614D01*
X62146936Y-68260416D01*
X62190635Y-68231216D01*
X62556823Y-67736428D01*
X77443177Y-67736428D01*
X77809365Y-68231216D01*
X78481837Y-68596501D01*
X79212650Y-68823575D01*
X79973721Y-68903710D01*
X80735803Y-68833828D01*
X81469608Y-68616614D01*
X82146936Y-68260416D01*
X82190635Y-68231216D01*
X82556823Y-67736428D01*
X80000000Y-65179605D01*
X77443177Y-67736428D01*
X62556823Y-67736428D01*
X60000000Y-65179605D01*
X57443177Y-67736428D01*
X50660000Y-67736428D01*
X50660000Y-64973721D01*
X56096290Y-64973721D01*
X56166172Y-65735803D01*
X56383386Y-66469608D01*
X56739584Y-67146936D01*
X56768784Y-67190635D01*
X57263572Y-67556823D01*
X59820395Y-65000000D01*
X60179605Y-65000000D01*
X62736428Y-67556823D01*
X63231216Y-67190635D01*
X63596501Y-66518163D01*
X63823575Y-65787350D01*
X63903710Y-65026279D01*
X63898891Y-64973721D01*
X76096290Y-64973721D01*
X76166172Y-65735803D01*
X76383386Y-66469608D01*
X76739584Y-67146936D01*
X76768784Y-67190635D01*
X77263572Y-67556823D01*
X79820395Y-65000000D01*
X80179605Y-65000000D01*
X82736428Y-67556823D01*
X83231216Y-67190635D01*
X83596501Y-66518163D01*
X83823575Y-65787350D01*
X83903710Y-65026279D01*
X83833828Y-64264197D01*
X83616614Y-63530392D01*
X83260416Y-62853064D01*
X83231216Y-62809365D01*
X82736428Y-62443177D01*
X80179605Y-65000000D01*
X79820395Y-65000000D01*
X77263572Y-62443177D01*
X76768784Y-62809365D01*
X76403499Y-63481837D01*
X76176425Y-64212650D01*
X76096290Y-64973721D01*
X63898891Y-64973721D01*
X63833828Y-64264197D01*
X63616614Y-63530392D01*
X63260416Y-62853064D01*
X63231216Y-62809365D01*
X62736428Y-62443177D01*
X60179605Y-65000000D01*
X59820395Y-65000000D01*
X57263572Y-62443177D01*
X56768784Y-62809365D01*
X56403499Y-63481837D01*
X56176425Y-64212650D01*
X56096290Y-64973721D01*
X50660000Y-64973721D01*
X50660000Y-62263572D01*
X57443177Y-62263572D01*
X60000000Y-64820395D01*
X62556823Y-62263572D01*
X77443177Y-62263572D01*
X80000000Y-64820395D01*
X82556823Y-62263572D01*
X82190635Y-61768784D01*
X81518163Y-61403499D01*
X80787350Y-61176425D01*
X80026279Y-61096290D01*
X79264197Y-61166172D01*
X78530392Y-61383386D01*
X77853064Y-61739584D01*
X77809365Y-61768784D01*
X77443177Y-62263572D01*
X62556823Y-62263572D01*
X62190635Y-61768784D01*
X61518163Y-61403499D01*
X60787350Y-61176425D01*
X60026279Y-61096290D01*
X59264197Y-61166172D01*
X58530392Y-61383386D01*
X57853064Y-61739584D01*
X57809365Y-61768784D01*
X57443177Y-62263572D01*
X50660000Y-62263572D01*
X50660000Y-50789721D01*
X67865000Y-50789721D01*
X67865000Y-51210279D01*
X67947047Y-51622756D01*
X68107988Y-52011302D01*
X68341637Y-52360983D01*
X68639017Y-52658363D01*
X68988698Y-52892012D01*
X69377244Y-53052953D01*
X69789721Y-53135000D01*
X70210279Y-53135000D01*
X70622756Y-53052953D01*
X71011302Y-52892012D01*
X71360983Y-52658363D01*
X71658363Y-52360983D01*
X71892012Y-52011302D01*
X72052953Y-51622756D01*
X72135000Y-51210279D01*
X72135000Y-50789721D01*
X72052953Y-50377244D01*
X71892012Y-49988698D01*
X71658363Y-49639017D01*
X71360983Y-49341637D01*
X71011302Y-49107988D01*
X70622756Y-48947047D01*
X70210279Y-48865000D01*
X69789721Y-48865000D01*
X69377244Y-48947047D01*
X68988698Y-49107988D01*
X68639017Y-49341637D01*
X68341637Y-49639017D01*
X68107988Y-49988698D01*
X67947047Y-50377244D01*
X67865000Y-50789721D01*
X50660000Y-50789721D01*
X50660000Y-39521500D01*
X52519221Y-39521500D01*
X52609364Y-39852770D01*
X52821667Y-40302774D01*
X53117682Y-40702713D01*
X53486033Y-41037218D01*
X53912565Y-41293434D01*
X54380886Y-41461514D01*
X54873000Y-41535000D01*
X56373000Y-41535000D01*
X56373000Y-39127000D01*
X56627000Y-39127000D01*
X56627000Y-41535000D01*
X58127000Y-41535000D01*
X58619114Y-41461514D01*
X59087435Y-41293434D01*
X59513967Y-41037218D01*
X59882318Y-40702713D01*
X60178333Y-40302774D01*
X60390636Y-39852770D01*
X60480779Y-39521500D01*
X79519221Y-39521500D01*
X79609364Y-39852770D01*
X79821667Y-40302774D01*
X80117682Y-40702713D01*
X80486033Y-41037218D01*
X80912565Y-41293434D01*
X81380886Y-41461514D01*
X81873000Y-41535000D01*
X83373000Y-41535000D01*
X83373000Y-39127000D01*
X83627000Y-39127000D01*
X83627000Y-41535000D01*
X85127000Y-41535000D01*
X85619114Y-41461514D01*
X86087435Y-41293434D01*
X86513967Y-41037218D01*
X86882318Y-40702713D01*
X87178333Y-40302774D01*
X87390636Y-39852770D01*
X87480779Y-39521500D01*
X87372854Y-39127000D01*
X83627000Y-39127000D01*
X83373000Y-39127000D01*
X79627146Y-39127000D01*
X79519221Y-39521500D01*
X60480779Y-39521500D01*
X60372854Y-39127000D01*
X56627000Y-39127000D01*
X56373000Y-39127000D01*
X52627146Y-39127000D01*
X52519221Y-39521500D01*
X50660000Y-39521500D01*
X50660000Y-36660000D01*
X54042312Y-36660000D01*
X53912565Y-36706566D01*
M02*
