%TF.GenerationSoftware,KiCad,Pcbnew,(5.1.0)-1*%
%TF.CreationDate,2020-03-07T14:30:38+01:00*%
%TF.ProjectId,KicadJE_AC3340_RevA_Faceplate,4b696361-644a-4455-9f41-43333334305f,rev?*%
%TF.SameCoordinates,Original*%
%TF.FileFunction,Legend,Bot*%
%TF.FilePolarity,Positive*%
%FSLAX46Y46*%
G04 Gerber Fmt 4.6, Leading zero omitted, Abs format (unit mm)*
G04 Created by KiCad (PCBNEW (5.1.0)-1) date 2020-03-07 14:30:38*
%MOMM*%
%LPD*%
G04 APERTURE LIST*
%ADD10C,0.300000*%
%ADD11C,0.050000*%
%ADD12C,0.150000*%
%ADD13C,0.750000*%
G04 APERTURE END LIST*
D10*
X-23480714Y-68588095D02*
X-23480714Y-67288095D01*
X-23937857Y-67288095D01*
X-24052142Y-67350000D01*
X-24109285Y-67411904D01*
X-24166428Y-67535714D01*
X-24166428Y-67721428D01*
X-24109285Y-67845238D01*
X-24052142Y-67907142D01*
X-23937857Y-67969047D01*
X-23480714Y-67969047D01*
X-24852142Y-68588095D02*
X-24737857Y-68526190D01*
X-24680714Y-68464285D01*
X-24623571Y-68340476D01*
X-24623571Y-67969047D01*
X-24680714Y-67845238D01*
X-24737857Y-67783333D01*
X-24852142Y-67721428D01*
X-25023571Y-67721428D01*
X-25137857Y-67783333D01*
X-25195000Y-67845238D01*
X-25252142Y-67969047D01*
X-25252142Y-68340476D01*
X-25195000Y-68464285D01*
X-25137857Y-68526190D01*
X-25023571Y-68588095D01*
X-24852142Y-68588095D01*
X-25595000Y-67721428D02*
X-26052142Y-67721428D01*
X-25766428Y-67288095D02*
X-25766428Y-68402380D01*
X-25823571Y-68526190D01*
X-25937857Y-68588095D01*
X-26052142Y-68588095D01*
X-26166428Y-68711904D02*
X-27080714Y-68711904D01*
X-27880714Y-67288095D02*
X-27652142Y-67288095D01*
X-27537857Y-67350000D01*
X-27480714Y-67411904D01*
X-27366428Y-67597619D01*
X-27309285Y-67845238D01*
X-27309285Y-68340476D01*
X-27366428Y-68464285D01*
X-27423571Y-68526190D01*
X-27537857Y-68588095D01*
X-27766428Y-68588095D01*
X-27880714Y-68526190D01*
X-27937857Y-68464285D01*
X-27995000Y-68340476D01*
X-27995000Y-68030952D01*
X-27937857Y-67907142D01*
X-27880714Y-67845238D01*
X-27766428Y-67783333D01*
X-27537857Y-67783333D01*
X-27423571Y-67845238D01*
X-27366428Y-67907142D01*
X-27309285Y-68030952D01*
X-28509285Y-68588095D02*
X-28509285Y-67721428D01*
X-28509285Y-67845238D02*
X-28566428Y-67783333D01*
X-28680714Y-67721428D01*
X-28852142Y-67721428D01*
X-28966428Y-67783333D01*
X-29023571Y-67907142D01*
X-29023571Y-68588095D01*
X-29023571Y-67907142D02*
X-29080714Y-67783333D01*
X-29194999Y-67721428D01*
X-29366428Y-67721428D01*
X-29480714Y-67783333D01*
X-29537857Y-67907142D01*
X-29537857Y-68588095D01*
X-29994999Y-67288095D02*
X-30737857Y-67288095D01*
X-30337857Y-67783333D01*
X-30509285Y-67783333D01*
X-30623571Y-67845238D01*
X-30680714Y-67907142D01*
X-30737857Y-68030952D01*
X-30737857Y-68340476D01*
X-30680714Y-68464285D01*
X-30623571Y-68526190D01*
X-30509285Y-68588095D01*
X-30166428Y-68588095D01*
X-30052142Y-68526190D01*
X-29994999Y-68464285D01*
X-30966428Y-68711904D02*
X-31880714Y-68711904D01*
X-32109285Y-68526190D02*
X-32280714Y-68588095D01*
X-32566428Y-68588095D01*
X-32680714Y-68526190D01*
X-32737857Y-68464285D01*
X-32794999Y-68340476D01*
X-32794999Y-68216666D01*
X-32737857Y-68092857D01*
X-32680714Y-68030952D01*
X-32566428Y-67969047D01*
X-32337857Y-67907142D01*
X-32223571Y-67845238D01*
X-32166428Y-67783333D01*
X-32109285Y-67659523D01*
X-32109285Y-67535714D01*
X-32166428Y-67411904D01*
X-32223571Y-67350000D01*
X-32337857Y-67288095D01*
X-32623571Y-67288095D01*
X-32794999Y-67350000D01*
X-33823571Y-68526190D02*
X-33709285Y-68588095D01*
X-33480714Y-68588095D01*
X-33366428Y-68526190D01*
X-33309285Y-68464285D01*
X-33252142Y-68340476D01*
X-33252142Y-67969047D01*
X-33309285Y-67845238D01*
X-33366428Y-67783333D01*
X-33480714Y-67721428D01*
X-33709285Y-67721428D01*
X-33823571Y-67783333D01*
X-34852142Y-68588095D02*
X-34852142Y-67907142D01*
X-34795000Y-67783333D01*
X-34680714Y-67721428D01*
X-34452142Y-67721428D01*
X-34337857Y-67783333D01*
X-34852142Y-68526190D02*
X-34737857Y-68588095D01*
X-34452142Y-68588095D01*
X-34337857Y-68526190D01*
X-34280714Y-68402380D01*
X-34280714Y-68278571D01*
X-34337857Y-68154761D01*
X-34452142Y-68092857D01*
X-34737857Y-68092857D01*
X-34852142Y-68030952D01*
X-35595000Y-68588095D02*
X-35480714Y-68526190D01*
X-35423571Y-68402380D01*
X-35423571Y-67288095D01*
X-36509285Y-68526190D02*
X-36395000Y-68588095D01*
X-36166428Y-68588095D01*
X-36052142Y-68526190D01*
X-35995000Y-68402380D01*
X-35995000Y-67907142D01*
X-36052142Y-67783333D01*
X-36166428Y-67721428D01*
X-36395000Y-67721428D01*
X-36509285Y-67783333D01*
X-36566428Y-67907142D01*
X-36566428Y-68030952D01*
X-35995000Y-68154761D01*
X-37709285Y-68588095D02*
X-37023571Y-68588095D01*
X-37366428Y-68588095D02*
X-37366428Y-67288095D01*
X-37252142Y-67473809D01*
X-37137857Y-67597619D01*
X-37023571Y-67659523D01*
X-16980714Y-95088095D02*
X-16980714Y-93788095D01*
X-17437857Y-93788095D01*
X-17552142Y-93850000D01*
X-17609285Y-93911904D01*
X-17666428Y-94035714D01*
X-17666428Y-94221428D01*
X-17609285Y-94345238D01*
X-17552142Y-94407142D01*
X-17437857Y-94469047D01*
X-16980714Y-94469047D01*
X-18352142Y-95088095D02*
X-18237857Y-95026190D01*
X-18180714Y-94964285D01*
X-18123571Y-94840476D01*
X-18123571Y-94469047D01*
X-18180714Y-94345238D01*
X-18237857Y-94283333D01*
X-18352142Y-94221428D01*
X-18523571Y-94221428D01*
X-18637857Y-94283333D01*
X-18695000Y-94345238D01*
X-18752142Y-94469047D01*
X-18752142Y-94840476D01*
X-18695000Y-94964285D01*
X-18637857Y-95026190D01*
X-18523571Y-95088095D01*
X-18352142Y-95088095D01*
X-19095000Y-94221428D02*
X-19552142Y-94221428D01*
X-19266428Y-93788095D02*
X-19266428Y-94902380D01*
X-19323571Y-95026190D01*
X-19437857Y-95088095D01*
X-19552142Y-95088095D01*
X-19666428Y-95211904D02*
X-20580714Y-95211904D01*
X-21380714Y-93788095D02*
X-21152142Y-93788095D01*
X-21037857Y-93850000D01*
X-20980714Y-93911904D01*
X-20866428Y-94097619D01*
X-20809285Y-94345238D01*
X-20809285Y-94840476D01*
X-20866428Y-94964285D01*
X-20923571Y-95026190D01*
X-21037857Y-95088095D01*
X-21266428Y-95088095D01*
X-21380714Y-95026190D01*
X-21437857Y-94964285D01*
X-21495000Y-94840476D01*
X-21495000Y-94530952D01*
X-21437857Y-94407142D01*
X-21380714Y-94345238D01*
X-21266428Y-94283333D01*
X-21037857Y-94283333D01*
X-20923571Y-94345238D01*
X-20866428Y-94407142D01*
X-20809285Y-94530952D01*
X-22009285Y-95088095D02*
X-22009285Y-94221428D01*
X-22009285Y-94345238D02*
X-22066428Y-94283333D01*
X-22180714Y-94221428D01*
X-22352142Y-94221428D01*
X-22466428Y-94283333D01*
X-22523571Y-94407142D01*
X-22523571Y-95088095D01*
X-22523571Y-94407142D02*
X-22580714Y-94283333D01*
X-22695000Y-94221428D01*
X-22866428Y-94221428D01*
X-22980714Y-94283333D01*
X-23037857Y-94407142D01*
X-23037857Y-95088095D01*
X-23495000Y-93788095D02*
X-24237857Y-93788095D01*
X-23837857Y-94283333D01*
X-24009285Y-94283333D01*
X-24123571Y-94345238D01*
X-24180714Y-94407142D01*
X-24237857Y-94530952D01*
X-24237857Y-94840476D01*
X-24180714Y-94964285D01*
X-24123571Y-95026190D01*
X-24009285Y-95088095D01*
X-23666428Y-95088095D01*
X-23552142Y-95026190D01*
X-23495000Y-94964285D01*
X-16623571Y-107288095D02*
X-16623571Y-108216666D01*
X-16566428Y-108402380D01*
X-16452142Y-108526190D01*
X-16280714Y-108588095D01*
X-16166428Y-108588095D01*
X-17709285Y-108588095D02*
X-17709285Y-107907142D01*
X-17652142Y-107783333D01*
X-17537857Y-107721428D01*
X-17309285Y-107721428D01*
X-17195000Y-107783333D01*
X-17709285Y-108526190D02*
X-17595000Y-108588095D01*
X-17309285Y-108588095D01*
X-17195000Y-108526190D01*
X-17137857Y-108402380D01*
X-17137857Y-108278571D01*
X-17195000Y-108154761D01*
X-17309285Y-108092857D01*
X-17595000Y-108092857D01*
X-17709285Y-108030952D01*
X-18795000Y-108526190D02*
X-18680714Y-108588095D01*
X-18452142Y-108588095D01*
X-18337857Y-108526190D01*
X-18280714Y-108464285D01*
X-18223571Y-108340476D01*
X-18223571Y-107969047D01*
X-18280714Y-107845238D01*
X-18337857Y-107783333D01*
X-18452142Y-107721428D01*
X-18680714Y-107721428D01*
X-18795000Y-107783333D01*
X-19309285Y-108588095D02*
X-19309285Y-107288095D01*
X-19423571Y-108092857D02*
X-19766428Y-108588095D01*
X-19766428Y-107721428D02*
X-19309285Y-108216666D01*
X-19995000Y-108711904D02*
X-20909285Y-108711904D01*
X-21709285Y-107288095D02*
X-21480714Y-107288095D01*
X-21366428Y-107350000D01*
X-21309285Y-107411904D01*
X-21195000Y-107597619D01*
X-21137857Y-107845238D01*
X-21137857Y-108340476D01*
X-21195000Y-108464285D01*
X-21252142Y-108526190D01*
X-21366428Y-108588095D01*
X-21595000Y-108588095D01*
X-21709285Y-108526190D01*
X-21766428Y-108464285D01*
X-21823571Y-108340476D01*
X-21823571Y-108030952D01*
X-21766428Y-107907142D01*
X-21709285Y-107845238D01*
X-21595000Y-107783333D01*
X-21366428Y-107783333D01*
X-21252142Y-107845238D01*
X-21195000Y-107907142D01*
X-21137857Y-108030952D01*
X-22337857Y-108588095D02*
X-22337857Y-107721428D01*
X-22337857Y-107845238D02*
X-22395000Y-107783333D01*
X-22509285Y-107721428D01*
X-22680714Y-107721428D01*
X-22795000Y-107783333D01*
X-22852142Y-107907142D01*
X-22852142Y-108588095D01*
X-22852142Y-107907142D02*
X-22909285Y-107783333D01*
X-23023571Y-107721428D01*
X-23195000Y-107721428D01*
X-23309285Y-107783333D01*
X-23366428Y-107907142D01*
X-23366428Y-108588095D01*
X-23823571Y-107288095D02*
X-24566428Y-107288095D01*
X-24166428Y-107783333D01*
X-24337857Y-107783333D01*
X-24452142Y-107845238D01*
X-24509285Y-107907142D01*
X-24566428Y-108030952D01*
X-24566428Y-108340476D01*
X-24509285Y-108464285D01*
X-24452142Y-108526190D01*
X-24337857Y-108588095D01*
X-23995000Y-108588095D01*
X-23880714Y-108526190D01*
X-23823571Y-108464285D01*
X-10880714Y-157788095D02*
X-10880714Y-156488095D01*
X-11280714Y-157416666D01*
X-11680714Y-156488095D01*
X-11680714Y-157788095D01*
X-12423571Y-157788095D02*
X-12309285Y-157726190D01*
X-12252142Y-157664285D01*
X-12195000Y-157540476D01*
X-12195000Y-157169047D01*
X-12252142Y-157045238D01*
X-12309285Y-156983333D01*
X-12423571Y-156921428D01*
X-12595000Y-156921428D01*
X-12709285Y-156983333D01*
X-12766428Y-157045238D01*
X-12823571Y-157169047D01*
X-12823571Y-157540476D01*
X-12766428Y-157664285D01*
X-12709285Y-157726190D01*
X-12595000Y-157788095D01*
X-12423571Y-157788095D01*
X-13852142Y-156921428D02*
X-13852142Y-157788095D01*
X-13337857Y-156921428D02*
X-13337857Y-157602380D01*
X-13395000Y-157726190D01*
X-13509285Y-157788095D01*
X-13680714Y-157788095D01*
X-13795000Y-157726190D01*
X-13852142Y-157664285D01*
X-14423571Y-156921428D02*
X-14423571Y-157788095D01*
X-14423571Y-157045238D02*
X-14480714Y-156983333D01*
X-14594999Y-156921428D01*
X-14766428Y-156921428D01*
X-14880714Y-156983333D01*
X-14937857Y-157107142D01*
X-14937857Y-157788095D01*
X-15337857Y-156921428D02*
X-15794999Y-156921428D01*
X-15509285Y-156488095D02*
X-15509285Y-157602380D01*
X-15566428Y-157726190D01*
X-15680714Y-157788095D01*
X-15794999Y-157788095D01*
X-16194999Y-157788095D02*
X-16194999Y-156921428D01*
X-16194999Y-156488095D02*
X-16137857Y-156550000D01*
X-16194999Y-156611904D01*
X-16252142Y-156550000D01*
X-16194999Y-156488095D01*
X-16194999Y-156611904D01*
X-16766428Y-156921428D02*
X-16766428Y-157788095D01*
X-16766428Y-157045238D02*
X-16823571Y-156983333D01*
X-16937857Y-156921428D01*
X-17109285Y-156921428D01*
X-17223571Y-156983333D01*
X-17280714Y-157107142D01*
X-17280714Y-157788095D01*
X-18366428Y-156921428D02*
X-18366428Y-157973809D01*
X-18309285Y-158097619D01*
X-18252142Y-158159523D01*
X-18137857Y-158221428D01*
X-17966428Y-158221428D01*
X-17852142Y-158159523D01*
X-18366428Y-157726190D02*
X-18252142Y-157788095D01*
X-18023571Y-157788095D01*
X-17909285Y-157726190D01*
X-17852142Y-157664285D01*
X-17795000Y-157540476D01*
X-17795000Y-157169047D01*
X-17852142Y-157045238D01*
X-17909285Y-156983333D01*
X-18023571Y-156921428D01*
X-18252142Y-156921428D01*
X-18366428Y-156983333D01*
X-19852142Y-157107142D02*
X-20252142Y-157107142D01*
X-20423571Y-157788095D02*
X-19852142Y-157788095D01*
X-19852142Y-156488095D01*
X-20423571Y-156488095D01*
X-21452142Y-156921428D02*
X-21452142Y-157788095D01*
X-20937857Y-156921428D02*
X-20937857Y-157602380D01*
X-20995000Y-157726190D01*
X-21109285Y-157788095D01*
X-21280714Y-157788095D01*
X-21394999Y-157726190D01*
X-21452142Y-157664285D01*
X-22023571Y-157788095D02*
X-22023571Y-156921428D01*
X-22023571Y-157169047D02*
X-22080714Y-157045238D01*
X-22137857Y-156983333D01*
X-22252142Y-156921428D01*
X-22366428Y-156921428D01*
X-22937857Y-157788095D02*
X-22823571Y-157726190D01*
X-22766428Y-157664285D01*
X-22709285Y-157540476D01*
X-22709285Y-157169047D01*
X-22766428Y-157045238D01*
X-22823571Y-156983333D01*
X-22937857Y-156921428D01*
X-23109285Y-156921428D01*
X-23223571Y-156983333D01*
X-23280714Y-157045238D01*
X-23337857Y-157169047D01*
X-23337857Y-157540476D01*
X-23280714Y-157664285D01*
X-23223571Y-157726190D01*
X-23109285Y-157788095D01*
X-22937857Y-157788095D01*
X-23852142Y-157788095D02*
X-23852142Y-156921428D01*
X-23852142Y-157169047D02*
X-23909285Y-157045238D01*
X-23966428Y-156983333D01*
X-24080714Y-156921428D01*
X-24194999Y-156921428D01*
X-25109285Y-157788095D02*
X-25109285Y-157107142D01*
X-25052142Y-156983333D01*
X-24937857Y-156921428D01*
X-24709285Y-156921428D01*
X-24594999Y-156983333D01*
X-25109285Y-157726190D02*
X-24994999Y-157788095D01*
X-24709285Y-157788095D01*
X-24594999Y-157726190D01*
X-24537857Y-157602380D01*
X-24537857Y-157478571D01*
X-24594999Y-157354761D01*
X-24709285Y-157292857D01*
X-24994999Y-157292857D01*
X-25109285Y-157230952D01*
X-26194999Y-157726190D02*
X-26080714Y-157788095D01*
X-25852142Y-157788095D01*
X-25737857Y-157726190D01*
X-25680714Y-157664285D01*
X-25623571Y-157540476D01*
X-25623571Y-157169047D01*
X-25680714Y-157045238D01*
X-25737857Y-156983333D01*
X-25852142Y-156921428D01*
X-26080714Y-156921428D01*
X-26194999Y-156983333D01*
X-26709285Y-157788095D02*
X-26709285Y-156488095D01*
X-26823571Y-157292857D02*
X-27166428Y-157788095D01*
X-27166428Y-156921428D02*
X-26709285Y-157416666D01*
X-28537857Y-156611904D02*
X-28594999Y-156550000D01*
X-28709285Y-156488095D01*
X-28994999Y-156488095D01*
X-29109285Y-156550000D01*
X-29166428Y-156611904D01*
X-29223571Y-156735714D01*
X-29223571Y-156859523D01*
X-29166428Y-157045238D01*
X-28480714Y-157788095D01*
X-29223571Y-157788095D01*
X-31980714Y-157788095D02*
X-31980714Y-156488095D01*
X-32380714Y-157416666D01*
X-32780714Y-156488095D01*
X-32780714Y-157788095D01*
X-33523571Y-157788095D02*
X-33409285Y-157726190D01*
X-33352142Y-157664285D01*
X-33295000Y-157540476D01*
X-33295000Y-157169047D01*
X-33352142Y-157045238D01*
X-33409285Y-156983333D01*
X-33523571Y-156921428D01*
X-33695000Y-156921428D01*
X-33809285Y-156983333D01*
X-33866428Y-157045238D01*
X-33923571Y-157169047D01*
X-33923571Y-157540476D01*
X-33866428Y-157664285D01*
X-33809285Y-157726190D01*
X-33695000Y-157788095D01*
X-33523571Y-157788095D01*
X-34952142Y-156921428D02*
X-34952142Y-157788095D01*
X-34437857Y-156921428D02*
X-34437857Y-157602380D01*
X-34495000Y-157726190D01*
X-34609285Y-157788095D01*
X-34780714Y-157788095D01*
X-34895000Y-157726190D01*
X-34952142Y-157664285D01*
X-35523571Y-156921428D02*
X-35523571Y-157788095D01*
X-35523571Y-157045238D02*
X-35580714Y-156983333D01*
X-35695000Y-156921428D01*
X-35866428Y-156921428D01*
X-35980714Y-156983333D01*
X-36037857Y-157107142D01*
X-36037857Y-157788095D01*
X-36437857Y-156921428D02*
X-36895000Y-156921428D01*
X-36609285Y-156488095D02*
X-36609285Y-157602380D01*
X-36666428Y-157726190D01*
X-36780714Y-157788095D01*
X-36895000Y-157788095D01*
X-37295000Y-157788095D02*
X-37295000Y-156921428D01*
X-37295000Y-156488095D02*
X-37237857Y-156550000D01*
X-37295000Y-156611904D01*
X-37352142Y-156550000D01*
X-37295000Y-156488095D01*
X-37295000Y-156611904D01*
X-37866428Y-156921428D02*
X-37866428Y-157788095D01*
X-37866428Y-157045238D02*
X-37923571Y-156983333D01*
X-38037857Y-156921428D01*
X-38209285Y-156921428D01*
X-38323571Y-156983333D01*
X-38380714Y-157107142D01*
X-38380714Y-157788095D01*
X-39466428Y-156921428D02*
X-39466428Y-157973809D01*
X-39409285Y-158097619D01*
X-39352142Y-158159523D01*
X-39237857Y-158221428D01*
X-39066428Y-158221428D01*
X-38952142Y-158159523D01*
X-39466428Y-157726190D02*
X-39352142Y-157788095D01*
X-39123571Y-157788095D01*
X-39009285Y-157726190D01*
X-38952142Y-157664285D01*
X-38895000Y-157540476D01*
X-38895000Y-157169047D01*
X-38952142Y-157045238D01*
X-39009285Y-156983333D01*
X-39123571Y-156921428D01*
X-39352142Y-156921428D01*
X-39466428Y-156983333D01*
X-40952142Y-157107142D02*
X-41352142Y-157107142D01*
X-41523571Y-157788095D02*
X-40952142Y-157788095D01*
X-40952142Y-156488095D01*
X-41523571Y-156488095D01*
X-42552142Y-156921428D02*
X-42552142Y-157788095D01*
X-42037857Y-156921428D02*
X-42037857Y-157602380D01*
X-42095000Y-157726190D01*
X-42209285Y-157788095D01*
X-42380714Y-157788095D01*
X-42495000Y-157726190D01*
X-42552142Y-157664285D01*
X-43123571Y-157788095D02*
X-43123571Y-156921428D01*
X-43123571Y-157169047D02*
X-43180714Y-157045238D01*
X-43237857Y-156983333D01*
X-43352142Y-156921428D01*
X-43466428Y-156921428D01*
X-44037857Y-157788095D02*
X-43923571Y-157726190D01*
X-43866428Y-157664285D01*
X-43809285Y-157540476D01*
X-43809285Y-157169047D01*
X-43866428Y-157045238D01*
X-43923571Y-156983333D01*
X-44037857Y-156921428D01*
X-44209285Y-156921428D01*
X-44323571Y-156983333D01*
X-44380714Y-157045238D01*
X-44437857Y-157169047D01*
X-44437857Y-157540476D01*
X-44380714Y-157664285D01*
X-44323571Y-157726190D01*
X-44209285Y-157788095D01*
X-44037857Y-157788095D01*
X-44952142Y-157788095D02*
X-44952142Y-156921428D01*
X-44952142Y-157169047D02*
X-45009285Y-157045238D01*
X-45066428Y-156983333D01*
X-45180714Y-156921428D01*
X-45295000Y-156921428D01*
X-46209285Y-157788095D02*
X-46209285Y-157107142D01*
X-46152142Y-156983333D01*
X-46037857Y-156921428D01*
X-45809285Y-156921428D01*
X-45695000Y-156983333D01*
X-46209285Y-157726190D02*
X-46095000Y-157788095D01*
X-45809285Y-157788095D01*
X-45695000Y-157726190D01*
X-45637857Y-157602380D01*
X-45637857Y-157478571D01*
X-45695000Y-157354761D01*
X-45809285Y-157292857D01*
X-46095000Y-157292857D01*
X-46209285Y-157230952D01*
X-47295000Y-157726190D02*
X-47180714Y-157788095D01*
X-46952142Y-157788095D01*
X-46837857Y-157726190D01*
X-46780714Y-157664285D01*
X-46723571Y-157540476D01*
X-46723571Y-157169047D01*
X-46780714Y-157045238D01*
X-46837857Y-156983333D01*
X-46952142Y-156921428D01*
X-47180714Y-156921428D01*
X-47295000Y-156983333D01*
X-47809285Y-157788095D02*
X-47809285Y-156488095D01*
X-47923571Y-157292857D02*
X-48266428Y-157788095D01*
X-48266428Y-156921428D02*
X-47809285Y-157416666D01*
X-48666428Y-156488095D02*
X-49409285Y-156488095D01*
X-49009285Y-156983333D01*
X-49180714Y-156983333D01*
X-49295000Y-157045238D01*
X-49352142Y-157107142D01*
X-49409285Y-157230952D01*
X-49409285Y-157540476D01*
X-49352142Y-157664285D01*
X-49295000Y-157726190D01*
X-49180714Y-157788095D01*
X-48837857Y-157788095D01*
X-48723571Y-157726190D01*
X-48666428Y-157664285D01*
D11*
X-50000000Y-164000000D02*
X-50000000Y-36000000D01*
X-10000000Y-164000000D02*
X-50000000Y-164000000D01*
X-10000000Y-36000000D02*
X-10000000Y-164000000D01*
X-50000000Y-36000000D02*
X-10000000Y-36000000D01*
D12*
X-20000000Y-50000000D02*
X-20000000Y-150000000D01*
X-40000000Y-150000000D02*
X-40000000Y-50000000D01*
D13*
X-29190476Y-89842857D02*
X-33190476Y-89842857D01*
X-29190476Y-91557142D02*
X-31476190Y-90271428D01*
X-33190476Y-91557142D02*
X-30904761Y-89842857D01*
X-29190476Y-92842857D02*
X-31857142Y-92842857D01*
X-33190476Y-92842857D02*
X-33000000Y-92700000D01*
X-32809523Y-92842857D01*
X-33000000Y-92985714D01*
X-33190476Y-92842857D01*
X-32809523Y-92842857D01*
X-29380952Y-95557142D02*
X-29190476Y-95271428D01*
X-29190476Y-94700000D01*
X-29380952Y-94414285D01*
X-29571428Y-94271428D01*
X-29952380Y-94128571D01*
X-31095238Y-94128571D01*
X-31476190Y-94271428D01*
X-31666666Y-94414285D01*
X-31857142Y-94700000D01*
X-31857142Y-95271428D01*
X-31666666Y-95557142D01*
X-29190476Y-98128571D02*
X-31285714Y-98128571D01*
X-31666666Y-97985714D01*
X-31857142Y-97700000D01*
X-31857142Y-97128571D01*
X-31666666Y-96842857D01*
X-29380952Y-98128571D02*
X-29190476Y-97842857D01*
X-29190476Y-97128571D01*
X-29380952Y-96842857D01*
X-29761904Y-96700000D01*
X-30142857Y-96700000D01*
X-30523809Y-96842857D01*
X-30714285Y-97128571D01*
X-30714285Y-97842857D01*
X-30904761Y-98128571D01*
X-29190476Y-100842857D02*
X-33190476Y-100842857D01*
X-29380952Y-100842857D02*
X-29190476Y-100557142D01*
X-29190476Y-99985714D01*
X-29380952Y-99700000D01*
X-29571428Y-99557142D01*
X-29952380Y-99414285D01*
X-31095238Y-99414285D01*
X-31476190Y-99557142D01*
X-31666666Y-99700000D01*
X-31857142Y-99985714D01*
X-31857142Y-100557142D01*
X-31666666Y-100842857D01*
X-33190476Y-103128571D02*
X-30333333Y-103128571D01*
X-29761904Y-102985714D01*
X-29380952Y-102700000D01*
X-29190476Y-102271428D01*
X-29190476Y-101985714D01*
X-31285714Y-104557142D02*
X-31285714Y-105557142D01*
X-29190476Y-105985714D02*
X-29190476Y-104557142D01*
X-33190476Y-104557142D01*
X-33190476Y-105985714D01*
X-28809523Y-106557142D02*
X-28809523Y-108842857D01*
X-33190476Y-109271428D02*
X-33190476Y-111128571D01*
X-31666666Y-110128571D01*
X-31666666Y-110557142D01*
X-31476190Y-110842857D01*
X-31285714Y-110985714D01*
X-30904761Y-111128571D01*
X-29952380Y-111128571D01*
X-29571428Y-110985714D01*
X-29380952Y-110842857D01*
X-29190476Y-110557142D01*
X-29190476Y-109700000D01*
X-29380952Y-109414285D01*
X-29571428Y-109271428D01*
X-33190476Y-112128571D02*
X-33190476Y-113985714D01*
X-31666666Y-112985714D01*
X-31666666Y-113414285D01*
X-31476190Y-113700000D01*
X-31285714Y-113842857D01*
X-30904761Y-113985714D01*
X-29952380Y-113985714D01*
X-29571428Y-113842857D01*
X-29380952Y-113700000D01*
X-29190476Y-113414285D01*
X-29190476Y-112557142D01*
X-29380952Y-112271428D01*
X-29571428Y-112128571D01*
X-31857142Y-116557142D02*
X-29190476Y-116557142D01*
X-33380952Y-115842857D02*
X-30523809Y-115128571D01*
X-30523809Y-116985714D01*
X-33190476Y-118700000D02*
X-33190476Y-118985714D01*
X-33000000Y-119271428D01*
X-32809523Y-119414285D01*
X-32428571Y-119557142D01*
X-31666666Y-119700000D01*
X-30714285Y-119700000D01*
X-29952380Y-119557142D01*
X-29571428Y-119414285D01*
X-29380952Y-119271428D01*
X-29190476Y-118985714D01*
X-29190476Y-118700000D01*
X-29380952Y-118414285D01*
X-29571428Y-118271428D01*
X-29952380Y-118128571D01*
X-30714285Y-117985714D01*
X-31666666Y-117985714D01*
X-32428571Y-118128571D01*
X-32809523Y-118271428D01*
X-33000000Y-118414285D01*
X-33190476Y-118700000D01*
X-28809523Y-120271428D02*
X-28809523Y-122557142D01*
X-31285714Y-123271428D02*
X-31285714Y-124271428D01*
X-29190476Y-124700000D02*
X-29190476Y-123271428D01*
X-33190476Y-123271428D01*
X-33190476Y-124700000D01*
X-29190476Y-125700000D02*
X-31857142Y-127271428D01*
X-31857142Y-125700000D02*
X-29190476Y-127271428D01*
X-31857142Y-128414285D02*
X-27857142Y-128414285D01*
X-31666666Y-128414285D02*
X-31857142Y-128700000D01*
X-31857142Y-129271428D01*
X-31666666Y-129557142D01*
X-31476190Y-129700000D01*
X-31095238Y-129842857D01*
X-29952380Y-129842857D01*
X-29571428Y-129700000D01*
X-29380952Y-129557142D01*
X-29190476Y-129271428D01*
X-29190476Y-128700000D01*
X-29380952Y-128414285D01*
X-29380952Y-132271428D02*
X-29190476Y-131985714D01*
X-29190476Y-131414285D01*
X-29380952Y-131128571D01*
X-29761904Y-130985714D01*
X-31285714Y-130985714D01*
X-31666666Y-131128571D01*
X-31857142Y-131414285D01*
X-31857142Y-131985714D01*
X-31666666Y-132271428D01*
X-31285714Y-132414285D01*
X-30904761Y-132414285D01*
X-30523809Y-130985714D01*
X-29190476Y-133700000D02*
X-31857142Y-133700000D01*
X-31095238Y-133700000D02*
X-31476190Y-133842857D01*
X-31666666Y-133985714D01*
X-31857142Y-134271428D01*
X-31857142Y-134557142D01*
X-29190476Y-135557142D02*
X-31857142Y-135557142D01*
X-33190476Y-135557142D02*
X-33000000Y-135414285D01*
X-32809523Y-135557142D01*
X-33000000Y-135700000D01*
X-33190476Y-135557142D01*
X-32809523Y-135557142D01*
X-29190476Y-136985714D02*
X-31857142Y-136985714D01*
X-31476190Y-136985714D02*
X-31666666Y-137128571D01*
X-31857142Y-137414285D01*
X-31857142Y-137842857D01*
X-31666666Y-138128571D01*
X-31285714Y-138271428D01*
X-29190476Y-138271428D01*
X-31285714Y-138271428D02*
X-31666666Y-138414285D01*
X-31857142Y-138700000D01*
X-31857142Y-139128571D01*
X-31666666Y-139414285D01*
X-31285714Y-139557142D01*
X-29190476Y-139557142D01*
X-29380952Y-142128571D02*
X-29190476Y-141842857D01*
X-29190476Y-141271428D01*
X-29380952Y-140985714D01*
X-29761904Y-140842857D01*
X-31285714Y-140842857D01*
X-31666666Y-140985714D01*
X-31857142Y-141271428D01*
X-31857142Y-141842857D01*
X-31666666Y-142128571D01*
X-31285714Y-142271428D01*
X-30904761Y-142271428D01*
X-30523809Y-140842857D01*
X-31857142Y-143557142D02*
X-29190476Y-143557142D01*
X-31476190Y-143557142D02*
X-31666666Y-143700000D01*
X-31857142Y-143985714D01*
X-31857142Y-144414285D01*
X-31666666Y-144700000D01*
X-31285714Y-144842857D01*
X-29190476Y-144842857D01*
X-31857142Y-145842857D02*
X-31857142Y-146985714D01*
X-33190476Y-146271428D02*
X-29761904Y-146271428D01*
X-29380952Y-146414285D01*
X-29190476Y-146700000D01*
X-29190476Y-146985714D01*
D10*
X-20280714Y-43138095D02*
X-20280714Y-41838095D01*
X-20966428Y-43138095D02*
X-20452142Y-42395238D01*
X-20966428Y-41838095D02*
X-20280714Y-42580952D01*
X-21480714Y-43138095D02*
X-21480714Y-42271428D01*
X-21480714Y-41838095D02*
X-21423571Y-41900000D01*
X-21480714Y-41961904D01*
X-21537857Y-41900000D01*
X-21480714Y-41838095D01*
X-21480714Y-41961904D01*
X-22566428Y-43076190D02*
X-22452142Y-43138095D01*
X-22223571Y-43138095D01*
X-22109285Y-43076190D01*
X-22052142Y-43014285D01*
X-21995000Y-42890476D01*
X-21995000Y-42519047D01*
X-22052142Y-42395238D01*
X-22109285Y-42333333D01*
X-22223571Y-42271428D01*
X-22452142Y-42271428D01*
X-22566428Y-42333333D01*
X-23595000Y-43138095D02*
X-23595000Y-42457142D01*
X-23537857Y-42333333D01*
X-23423571Y-42271428D01*
X-23195000Y-42271428D01*
X-23080714Y-42333333D01*
X-23595000Y-43076190D02*
X-23480714Y-43138095D01*
X-23195000Y-43138095D01*
X-23080714Y-43076190D01*
X-23023571Y-42952380D01*
X-23023571Y-42828571D01*
X-23080714Y-42704761D01*
X-23195000Y-42642857D01*
X-23480714Y-42642857D01*
X-23595000Y-42580952D01*
X-24680714Y-43138095D02*
X-24680714Y-41838095D01*
X-24680714Y-43076190D02*
X-24566428Y-43138095D01*
X-24337857Y-43138095D01*
X-24223571Y-43076190D01*
X-24166428Y-43014285D01*
X-24109285Y-42890476D01*
X-24109285Y-42519047D01*
X-24166428Y-42395238D01*
X-24223571Y-42333333D01*
X-24337857Y-42271428D01*
X-24566428Y-42271428D01*
X-24680714Y-42333333D01*
X-25595000Y-41838095D02*
X-25595000Y-42766666D01*
X-25537857Y-42952380D01*
X-25423571Y-43076190D01*
X-25252142Y-43138095D01*
X-25137857Y-43138095D01*
X-26166428Y-42457142D02*
X-26566428Y-42457142D01*
X-26737857Y-43138095D02*
X-26166428Y-43138095D01*
X-26166428Y-41838095D01*
X-26737857Y-41838095D01*
X-26966428Y-43261904D02*
X-27880714Y-43261904D01*
X-28052142Y-41838095D02*
X-28795000Y-41838095D01*
X-28395000Y-42333333D01*
X-28566428Y-42333333D01*
X-28680714Y-42395238D01*
X-28737857Y-42457142D01*
X-28795000Y-42580952D01*
X-28795000Y-42890476D01*
X-28737857Y-43014285D01*
X-28680714Y-43076190D01*
X-28566428Y-43138095D01*
X-28223571Y-43138095D01*
X-28109285Y-43076190D01*
X-28052142Y-43014285D01*
X-29195000Y-41838095D02*
X-29937857Y-41838095D01*
X-29537857Y-42333333D01*
X-29709285Y-42333333D01*
X-29823571Y-42395238D01*
X-29880714Y-42457142D01*
X-29937857Y-42580952D01*
X-29937857Y-42890476D01*
X-29880714Y-43014285D01*
X-29823571Y-43076190D01*
X-29709285Y-43138095D01*
X-29366428Y-43138095D01*
X-29252142Y-43076190D01*
X-29195000Y-43014285D01*
X-30966428Y-42271428D02*
X-30966428Y-43138095D01*
X-30680714Y-41776190D02*
X-30395000Y-42704761D01*
X-31137857Y-42704761D01*
X-31823571Y-41838095D02*
X-31937857Y-41838095D01*
X-32052142Y-41900000D01*
X-32109285Y-41961904D01*
X-32166428Y-42085714D01*
X-32223571Y-42333333D01*
X-32223571Y-42642857D01*
X-32166428Y-42890476D01*
X-32109285Y-43014285D01*
X-32052142Y-43076190D01*
X-31937857Y-43138095D01*
X-31823571Y-43138095D01*
X-31709285Y-43076190D01*
X-31652142Y-43014285D01*
X-31595000Y-42890476D01*
X-31537857Y-42642857D01*
X-31537857Y-42333333D01*
X-31595000Y-42085714D01*
X-31652142Y-41961904D01*
X-31709285Y-41900000D01*
X-31823571Y-41838095D01*
X-32452142Y-43261904D02*
X-33366428Y-43261904D01*
X-34337857Y-43138095D02*
X-33937857Y-42519047D01*
X-33652142Y-43138095D02*
X-33652142Y-41838095D01*
X-34109285Y-41838095D01*
X-34223571Y-41900000D01*
X-34280714Y-41961904D01*
X-34337857Y-42085714D01*
X-34337857Y-42271428D01*
X-34280714Y-42395238D01*
X-34223571Y-42457142D01*
X-34109285Y-42519047D01*
X-33652142Y-42519047D01*
X-35309285Y-43076190D02*
X-35195000Y-43138095D01*
X-34966428Y-43138095D01*
X-34852142Y-43076190D01*
X-34795000Y-42952380D01*
X-34795000Y-42457142D01*
X-34852142Y-42333333D01*
X-34966428Y-42271428D01*
X-35195000Y-42271428D01*
X-35309285Y-42333333D01*
X-35366428Y-42457142D01*
X-35366428Y-42580952D01*
X-34795000Y-42704761D01*
X-35766428Y-42271428D02*
X-36052142Y-43138095D01*
X-36337857Y-42271428D01*
X-36737857Y-42766666D02*
X-37309285Y-42766666D01*
X-36623571Y-43138095D02*
X-37023571Y-41838095D01*
X-37423571Y-43138095D01*
X-20966428Y-45388095D02*
X-20566428Y-44769047D01*
X-20280714Y-45388095D02*
X-20280714Y-44088095D01*
X-20737857Y-44088095D01*
X-20852142Y-44150000D01*
X-20909285Y-44211904D01*
X-20966428Y-44335714D01*
X-20966428Y-44521428D01*
X-20909285Y-44645238D01*
X-20852142Y-44707142D01*
X-20737857Y-44769047D01*
X-20280714Y-44769047D01*
X-21937857Y-45326190D02*
X-21823571Y-45388095D01*
X-21594999Y-45388095D01*
X-21480714Y-45326190D01*
X-21423571Y-45202380D01*
X-21423571Y-44707142D01*
X-21480714Y-44583333D01*
X-21594999Y-44521428D01*
X-21823571Y-44521428D01*
X-21937857Y-44583333D01*
X-21994999Y-44707142D01*
X-21994999Y-44830952D01*
X-21423571Y-44954761D01*
X-22394999Y-44521428D02*
X-22680714Y-45388095D01*
X-22966428Y-44521428D01*
X-24280714Y-45016666D02*
X-24852142Y-45016666D01*
X-24166428Y-45388095D02*
X-24566428Y-44088095D01*
X-24966428Y-45388095D01*
X-26280714Y-44892857D02*
X-27194999Y-44892857D01*
X-28909285Y-44088095D02*
X-29023571Y-44088095D01*
X-29137857Y-44150000D01*
X-29194999Y-44211904D01*
X-29252142Y-44335714D01*
X-29309285Y-44583333D01*
X-29309285Y-44892857D01*
X-29252142Y-45140476D01*
X-29194999Y-45264285D01*
X-29137857Y-45326190D01*
X-29023571Y-45388095D01*
X-28909285Y-45388095D01*
X-28794999Y-45326190D01*
X-28737857Y-45264285D01*
X-28680714Y-45140476D01*
X-28623571Y-44892857D01*
X-28623571Y-44583333D01*
X-28680714Y-44335714D01*
X-28737857Y-44211904D01*
X-28794999Y-44150000D01*
X-28909285Y-44088095D01*
X-29709285Y-44088095D02*
X-30509285Y-44088095D01*
X-29994999Y-45388095D01*
X-31823571Y-44026190D02*
X-30794999Y-45697619D01*
X-32452142Y-44088095D02*
X-32566428Y-44088095D01*
X-32680714Y-44150000D01*
X-32737857Y-44211904D01*
X-32794999Y-44335714D01*
X-32852142Y-44583333D01*
X-32852142Y-44892857D01*
X-32794999Y-45140476D01*
X-32737857Y-45264285D01*
X-32680714Y-45326190D01*
X-32566428Y-45388095D01*
X-32452142Y-45388095D01*
X-32337857Y-45326190D01*
X-32280714Y-45264285D01*
X-32223571Y-45140476D01*
X-32166428Y-44892857D01*
X-32166428Y-44583333D01*
X-32223571Y-44335714D01*
X-32280714Y-44211904D01*
X-32337857Y-44150000D01*
X-32452142Y-44088095D01*
X-33252142Y-44088095D02*
X-33994999Y-44088095D01*
X-33594999Y-44583333D01*
X-33766428Y-44583333D01*
X-33880714Y-44645238D01*
X-33937857Y-44707142D01*
X-33994999Y-44830952D01*
X-33994999Y-45140476D01*
X-33937857Y-45264285D01*
X-33880714Y-45326190D01*
X-33766428Y-45388095D01*
X-33423571Y-45388095D01*
X-33309285Y-45326190D01*
X-33252142Y-45264285D01*
X-34509285Y-44892857D02*
X-35423571Y-44892857D01*
X-35937857Y-44211904D02*
X-35994999Y-44150000D01*
X-36109285Y-44088095D01*
X-36394999Y-44088095D01*
X-36509285Y-44150000D01*
X-36566428Y-44211904D01*
X-36623571Y-44335714D01*
X-36623571Y-44459523D01*
X-36566428Y-44645238D01*
X-35880714Y-45388095D01*
X-36623571Y-45388095D01*
X-37366428Y-44088095D02*
X-37480714Y-44088095D01*
X-37594999Y-44150000D01*
X-37652142Y-44211904D01*
X-37709285Y-44335714D01*
X-37766428Y-44583333D01*
X-37766428Y-44892857D01*
X-37709285Y-45140476D01*
X-37652142Y-45264285D01*
X-37594999Y-45326190D01*
X-37480714Y-45388095D01*
X-37366428Y-45388095D01*
X-37252142Y-45326190D01*
X-37194999Y-45264285D01*
X-37137857Y-45140476D01*
X-37080714Y-44892857D01*
X-37080714Y-44583333D01*
X-37137857Y-44335714D01*
X-37194999Y-44211904D01*
X-37252142Y-44150000D01*
X-37366428Y-44088095D01*
X-38223571Y-44211904D02*
X-38280714Y-44150000D01*
X-38394999Y-44088095D01*
X-38680714Y-44088095D01*
X-38794999Y-44150000D01*
X-38852142Y-44211904D01*
X-38909285Y-44335714D01*
X-38909285Y-44459523D01*
X-38852142Y-44645238D01*
X-38166428Y-45388095D01*
X-38909285Y-45388095D01*
X-39652142Y-44088095D02*
X-39766428Y-44088095D01*
X-39880714Y-44150000D01*
X-39937857Y-44211904D01*
X-39994999Y-44335714D01*
X-40052142Y-44583333D01*
X-40052142Y-44892857D01*
X-39994999Y-45140476D01*
X-39937857Y-45264285D01*
X-39880714Y-45326190D01*
X-39766428Y-45388095D01*
X-39652142Y-45388095D01*
X-39537857Y-45326190D01*
X-39480714Y-45264285D01*
X-39423571Y-45140476D01*
X-39366428Y-44892857D01*
X-39366428Y-44583333D01*
X-39423571Y-44335714D01*
X-39480714Y-44211904D01*
X-39537857Y-44150000D01*
X-39652142Y-44088095D01*
X-20623571Y-46338095D02*
X-20623571Y-47266666D01*
X-20566428Y-47452380D01*
X-20452142Y-47576190D01*
X-20280714Y-47638095D01*
X-20166428Y-47638095D01*
X-21366428Y-47638095D02*
X-21252142Y-47576190D01*
X-21195000Y-47514285D01*
X-21137857Y-47390476D01*
X-21137857Y-47019047D01*
X-21195000Y-46895238D01*
X-21252142Y-46833333D01*
X-21366428Y-46771428D01*
X-21537857Y-46771428D01*
X-21652142Y-46833333D01*
X-21709285Y-46895238D01*
X-21766428Y-47019047D01*
X-21766428Y-47390476D01*
X-21709285Y-47514285D01*
X-21652142Y-47576190D01*
X-21537857Y-47638095D01*
X-21366428Y-47638095D01*
X-22280714Y-47638095D02*
X-22280714Y-46338095D01*
X-22795000Y-47638095D02*
X-22795000Y-46957142D01*
X-22737857Y-46833333D01*
X-22623571Y-46771428D01*
X-22452142Y-46771428D01*
X-22337857Y-46833333D01*
X-22280714Y-46895238D01*
X-23880714Y-47638095D02*
X-23880714Y-46957142D01*
X-23823571Y-46833333D01*
X-23709285Y-46771428D01*
X-23480714Y-46771428D01*
X-23366428Y-46833333D01*
X-23880714Y-47576190D02*
X-23766428Y-47638095D01*
X-23480714Y-47638095D01*
X-23366428Y-47576190D01*
X-23309285Y-47452380D01*
X-23309285Y-47328571D01*
X-23366428Y-47204761D01*
X-23480714Y-47142857D01*
X-23766428Y-47142857D01*
X-23880714Y-47080952D01*
X-24452142Y-46771428D02*
X-24452142Y-47638095D01*
X-24452142Y-46895238D02*
X-24509285Y-46833333D01*
X-24623571Y-46771428D01*
X-24795000Y-46771428D01*
X-24909285Y-46833333D01*
X-24966428Y-46957142D01*
X-24966428Y-47638095D01*
X-25480714Y-47576190D02*
X-25595000Y-47638095D01*
X-25823571Y-47638095D01*
X-25937857Y-47576190D01*
X-25995000Y-47452380D01*
X-25995000Y-47390476D01*
X-25937857Y-47266666D01*
X-25823571Y-47204761D01*
X-25652142Y-47204761D01*
X-25537857Y-47142857D01*
X-25480714Y-47019047D01*
X-25480714Y-46957142D01*
X-25537857Y-46833333D01*
X-25652142Y-46771428D01*
X-25823571Y-46771428D01*
X-25937857Y-46833333D01*
X-26966428Y-47576190D02*
X-26852142Y-47638095D01*
X-26623571Y-47638095D01*
X-26509285Y-47576190D01*
X-26452142Y-47452380D01*
X-26452142Y-46957142D01*
X-26509285Y-46833333D01*
X-26623571Y-46771428D01*
X-26852142Y-46771428D01*
X-26966428Y-46833333D01*
X-27023571Y-46957142D01*
X-27023571Y-47080952D01*
X-26452142Y-47204761D01*
X-27537857Y-46771428D02*
X-27537857Y-47638095D01*
X-27537857Y-46895238D02*
X-27595000Y-46833333D01*
X-27709285Y-46771428D01*
X-27880714Y-46771428D01*
X-27995000Y-46833333D01*
X-28052142Y-46957142D01*
X-28052142Y-47638095D01*
X-29537857Y-46957142D02*
X-29937857Y-46957142D01*
X-30109285Y-47638095D02*
X-29537857Y-47638095D01*
X-29537857Y-46338095D01*
X-30109285Y-46338095D01*
X-30623571Y-46771428D02*
X-30623571Y-47638095D01*
X-30623571Y-46895238D02*
X-30680714Y-46833333D01*
X-30795000Y-46771428D01*
X-30966428Y-46771428D01*
X-31080714Y-46833333D01*
X-31137857Y-46957142D01*
X-31137857Y-47638095D01*
X-32223571Y-46771428D02*
X-32223571Y-47823809D01*
X-32166428Y-47947619D01*
X-32109285Y-48009523D01*
X-31995000Y-48071428D01*
X-31823571Y-48071428D01*
X-31709285Y-48009523D01*
X-32223571Y-47576190D02*
X-32109285Y-47638095D01*
X-31880714Y-47638095D01*
X-31766428Y-47576190D01*
X-31709285Y-47514285D01*
X-31652142Y-47390476D01*
X-31652142Y-47019047D01*
X-31709285Y-46895238D01*
X-31766428Y-46833333D01*
X-31880714Y-46771428D01*
X-32109285Y-46771428D01*
X-32223571Y-46833333D01*
X-32795000Y-47638095D02*
X-32795000Y-46771428D01*
X-32795000Y-46338095D02*
X-32737857Y-46400000D01*
X-32795000Y-46461904D01*
X-32852142Y-46400000D01*
X-32795000Y-46338095D01*
X-32795000Y-46461904D01*
X-33366428Y-46771428D02*
X-33366428Y-47638095D01*
X-33366428Y-46895238D02*
X-33423571Y-46833333D01*
X-33537857Y-46771428D01*
X-33709285Y-46771428D01*
X-33823571Y-46833333D01*
X-33880714Y-46957142D01*
X-33880714Y-47638095D01*
X-34909285Y-47576190D02*
X-34795000Y-47638095D01*
X-34566428Y-47638095D01*
X-34452142Y-47576190D01*
X-34395000Y-47452380D01*
X-34395000Y-46957142D01*
X-34452142Y-46833333D01*
X-34566428Y-46771428D01*
X-34795000Y-46771428D01*
X-34909285Y-46833333D01*
X-34966428Y-46957142D01*
X-34966428Y-47080952D01*
X-34395000Y-47204761D01*
X-35937857Y-47576190D02*
X-35823571Y-47638095D01*
X-35595000Y-47638095D01*
X-35480714Y-47576190D01*
X-35423571Y-47452380D01*
X-35423571Y-46957142D01*
X-35480714Y-46833333D01*
X-35595000Y-46771428D01*
X-35823571Y-46771428D01*
X-35937857Y-46833333D01*
X-35995000Y-46957142D01*
X-35995000Y-47080952D01*
X-35423571Y-47204761D01*
X-36509285Y-47638095D02*
X-36509285Y-46771428D01*
X-36509285Y-47019047D02*
X-36566428Y-46895238D01*
X-36623571Y-46833333D01*
X-36737857Y-46771428D01*
X-36852142Y-46771428D01*
X-37252142Y-47638095D02*
X-37252142Y-46771428D01*
X-37252142Y-46338095D02*
X-37195000Y-46400000D01*
X-37252142Y-46461904D01*
X-37309285Y-46400000D01*
X-37252142Y-46338095D01*
X-37252142Y-46461904D01*
X-37823571Y-46771428D02*
X-37823571Y-47638095D01*
X-37823571Y-46895238D02*
X-37880714Y-46833333D01*
X-37995000Y-46771428D01*
X-38166428Y-46771428D01*
X-38280714Y-46833333D01*
X-38337857Y-46957142D01*
X-38337857Y-47638095D01*
X-39423571Y-46771428D02*
X-39423571Y-47823809D01*
X-39366428Y-47947619D01*
X-39309285Y-48009523D01*
X-39195000Y-48071428D01*
X-39023571Y-48071428D01*
X-38909285Y-48009523D01*
X-39423571Y-47576190D02*
X-39309285Y-47638095D01*
X-39080714Y-47638095D01*
X-38966428Y-47576190D01*
X-38909285Y-47514285D01*
X-38852142Y-47390476D01*
X-38852142Y-47019047D01*
X-38909285Y-46895238D01*
X-38966428Y-46833333D01*
X-39080714Y-46771428D01*
X-39309285Y-46771428D01*
X-39423571Y-46833333D01*
M02*
