%TF.GenerationSoftware,KiCad,Pcbnew,(5.1.0)-1*%
%TF.CreationDate,2020-03-08T21:58:09+01:00*%
%TF.ProjectId,KicadJE_AC3340_RevA_Faceplate,4b696361-644a-4455-9f41-43333334305f,rev?*%
%TF.SameCoordinates,Original*%
%TF.FileFunction,Legend,Bot*%
%TF.FilePolarity,Positive*%
%FSLAX46Y46*%
G04 Gerber Fmt 4.6, Leading zero omitted, Abs format (unit mm)*
G04 Created by KiCad (PCBNEW (5.1.0)-1) date 2020-03-08 21:58:09*
%MOMM*%
%LPD*%
G04 APERTURE LIST*
%ADD10C,0.200000*%
%ADD11C,0.300000*%
%ADD12C,0.050000*%
%ADD13C,0.150000*%
%ADD14C,0.750000*%
G04 APERTURE END LIST*
D10*
X66842857Y-162507142D02*
X66842857Y-163150000D01*
X66800000Y-163278571D01*
X66714285Y-163364285D01*
X66585714Y-163407142D01*
X66500000Y-163407142D01*
X67700000Y-163407142D02*
X67271428Y-163407142D01*
X67271428Y-162507142D01*
X68514285Y-163321428D02*
X68471428Y-163364285D01*
X68342857Y-163407142D01*
X68257142Y-163407142D01*
X68128571Y-163364285D01*
X68042857Y-163278571D01*
X68000000Y-163192857D01*
X67957142Y-163021428D01*
X67957142Y-162892857D01*
X68000000Y-162721428D01*
X68042857Y-162635714D01*
X68128571Y-162550000D01*
X68257142Y-162507142D01*
X68342857Y-162507142D01*
X68471428Y-162550000D01*
X68514285Y-162592857D01*
X69157142Y-162507142D02*
X69157142Y-163150000D01*
X69114285Y-163278571D01*
X69028571Y-163364285D01*
X68900000Y-163407142D01*
X68814285Y-163407142D01*
X70014285Y-163407142D02*
X69585714Y-163407142D01*
X69585714Y-162507142D01*
X70828571Y-163321428D02*
X70785714Y-163364285D01*
X70657142Y-163407142D01*
X70571428Y-163407142D01*
X70442857Y-163364285D01*
X70357142Y-163278571D01*
X70314285Y-163192857D01*
X70271428Y-163021428D01*
X70271428Y-162892857D01*
X70314285Y-162721428D01*
X70357142Y-162635714D01*
X70442857Y-162550000D01*
X70571428Y-162507142D01*
X70657142Y-162507142D01*
X70785714Y-162550000D01*
X70828571Y-162592857D01*
X71471428Y-162507142D02*
X71471428Y-163150000D01*
X71428571Y-163278571D01*
X71342857Y-163364285D01*
X71214285Y-163407142D01*
X71128571Y-163407142D01*
X72328571Y-163407142D02*
X71900000Y-163407142D01*
X71900000Y-162507142D01*
X73142857Y-163321428D02*
X73100000Y-163364285D01*
X72971428Y-163407142D01*
X72885714Y-163407142D01*
X72757142Y-163364285D01*
X72671428Y-163278571D01*
X72628571Y-163192857D01*
X72585714Y-163021428D01*
X72585714Y-162892857D01*
X72628571Y-162721428D01*
X72671428Y-162635714D01*
X72757142Y-162550000D01*
X72885714Y-162507142D01*
X72971428Y-162507142D01*
X73100000Y-162550000D01*
X73142857Y-162592857D01*
X73785714Y-162507142D02*
X73785714Y-163150000D01*
X73742857Y-163278571D01*
X73657142Y-163364285D01*
X73528571Y-163407142D01*
X73442857Y-163407142D01*
X74642857Y-163407142D02*
X74214285Y-163407142D01*
X74214285Y-162507142D01*
X75457142Y-163321428D02*
X75414285Y-163364285D01*
X75285714Y-163407142D01*
X75200000Y-163407142D01*
X75071428Y-163364285D01*
X74985714Y-163278571D01*
X74942857Y-163192857D01*
X74900000Y-163021428D01*
X74900000Y-162892857D01*
X74942857Y-162721428D01*
X74985714Y-162635714D01*
X75071428Y-162550000D01*
X75200000Y-162507142D01*
X75285714Y-162507142D01*
X75414285Y-162550000D01*
X75457142Y-162592857D01*
D11*
X76519285Y-68588095D02*
X76519285Y-67288095D01*
X76062142Y-67288095D01*
X75947857Y-67350000D01*
X75890714Y-67411904D01*
X75833571Y-67535714D01*
X75833571Y-67721428D01*
X75890714Y-67845238D01*
X75947857Y-67907142D01*
X76062142Y-67969047D01*
X76519285Y-67969047D01*
X75147857Y-68588095D02*
X75262142Y-68526190D01*
X75319285Y-68464285D01*
X75376428Y-68340476D01*
X75376428Y-67969047D01*
X75319285Y-67845238D01*
X75262142Y-67783333D01*
X75147857Y-67721428D01*
X74976428Y-67721428D01*
X74862142Y-67783333D01*
X74805000Y-67845238D01*
X74747857Y-67969047D01*
X74747857Y-68340476D01*
X74805000Y-68464285D01*
X74862142Y-68526190D01*
X74976428Y-68588095D01*
X75147857Y-68588095D01*
X74405000Y-67721428D02*
X73947857Y-67721428D01*
X74233571Y-67288095D02*
X74233571Y-68402380D01*
X74176428Y-68526190D01*
X74062142Y-68588095D01*
X73947857Y-68588095D01*
X73833571Y-68711904D02*
X72919285Y-68711904D01*
X72119285Y-67288095D02*
X72347857Y-67288095D01*
X72462142Y-67350000D01*
X72519285Y-67411904D01*
X72633571Y-67597619D01*
X72690714Y-67845238D01*
X72690714Y-68340476D01*
X72633571Y-68464285D01*
X72576428Y-68526190D01*
X72462142Y-68588095D01*
X72233571Y-68588095D01*
X72119285Y-68526190D01*
X72062142Y-68464285D01*
X72005000Y-68340476D01*
X72005000Y-68030952D01*
X72062142Y-67907142D01*
X72119285Y-67845238D01*
X72233571Y-67783333D01*
X72462142Y-67783333D01*
X72576428Y-67845238D01*
X72633571Y-67907142D01*
X72690714Y-68030952D01*
X71490714Y-68588095D02*
X71490714Y-67721428D01*
X71490714Y-67845238D02*
X71433571Y-67783333D01*
X71319285Y-67721428D01*
X71147857Y-67721428D01*
X71033571Y-67783333D01*
X70976428Y-67907142D01*
X70976428Y-68588095D01*
X70976428Y-67907142D02*
X70919285Y-67783333D01*
X70805000Y-67721428D01*
X70633571Y-67721428D01*
X70519285Y-67783333D01*
X70462142Y-67907142D01*
X70462142Y-68588095D01*
X70005000Y-67288095D02*
X69262142Y-67288095D01*
X69662142Y-67783333D01*
X69490714Y-67783333D01*
X69376428Y-67845238D01*
X69319285Y-67907142D01*
X69262142Y-68030952D01*
X69262142Y-68340476D01*
X69319285Y-68464285D01*
X69376428Y-68526190D01*
X69490714Y-68588095D01*
X69833571Y-68588095D01*
X69947857Y-68526190D01*
X70005000Y-68464285D01*
X69033571Y-68711904D02*
X68119285Y-68711904D01*
X67890714Y-68526190D02*
X67719285Y-68588095D01*
X67433571Y-68588095D01*
X67319285Y-68526190D01*
X67262142Y-68464285D01*
X67205000Y-68340476D01*
X67205000Y-68216666D01*
X67262142Y-68092857D01*
X67319285Y-68030952D01*
X67433571Y-67969047D01*
X67662142Y-67907142D01*
X67776428Y-67845238D01*
X67833571Y-67783333D01*
X67890714Y-67659523D01*
X67890714Y-67535714D01*
X67833571Y-67411904D01*
X67776428Y-67350000D01*
X67662142Y-67288095D01*
X67376428Y-67288095D01*
X67205000Y-67350000D01*
X66176428Y-68526190D02*
X66290714Y-68588095D01*
X66519285Y-68588095D01*
X66633571Y-68526190D01*
X66690714Y-68464285D01*
X66747857Y-68340476D01*
X66747857Y-67969047D01*
X66690714Y-67845238D01*
X66633571Y-67783333D01*
X66519285Y-67721428D01*
X66290714Y-67721428D01*
X66176428Y-67783333D01*
X65147857Y-68588095D02*
X65147857Y-67907142D01*
X65205000Y-67783333D01*
X65319285Y-67721428D01*
X65547857Y-67721428D01*
X65662142Y-67783333D01*
X65147857Y-68526190D02*
X65262142Y-68588095D01*
X65547857Y-68588095D01*
X65662142Y-68526190D01*
X65719285Y-68402380D01*
X65719285Y-68278571D01*
X65662142Y-68154761D01*
X65547857Y-68092857D01*
X65262142Y-68092857D01*
X65147857Y-68030952D01*
X64405000Y-68588095D02*
X64519285Y-68526190D01*
X64576428Y-68402380D01*
X64576428Y-67288095D01*
X63490714Y-68526190D02*
X63605000Y-68588095D01*
X63833571Y-68588095D01*
X63947857Y-68526190D01*
X64005000Y-68402380D01*
X64005000Y-67907142D01*
X63947857Y-67783333D01*
X63833571Y-67721428D01*
X63605000Y-67721428D01*
X63490714Y-67783333D01*
X63433571Y-67907142D01*
X63433571Y-68030952D01*
X64005000Y-68154761D01*
X62290714Y-68588095D02*
X62976428Y-68588095D01*
X62633571Y-68588095D02*
X62633571Y-67288095D01*
X62747857Y-67473809D01*
X62862142Y-67597619D01*
X62976428Y-67659523D01*
X83019285Y-95088095D02*
X83019285Y-93788095D01*
X82562142Y-93788095D01*
X82447857Y-93850000D01*
X82390714Y-93911904D01*
X82333571Y-94035714D01*
X82333571Y-94221428D01*
X82390714Y-94345238D01*
X82447857Y-94407142D01*
X82562142Y-94469047D01*
X83019285Y-94469047D01*
X81647857Y-95088095D02*
X81762142Y-95026190D01*
X81819285Y-94964285D01*
X81876428Y-94840476D01*
X81876428Y-94469047D01*
X81819285Y-94345238D01*
X81762142Y-94283333D01*
X81647857Y-94221428D01*
X81476428Y-94221428D01*
X81362142Y-94283333D01*
X81305000Y-94345238D01*
X81247857Y-94469047D01*
X81247857Y-94840476D01*
X81305000Y-94964285D01*
X81362142Y-95026190D01*
X81476428Y-95088095D01*
X81647857Y-95088095D01*
X80905000Y-94221428D02*
X80447857Y-94221428D01*
X80733571Y-93788095D02*
X80733571Y-94902380D01*
X80676428Y-95026190D01*
X80562142Y-95088095D01*
X80447857Y-95088095D01*
X80333571Y-95211904D02*
X79419285Y-95211904D01*
X78619285Y-93788095D02*
X78847857Y-93788095D01*
X78962142Y-93850000D01*
X79019285Y-93911904D01*
X79133571Y-94097619D01*
X79190714Y-94345238D01*
X79190714Y-94840476D01*
X79133571Y-94964285D01*
X79076428Y-95026190D01*
X78962142Y-95088095D01*
X78733571Y-95088095D01*
X78619285Y-95026190D01*
X78562142Y-94964285D01*
X78505000Y-94840476D01*
X78505000Y-94530952D01*
X78562142Y-94407142D01*
X78619285Y-94345238D01*
X78733571Y-94283333D01*
X78962142Y-94283333D01*
X79076428Y-94345238D01*
X79133571Y-94407142D01*
X79190714Y-94530952D01*
X77990714Y-95088095D02*
X77990714Y-94221428D01*
X77990714Y-94345238D02*
X77933571Y-94283333D01*
X77819285Y-94221428D01*
X77647857Y-94221428D01*
X77533571Y-94283333D01*
X77476428Y-94407142D01*
X77476428Y-95088095D01*
X77476428Y-94407142D02*
X77419285Y-94283333D01*
X77305000Y-94221428D01*
X77133571Y-94221428D01*
X77019285Y-94283333D01*
X76962142Y-94407142D01*
X76962142Y-95088095D01*
X76505000Y-93788095D02*
X75762142Y-93788095D01*
X76162142Y-94283333D01*
X75990714Y-94283333D01*
X75876428Y-94345238D01*
X75819285Y-94407142D01*
X75762142Y-94530952D01*
X75762142Y-94840476D01*
X75819285Y-94964285D01*
X75876428Y-95026190D01*
X75990714Y-95088095D01*
X76333571Y-95088095D01*
X76447857Y-95026190D01*
X76505000Y-94964285D01*
X83376428Y-107288095D02*
X83376428Y-108216666D01*
X83433571Y-108402380D01*
X83547857Y-108526190D01*
X83719285Y-108588095D01*
X83833571Y-108588095D01*
X82290714Y-108588095D02*
X82290714Y-107907142D01*
X82347857Y-107783333D01*
X82462142Y-107721428D01*
X82690714Y-107721428D01*
X82805000Y-107783333D01*
X82290714Y-108526190D02*
X82405000Y-108588095D01*
X82690714Y-108588095D01*
X82805000Y-108526190D01*
X82862142Y-108402380D01*
X82862142Y-108278571D01*
X82805000Y-108154761D01*
X82690714Y-108092857D01*
X82405000Y-108092857D01*
X82290714Y-108030952D01*
X81205000Y-108526190D02*
X81319285Y-108588095D01*
X81547857Y-108588095D01*
X81662142Y-108526190D01*
X81719285Y-108464285D01*
X81776428Y-108340476D01*
X81776428Y-107969047D01*
X81719285Y-107845238D01*
X81662142Y-107783333D01*
X81547857Y-107721428D01*
X81319285Y-107721428D01*
X81205000Y-107783333D01*
X80690714Y-108588095D02*
X80690714Y-107288095D01*
X80576428Y-108092857D02*
X80233571Y-108588095D01*
X80233571Y-107721428D02*
X80690714Y-108216666D01*
X80005000Y-108711904D02*
X79090714Y-108711904D01*
X78290714Y-107288095D02*
X78519285Y-107288095D01*
X78633571Y-107350000D01*
X78690714Y-107411904D01*
X78805000Y-107597619D01*
X78862142Y-107845238D01*
X78862142Y-108340476D01*
X78805000Y-108464285D01*
X78747857Y-108526190D01*
X78633571Y-108588095D01*
X78405000Y-108588095D01*
X78290714Y-108526190D01*
X78233571Y-108464285D01*
X78176428Y-108340476D01*
X78176428Y-108030952D01*
X78233571Y-107907142D01*
X78290714Y-107845238D01*
X78405000Y-107783333D01*
X78633571Y-107783333D01*
X78747857Y-107845238D01*
X78805000Y-107907142D01*
X78862142Y-108030952D01*
X77662142Y-108588095D02*
X77662142Y-107721428D01*
X77662142Y-107845238D02*
X77605000Y-107783333D01*
X77490714Y-107721428D01*
X77319285Y-107721428D01*
X77205000Y-107783333D01*
X77147857Y-107907142D01*
X77147857Y-108588095D01*
X77147857Y-107907142D02*
X77090714Y-107783333D01*
X76976428Y-107721428D01*
X76805000Y-107721428D01*
X76690714Y-107783333D01*
X76633571Y-107907142D01*
X76633571Y-108588095D01*
X76176428Y-107288095D02*
X75433571Y-107288095D01*
X75833571Y-107783333D01*
X75662142Y-107783333D01*
X75547857Y-107845238D01*
X75490714Y-107907142D01*
X75433571Y-108030952D01*
X75433571Y-108340476D01*
X75490714Y-108464285D01*
X75547857Y-108526190D01*
X75662142Y-108588095D01*
X76005000Y-108588095D01*
X76119285Y-108526190D01*
X76176428Y-108464285D01*
X89119285Y-157788095D02*
X89119285Y-156488095D01*
X88719285Y-157416666D01*
X88319285Y-156488095D01*
X88319285Y-157788095D01*
X87576428Y-157788095D02*
X87690714Y-157726190D01*
X87747857Y-157664285D01*
X87805000Y-157540476D01*
X87805000Y-157169047D01*
X87747857Y-157045238D01*
X87690714Y-156983333D01*
X87576428Y-156921428D01*
X87405000Y-156921428D01*
X87290714Y-156983333D01*
X87233571Y-157045238D01*
X87176428Y-157169047D01*
X87176428Y-157540476D01*
X87233571Y-157664285D01*
X87290714Y-157726190D01*
X87405000Y-157788095D01*
X87576428Y-157788095D01*
X86147857Y-156921428D02*
X86147857Y-157788095D01*
X86662142Y-156921428D02*
X86662142Y-157602380D01*
X86605000Y-157726190D01*
X86490714Y-157788095D01*
X86319285Y-157788095D01*
X86205000Y-157726190D01*
X86147857Y-157664285D01*
X85576428Y-156921428D02*
X85576428Y-157788095D01*
X85576428Y-157045238D02*
X85519285Y-156983333D01*
X85405000Y-156921428D01*
X85233571Y-156921428D01*
X85119285Y-156983333D01*
X85062142Y-157107142D01*
X85062142Y-157788095D01*
X84662142Y-156921428D02*
X84205000Y-156921428D01*
X84490714Y-156488095D02*
X84490714Y-157602380D01*
X84433571Y-157726190D01*
X84319285Y-157788095D01*
X84205000Y-157788095D01*
X83805000Y-157788095D02*
X83805000Y-156921428D01*
X83805000Y-156488095D02*
X83862142Y-156550000D01*
X83805000Y-156611904D01*
X83747857Y-156550000D01*
X83805000Y-156488095D01*
X83805000Y-156611904D01*
X83233571Y-156921428D02*
X83233571Y-157788095D01*
X83233571Y-157045238D02*
X83176428Y-156983333D01*
X83062142Y-156921428D01*
X82890714Y-156921428D01*
X82776428Y-156983333D01*
X82719285Y-157107142D01*
X82719285Y-157788095D01*
X81633571Y-156921428D02*
X81633571Y-157973809D01*
X81690714Y-158097619D01*
X81747857Y-158159523D01*
X81862142Y-158221428D01*
X82033571Y-158221428D01*
X82147857Y-158159523D01*
X81633571Y-157726190D02*
X81747857Y-157788095D01*
X81976428Y-157788095D01*
X82090714Y-157726190D01*
X82147857Y-157664285D01*
X82205000Y-157540476D01*
X82205000Y-157169047D01*
X82147857Y-157045238D01*
X82090714Y-156983333D01*
X81976428Y-156921428D01*
X81747857Y-156921428D01*
X81633571Y-156983333D01*
X80147857Y-157107142D02*
X79747857Y-157107142D01*
X79576428Y-157788095D02*
X80147857Y-157788095D01*
X80147857Y-156488095D01*
X79576428Y-156488095D01*
X78547857Y-156921428D02*
X78547857Y-157788095D01*
X79062142Y-156921428D02*
X79062142Y-157602380D01*
X79005000Y-157726190D01*
X78890714Y-157788095D01*
X78719285Y-157788095D01*
X78605000Y-157726190D01*
X78547857Y-157664285D01*
X77976428Y-157788095D02*
X77976428Y-156921428D01*
X77976428Y-157169047D02*
X77919285Y-157045238D01*
X77862142Y-156983333D01*
X77747857Y-156921428D01*
X77633571Y-156921428D01*
X77062142Y-157788095D02*
X77176428Y-157726190D01*
X77233571Y-157664285D01*
X77290714Y-157540476D01*
X77290714Y-157169047D01*
X77233571Y-157045238D01*
X77176428Y-156983333D01*
X77062142Y-156921428D01*
X76890714Y-156921428D01*
X76776428Y-156983333D01*
X76719285Y-157045238D01*
X76662142Y-157169047D01*
X76662142Y-157540476D01*
X76719285Y-157664285D01*
X76776428Y-157726190D01*
X76890714Y-157788095D01*
X77062142Y-157788095D01*
X76147857Y-157788095D02*
X76147857Y-156921428D01*
X76147857Y-157169047D02*
X76090714Y-157045238D01*
X76033571Y-156983333D01*
X75919285Y-156921428D01*
X75805000Y-156921428D01*
X74890714Y-157788095D02*
X74890714Y-157107142D01*
X74947857Y-156983333D01*
X75062142Y-156921428D01*
X75290714Y-156921428D01*
X75405000Y-156983333D01*
X74890714Y-157726190D02*
X75005000Y-157788095D01*
X75290714Y-157788095D01*
X75405000Y-157726190D01*
X75462142Y-157602380D01*
X75462142Y-157478571D01*
X75405000Y-157354761D01*
X75290714Y-157292857D01*
X75005000Y-157292857D01*
X74890714Y-157230952D01*
X73805000Y-157726190D02*
X73919285Y-157788095D01*
X74147857Y-157788095D01*
X74262142Y-157726190D01*
X74319285Y-157664285D01*
X74376428Y-157540476D01*
X74376428Y-157169047D01*
X74319285Y-157045238D01*
X74262142Y-156983333D01*
X74147857Y-156921428D01*
X73919285Y-156921428D01*
X73805000Y-156983333D01*
X73290714Y-157788095D02*
X73290714Y-156488095D01*
X73176428Y-157292857D02*
X72833571Y-157788095D01*
X72833571Y-156921428D02*
X73290714Y-157416666D01*
X71462142Y-156611904D02*
X71405000Y-156550000D01*
X71290714Y-156488095D01*
X71005000Y-156488095D01*
X70890714Y-156550000D01*
X70833571Y-156611904D01*
X70776428Y-156735714D01*
X70776428Y-156859523D01*
X70833571Y-157045238D01*
X71519285Y-157788095D01*
X70776428Y-157788095D01*
X68019285Y-157788095D02*
X68019285Y-156488095D01*
X67619285Y-157416666D01*
X67219285Y-156488095D01*
X67219285Y-157788095D01*
X66476428Y-157788095D02*
X66590714Y-157726190D01*
X66647857Y-157664285D01*
X66705000Y-157540476D01*
X66705000Y-157169047D01*
X66647857Y-157045238D01*
X66590714Y-156983333D01*
X66476428Y-156921428D01*
X66305000Y-156921428D01*
X66190714Y-156983333D01*
X66133571Y-157045238D01*
X66076428Y-157169047D01*
X66076428Y-157540476D01*
X66133571Y-157664285D01*
X66190714Y-157726190D01*
X66305000Y-157788095D01*
X66476428Y-157788095D01*
X65047857Y-156921428D02*
X65047857Y-157788095D01*
X65562142Y-156921428D02*
X65562142Y-157602380D01*
X65505000Y-157726190D01*
X65390714Y-157788095D01*
X65219285Y-157788095D01*
X65105000Y-157726190D01*
X65047857Y-157664285D01*
X64476428Y-156921428D02*
X64476428Y-157788095D01*
X64476428Y-157045238D02*
X64419285Y-156983333D01*
X64305000Y-156921428D01*
X64133571Y-156921428D01*
X64019285Y-156983333D01*
X63962142Y-157107142D01*
X63962142Y-157788095D01*
X63562142Y-156921428D02*
X63105000Y-156921428D01*
X63390714Y-156488095D02*
X63390714Y-157602380D01*
X63333571Y-157726190D01*
X63219285Y-157788095D01*
X63105000Y-157788095D01*
X62705000Y-157788095D02*
X62705000Y-156921428D01*
X62705000Y-156488095D02*
X62762142Y-156550000D01*
X62705000Y-156611904D01*
X62647857Y-156550000D01*
X62705000Y-156488095D01*
X62705000Y-156611904D01*
X62133571Y-156921428D02*
X62133571Y-157788095D01*
X62133571Y-157045238D02*
X62076428Y-156983333D01*
X61962142Y-156921428D01*
X61790714Y-156921428D01*
X61676428Y-156983333D01*
X61619285Y-157107142D01*
X61619285Y-157788095D01*
X60533571Y-156921428D02*
X60533571Y-157973809D01*
X60590714Y-158097619D01*
X60647857Y-158159523D01*
X60762142Y-158221428D01*
X60933571Y-158221428D01*
X61047857Y-158159523D01*
X60533571Y-157726190D02*
X60647857Y-157788095D01*
X60876428Y-157788095D01*
X60990714Y-157726190D01*
X61047857Y-157664285D01*
X61105000Y-157540476D01*
X61105000Y-157169047D01*
X61047857Y-157045238D01*
X60990714Y-156983333D01*
X60876428Y-156921428D01*
X60647857Y-156921428D01*
X60533571Y-156983333D01*
X59047857Y-157107142D02*
X58647857Y-157107142D01*
X58476428Y-157788095D02*
X59047857Y-157788095D01*
X59047857Y-156488095D01*
X58476428Y-156488095D01*
X57447857Y-156921428D02*
X57447857Y-157788095D01*
X57962142Y-156921428D02*
X57962142Y-157602380D01*
X57905000Y-157726190D01*
X57790714Y-157788095D01*
X57619285Y-157788095D01*
X57505000Y-157726190D01*
X57447857Y-157664285D01*
X56876428Y-157788095D02*
X56876428Y-156921428D01*
X56876428Y-157169047D02*
X56819285Y-157045238D01*
X56762142Y-156983333D01*
X56647857Y-156921428D01*
X56533571Y-156921428D01*
X55962142Y-157788095D02*
X56076428Y-157726190D01*
X56133571Y-157664285D01*
X56190714Y-157540476D01*
X56190714Y-157169047D01*
X56133571Y-157045238D01*
X56076428Y-156983333D01*
X55962142Y-156921428D01*
X55790714Y-156921428D01*
X55676428Y-156983333D01*
X55619285Y-157045238D01*
X55562142Y-157169047D01*
X55562142Y-157540476D01*
X55619285Y-157664285D01*
X55676428Y-157726190D01*
X55790714Y-157788095D01*
X55962142Y-157788095D01*
X55047857Y-157788095D02*
X55047857Y-156921428D01*
X55047857Y-157169047D02*
X54990714Y-157045238D01*
X54933571Y-156983333D01*
X54819285Y-156921428D01*
X54705000Y-156921428D01*
X53790714Y-157788095D02*
X53790714Y-157107142D01*
X53847857Y-156983333D01*
X53962142Y-156921428D01*
X54190714Y-156921428D01*
X54305000Y-156983333D01*
X53790714Y-157726190D02*
X53905000Y-157788095D01*
X54190714Y-157788095D01*
X54305000Y-157726190D01*
X54362142Y-157602380D01*
X54362142Y-157478571D01*
X54305000Y-157354761D01*
X54190714Y-157292857D01*
X53905000Y-157292857D01*
X53790714Y-157230952D01*
X52705000Y-157726190D02*
X52819285Y-157788095D01*
X53047857Y-157788095D01*
X53162142Y-157726190D01*
X53219285Y-157664285D01*
X53276428Y-157540476D01*
X53276428Y-157169047D01*
X53219285Y-157045238D01*
X53162142Y-156983333D01*
X53047857Y-156921428D01*
X52819285Y-156921428D01*
X52705000Y-156983333D01*
X52190714Y-157788095D02*
X52190714Y-156488095D01*
X52076428Y-157292857D02*
X51733571Y-157788095D01*
X51733571Y-156921428D02*
X52190714Y-157416666D01*
X51333571Y-156488095D02*
X50590714Y-156488095D01*
X50990714Y-156983333D01*
X50819285Y-156983333D01*
X50705000Y-157045238D01*
X50647857Y-157107142D01*
X50590714Y-157230952D01*
X50590714Y-157540476D01*
X50647857Y-157664285D01*
X50705000Y-157726190D01*
X50819285Y-157788095D01*
X51162142Y-157788095D01*
X51276428Y-157726190D01*
X51333571Y-157664285D01*
D12*
X50000000Y-164000000D02*
X50000000Y-36000000D01*
X90000000Y-164000000D02*
X50000000Y-164000000D01*
X90000000Y-36000000D02*
X90000000Y-164000000D01*
X50000000Y-36000000D02*
X90000000Y-36000000D01*
D13*
X80000000Y-50000000D02*
X80000000Y-150000000D01*
X60000000Y-150000000D02*
X60000000Y-50000000D01*
D14*
X70809523Y-89842857D02*
X66809523Y-89842857D01*
X70809523Y-91557142D02*
X68523809Y-90271428D01*
X66809523Y-91557142D02*
X69095238Y-89842857D01*
X70809523Y-92842857D02*
X68142857Y-92842857D01*
X66809523Y-92842857D02*
X67000000Y-92700000D01*
X67190476Y-92842857D01*
X67000000Y-92985714D01*
X66809523Y-92842857D01*
X67190476Y-92842857D01*
X70619047Y-95557142D02*
X70809523Y-95271428D01*
X70809523Y-94700000D01*
X70619047Y-94414285D01*
X70428571Y-94271428D01*
X70047619Y-94128571D01*
X68904761Y-94128571D01*
X68523809Y-94271428D01*
X68333333Y-94414285D01*
X68142857Y-94700000D01*
X68142857Y-95271428D01*
X68333333Y-95557142D01*
X70809523Y-98128571D02*
X68714285Y-98128571D01*
X68333333Y-97985714D01*
X68142857Y-97700000D01*
X68142857Y-97128571D01*
X68333333Y-96842857D01*
X70619047Y-98128571D02*
X70809523Y-97842857D01*
X70809523Y-97128571D01*
X70619047Y-96842857D01*
X70238095Y-96700000D01*
X69857142Y-96700000D01*
X69476190Y-96842857D01*
X69285714Y-97128571D01*
X69285714Y-97842857D01*
X69095238Y-98128571D01*
X70809523Y-100842857D02*
X66809523Y-100842857D01*
X70619047Y-100842857D02*
X70809523Y-100557142D01*
X70809523Y-99985714D01*
X70619047Y-99700000D01*
X70428571Y-99557142D01*
X70047619Y-99414285D01*
X68904761Y-99414285D01*
X68523809Y-99557142D01*
X68333333Y-99700000D01*
X68142857Y-99985714D01*
X68142857Y-100557142D01*
X68333333Y-100842857D01*
X66809523Y-103128571D02*
X69666666Y-103128571D01*
X70238095Y-102985714D01*
X70619047Y-102700000D01*
X70809523Y-102271428D01*
X70809523Y-101985714D01*
X68714285Y-104557142D02*
X68714285Y-105557142D01*
X70809523Y-105985714D02*
X70809523Y-104557142D01*
X66809523Y-104557142D01*
X66809523Y-105985714D01*
X71190476Y-106557142D02*
X71190476Y-108842857D01*
X66809523Y-109271428D02*
X66809523Y-111128571D01*
X68333333Y-110128571D01*
X68333333Y-110557142D01*
X68523809Y-110842857D01*
X68714285Y-110985714D01*
X69095238Y-111128571D01*
X70047619Y-111128571D01*
X70428571Y-110985714D01*
X70619047Y-110842857D01*
X70809523Y-110557142D01*
X70809523Y-109700000D01*
X70619047Y-109414285D01*
X70428571Y-109271428D01*
X66809523Y-112128571D02*
X66809523Y-113985714D01*
X68333333Y-112985714D01*
X68333333Y-113414285D01*
X68523809Y-113700000D01*
X68714285Y-113842857D01*
X69095238Y-113985714D01*
X70047619Y-113985714D01*
X70428571Y-113842857D01*
X70619047Y-113700000D01*
X70809523Y-113414285D01*
X70809523Y-112557142D01*
X70619047Y-112271428D01*
X70428571Y-112128571D01*
X68142857Y-116557142D02*
X70809523Y-116557142D01*
X66619047Y-115842857D02*
X69476190Y-115128571D01*
X69476190Y-116985714D01*
X66809523Y-118700000D02*
X66809523Y-118985714D01*
X67000000Y-119271428D01*
X67190476Y-119414285D01*
X67571428Y-119557142D01*
X68333333Y-119700000D01*
X69285714Y-119700000D01*
X70047619Y-119557142D01*
X70428571Y-119414285D01*
X70619047Y-119271428D01*
X70809523Y-118985714D01*
X70809523Y-118700000D01*
X70619047Y-118414285D01*
X70428571Y-118271428D01*
X70047619Y-118128571D01*
X69285714Y-117985714D01*
X68333333Y-117985714D01*
X67571428Y-118128571D01*
X67190476Y-118271428D01*
X67000000Y-118414285D01*
X66809523Y-118700000D01*
X71190476Y-120271428D02*
X71190476Y-122557142D01*
X68714285Y-123271428D02*
X68714285Y-124271428D01*
X70809523Y-124700000D02*
X70809523Y-123271428D01*
X66809523Y-123271428D01*
X66809523Y-124700000D01*
X70809523Y-125700000D02*
X68142857Y-127271428D01*
X68142857Y-125700000D02*
X70809523Y-127271428D01*
X68142857Y-128414285D02*
X72142857Y-128414285D01*
X68333333Y-128414285D02*
X68142857Y-128700000D01*
X68142857Y-129271428D01*
X68333333Y-129557142D01*
X68523809Y-129700000D01*
X68904761Y-129842857D01*
X70047619Y-129842857D01*
X70428571Y-129700000D01*
X70619047Y-129557142D01*
X70809523Y-129271428D01*
X70809523Y-128700000D01*
X70619047Y-128414285D01*
X70619047Y-132271428D02*
X70809523Y-131985714D01*
X70809523Y-131414285D01*
X70619047Y-131128571D01*
X70238095Y-130985714D01*
X68714285Y-130985714D01*
X68333333Y-131128571D01*
X68142857Y-131414285D01*
X68142857Y-131985714D01*
X68333333Y-132271428D01*
X68714285Y-132414285D01*
X69095238Y-132414285D01*
X69476190Y-130985714D01*
X70809523Y-133700000D02*
X68142857Y-133700000D01*
X68904761Y-133700000D02*
X68523809Y-133842857D01*
X68333333Y-133985714D01*
X68142857Y-134271428D01*
X68142857Y-134557142D01*
X70809523Y-135557142D02*
X68142857Y-135557142D01*
X66809523Y-135557142D02*
X67000000Y-135414285D01*
X67190476Y-135557142D01*
X67000000Y-135700000D01*
X66809523Y-135557142D01*
X67190476Y-135557142D01*
X70809523Y-136985714D02*
X68142857Y-136985714D01*
X68523809Y-136985714D02*
X68333333Y-137128571D01*
X68142857Y-137414285D01*
X68142857Y-137842857D01*
X68333333Y-138128571D01*
X68714285Y-138271428D01*
X70809523Y-138271428D01*
X68714285Y-138271428D02*
X68333333Y-138414285D01*
X68142857Y-138700000D01*
X68142857Y-139128571D01*
X68333333Y-139414285D01*
X68714285Y-139557142D01*
X70809523Y-139557142D01*
X70619047Y-142128571D02*
X70809523Y-141842857D01*
X70809523Y-141271428D01*
X70619047Y-140985714D01*
X70238095Y-140842857D01*
X68714285Y-140842857D01*
X68333333Y-140985714D01*
X68142857Y-141271428D01*
X68142857Y-141842857D01*
X68333333Y-142128571D01*
X68714285Y-142271428D01*
X69095238Y-142271428D01*
X69476190Y-140842857D01*
X68142857Y-143557142D02*
X70809523Y-143557142D01*
X68523809Y-143557142D02*
X68333333Y-143700000D01*
X68142857Y-143985714D01*
X68142857Y-144414285D01*
X68333333Y-144700000D01*
X68714285Y-144842857D01*
X70809523Y-144842857D01*
X68142857Y-145842857D02*
X68142857Y-146985714D01*
X66809523Y-146271428D02*
X70238095Y-146271428D01*
X70619047Y-146414285D01*
X70809523Y-146700000D01*
X70809523Y-146985714D01*
D11*
X79719285Y-43138095D02*
X79719285Y-41838095D01*
X79033571Y-43138095D02*
X79547857Y-42395238D01*
X79033571Y-41838095D02*
X79719285Y-42580952D01*
X78519285Y-43138095D02*
X78519285Y-42271428D01*
X78519285Y-41838095D02*
X78576428Y-41900000D01*
X78519285Y-41961904D01*
X78462142Y-41900000D01*
X78519285Y-41838095D01*
X78519285Y-41961904D01*
X77433571Y-43076190D02*
X77547857Y-43138095D01*
X77776428Y-43138095D01*
X77890714Y-43076190D01*
X77947857Y-43014285D01*
X78005000Y-42890476D01*
X78005000Y-42519047D01*
X77947857Y-42395238D01*
X77890714Y-42333333D01*
X77776428Y-42271428D01*
X77547857Y-42271428D01*
X77433571Y-42333333D01*
X76405000Y-43138095D02*
X76405000Y-42457142D01*
X76462142Y-42333333D01*
X76576428Y-42271428D01*
X76805000Y-42271428D01*
X76919285Y-42333333D01*
X76405000Y-43076190D02*
X76519285Y-43138095D01*
X76805000Y-43138095D01*
X76919285Y-43076190D01*
X76976428Y-42952380D01*
X76976428Y-42828571D01*
X76919285Y-42704761D01*
X76805000Y-42642857D01*
X76519285Y-42642857D01*
X76405000Y-42580952D01*
X75319285Y-43138095D02*
X75319285Y-41838095D01*
X75319285Y-43076190D02*
X75433571Y-43138095D01*
X75662142Y-43138095D01*
X75776428Y-43076190D01*
X75833571Y-43014285D01*
X75890714Y-42890476D01*
X75890714Y-42519047D01*
X75833571Y-42395238D01*
X75776428Y-42333333D01*
X75662142Y-42271428D01*
X75433571Y-42271428D01*
X75319285Y-42333333D01*
X74405000Y-41838095D02*
X74405000Y-42766666D01*
X74462142Y-42952380D01*
X74576428Y-43076190D01*
X74747857Y-43138095D01*
X74862142Y-43138095D01*
X73833571Y-42457142D02*
X73433571Y-42457142D01*
X73262142Y-43138095D02*
X73833571Y-43138095D01*
X73833571Y-41838095D01*
X73262142Y-41838095D01*
X73033571Y-43261904D02*
X72119285Y-43261904D01*
X71947857Y-41838095D02*
X71205000Y-41838095D01*
X71605000Y-42333333D01*
X71433571Y-42333333D01*
X71319285Y-42395238D01*
X71262142Y-42457142D01*
X71205000Y-42580952D01*
X71205000Y-42890476D01*
X71262142Y-43014285D01*
X71319285Y-43076190D01*
X71433571Y-43138095D01*
X71776428Y-43138095D01*
X71890714Y-43076190D01*
X71947857Y-43014285D01*
X70805000Y-41838095D02*
X70062142Y-41838095D01*
X70462142Y-42333333D01*
X70290714Y-42333333D01*
X70176428Y-42395238D01*
X70119285Y-42457142D01*
X70062142Y-42580952D01*
X70062142Y-42890476D01*
X70119285Y-43014285D01*
X70176428Y-43076190D01*
X70290714Y-43138095D01*
X70633571Y-43138095D01*
X70747857Y-43076190D01*
X70805000Y-43014285D01*
X69033571Y-42271428D02*
X69033571Y-43138095D01*
X69319285Y-41776190D02*
X69605000Y-42704761D01*
X68862142Y-42704761D01*
X68176428Y-41838095D02*
X68062142Y-41838095D01*
X67947857Y-41900000D01*
X67890714Y-41961904D01*
X67833571Y-42085714D01*
X67776428Y-42333333D01*
X67776428Y-42642857D01*
X67833571Y-42890476D01*
X67890714Y-43014285D01*
X67947857Y-43076190D01*
X68062142Y-43138095D01*
X68176428Y-43138095D01*
X68290714Y-43076190D01*
X68347857Y-43014285D01*
X68405000Y-42890476D01*
X68462142Y-42642857D01*
X68462142Y-42333333D01*
X68405000Y-42085714D01*
X68347857Y-41961904D01*
X68290714Y-41900000D01*
X68176428Y-41838095D01*
X67547857Y-43261904D02*
X66633571Y-43261904D01*
X65662142Y-43138095D02*
X66062142Y-42519047D01*
X66347857Y-43138095D02*
X66347857Y-41838095D01*
X65890714Y-41838095D01*
X65776428Y-41900000D01*
X65719285Y-41961904D01*
X65662142Y-42085714D01*
X65662142Y-42271428D01*
X65719285Y-42395238D01*
X65776428Y-42457142D01*
X65890714Y-42519047D01*
X66347857Y-42519047D01*
X64690714Y-43076190D02*
X64805000Y-43138095D01*
X65033571Y-43138095D01*
X65147857Y-43076190D01*
X65205000Y-42952380D01*
X65205000Y-42457142D01*
X65147857Y-42333333D01*
X65033571Y-42271428D01*
X64805000Y-42271428D01*
X64690714Y-42333333D01*
X64633571Y-42457142D01*
X64633571Y-42580952D01*
X65205000Y-42704761D01*
X64233571Y-42271428D02*
X63947857Y-43138095D01*
X63662142Y-42271428D01*
X63262142Y-42766666D02*
X62690714Y-42766666D01*
X63376428Y-43138095D02*
X62976428Y-41838095D01*
X62576428Y-43138095D01*
X79033571Y-45388095D02*
X79433571Y-44769047D01*
X79719285Y-45388095D02*
X79719285Y-44088095D01*
X79262142Y-44088095D01*
X79147857Y-44150000D01*
X79090714Y-44211904D01*
X79033571Y-44335714D01*
X79033571Y-44521428D01*
X79090714Y-44645238D01*
X79147857Y-44707142D01*
X79262142Y-44769047D01*
X79719285Y-44769047D01*
X78062142Y-45326190D02*
X78176428Y-45388095D01*
X78405000Y-45388095D01*
X78519285Y-45326190D01*
X78576428Y-45202380D01*
X78576428Y-44707142D01*
X78519285Y-44583333D01*
X78405000Y-44521428D01*
X78176428Y-44521428D01*
X78062142Y-44583333D01*
X78005000Y-44707142D01*
X78005000Y-44830952D01*
X78576428Y-44954761D01*
X77605000Y-44521428D02*
X77319285Y-45388095D01*
X77033571Y-44521428D01*
X75719285Y-45016666D02*
X75147857Y-45016666D01*
X75833571Y-45388095D02*
X75433571Y-44088095D01*
X75033571Y-45388095D01*
X73719285Y-44892857D02*
X72805000Y-44892857D01*
X71090714Y-44088095D02*
X70976428Y-44088095D01*
X70862142Y-44150000D01*
X70805000Y-44211904D01*
X70747857Y-44335714D01*
X70690714Y-44583333D01*
X70690714Y-44892857D01*
X70747857Y-45140476D01*
X70805000Y-45264285D01*
X70862142Y-45326190D01*
X70976428Y-45388095D01*
X71090714Y-45388095D01*
X71205000Y-45326190D01*
X71262142Y-45264285D01*
X71319285Y-45140476D01*
X71376428Y-44892857D01*
X71376428Y-44583333D01*
X71319285Y-44335714D01*
X71262142Y-44211904D01*
X71205000Y-44150000D01*
X71090714Y-44088095D01*
X70290714Y-44088095D02*
X69490714Y-44088095D01*
X70005000Y-45388095D01*
X68176428Y-44026190D02*
X69205000Y-45697619D01*
X67547857Y-44088095D02*
X67433571Y-44088095D01*
X67319285Y-44150000D01*
X67262142Y-44211904D01*
X67205000Y-44335714D01*
X67147857Y-44583333D01*
X67147857Y-44892857D01*
X67205000Y-45140476D01*
X67262142Y-45264285D01*
X67319285Y-45326190D01*
X67433571Y-45388095D01*
X67547857Y-45388095D01*
X67662142Y-45326190D01*
X67719285Y-45264285D01*
X67776428Y-45140476D01*
X67833571Y-44892857D01*
X67833571Y-44583333D01*
X67776428Y-44335714D01*
X67719285Y-44211904D01*
X67662142Y-44150000D01*
X67547857Y-44088095D01*
X66747857Y-44088095D02*
X66005000Y-44088095D01*
X66405000Y-44583333D01*
X66233571Y-44583333D01*
X66119285Y-44645238D01*
X66062142Y-44707142D01*
X66005000Y-44830952D01*
X66005000Y-45140476D01*
X66062142Y-45264285D01*
X66119285Y-45326190D01*
X66233571Y-45388095D01*
X66576428Y-45388095D01*
X66690714Y-45326190D01*
X66747857Y-45264285D01*
X65490714Y-44892857D02*
X64576428Y-44892857D01*
X64062142Y-44211904D02*
X64005000Y-44150000D01*
X63890714Y-44088095D01*
X63605000Y-44088095D01*
X63490714Y-44150000D01*
X63433571Y-44211904D01*
X63376428Y-44335714D01*
X63376428Y-44459523D01*
X63433571Y-44645238D01*
X64119285Y-45388095D01*
X63376428Y-45388095D01*
X62633571Y-44088095D02*
X62519285Y-44088095D01*
X62405000Y-44150000D01*
X62347857Y-44211904D01*
X62290714Y-44335714D01*
X62233571Y-44583333D01*
X62233571Y-44892857D01*
X62290714Y-45140476D01*
X62347857Y-45264285D01*
X62405000Y-45326190D01*
X62519285Y-45388095D01*
X62633571Y-45388095D01*
X62747857Y-45326190D01*
X62805000Y-45264285D01*
X62862142Y-45140476D01*
X62919285Y-44892857D01*
X62919285Y-44583333D01*
X62862142Y-44335714D01*
X62805000Y-44211904D01*
X62747857Y-44150000D01*
X62633571Y-44088095D01*
X61776428Y-44211904D02*
X61719285Y-44150000D01*
X61605000Y-44088095D01*
X61319285Y-44088095D01*
X61205000Y-44150000D01*
X61147857Y-44211904D01*
X61090714Y-44335714D01*
X61090714Y-44459523D01*
X61147857Y-44645238D01*
X61833571Y-45388095D01*
X61090714Y-45388095D01*
X60347857Y-44088095D02*
X60233571Y-44088095D01*
X60119285Y-44150000D01*
X60062142Y-44211904D01*
X60005000Y-44335714D01*
X59947857Y-44583333D01*
X59947857Y-44892857D01*
X60005000Y-45140476D01*
X60062142Y-45264285D01*
X60119285Y-45326190D01*
X60233571Y-45388095D01*
X60347857Y-45388095D01*
X60462142Y-45326190D01*
X60519285Y-45264285D01*
X60576428Y-45140476D01*
X60633571Y-44892857D01*
X60633571Y-44583333D01*
X60576428Y-44335714D01*
X60519285Y-44211904D01*
X60462142Y-44150000D01*
X60347857Y-44088095D01*
X79376428Y-46338095D02*
X79376428Y-47266666D01*
X79433571Y-47452380D01*
X79547857Y-47576190D01*
X79719285Y-47638095D01*
X79833571Y-47638095D01*
X78633571Y-47638095D02*
X78747857Y-47576190D01*
X78805000Y-47514285D01*
X78862142Y-47390476D01*
X78862142Y-47019047D01*
X78805000Y-46895238D01*
X78747857Y-46833333D01*
X78633571Y-46771428D01*
X78462142Y-46771428D01*
X78347857Y-46833333D01*
X78290714Y-46895238D01*
X78233571Y-47019047D01*
X78233571Y-47390476D01*
X78290714Y-47514285D01*
X78347857Y-47576190D01*
X78462142Y-47638095D01*
X78633571Y-47638095D01*
X77719285Y-47638095D02*
X77719285Y-46338095D01*
X77205000Y-47638095D02*
X77205000Y-46957142D01*
X77262142Y-46833333D01*
X77376428Y-46771428D01*
X77547857Y-46771428D01*
X77662142Y-46833333D01*
X77719285Y-46895238D01*
X76119285Y-47638095D02*
X76119285Y-46957142D01*
X76176428Y-46833333D01*
X76290714Y-46771428D01*
X76519285Y-46771428D01*
X76633571Y-46833333D01*
X76119285Y-47576190D02*
X76233571Y-47638095D01*
X76519285Y-47638095D01*
X76633571Y-47576190D01*
X76690714Y-47452380D01*
X76690714Y-47328571D01*
X76633571Y-47204761D01*
X76519285Y-47142857D01*
X76233571Y-47142857D01*
X76119285Y-47080952D01*
X75547857Y-46771428D02*
X75547857Y-47638095D01*
X75547857Y-46895238D02*
X75490714Y-46833333D01*
X75376428Y-46771428D01*
X75205000Y-46771428D01*
X75090714Y-46833333D01*
X75033571Y-46957142D01*
X75033571Y-47638095D01*
X74519285Y-47576190D02*
X74405000Y-47638095D01*
X74176428Y-47638095D01*
X74062142Y-47576190D01*
X74005000Y-47452380D01*
X74005000Y-47390476D01*
X74062142Y-47266666D01*
X74176428Y-47204761D01*
X74347857Y-47204761D01*
X74462142Y-47142857D01*
X74519285Y-47019047D01*
X74519285Y-46957142D01*
X74462142Y-46833333D01*
X74347857Y-46771428D01*
X74176428Y-46771428D01*
X74062142Y-46833333D01*
X73033571Y-47576190D02*
X73147857Y-47638095D01*
X73376428Y-47638095D01*
X73490714Y-47576190D01*
X73547857Y-47452380D01*
X73547857Y-46957142D01*
X73490714Y-46833333D01*
X73376428Y-46771428D01*
X73147857Y-46771428D01*
X73033571Y-46833333D01*
X72976428Y-46957142D01*
X72976428Y-47080952D01*
X73547857Y-47204761D01*
X72462142Y-46771428D02*
X72462142Y-47638095D01*
X72462142Y-46895238D02*
X72405000Y-46833333D01*
X72290714Y-46771428D01*
X72119285Y-46771428D01*
X72005000Y-46833333D01*
X71947857Y-46957142D01*
X71947857Y-47638095D01*
X70462142Y-46957142D02*
X70062142Y-46957142D01*
X69890714Y-47638095D02*
X70462142Y-47638095D01*
X70462142Y-46338095D01*
X69890714Y-46338095D01*
X69376428Y-46771428D02*
X69376428Y-47638095D01*
X69376428Y-46895238D02*
X69319285Y-46833333D01*
X69205000Y-46771428D01*
X69033571Y-46771428D01*
X68919285Y-46833333D01*
X68862142Y-46957142D01*
X68862142Y-47638095D01*
X67776428Y-46771428D02*
X67776428Y-47823809D01*
X67833571Y-47947619D01*
X67890714Y-48009523D01*
X68005000Y-48071428D01*
X68176428Y-48071428D01*
X68290714Y-48009523D01*
X67776428Y-47576190D02*
X67890714Y-47638095D01*
X68119285Y-47638095D01*
X68233571Y-47576190D01*
X68290714Y-47514285D01*
X68347857Y-47390476D01*
X68347857Y-47019047D01*
X68290714Y-46895238D01*
X68233571Y-46833333D01*
X68119285Y-46771428D01*
X67890714Y-46771428D01*
X67776428Y-46833333D01*
X67205000Y-47638095D02*
X67205000Y-46771428D01*
X67205000Y-46338095D02*
X67262142Y-46400000D01*
X67205000Y-46461904D01*
X67147857Y-46400000D01*
X67205000Y-46338095D01*
X67205000Y-46461904D01*
X66633571Y-46771428D02*
X66633571Y-47638095D01*
X66633571Y-46895238D02*
X66576428Y-46833333D01*
X66462142Y-46771428D01*
X66290714Y-46771428D01*
X66176428Y-46833333D01*
X66119285Y-46957142D01*
X66119285Y-47638095D01*
X65090714Y-47576190D02*
X65205000Y-47638095D01*
X65433571Y-47638095D01*
X65547857Y-47576190D01*
X65605000Y-47452380D01*
X65605000Y-46957142D01*
X65547857Y-46833333D01*
X65433571Y-46771428D01*
X65205000Y-46771428D01*
X65090714Y-46833333D01*
X65033571Y-46957142D01*
X65033571Y-47080952D01*
X65605000Y-47204761D01*
X64062142Y-47576190D02*
X64176428Y-47638095D01*
X64405000Y-47638095D01*
X64519285Y-47576190D01*
X64576428Y-47452380D01*
X64576428Y-46957142D01*
X64519285Y-46833333D01*
X64405000Y-46771428D01*
X64176428Y-46771428D01*
X64062142Y-46833333D01*
X64005000Y-46957142D01*
X64005000Y-47080952D01*
X64576428Y-47204761D01*
X63490714Y-47638095D02*
X63490714Y-46771428D01*
X63490714Y-47019047D02*
X63433571Y-46895238D01*
X63376428Y-46833333D01*
X63262142Y-46771428D01*
X63147857Y-46771428D01*
X62747857Y-47638095D02*
X62747857Y-46771428D01*
X62747857Y-46338095D02*
X62805000Y-46400000D01*
X62747857Y-46461904D01*
X62690714Y-46400000D01*
X62747857Y-46338095D01*
X62747857Y-46461904D01*
X62176428Y-46771428D02*
X62176428Y-47638095D01*
X62176428Y-46895238D02*
X62119285Y-46833333D01*
X62005000Y-46771428D01*
X61833571Y-46771428D01*
X61719285Y-46833333D01*
X61662142Y-46957142D01*
X61662142Y-47638095D01*
X60576428Y-46771428D02*
X60576428Y-47823809D01*
X60633571Y-47947619D01*
X60690714Y-48009523D01*
X60805000Y-48071428D01*
X60976428Y-48071428D01*
X61090714Y-48009523D01*
X60576428Y-47576190D02*
X60690714Y-47638095D01*
X60919285Y-47638095D01*
X61033571Y-47576190D01*
X61090714Y-47514285D01*
X61147857Y-47390476D01*
X61147857Y-47019047D01*
X61090714Y-46895238D01*
X61033571Y-46833333D01*
X60919285Y-46771428D01*
X60690714Y-46771428D01*
X60576428Y-46833333D01*
M02*
