%TF.GenerationSoftware,KiCad,Pcbnew,(5.1.0)-1*%
%TF.CreationDate,2020-03-08T21:47:15+01:00*%
%TF.ProjectId,KicadJE_AC3340_RevA _PCB,4b696361-644a-4455-9f41-43333334305f,rev?*%
%TF.SameCoordinates,Original*%
%TF.FileFunction,Paste,Top*%
%TF.FilePolarity,Positive*%
%FSLAX46Y46*%
G04 Gerber Fmt 4.6, Leading zero omitted, Abs format (unit mm)*
G04 Created by KiCad (PCBNEW (5.1.0)-1) date 2020-03-08 21:47:15*
%MOMM*%
%LPD*%
G04 APERTURE LIST*
%ADD10C,0.050000*%
%ADD11C,0.150000*%
%ADD12C,1.425000*%
%ADD13C,1.150000*%
%ADD14R,0.900000X1.200000*%
G04 APERTURE END LIST*
D10*
X50000000Y-150000000D02*
X50000000Y-50000000D01*
X90000000Y-150000000D02*
X50000000Y-150000000D01*
X90000000Y-50000000D02*
X90000000Y-150000000D01*
X50000000Y-50000000D02*
X90000000Y-50000000D01*
D11*
G36*
X65249504Y-57626204D02*
G01*
X65273773Y-57629804D01*
X65297571Y-57635765D01*
X65320671Y-57644030D01*
X65342849Y-57654520D01*
X65363893Y-57667133D01*
X65383598Y-57681747D01*
X65401777Y-57698223D01*
X65418253Y-57716402D01*
X65432867Y-57736107D01*
X65445480Y-57757151D01*
X65455970Y-57779329D01*
X65464235Y-57802429D01*
X65470196Y-57826227D01*
X65473796Y-57850496D01*
X65475000Y-57875000D01*
X65475000Y-59125000D01*
X65473796Y-59149504D01*
X65470196Y-59173773D01*
X65464235Y-59197571D01*
X65455970Y-59220671D01*
X65445480Y-59242849D01*
X65432867Y-59263893D01*
X65418253Y-59283598D01*
X65401777Y-59301777D01*
X65383598Y-59318253D01*
X65363893Y-59332867D01*
X65342849Y-59345480D01*
X65320671Y-59355970D01*
X65297571Y-59364235D01*
X65273773Y-59370196D01*
X65249504Y-59373796D01*
X65225000Y-59375000D01*
X64300000Y-59375000D01*
X64275496Y-59373796D01*
X64251227Y-59370196D01*
X64227429Y-59364235D01*
X64204329Y-59355970D01*
X64182151Y-59345480D01*
X64161107Y-59332867D01*
X64141402Y-59318253D01*
X64123223Y-59301777D01*
X64106747Y-59283598D01*
X64092133Y-59263893D01*
X64079520Y-59242849D01*
X64069030Y-59220671D01*
X64060765Y-59197571D01*
X64054804Y-59173773D01*
X64051204Y-59149504D01*
X64050000Y-59125000D01*
X64050000Y-57875000D01*
X64051204Y-57850496D01*
X64054804Y-57826227D01*
X64060765Y-57802429D01*
X64069030Y-57779329D01*
X64079520Y-57757151D01*
X64092133Y-57736107D01*
X64106747Y-57716402D01*
X64123223Y-57698223D01*
X64141402Y-57681747D01*
X64161107Y-57667133D01*
X64182151Y-57654520D01*
X64204329Y-57644030D01*
X64227429Y-57635765D01*
X64251227Y-57629804D01*
X64275496Y-57626204D01*
X64300000Y-57625000D01*
X65225000Y-57625000D01*
X65249504Y-57626204D01*
X65249504Y-57626204D01*
G37*
D12*
X64762500Y-58500000D03*
D11*
G36*
X68224504Y-57626204D02*
G01*
X68248773Y-57629804D01*
X68272571Y-57635765D01*
X68295671Y-57644030D01*
X68317849Y-57654520D01*
X68338893Y-57667133D01*
X68358598Y-57681747D01*
X68376777Y-57698223D01*
X68393253Y-57716402D01*
X68407867Y-57736107D01*
X68420480Y-57757151D01*
X68430970Y-57779329D01*
X68439235Y-57802429D01*
X68445196Y-57826227D01*
X68448796Y-57850496D01*
X68450000Y-57875000D01*
X68450000Y-59125000D01*
X68448796Y-59149504D01*
X68445196Y-59173773D01*
X68439235Y-59197571D01*
X68430970Y-59220671D01*
X68420480Y-59242849D01*
X68407867Y-59263893D01*
X68393253Y-59283598D01*
X68376777Y-59301777D01*
X68358598Y-59318253D01*
X68338893Y-59332867D01*
X68317849Y-59345480D01*
X68295671Y-59355970D01*
X68272571Y-59364235D01*
X68248773Y-59370196D01*
X68224504Y-59373796D01*
X68200000Y-59375000D01*
X67275000Y-59375000D01*
X67250496Y-59373796D01*
X67226227Y-59370196D01*
X67202429Y-59364235D01*
X67179329Y-59355970D01*
X67157151Y-59345480D01*
X67136107Y-59332867D01*
X67116402Y-59318253D01*
X67098223Y-59301777D01*
X67081747Y-59283598D01*
X67067133Y-59263893D01*
X67054520Y-59242849D01*
X67044030Y-59220671D01*
X67035765Y-59197571D01*
X67029804Y-59173773D01*
X67026204Y-59149504D01*
X67025000Y-59125000D01*
X67025000Y-57875000D01*
X67026204Y-57850496D01*
X67029804Y-57826227D01*
X67035765Y-57802429D01*
X67044030Y-57779329D01*
X67054520Y-57757151D01*
X67067133Y-57736107D01*
X67081747Y-57716402D01*
X67098223Y-57698223D01*
X67116402Y-57681747D01*
X67136107Y-57667133D01*
X67157151Y-57654520D01*
X67179329Y-57644030D01*
X67202429Y-57635765D01*
X67226227Y-57629804D01*
X67250496Y-57626204D01*
X67275000Y-57625000D01*
X68200000Y-57625000D01*
X68224504Y-57626204D01*
X68224504Y-57626204D01*
G37*
D12*
X67737500Y-58500000D03*
D11*
G36*
X75474504Y-57626204D02*
G01*
X75498773Y-57629804D01*
X75522571Y-57635765D01*
X75545671Y-57644030D01*
X75567849Y-57654520D01*
X75588893Y-57667133D01*
X75608598Y-57681747D01*
X75626777Y-57698223D01*
X75643253Y-57716402D01*
X75657867Y-57736107D01*
X75670480Y-57757151D01*
X75680970Y-57779329D01*
X75689235Y-57802429D01*
X75695196Y-57826227D01*
X75698796Y-57850496D01*
X75700000Y-57875000D01*
X75700000Y-59125000D01*
X75698796Y-59149504D01*
X75695196Y-59173773D01*
X75689235Y-59197571D01*
X75680970Y-59220671D01*
X75670480Y-59242849D01*
X75657867Y-59263893D01*
X75643253Y-59283598D01*
X75626777Y-59301777D01*
X75608598Y-59318253D01*
X75588893Y-59332867D01*
X75567849Y-59345480D01*
X75545671Y-59355970D01*
X75522571Y-59364235D01*
X75498773Y-59370196D01*
X75474504Y-59373796D01*
X75450000Y-59375000D01*
X74525000Y-59375000D01*
X74500496Y-59373796D01*
X74476227Y-59370196D01*
X74452429Y-59364235D01*
X74429329Y-59355970D01*
X74407151Y-59345480D01*
X74386107Y-59332867D01*
X74366402Y-59318253D01*
X74348223Y-59301777D01*
X74331747Y-59283598D01*
X74317133Y-59263893D01*
X74304520Y-59242849D01*
X74294030Y-59220671D01*
X74285765Y-59197571D01*
X74279804Y-59173773D01*
X74276204Y-59149504D01*
X74275000Y-59125000D01*
X74275000Y-57875000D01*
X74276204Y-57850496D01*
X74279804Y-57826227D01*
X74285765Y-57802429D01*
X74294030Y-57779329D01*
X74304520Y-57757151D01*
X74317133Y-57736107D01*
X74331747Y-57716402D01*
X74348223Y-57698223D01*
X74366402Y-57681747D01*
X74386107Y-57667133D01*
X74407151Y-57654520D01*
X74429329Y-57644030D01*
X74452429Y-57635765D01*
X74476227Y-57629804D01*
X74500496Y-57626204D01*
X74525000Y-57625000D01*
X75450000Y-57625000D01*
X75474504Y-57626204D01*
X75474504Y-57626204D01*
G37*
D12*
X74987500Y-58500000D03*
D11*
G36*
X72499504Y-57626204D02*
G01*
X72523773Y-57629804D01*
X72547571Y-57635765D01*
X72570671Y-57644030D01*
X72592849Y-57654520D01*
X72613893Y-57667133D01*
X72633598Y-57681747D01*
X72651777Y-57698223D01*
X72668253Y-57716402D01*
X72682867Y-57736107D01*
X72695480Y-57757151D01*
X72705970Y-57779329D01*
X72714235Y-57802429D01*
X72720196Y-57826227D01*
X72723796Y-57850496D01*
X72725000Y-57875000D01*
X72725000Y-59125000D01*
X72723796Y-59149504D01*
X72720196Y-59173773D01*
X72714235Y-59197571D01*
X72705970Y-59220671D01*
X72695480Y-59242849D01*
X72682867Y-59263893D01*
X72668253Y-59283598D01*
X72651777Y-59301777D01*
X72633598Y-59318253D01*
X72613893Y-59332867D01*
X72592849Y-59345480D01*
X72570671Y-59355970D01*
X72547571Y-59364235D01*
X72523773Y-59370196D01*
X72499504Y-59373796D01*
X72475000Y-59375000D01*
X71550000Y-59375000D01*
X71525496Y-59373796D01*
X71501227Y-59370196D01*
X71477429Y-59364235D01*
X71454329Y-59355970D01*
X71432151Y-59345480D01*
X71411107Y-59332867D01*
X71391402Y-59318253D01*
X71373223Y-59301777D01*
X71356747Y-59283598D01*
X71342133Y-59263893D01*
X71329520Y-59242849D01*
X71319030Y-59220671D01*
X71310765Y-59197571D01*
X71304804Y-59173773D01*
X71301204Y-59149504D01*
X71300000Y-59125000D01*
X71300000Y-57875000D01*
X71301204Y-57850496D01*
X71304804Y-57826227D01*
X71310765Y-57802429D01*
X71319030Y-57779329D01*
X71329520Y-57757151D01*
X71342133Y-57736107D01*
X71356747Y-57716402D01*
X71373223Y-57698223D01*
X71391402Y-57681747D01*
X71411107Y-57667133D01*
X71432151Y-57654520D01*
X71454329Y-57644030D01*
X71477429Y-57635765D01*
X71501227Y-57629804D01*
X71525496Y-57626204D01*
X71550000Y-57625000D01*
X72475000Y-57625000D01*
X72499504Y-57626204D01*
X72499504Y-57626204D01*
G37*
D12*
X72012500Y-58500000D03*
D11*
G36*
X69824505Y-95301204D02*
G01*
X69848773Y-95304804D01*
X69872572Y-95310765D01*
X69895671Y-95319030D01*
X69917850Y-95329520D01*
X69938893Y-95342132D01*
X69958599Y-95356747D01*
X69976777Y-95373223D01*
X69993253Y-95391401D01*
X70007868Y-95411107D01*
X70020480Y-95432150D01*
X70030970Y-95454329D01*
X70039235Y-95477428D01*
X70045196Y-95501227D01*
X70048796Y-95525495D01*
X70050000Y-95549999D01*
X70050000Y-96450001D01*
X70048796Y-96474505D01*
X70045196Y-96498773D01*
X70039235Y-96522572D01*
X70030970Y-96545671D01*
X70020480Y-96567850D01*
X70007868Y-96588893D01*
X69993253Y-96608599D01*
X69976777Y-96626777D01*
X69958599Y-96643253D01*
X69938893Y-96657868D01*
X69917850Y-96670480D01*
X69895671Y-96680970D01*
X69872572Y-96689235D01*
X69848773Y-96695196D01*
X69824505Y-96698796D01*
X69800001Y-96700000D01*
X69149999Y-96700000D01*
X69125495Y-96698796D01*
X69101227Y-96695196D01*
X69077428Y-96689235D01*
X69054329Y-96680970D01*
X69032150Y-96670480D01*
X69011107Y-96657868D01*
X68991401Y-96643253D01*
X68973223Y-96626777D01*
X68956747Y-96608599D01*
X68942132Y-96588893D01*
X68929520Y-96567850D01*
X68919030Y-96545671D01*
X68910765Y-96522572D01*
X68904804Y-96498773D01*
X68901204Y-96474505D01*
X68900000Y-96450001D01*
X68900000Y-95549999D01*
X68901204Y-95525495D01*
X68904804Y-95501227D01*
X68910765Y-95477428D01*
X68919030Y-95454329D01*
X68929520Y-95432150D01*
X68942132Y-95411107D01*
X68956747Y-95391401D01*
X68973223Y-95373223D01*
X68991401Y-95356747D01*
X69011107Y-95342132D01*
X69032150Y-95329520D01*
X69054329Y-95319030D01*
X69077428Y-95310765D01*
X69101227Y-95304804D01*
X69125495Y-95301204D01*
X69149999Y-95300000D01*
X69800001Y-95300000D01*
X69824505Y-95301204D01*
X69824505Y-95301204D01*
G37*
D13*
X69475000Y-96000000D03*
D11*
G36*
X71874505Y-95301204D02*
G01*
X71898773Y-95304804D01*
X71922572Y-95310765D01*
X71945671Y-95319030D01*
X71967850Y-95329520D01*
X71988893Y-95342132D01*
X72008599Y-95356747D01*
X72026777Y-95373223D01*
X72043253Y-95391401D01*
X72057868Y-95411107D01*
X72070480Y-95432150D01*
X72080970Y-95454329D01*
X72089235Y-95477428D01*
X72095196Y-95501227D01*
X72098796Y-95525495D01*
X72100000Y-95549999D01*
X72100000Y-96450001D01*
X72098796Y-96474505D01*
X72095196Y-96498773D01*
X72089235Y-96522572D01*
X72080970Y-96545671D01*
X72070480Y-96567850D01*
X72057868Y-96588893D01*
X72043253Y-96608599D01*
X72026777Y-96626777D01*
X72008599Y-96643253D01*
X71988893Y-96657868D01*
X71967850Y-96670480D01*
X71945671Y-96680970D01*
X71922572Y-96689235D01*
X71898773Y-96695196D01*
X71874505Y-96698796D01*
X71850001Y-96700000D01*
X71199999Y-96700000D01*
X71175495Y-96698796D01*
X71151227Y-96695196D01*
X71127428Y-96689235D01*
X71104329Y-96680970D01*
X71082150Y-96670480D01*
X71061107Y-96657868D01*
X71041401Y-96643253D01*
X71023223Y-96626777D01*
X71006747Y-96608599D01*
X70992132Y-96588893D01*
X70979520Y-96567850D01*
X70969030Y-96545671D01*
X70960765Y-96522572D01*
X70954804Y-96498773D01*
X70951204Y-96474505D01*
X70950000Y-96450001D01*
X70950000Y-95549999D01*
X70951204Y-95525495D01*
X70954804Y-95501227D01*
X70960765Y-95477428D01*
X70969030Y-95454329D01*
X70979520Y-95432150D01*
X70992132Y-95411107D01*
X71006747Y-95391401D01*
X71023223Y-95373223D01*
X71041401Y-95356747D01*
X71061107Y-95342132D01*
X71082150Y-95329520D01*
X71104329Y-95319030D01*
X71127428Y-95310765D01*
X71151227Y-95304804D01*
X71175495Y-95301204D01*
X71199999Y-95300000D01*
X71850001Y-95300000D01*
X71874505Y-95301204D01*
X71874505Y-95301204D01*
G37*
D13*
X71525000Y-96000000D03*
D11*
G36*
X69849505Y-92801204D02*
G01*
X69873773Y-92804804D01*
X69897572Y-92810765D01*
X69920671Y-92819030D01*
X69942850Y-92829520D01*
X69963893Y-92842132D01*
X69983599Y-92856747D01*
X70001777Y-92873223D01*
X70018253Y-92891401D01*
X70032868Y-92911107D01*
X70045480Y-92932150D01*
X70055970Y-92954329D01*
X70064235Y-92977428D01*
X70070196Y-93001227D01*
X70073796Y-93025495D01*
X70075000Y-93049999D01*
X70075000Y-93950001D01*
X70073796Y-93974505D01*
X70070196Y-93998773D01*
X70064235Y-94022572D01*
X70055970Y-94045671D01*
X70045480Y-94067850D01*
X70032868Y-94088893D01*
X70018253Y-94108599D01*
X70001777Y-94126777D01*
X69983599Y-94143253D01*
X69963893Y-94157868D01*
X69942850Y-94170480D01*
X69920671Y-94180970D01*
X69897572Y-94189235D01*
X69873773Y-94195196D01*
X69849505Y-94198796D01*
X69825001Y-94200000D01*
X69174999Y-94200000D01*
X69150495Y-94198796D01*
X69126227Y-94195196D01*
X69102428Y-94189235D01*
X69079329Y-94180970D01*
X69057150Y-94170480D01*
X69036107Y-94157868D01*
X69016401Y-94143253D01*
X68998223Y-94126777D01*
X68981747Y-94108599D01*
X68967132Y-94088893D01*
X68954520Y-94067850D01*
X68944030Y-94045671D01*
X68935765Y-94022572D01*
X68929804Y-93998773D01*
X68926204Y-93974505D01*
X68925000Y-93950001D01*
X68925000Y-93049999D01*
X68926204Y-93025495D01*
X68929804Y-93001227D01*
X68935765Y-92977428D01*
X68944030Y-92954329D01*
X68954520Y-92932150D01*
X68967132Y-92911107D01*
X68981747Y-92891401D01*
X68998223Y-92873223D01*
X69016401Y-92856747D01*
X69036107Y-92842132D01*
X69057150Y-92829520D01*
X69079329Y-92819030D01*
X69102428Y-92810765D01*
X69126227Y-92804804D01*
X69150495Y-92801204D01*
X69174999Y-92800000D01*
X69825001Y-92800000D01*
X69849505Y-92801204D01*
X69849505Y-92801204D01*
G37*
D13*
X69500000Y-93500000D03*
D11*
G36*
X71899505Y-92801204D02*
G01*
X71923773Y-92804804D01*
X71947572Y-92810765D01*
X71970671Y-92819030D01*
X71992850Y-92829520D01*
X72013893Y-92842132D01*
X72033599Y-92856747D01*
X72051777Y-92873223D01*
X72068253Y-92891401D01*
X72082868Y-92911107D01*
X72095480Y-92932150D01*
X72105970Y-92954329D01*
X72114235Y-92977428D01*
X72120196Y-93001227D01*
X72123796Y-93025495D01*
X72125000Y-93049999D01*
X72125000Y-93950001D01*
X72123796Y-93974505D01*
X72120196Y-93998773D01*
X72114235Y-94022572D01*
X72105970Y-94045671D01*
X72095480Y-94067850D01*
X72082868Y-94088893D01*
X72068253Y-94108599D01*
X72051777Y-94126777D01*
X72033599Y-94143253D01*
X72013893Y-94157868D01*
X71992850Y-94170480D01*
X71970671Y-94180970D01*
X71947572Y-94189235D01*
X71923773Y-94195196D01*
X71899505Y-94198796D01*
X71875001Y-94200000D01*
X71224999Y-94200000D01*
X71200495Y-94198796D01*
X71176227Y-94195196D01*
X71152428Y-94189235D01*
X71129329Y-94180970D01*
X71107150Y-94170480D01*
X71086107Y-94157868D01*
X71066401Y-94143253D01*
X71048223Y-94126777D01*
X71031747Y-94108599D01*
X71017132Y-94088893D01*
X71004520Y-94067850D01*
X70994030Y-94045671D01*
X70985765Y-94022572D01*
X70979804Y-93998773D01*
X70976204Y-93974505D01*
X70975000Y-93950001D01*
X70975000Y-93049999D01*
X70976204Y-93025495D01*
X70979804Y-93001227D01*
X70985765Y-92977428D01*
X70994030Y-92954329D01*
X71004520Y-92932150D01*
X71017132Y-92911107D01*
X71031747Y-92891401D01*
X71048223Y-92873223D01*
X71066401Y-92856747D01*
X71086107Y-92842132D01*
X71107150Y-92829520D01*
X71129329Y-92819030D01*
X71152428Y-92810765D01*
X71176227Y-92804804D01*
X71200495Y-92801204D01*
X71224999Y-92800000D01*
X71875001Y-92800000D01*
X71899505Y-92801204D01*
X71899505Y-92801204D01*
G37*
D13*
X71550000Y-93500000D03*
D11*
G36*
X72899505Y-119801204D02*
G01*
X72923773Y-119804804D01*
X72947572Y-119810765D01*
X72970671Y-119819030D01*
X72992850Y-119829520D01*
X73013893Y-119842132D01*
X73033599Y-119856747D01*
X73051777Y-119873223D01*
X73068253Y-119891401D01*
X73082868Y-119911107D01*
X73095480Y-119932150D01*
X73105970Y-119954329D01*
X73114235Y-119977428D01*
X73120196Y-120001227D01*
X73123796Y-120025495D01*
X73125000Y-120049999D01*
X73125000Y-120950001D01*
X73123796Y-120974505D01*
X73120196Y-120998773D01*
X73114235Y-121022572D01*
X73105970Y-121045671D01*
X73095480Y-121067850D01*
X73082868Y-121088893D01*
X73068253Y-121108599D01*
X73051777Y-121126777D01*
X73033599Y-121143253D01*
X73013893Y-121157868D01*
X72992850Y-121170480D01*
X72970671Y-121180970D01*
X72947572Y-121189235D01*
X72923773Y-121195196D01*
X72899505Y-121198796D01*
X72875001Y-121200000D01*
X72224999Y-121200000D01*
X72200495Y-121198796D01*
X72176227Y-121195196D01*
X72152428Y-121189235D01*
X72129329Y-121180970D01*
X72107150Y-121170480D01*
X72086107Y-121157868D01*
X72066401Y-121143253D01*
X72048223Y-121126777D01*
X72031747Y-121108599D01*
X72017132Y-121088893D01*
X72004520Y-121067850D01*
X71994030Y-121045671D01*
X71985765Y-121022572D01*
X71979804Y-120998773D01*
X71976204Y-120974505D01*
X71975000Y-120950001D01*
X71975000Y-120049999D01*
X71976204Y-120025495D01*
X71979804Y-120001227D01*
X71985765Y-119977428D01*
X71994030Y-119954329D01*
X72004520Y-119932150D01*
X72017132Y-119911107D01*
X72031747Y-119891401D01*
X72048223Y-119873223D01*
X72066401Y-119856747D01*
X72086107Y-119842132D01*
X72107150Y-119829520D01*
X72129329Y-119819030D01*
X72152428Y-119810765D01*
X72176227Y-119804804D01*
X72200495Y-119801204D01*
X72224999Y-119800000D01*
X72875001Y-119800000D01*
X72899505Y-119801204D01*
X72899505Y-119801204D01*
G37*
D13*
X72550000Y-120500000D03*
D11*
G36*
X70849505Y-119801204D02*
G01*
X70873773Y-119804804D01*
X70897572Y-119810765D01*
X70920671Y-119819030D01*
X70942850Y-119829520D01*
X70963893Y-119842132D01*
X70983599Y-119856747D01*
X71001777Y-119873223D01*
X71018253Y-119891401D01*
X71032868Y-119911107D01*
X71045480Y-119932150D01*
X71055970Y-119954329D01*
X71064235Y-119977428D01*
X71070196Y-120001227D01*
X71073796Y-120025495D01*
X71075000Y-120049999D01*
X71075000Y-120950001D01*
X71073796Y-120974505D01*
X71070196Y-120998773D01*
X71064235Y-121022572D01*
X71055970Y-121045671D01*
X71045480Y-121067850D01*
X71032868Y-121088893D01*
X71018253Y-121108599D01*
X71001777Y-121126777D01*
X70983599Y-121143253D01*
X70963893Y-121157868D01*
X70942850Y-121170480D01*
X70920671Y-121180970D01*
X70897572Y-121189235D01*
X70873773Y-121195196D01*
X70849505Y-121198796D01*
X70825001Y-121200000D01*
X70174999Y-121200000D01*
X70150495Y-121198796D01*
X70126227Y-121195196D01*
X70102428Y-121189235D01*
X70079329Y-121180970D01*
X70057150Y-121170480D01*
X70036107Y-121157868D01*
X70016401Y-121143253D01*
X69998223Y-121126777D01*
X69981747Y-121108599D01*
X69967132Y-121088893D01*
X69954520Y-121067850D01*
X69944030Y-121045671D01*
X69935765Y-121022572D01*
X69929804Y-120998773D01*
X69926204Y-120974505D01*
X69925000Y-120950001D01*
X69925000Y-120049999D01*
X69926204Y-120025495D01*
X69929804Y-120001227D01*
X69935765Y-119977428D01*
X69944030Y-119954329D01*
X69954520Y-119932150D01*
X69967132Y-119911107D01*
X69981747Y-119891401D01*
X69998223Y-119873223D01*
X70016401Y-119856747D01*
X70036107Y-119842132D01*
X70057150Y-119829520D01*
X70079329Y-119819030D01*
X70102428Y-119810765D01*
X70126227Y-119804804D01*
X70150495Y-119801204D01*
X70174999Y-119800000D01*
X70825001Y-119800000D01*
X70849505Y-119801204D01*
X70849505Y-119801204D01*
G37*
D13*
X70500000Y-120500000D03*
D11*
G36*
X66599505Y-119801204D02*
G01*
X66623773Y-119804804D01*
X66647572Y-119810765D01*
X66670671Y-119819030D01*
X66692850Y-119829520D01*
X66713893Y-119842132D01*
X66733599Y-119856747D01*
X66751777Y-119873223D01*
X66768253Y-119891401D01*
X66782868Y-119911107D01*
X66795480Y-119932150D01*
X66805970Y-119954329D01*
X66814235Y-119977428D01*
X66820196Y-120001227D01*
X66823796Y-120025495D01*
X66825000Y-120049999D01*
X66825000Y-120950001D01*
X66823796Y-120974505D01*
X66820196Y-120998773D01*
X66814235Y-121022572D01*
X66805970Y-121045671D01*
X66795480Y-121067850D01*
X66782868Y-121088893D01*
X66768253Y-121108599D01*
X66751777Y-121126777D01*
X66733599Y-121143253D01*
X66713893Y-121157868D01*
X66692850Y-121170480D01*
X66670671Y-121180970D01*
X66647572Y-121189235D01*
X66623773Y-121195196D01*
X66599505Y-121198796D01*
X66575001Y-121200000D01*
X65924999Y-121200000D01*
X65900495Y-121198796D01*
X65876227Y-121195196D01*
X65852428Y-121189235D01*
X65829329Y-121180970D01*
X65807150Y-121170480D01*
X65786107Y-121157868D01*
X65766401Y-121143253D01*
X65748223Y-121126777D01*
X65731747Y-121108599D01*
X65717132Y-121088893D01*
X65704520Y-121067850D01*
X65694030Y-121045671D01*
X65685765Y-121022572D01*
X65679804Y-120998773D01*
X65676204Y-120974505D01*
X65675000Y-120950001D01*
X65675000Y-120049999D01*
X65676204Y-120025495D01*
X65679804Y-120001227D01*
X65685765Y-119977428D01*
X65694030Y-119954329D01*
X65704520Y-119932150D01*
X65717132Y-119911107D01*
X65731747Y-119891401D01*
X65748223Y-119873223D01*
X65766401Y-119856747D01*
X65786107Y-119842132D01*
X65807150Y-119829520D01*
X65829329Y-119819030D01*
X65852428Y-119810765D01*
X65876227Y-119804804D01*
X65900495Y-119801204D01*
X65924999Y-119800000D01*
X66575001Y-119800000D01*
X66599505Y-119801204D01*
X66599505Y-119801204D01*
G37*
D13*
X66250000Y-120500000D03*
D11*
G36*
X68649505Y-119801204D02*
G01*
X68673773Y-119804804D01*
X68697572Y-119810765D01*
X68720671Y-119819030D01*
X68742850Y-119829520D01*
X68763893Y-119842132D01*
X68783599Y-119856747D01*
X68801777Y-119873223D01*
X68818253Y-119891401D01*
X68832868Y-119911107D01*
X68845480Y-119932150D01*
X68855970Y-119954329D01*
X68864235Y-119977428D01*
X68870196Y-120001227D01*
X68873796Y-120025495D01*
X68875000Y-120049999D01*
X68875000Y-120950001D01*
X68873796Y-120974505D01*
X68870196Y-120998773D01*
X68864235Y-121022572D01*
X68855970Y-121045671D01*
X68845480Y-121067850D01*
X68832868Y-121088893D01*
X68818253Y-121108599D01*
X68801777Y-121126777D01*
X68783599Y-121143253D01*
X68763893Y-121157868D01*
X68742850Y-121170480D01*
X68720671Y-121180970D01*
X68697572Y-121189235D01*
X68673773Y-121195196D01*
X68649505Y-121198796D01*
X68625001Y-121200000D01*
X67974999Y-121200000D01*
X67950495Y-121198796D01*
X67926227Y-121195196D01*
X67902428Y-121189235D01*
X67879329Y-121180970D01*
X67857150Y-121170480D01*
X67836107Y-121157868D01*
X67816401Y-121143253D01*
X67798223Y-121126777D01*
X67781747Y-121108599D01*
X67767132Y-121088893D01*
X67754520Y-121067850D01*
X67744030Y-121045671D01*
X67735765Y-121022572D01*
X67729804Y-120998773D01*
X67726204Y-120974505D01*
X67725000Y-120950001D01*
X67725000Y-120049999D01*
X67726204Y-120025495D01*
X67729804Y-120001227D01*
X67735765Y-119977428D01*
X67744030Y-119954329D01*
X67754520Y-119932150D01*
X67767132Y-119911107D01*
X67781747Y-119891401D01*
X67798223Y-119873223D01*
X67816401Y-119856747D01*
X67836107Y-119842132D01*
X67857150Y-119829520D01*
X67879329Y-119819030D01*
X67902428Y-119810765D01*
X67926227Y-119804804D01*
X67950495Y-119801204D01*
X67974999Y-119800000D01*
X68625001Y-119800000D01*
X68649505Y-119801204D01*
X68649505Y-119801204D01*
G37*
D13*
X68300000Y-120500000D03*
D14*
X65850000Y-110500000D03*
X69150000Y-110500000D03*
X65100000Y-108250000D03*
X68400000Y-108250000D03*
X63150000Y-51000000D03*
X59850000Y-51000000D03*
X79650000Y-51250000D03*
X76350000Y-51250000D03*
D11*
G36*
X71124505Y-50301204D02*
G01*
X71148773Y-50304804D01*
X71172572Y-50310765D01*
X71195671Y-50319030D01*
X71217850Y-50329520D01*
X71238893Y-50342132D01*
X71258599Y-50356747D01*
X71276777Y-50373223D01*
X71293253Y-50391401D01*
X71307868Y-50411107D01*
X71320480Y-50432150D01*
X71330970Y-50454329D01*
X71339235Y-50477428D01*
X71345196Y-50501227D01*
X71348796Y-50525495D01*
X71350000Y-50549999D01*
X71350000Y-51450001D01*
X71348796Y-51474505D01*
X71345196Y-51498773D01*
X71339235Y-51522572D01*
X71330970Y-51545671D01*
X71320480Y-51567850D01*
X71307868Y-51588893D01*
X71293253Y-51608599D01*
X71276777Y-51626777D01*
X71258599Y-51643253D01*
X71238893Y-51657868D01*
X71217850Y-51670480D01*
X71195671Y-51680970D01*
X71172572Y-51689235D01*
X71148773Y-51695196D01*
X71124505Y-51698796D01*
X71100001Y-51700000D01*
X70449999Y-51700000D01*
X70425495Y-51698796D01*
X70401227Y-51695196D01*
X70377428Y-51689235D01*
X70354329Y-51680970D01*
X70332150Y-51670480D01*
X70311107Y-51657868D01*
X70291401Y-51643253D01*
X70273223Y-51626777D01*
X70256747Y-51608599D01*
X70242132Y-51588893D01*
X70229520Y-51567850D01*
X70219030Y-51545671D01*
X70210765Y-51522572D01*
X70204804Y-51498773D01*
X70201204Y-51474505D01*
X70200000Y-51450001D01*
X70200000Y-50549999D01*
X70201204Y-50525495D01*
X70204804Y-50501227D01*
X70210765Y-50477428D01*
X70219030Y-50454329D01*
X70229520Y-50432150D01*
X70242132Y-50411107D01*
X70256747Y-50391401D01*
X70273223Y-50373223D01*
X70291401Y-50356747D01*
X70311107Y-50342132D01*
X70332150Y-50329520D01*
X70354329Y-50319030D01*
X70377428Y-50310765D01*
X70401227Y-50304804D01*
X70425495Y-50301204D01*
X70449999Y-50300000D01*
X71100001Y-50300000D01*
X71124505Y-50301204D01*
X71124505Y-50301204D01*
G37*
D13*
X70775000Y-51000000D03*
D11*
G36*
X69074505Y-50301204D02*
G01*
X69098773Y-50304804D01*
X69122572Y-50310765D01*
X69145671Y-50319030D01*
X69167850Y-50329520D01*
X69188893Y-50342132D01*
X69208599Y-50356747D01*
X69226777Y-50373223D01*
X69243253Y-50391401D01*
X69257868Y-50411107D01*
X69270480Y-50432150D01*
X69280970Y-50454329D01*
X69289235Y-50477428D01*
X69295196Y-50501227D01*
X69298796Y-50525495D01*
X69300000Y-50549999D01*
X69300000Y-51450001D01*
X69298796Y-51474505D01*
X69295196Y-51498773D01*
X69289235Y-51522572D01*
X69280970Y-51545671D01*
X69270480Y-51567850D01*
X69257868Y-51588893D01*
X69243253Y-51608599D01*
X69226777Y-51626777D01*
X69208599Y-51643253D01*
X69188893Y-51657868D01*
X69167850Y-51670480D01*
X69145671Y-51680970D01*
X69122572Y-51689235D01*
X69098773Y-51695196D01*
X69074505Y-51698796D01*
X69050001Y-51700000D01*
X68399999Y-51700000D01*
X68375495Y-51698796D01*
X68351227Y-51695196D01*
X68327428Y-51689235D01*
X68304329Y-51680970D01*
X68282150Y-51670480D01*
X68261107Y-51657868D01*
X68241401Y-51643253D01*
X68223223Y-51626777D01*
X68206747Y-51608599D01*
X68192132Y-51588893D01*
X68179520Y-51567850D01*
X68169030Y-51545671D01*
X68160765Y-51522572D01*
X68154804Y-51498773D01*
X68151204Y-51474505D01*
X68150000Y-51450001D01*
X68150000Y-50549999D01*
X68151204Y-50525495D01*
X68154804Y-50501227D01*
X68160765Y-50477428D01*
X68169030Y-50454329D01*
X68179520Y-50432150D01*
X68192132Y-50411107D01*
X68206747Y-50391401D01*
X68223223Y-50373223D01*
X68241401Y-50356747D01*
X68261107Y-50342132D01*
X68282150Y-50329520D01*
X68304329Y-50319030D01*
X68327428Y-50310765D01*
X68351227Y-50304804D01*
X68375495Y-50301204D01*
X68399999Y-50300000D01*
X69050001Y-50300000D01*
X69074505Y-50301204D01*
X69074505Y-50301204D01*
G37*
D13*
X68725000Y-51000000D03*
D11*
G36*
X65324505Y-50301204D02*
G01*
X65348773Y-50304804D01*
X65372572Y-50310765D01*
X65395671Y-50319030D01*
X65417850Y-50329520D01*
X65438893Y-50342132D01*
X65458599Y-50356747D01*
X65476777Y-50373223D01*
X65493253Y-50391401D01*
X65507868Y-50411107D01*
X65520480Y-50432150D01*
X65530970Y-50454329D01*
X65539235Y-50477428D01*
X65545196Y-50501227D01*
X65548796Y-50525495D01*
X65550000Y-50549999D01*
X65550000Y-51450001D01*
X65548796Y-51474505D01*
X65545196Y-51498773D01*
X65539235Y-51522572D01*
X65530970Y-51545671D01*
X65520480Y-51567850D01*
X65507868Y-51588893D01*
X65493253Y-51608599D01*
X65476777Y-51626777D01*
X65458599Y-51643253D01*
X65438893Y-51657868D01*
X65417850Y-51670480D01*
X65395671Y-51680970D01*
X65372572Y-51689235D01*
X65348773Y-51695196D01*
X65324505Y-51698796D01*
X65300001Y-51700000D01*
X64649999Y-51700000D01*
X64625495Y-51698796D01*
X64601227Y-51695196D01*
X64577428Y-51689235D01*
X64554329Y-51680970D01*
X64532150Y-51670480D01*
X64511107Y-51657868D01*
X64491401Y-51643253D01*
X64473223Y-51626777D01*
X64456747Y-51608599D01*
X64442132Y-51588893D01*
X64429520Y-51567850D01*
X64419030Y-51545671D01*
X64410765Y-51522572D01*
X64404804Y-51498773D01*
X64401204Y-51474505D01*
X64400000Y-51450001D01*
X64400000Y-50549999D01*
X64401204Y-50525495D01*
X64404804Y-50501227D01*
X64410765Y-50477428D01*
X64419030Y-50454329D01*
X64429520Y-50432150D01*
X64442132Y-50411107D01*
X64456747Y-50391401D01*
X64473223Y-50373223D01*
X64491401Y-50356747D01*
X64511107Y-50342132D01*
X64532150Y-50329520D01*
X64554329Y-50319030D01*
X64577428Y-50310765D01*
X64601227Y-50304804D01*
X64625495Y-50301204D01*
X64649999Y-50300000D01*
X65300001Y-50300000D01*
X65324505Y-50301204D01*
X65324505Y-50301204D01*
G37*
D13*
X64975000Y-51000000D03*
D11*
G36*
X67374505Y-50301204D02*
G01*
X67398773Y-50304804D01*
X67422572Y-50310765D01*
X67445671Y-50319030D01*
X67467850Y-50329520D01*
X67488893Y-50342132D01*
X67508599Y-50356747D01*
X67526777Y-50373223D01*
X67543253Y-50391401D01*
X67557868Y-50411107D01*
X67570480Y-50432150D01*
X67580970Y-50454329D01*
X67589235Y-50477428D01*
X67595196Y-50501227D01*
X67598796Y-50525495D01*
X67600000Y-50549999D01*
X67600000Y-51450001D01*
X67598796Y-51474505D01*
X67595196Y-51498773D01*
X67589235Y-51522572D01*
X67580970Y-51545671D01*
X67570480Y-51567850D01*
X67557868Y-51588893D01*
X67543253Y-51608599D01*
X67526777Y-51626777D01*
X67508599Y-51643253D01*
X67488893Y-51657868D01*
X67467850Y-51670480D01*
X67445671Y-51680970D01*
X67422572Y-51689235D01*
X67398773Y-51695196D01*
X67374505Y-51698796D01*
X67350001Y-51700000D01*
X66699999Y-51700000D01*
X66675495Y-51698796D01*
X66651227Y-51695196D01*
X66627428Y-51689235D01*
X66604329Y-51680970D01*
X66582150Y-51670480D01*
X66561107Y-51657868D01*
X66541401Y-51643253D01*
X66523223Y-51626777D01*
X66506747Y-51608599D01*
X66492132Y-51588893D01*
X66479520Y-51567850D01*
X66469030Y-51545671D01*
X66460765Y-51522572D01*
X66454804Y-51498773D01*
X66451204Y-51474505D01*
X66450000Y-51450001D01*
X66450000Y-50549999D01*
X66451204Y-50525495D01*
X66454804Y-50501227D01*
X66460765Y-50477428D01*
X66469030Y-50454329D01*
X66479520Y-50432150D01*
X66492132Y-50411107D01*
X66506747Y-50391401D01*
X66523223Y-50373223D01*
X66541401Y-50356747D01*
X66561107Y-50342132D01*
X66582150Y-50329520D01*
X66604329Y-50319030D01*
X66627428Y-50310765D01*
X66651227Y-50304804D01*
X66675495Y-50301204D01*
X66699999Y-50300000D01*
X67350001Y-50300000D01*
X67374505Y-50301204D01*
X67374505Y-50301204D01*
G37*
D13*
X67025000Y-51000000D03*
M02*
