M48
; DRILL file {KiCad (5.1.0)-1} date 08/03/2020 21:47:21
; FORMAT={-:-/ absolute / metric / decimal}
; #@! TF.CreationDate,2020-03-08T21:47:21+01:00
; #@! TF.GenerationSoftware,Kicad,Pcbnew,(5.1.0)-1
; #@! TF.FileFunction,Plated,1,2,PTH
FMAT,2
METRIC
T1C0.400
T2C0.500
T3C0.600
T4C0.800
T5C0.900
T6C1.000
T7C1.016
%
G90
G05
T1
X50.575Y-82.0
X50.75Y-132.5
X50.75Y-147.0
X50.975Y-100.025
X51.0Y-126.75
X51.625Y-119.98
X51.8Y-122.5
X52.0Y-52.0
X52.0Y-115.8
X52.125Y-81.3
X52.3Y-148.5
X52.5Y-80.0
X52.966Y-81.425
X53.542Y-103.742
X53.6Y-132.5
X54.0Y-57.5
X54.5Y-72.0
X54.5Y-70.5
X54.75Y-107.5
X55.0Y-80.0
X55.0Y-83.0
X55.0Y-91.0
X55.0Y-100.0
X55.0Y-138.0
X55.0Y-143.0
X55.8Y-70.55
X55.8Y-72.2
X56.25Y-113.0
X57.5Y-148.5
X57.8Y-70.5
X57.8Y-72.1
X59.0Y-76.0
X59.0Y-100.0
X59.0Y-138.0
X59.0Y-143.0
X59.5Y-108.5
X60.0Y-67.0
X60.0Y-125.0
X60.1Y-127.9
X60.5Y-129.477
X61.0Y-57.5
X61.095Y-120.155
X61.1Y-148.7
X61.75Y-52.25
X62.0Y-71.25
X63.0Y-138.0
X63.0Y-143.0
X63.28Y-119.72
X63.554Y-91.586
X64.142Y-80.204
X64.3Y-120.5
X64.5Y-91.675
X64.841Y-92.575
X65.5Y-107.1
X65.85Y-109.35
X65.944Y-87.211
X66.0Y-100.0
X67.25Y-89.5
X67.633Y-95.367
X67.762Y-123.988
X67.8Y-73.25
X68.0Y-122.0
X68.198Y-131.202
X68.22Y-124.72
X68.25Y-111.5
X68.308Y-92.5
X68.5Y-96.5
X68.75Y-71.0
X69.4Y-124.566
X69.466Y-104.762
X70.0Y-100.0
X70.6Y-84.1
X71.0Y-110.0
X71.33Y-130.47
X71.6Y-112.9
X71.6Y-114.1
X72.2Y-117.4
X72.364Y-126.401
X72.953Y-93.343
X73.0Y-87.0
X73.0Y-89.5
X74.4Y-64.9
X74.468Y-112.9
X74.5Y-130.25
X74.621Y-111.934
X74.825Y-122.4
X75.4Y-132.3
X75.75Y-127.5
X76.0Y-94.0
X76.0Y-120.0
X77.35Y-71.5
X77.739Y-88.636
X77.84Y-80.75
X77.9Y-87.6
X78.16Y-73.803
X78.7Y-122.9
X80.0Y-65.0
X80.0Y-85.0
X80.0Y-92.0
X80.664Y-136.625
X80.8Y-134.3
X81.575Y-90.927
X82.4Y-132.7
X82.475Y-115.081
X83.1Y-91.0
X83.9Y-71.7
X84.0Y-94.0
X84.0Y-100.0
X84.0Y-106.0
X84.5Y-61.0
X84.75Y-62.5
X85.591Y-59.709
X86.0Y-52.25
X86.975Y-116.25
X87.5Y-75.5
X87.5Y-83.0
X87.7Y-71.7
X88.125Y-116.25
X88.222Y-148.5
X88.6Y-123.0
X88.6Y-126.5
X88.6Y-133.6
X88.6Y-136.4
X88.972Y-149.172
X89.3Y-137.4
X89.4Y-122.2
T4
X69.75Y-142.5
X69.75Y-145.04
X69.75Y-147.58
X74.84Y-73.22
X74.84Y-75.76
X74.84Y-78.3
X74.84Y-80.84
X74.84Y-83.38
X74.84Y-85.92
X74.84Y-88.46
X74.84Y-91.0
X85.0Y-73.22
X85.0Y-75.76
X85.0Y-78.3
X85.0Y-80.84
X85.0Y-83.38
X85.0Y-85.92
X85.0Y-88.46
X85.0Y-91.0
X87.0Y-97.42
X87.0Y-99.96
X87.0Y-102.5
X67.0Y-78.25
X72.0Y-78.25
T5
X76.0Y-65.0
X83.62Y-65.0
T6
X67.25Y-62.5
X67.25Y-65.0
X67.25Y-67.5
X72.25Y-62.5
X72.25Y-65.0
X72.25Y-67.5
T7
X64.84Y-53.46
X64.84Y-56.0
X67.38Y-53.46
X67.38Y-56.0
X69.92Y-53.46
X69.92Y-56.0
X72.46Y-53.46
X72.46Y-56.0
X75.0Y-53.46
X75.0Y-56.0
T2
G00X54.83Y-135.8
M15
G01X54.83Y-134.2
M16
G05
G00X84.67Y-144.2
M15
G01X84.67Y-145.8
M16
G05
G00X54.83Y-85.8
M15
G01X54.83Y-84.2
M16
G05
G00X84.67Y-124.2
M15
G01X84.67Y-125.8
M16
G05
G00X54.83Y-125.8
M15
G01X54.83Y-124.2
M16
G05
G00X54.83Y-105.8
M15
G01X54.83Y-104.2
M16
G05
G00X54.83Y-95.8
M15
G01X54.83Y-94.2
M16
G05
G00X84.67Y-114.2
M15
G01X84.67Y-115.8
M16
G05
G00X84.67Y-134.2
M15
G01X84.67Y-135.8
M16
G05
G00X54.83Y-145.8
M15
G01X54.83Y-144.2
M16
G05
G00X54.83Y-115.8
M15
G01X54.83Y-114.2
M16
G05
T3
G00X73.27Y-114.6
M15
G01X73.27Y-115.4
M16
G05
G00X76.37Y-114.3
M15
G01X76.37Y-115.7
M16
G05
G00X73.27Y-134.6
M15
G01X73.27Y-135.4
M16
G05
G00X76.37Y-134.3
M15
G01X76.37Y-135.7
M16
G05
G00X63.13Y-145.7
M15
G01X63.13Y-144.3
M16
G05
G00X66.23Y-145.4
M15
G01X66.23Y-144.6
M16
G05
G00X63.13Y-115.7
M15
G01X63.13Y-114.3
M16
G05
G00X66.23Y-115.4
M15
G01X66.23Y-114.6
M16
G05
G00X63.13Y-135.7
M15
G01X63.13Y-134.3
M16
G05
G00X66.23Y-135.4
M15
G01X66.23Y-134.6
M16
G05
G00X73.27Y-144.6
M15
G01X73.27Y-145.4
M16
G05
G00X76.37Y-144.3
M15
G01X76.37Y-145.7
M16
G05
G00X63.13Y-85.7
M15
G01X63.13Y-84.3
M16
G05
G00X66.23Y-85.4
M15
G01X66.23Y-84.6
M16
G05
G00X73.27Y-124.6
M15
G01X73.27Y-125.4
M16
G05
G00X76.37Y-124.3
M15
G01X76.37Y-125.7
M16
G05
G00X63.13Y-125.7
M15
G01X63.13Y-124.3
M16
G05
G00X66.23Y-125.4
M15
G01X66.23Y-124.6
M16
G05
G00X63.13Y-105.7
M15
G01X63.13Y-104.3
M16
G05
G00X66.23Y-105.4
M15
G01X66.23Y-104.6
M16
G05
G00X63.13Y-95.7
M15
G01X63.13Y-94.3
M16
G05
G00X66.23Y-95.4
M15
G01X66.23Y-94.6
M16
G05
T6
G00X79.1Y-95.3
M15
G01X80.4Y-95.3
M16
G05
G00X79.1Y-100.0
M15
G01X80.4Y-100.0
M16
G05
G00X79.1Y-104.7
M15
G01X80.4Y-104.7
M16
G05
T0
M30
